<svg width="231" height="50" viewBox="0 0 231 50" fill="none" xmlns="http://www.w3.org/2000/svg">
<path d="M112.764 13.479L106.066 49.2417H107.615L114.312 13.479H112.764Z" fill="#0079C1"/>
<path d="M84.4347 14.5829H81.7464C79.4727 14.5829 79.339 16.4042 79.339 17.5808V28.3519C79.339 29.5285 79.4727 31.3498 81.7464 31.3498H84.4347C86.7083 31.3498 86.8474 29.5285 86.8474 28.3519V17.5808C86.8474 16.4042 86.7083 14.5829 84.4347 14.5829ZM83.0919 29.2765C82.6946 29.2765 82.3696 28.9793 82.3696 28.6106C82.3696 28.6026 82.375 28.5946 82.375 28.5854V17.2996L82.3777 17.2518C82.4025 17.0837 82.4886 16.9305 82.6198 16.8212C82.7509 16.7119 82.918 16.6542 83.0892 16.6589C83.4597 16.6589 83.7673 16.9215 83.8034 17.2518L83.8087 17.2996V28.5867L83.8101 28.6132C83.8101 28.9807 83.4864 29.2778 83.0932 29.2778M33.8257 14.5829H40.0195V16.6655H37.0717V31.3498H33.8257V14.5829ZM44.0933 25.0503L44.6524 16.6629H44.8356L45.392 25.0503H44.0933ZM40.5009 31.3511H43.6747L43.9783 26.8941H45.5097L45.8106 31.3511H48.9897L47.2938 14.5843H42.1941L40.5009 31.3511ZM53.6373 25.4801V28.6358C53.6373 29.0669 53.9583 29.1889 54.1456 29.1889C54.4465 29.1889 54.6551 28.9236 54.6551 28.6358V24.7359C54.6551 24.2106 54.5642 23.6376 53.3538 23.6376H52.0377V21.7924H53.4019C54.3288 21.7924 54.6551 21.5735 54.6551 20.5508V17.2134C54.6551 16.9282 54.4465 16.6655 54.1469 16.6655C53.957 16.6655 53.6386 16.7849 53.6386 17.2134V19.9486H50.3887V17.5782C50.3887 16.4042 50.5304 14.5829 52.8001 14.5829H55.4923C57.766 14.5829 57.9038 16.4042 57.9038 17.5782V20.263C57.9038 22.0789 56.6733 22.5817 55.6983 22.5339V22.7037C57.8784 22.6507 57.9051 24.3777 57.9051 24.9787V28.3519C57.9051 29.5285 57.766 31.3498 55.4923 31.3498H52.8001C50.5304 31.3498 50.3887 29.5285 50.3887 28.3519V25.4787L53.6373 25.4801ZM60.0397 14.5829H67.5534V31.3498H64.5241V16.6655H63.0663V31.3498H60.0397V14.5829ZM73.1493 23.802V16.6655H74.0039C74.3557 16.6655 74.6111 16.9773 74.6111 17.5012V22.9664C74.6111 23.4943 74.3557 23.802 74.0039 23.802H73.1493ZM69.906 31.3498H73.1506V25.6498H75.0057C77.2793 25.6498 77.6404 23.8312 77.6404 22.652V17.5781C77.6404 16.4042 77.2793 14.5803 75.0057 14.5803H69.906V31.3498ZM97.2099 14.5829H101.432V31.3498H98.1836V20.8347H98.0672L96.3954 31.3498H93.8008L92.1303 20.8347H92.0166V31.3498H88.768V14.5829H92.9849L95.0927 26.3661L97.2099 14.5829ZM27.1974 8.7278C26.1729 4.27079 23.5983 0.648148 23.2466 0.0578613C22.6848 0.889575 20.6359 4.08641 19.5927 7.6361C18.5515 11.1809 18.2409 14.8973 18.6792 18.5637C19.0711 22.0192 20.5449 25.5676 20.5449 25.5676C21.3273 27.4326 22.5003 29.4264 23.264 30.4066C24.3807 28.9647 26.958 24.6629 27.7578 19.0439C28.2031 15.92 28.2205 13.1808 27.196 8.7278M23.2466 29.2977C22.7437 28.3559 21.9573 26.5651 21.8824 23.7967C21.8637 21.1146 22.947 18.8197 23.264 18.3395C23.5475 18.8197 24.4744 20.8188 24.5867 23.5527C24.6403 25.5492 24.179 27.5262 23.2466 29.2964M26.9018 16.2875C26.8617 17.988 26.6584 19.7814 26.3976 20.8506C26.4912 19.0068 26.2665 16.4002 25.8359 14.364C25.4106 12.3279 24.1948 8.93339 23.2265 7.35886C22.3358 8.85513 21.2324 11.7946 20.656 14.3481C20.0755 16.899 20.0581 19.9857 20.0581 20.9143C19.9043 20.1277 19.5191 17.35 19.6301 14.5524C19.7211 12.243 20.2641 9.87388 20.5623 8.78086C21.6992 5.13964 22.9871 2.81164 23.2265 2.44023C23.4673 2.81164 25.0922 5.67686 25.9322 8.688C26.6058 11.1649 26.9321 13.7222 26.9018 16.2875Z" fill="#0079C1"/>
<path d="M16.9505 31.3471V36.6172C16.9585 36.6106 16.9639 36.604 16.9759 36.596C17.8694 35.7143 19.0785 35.2193 20.3389 35.2193C21.5993 35.2193 22.8084 35.7143 23.7019 36.596C24.1461 37.0331 24.4982 37.5535 24.7377 38.1268C24.9773 38.7001 25.0996 39.3149 25.0975 39.9355C25.0954 40.5561 24.9689 41.1701 24.7254 41.7418C24.4819 42.3135 24.1263 42.8314 23.6792 43.2656V43.2669C21.8929 45.0321 19.4734 46.022 16.9518 46.0194C14.4337 46.021 12.0175 45.0326 10.2325 43.2709C9.35056 42.4007 8.65069 41.3661 8.17313 40.2268C7.69556 39.0874 7.44972 37.8657 7.44972 36.6318C7.44972 35.3979 7.69556 34.1762 8.17313 33.0369C8.65069 31.8975 9.35056 30.863 10.2325 29.9927C11.1156 29.1193 12.1635 28.427 13.3165 27.9554C14.4694 27.4838 15.7047 27.2422 16.9518 27.2442V14.6731C7.60712 14.6731 0.0224609 22.1598 0.0224609 31.3882C0.0224609 40.6245 7.60577 48.1113 16.9518 48.1113C19.2669 48.1146 21.5579 47.6463 23.683 46.7354C25.8081 45.8246 27.7219 44.4905 29.3058 42.8159V31.3471H16.9505ZM68.7323 40.5755H68.4689V43.9673H68.7323C69.1135 43.9673 69.2513 43.8599 69.2513 43.4327V41.0915C69.2513 40.663 69.1135 40.5741 68.7323 40.5741M96.1874 42.8424H95.8062V44.742H96.1874C96.5712 44.742 96.6876 44.6451 96.6876 44.2299V43.3531C96.6876 42.9366 96.5712 42.8424 96.1874 42.8424ZM66.0093 41.1114V43.442C66.0093 43.8691 66.1471 43.9673 66.5256 43.9673H66.8024V40.5755H66.5256C66.1471 40.5755 66.0093 40.6842 66.0093 41.1114ZM101.434 36.9329H33.8264V48.1113H101.434V36.9329ZM41.1663 46.0287H39.4517V42.8424H38.5716V46.0287H36.857V38.7489H38.5716V41.5584H39.4517V38.7489H41.1663V46.0287ZM55.3793 40.1245H53.0348V41.5557H55.1332V42.9353H53.0334V44.6518H55.3793V46.034H51.2666V38.7422H55.3793L55.3793 40.1245ZM70.9137 43.4327C70.9137 44.9104 70.1567 45.3084 68.4689 45.3084V46.0287H66.8024V45.3084C65.1092 45.3084 64.3415 44.9104 64.3415 43.4327V41.1578C64.3415 39.6721 65.0771 39.2941 66.8024 39.2941V38.7489H68.4689V39.2927C70.1808 39.2927 70.9137 39.6721 70.9137 41.1578V43.4327ZM84.0996 40.1245H82.8009V46.034H81.1692V40.1245H79.7783V38.7423H84.0982L84.0996 40.1245ZM98.3995 44.1517C98.3995 45.7435 97.668 46.0287 95.8049 46.0287H94.0916V38.7489H95.8062V41.5584H96.0924C97.7763 41.5584 98.3995 41.9484 98.3995 43.4022L98.3995 44.1517Z" fill="#0079C1"/>
<path d="M132.47 19.7595H128.593V28.0945H126.675V18.0224H132.47V19.7595Z" fill="#0079C1"/>
<path d="M132.057 28.0945L135.345 18.0224H137.18L140.468 28.0945H138.427L137.852 26.1822H134.687L134.112 28.0945H132.057ZM135.194 24.4598H137.331L136.262 20.9126L135.194 24.4598Z" fill="#0079C1"/>
<path d="M143.565 22.0086H144.592C145.14 22.0086 145.524 21.8919 145.757 21.6729C145.871 21.5595 145.96 21.4213 146.019 21.2676C146.078 21.1139 146.106 20.9484 146.099 20.7825C146.105 20.6257 146.08 20.4694 146.026 20.3236C145.971 20.1778 145.889 20.0457 145.784 19.9358C145.579 19.7169 145.209 19.6001 144.688 19.6001C144.181 19.6001 143.798 19.7169 143.551 19.9504C143.298 20.1845 143.108 20.4871 143.003 20.8263H141.318C141.347 20.4045 141.461 19.9944 141.653 19.6241C141.844 19.2537 142.108 18.9318 142.428 18.6805C142.743 18.4323 143.085 18.2426 143.482 18.0966C144.299 17.8376 145.168 17.8274 145.99 18.0674C146.362 18.1646 146.715 18.3327 147.031 18.5637C147.338 18.7903 147.589 19.0937 147.761 19.4474C147.933 19.8011 148.021 20.1944 148.017 20.5927C148.033 21.0558 147.918 21.5133 147.688 21.9065C147.454 22.2722 147.145 22.5766 146.784 22.7969C147.229 22.9837 147.614 23.3029 147.894 23.7165C148.187 24.1486 148.336 24.6726 148.318 25.2054C148.324 25.6335 148.24 26.0575 148.072 26.4462C147.915 26.8183 147.675 27.1439 147.373 27.395C147.04 27.6754 146.658 27.8837 146.25 28.0081C145.761 28.1616 145.253 28.2355 144.743 28.2271C143.865 28.2687 142.997 28.0132 142.263 27.4972C141.582 26.926 141.139 26.0923 141.03 25.1762H142.866C142.996 25.5687 143.224 25.9166 143.524 26.1834C143.866 26.4177 144.269 26.5302 144.674 26.5046C145.825 26.5046 146.401 26.0375 146.401 25.1179C146.401 24.1982 145.784 23.7311 144.565 23.7311H143.565V22.0086Z" fill="#0079C1"/>
<path d="M157.292 18.0224V28.0945H155.374V19.7595H151.949V28.0945H150.031V18.0224H157.292Z" fill="#0079C1"/>
<path d="M161.402 24.5476V28.0947H159.484V18.0226H162.868C163.964 18.0226 164.814 18.2854 165.444 18.8255C166.088 19.3656 166.403 20.1684 166.403 21.2486C166.403 22.3142 166.088 23.1463 165.457 23.701C164.718 24.3068 163.799 24.6076 162.868 24.5476H161.402ZM162.594 22.8251C163.265 22.8251 163.745 22.6938 164.033 22.4456C164.334 22.1974 164.485 21.7887 164.485 21.2486C164.485 20.7669 164.334 20.3874 164.033 20.1392C163.745 19.8911 163.265 19.7597 162.594 19.7597H161.402V22.8251H162.594Z" fill="#0079C1"/>
<path d="M174.855 23.7747C174.868 24.4528 174.775 25.1285 174.581 25.7745C174.429 26.2875 174.177 26.7603 173.841 27.1612C173.521 27.521 173.127 27.796 172.69 27.9641C172.22 28.1434 171.724 28.2323 171.224 28.2268C170.725 28.2323 170.229 28.1434 169.758 27.9641C169.326 27.7935 168.937 27.5187 168.621 27.1612C168.284 26.7588 168.027 26.2868 167.868 25.7745C167.683 25.1266 167.595 24.4517 167.608 23.7747V22.3441C167.608 21.5705 167.69 20.899 167.868 20.3443C168.046 19.775 168.306 19.3225 168.621 18.9576C168.932 18.594 169.323 18.3182 169.758 18.1547C170.229 17.9754 170.725 17.8864 171.224 17.892C171.724 17.8864 172.22 17.9754 172.69 18.1547C173.131 18.3154 173.526 18.5915 173.841 18.9576C174.181 19.3555 174.434 19.8292 174.581 20.3443C174.776 20.9899 174.869 21.6659 174.855 22.3441V23.7747ZM169.526 23.7747C169.526 24.7381 169.663 25.4387 169.95 25.8621C170.096 26.0736 170.288 26.2431 170.511 26.3552C170.733 26.4674 170.979 26.5186 171.224 26.5043C171.772 26.5043 172.211 26.2854 172.498 25.8621C172.786 25.4241 172.937 24.7381 172.937 23.7747V22.3441C172.937 21.3807 172.8 20.68 172.498 20.2567C172.353 20.0452 172.16 19.8757 171.938 19.7635C171.715 19.6514 171.47 19.6001 171.224 19.6144C170.979 19.6001 170.733 19.6514 170.511 19.7635C170.288 19.8757 170.096 20.0452 169.95 20.2567C169.676 20.6946 169.526 21.3807 169.526 22.3441V23.7747Z" fill="#0079C1"/>
<path d="M181.211 23.511L183.841 18.0224H185.664V28.0945H183.828V21.8469L181.773 26.2844H180.608L178.581 21.8907V28.0945H176.759V18.0224H178.553L181.211 23.511Z" fill="#0079C1"/>
<path d="M189.773 22.0223H193.048V18.0226H194.966V28.0947H193.048V23.7448H189.773V28.0947H187.855V18.0226H189.773V22.0223Z" fill="#0079C1"/>
<path d="M203.063 18.0226V19.7597H199.09V22.0223H202.652V23.7448H199.09V26.3723H203.063V28.0947H197.172V18.0226H203.063Z" fill="#0079C1"/>
<path d="M208.214 18.0224H210.132V18.7523C210.68 18.7523 211.187 18.8252 211.652 18.9566C212.112 19.0735 212.537 19.311 212.889 19.6475C213.241 19.984 213.508 20.4089 213.666 20.8835C213.884 21.5036 213.987 22.163 213.968 22.8249V23.292C213.986 23.9585 213.883 24.6226 213.666 25.248C213.496 25.73 213.219 26.1608 212.858 26.5034C212.509 26.8213 212.097 27.0509 211.652 27.1749C211.155 27.3053 210.644 27.3691 210.132 27.3646V28.0945H208.214V27.3646C207.697 27.3686 207.182 27.3049 206.679 27.1749C206.232 27.0488 205.816 26.8196 205.46 26.5034C205.106 26.1573 204.834 25.7272 204.666 25.248C204.458 24.6203 204.361 23.9573 204.378 23.292V22.8249C204.378 22.0512 204.474 21.3944 204.666 20.8835C204.829 20.4016 205.102 19.9704 205.46 19.6281C205.811 19.3046 206.229 19.0745 206.679 18.9566C207.18 18.817 207.696 18.7482 208.214 18.7523V18.0224ZM210.132 25.6421C210.447 25.6421 210.735 25.613 210.967 25.54C211.192 25.4708 211.395 25.3399 211.557 25.1604C211.735 24.9592 211.862 24.7131 211.926 24.4452C212.017 24.0686 212.059 23.6806 212.05 23.292V22.8249C212.059 22.4363 212.017 22.0482 211.926 21.6717C211.862 21.4038 211.735 21.1577 211.557 20.9564C211.396 20.7782 211.192 20.6518 210.967 20.5915C210.696 20.5087 210.414 20.4693 210.132 20.4747V25.6421ZM208.214 20.4747C207.931 20.4693 207.65 20.5087 207.378 20.5915C207.15 20.6535 206.942 20.7795 206.775 20.9564C206.605 21.1613 206.483 21.4065 206.419 21.6717C206.329 22.0482 206.287 22.4363 206.296 22.8249V23.292C206.287 23.6806 206.329 24.0686 206.419 24.4452C206.483 24.7104 206.605 24.9556 206.775 25.1604C206.944 25.3379 207.151 25.4683 207.378 25.54C207.651 25.6127 207.932 25.647 208.214 25.6421V20.4747Z" fill="#0079C1"/>
<path d="M221.843 18.0226V19.7597H219.24V28.0947H217.322V19.7597H214.719V18.0226H221.843Z" fill="#0079C1"/>
<path d="M225.134 18.0212V21.7143H226.6C227.143 21.7004 227.685 21.7843 228.202 21.9624C228.61 22.1029 228.985 22.3371 229.298 22.6485C229.584 22.9289 229.8 23.2798 229.929 23.6703C230.213 24.4698 230.213 25.3523 229.929 26.1518C229.797 26.5365 229.581 26.8819 229.298 27.159C228.98 27.4637 228.607 27.697 228.202 27.8451C227.685 28.0232 227.143 28.1071 226.6 28.0932H223.216V18.0212H225.134ZM225.134 23.4367V26.3708H226.49C227.12 26.3708 227.559 26.2394 227.819 25.9766C228.093 25.7139 228.216 25.3636 228.216 24.9111C228.216 24.4585 228.079 24.0936 227.819 23.8309C227.559 23.5681 227.12 23.4367 226.49 23.4367H225.134Z" fill="#0079C1"/>
<path d="M128.593 41.2629V44.8101H126.675V34.738H130.059C131.155 34.738 132.004 35.0007 132.634 35.5408C133.278 36.0809 133.593 36.8838 133.593 37.964C133.593 39.0296 133.278 39.8616 132.648 40.4163C131.909 41.0222 130.989 41.3229 130.059 41.2629H128.593ZM129.785 39.5405C130.456 39.5405 130.935 39.4091 131.223 39.1609C131.524 38.9128 131.675 38.5041 131.675 37.964C131.675 37.4823 131.524 37.1027 131.223 36.8546C130.935 36.6064 130.456 36.475 129.785 36.475H128.593V39.5405H129.785Z" fill="#0079C1"/>
<path d="M133.426 44.8101L136.714 34.738H138.549L141.837 44.8101H139.796L139.221 42.8978H136.056L135.481 44.8101H133.426ZM136.563 41.1753H138.7L137.632 37.6282L136.563 41.1753Z" fill="#0079C1"/>
<path d="M144.935 38.723H145.962C146.51 38.723 146.894 38.6062 147.127 38.3873C147.241 38.2739 147.33 38.1356 147.389 37.9819C147.448 37.8282 147.476 37.6628 147.469 37.4968C147.475 37.3401 147.45 37.1838 147.396 37.038C147.342 36.8922 147.259 36.7601 147.154 36.6502C146.949 36.4312 146.579 36.3145 146.058 36.3145C145.551 36.3145 145.168 36.4312 144.921 36.6648C144.668 36.8989 144.479 37.2015 144.373 37.5406H142.688C142.717 37.1189 142.831 36.7088 143.023 36.3384C143.214 35.968 143.479 35.6462 143.798 35.3948C144.113 35.1467 144.455 34.9569 144.853 34.8109C145.669 34.5519 146.538 34.5418 147.36 34.7817C147.732 34.8789 148.085 35.0471 148.401 35.2781C148.708 35.5046 148.959 35.8081 149.131 36.1618C149.303 36.5155 149.391 36.9087 149.387 37.3071C149.403 37.7701 149.289 38.2277 149.058 38.6208C148.824 38.9865 148.515 39.291 148.154 39.5112C148.599 39.698 148.984 40.0173 149.264 40.4309C149.557 40.8629 149.707 41.3869 149.689 41.9198C149.695 42.3478 149.61 42.7718 149.442 43.1606C149.285 43.5326 149.045 43.8583 148.743 44.1094C148.41 44.3897 148.028 44.598 147.62 44.7225C147.131 44.876 146.623 44.9498 146.113 44.9414C145.235 44.983 144.367 44.7276 143.633 44.2116C142.952 43.6403 142.51 42.8067 142.4 41.8906H144.236C144.367 42.2831 144.594 42.631 144.894 42.8978C145.236 43.1321 145.639 43.2446 146.044 43.2189C147.195 43.2189 147.771 42.7518 147.771 41.8322C147.771 40.9126 147.154 40.4455 145.935 40.4455H144.935V38.723Z" fill="#0079C1"/>
<path d="M154.563 34.7367C155.458 34.6753 156.35 34.8989 157.125 35.379C157.714 35.8169 158.015 36.4738 158.015 37.3788C158.03 37.8483 157.911 38.3115 157.673 38.7071C157.448 39.063 157.135 39.3458 156.769 39.5246C157.222 39.6884 157.618 39.9935 157.906 40.4004C158.18 40.7799 158.317 41.2762 158.317 41.9185C158.318 42.2978 158.253 42.6741 158.125 43.0279C157.995 43.381 157.789 43.6962 157.522 43.9475C157.21 44.2329 156.847 44.4466 156.454 44.5752C155.939 44.7425 155.402 44.8213 154.864 44.8088H151.398V34.7367H154.563ZM153.316 43.0863H154.7C155.837 43.0863 156.399 42.6484 156.399 41.758C156.399 41.2762 156.248 40.9405 155.947 40.7507C155.506 40.5138 155.014 40.4078 154.522 40.4442H153.316V43.0863ZM153.316 38.7217H154.59C155.125 38.7217 155.508 38.6195 155.741 38.4152C155.859 38.314 155.953 38.1846 156.015 38.0374C156.077 37.8903 156.105 37.7296 156.097 37.5685C156.1 37.4085 156.072 37.2495 156.015 37.1014C155.965 36.9585 155.874 36.836 155.755 36.7511C155.597 36.6407 155.42 36.5662 155.234 36.5321C154.954 36.4779 154.67 36.4535 154.385 36.4592H153.316V38.7217Z" fill="#0079C1"/>
<path d="M161.951 34.7377V41.0583L165.897 34.7377H167.431V44.8098H165.513V38.5622L161.609 44.8098H160.033V34.7377H161.951Z" fill="#0079C1"/>
<path d="M175.925 34.738V36.475H173.322V44.8101H171.404V36.475H168.801V34.738H175.925Z" fill="#0079C1"/>
<path d="M179.213 34.738V41.0586L183.158 34.738H184.693V44.8101H182.775V38.5624L178.87 44.8101H177.295V34.738H179.213Z" fill="#0079C1"/>
<path d="M192.773 34.7377V36.4748H188.8V38.7374H192.362V40.4598H188.8V43.0873H192.773V44.8098H186.882V34.7377H192.773Z" fill="#0079C1"/>
</svg>
