<svg xmlns="http://www.w3.org/2000/svg" width="231" height="50" fill="none"><path fill="#0079C1" d="m112.764 13.479-6.698 35.763h1.549l6.697-35.763zM84.435 14.583h-2.689c-2.273 0-2.407 1.821-2.407 2.998v10.77c0 1.178.134 2.999 2.407 2.999h2.689c2.273 0 2.412-1.822 2.412-2.998V17.58c0-1.177-.139-2.998-2.412-2.998m-1.343 14.693c-.397 0-.722-.297-.722-.665 0-.008.005-.016.005-.026V17.3l.003-.048a.7.7 0 0 1 .242-.43.7.7 0 0 1 .47-.163c.37 0 .677.263.713.593l.006.048v11.287l.001.026c0 .368-.324.665-.717.665M33.826 14.583h6.194v2.083h-2.948V31.35h-3.246zM44.093 25.05l.56-8.387h.183l.556 8.387zm-3.592 6.301h3.174l.303-4.457h1.532l.3 4.457h3.18l-1.696-16.767h-5.1zm13.136-5.87v3.155c0 .43.321.553.509.553.3 0 .51-.265.51-.553v-3.9c0-.525-.092-1.098-1.302-1.098h-1.316v-1.846h1.364c.927 0 1.253-.219 1.253-1.241v-3.338c0-.285-.209-.547-.508-.547-.19 0-.508.119-.508.547v2.736h-3.25v-2.37c0-1.175.141-2.996 2.411-2.996h2.692c2.274 0 2.412 1.821 2.412 2.995v2.685c0 1.816-1.23 2.319-2.206 2.27v.17c2.18-.052 2.207 1.675 2.207 2.276v3.373c0 1.177-.139 2.998-2.413 2.998H52.8c-2.27 0-2.411-1.822-2.411-2.998v-2.873zm6.403-10.898h7.513V31.35h-3.029V16.666h-1.458V31.35H60.04zm13.11 9.219v-7.136h.854c.352 0 .607.311.607.835v5.465c0 .528-.255.836-.607.836zm-3.244 7.548h3.245v-5.7h1.855c2.273 0 2.634-1.819 2.634-2.998v-5.074c0-1.174-.36-2.998-2.634-2.998h-5.1zM97.21 14.583h4.222V31.35h-3.248V20.835h-.117L96.395 31.35h-2.594l-1.67-10.515h-.114V31.35h-3.249V14.583h4.217l2.108 11.783zM27.197 8.728c-1.024-4.457-3.599-8.08-3.95-8.67-.562.832-2.611 4.028-3.654 7.578a27.3 27.3 0 0 0-.914 10.928c.392 3.455 1.866 7.004 1.866 7.004.782 1.865 1.955 3.858 2.719 4.839 1.117-1.442 3.694-5.744 4.494-11.363.445-3.124.463-5.863-.562-10.316m-3.95 20.57c-.502-.942-1.289-2.733-1.364-5.501-.018-2.682 1.065-4.977 1.382-5.457.284.48 1.21 2.479 1.323 5.213a11.65 11.65 0 0 1-1.34 5.743m3.655-13.008c-.04 1.7-.244 3.493-.504 4.563.093-1.844-.131-4.45-.562-6.487-.425-2.036-1.641-5.43-2.61-7.005-.89 1.496-1.994 4.436-2.57 6.99-.58 2.55-.598 5.637-.598 6.565-.154-.786-.539-3.564-.428-6.362.091-2.309.634-4.678.932-5.771 1.137-3.641 2.425-5.97 2.665-6.34.24.37 1.865 3.236 2.705 6.247.674 2.477 1 5.034.97 7.6"/><path fill="#0079C1" d="M16.95 31.347v5.27c.009-.006.014-.013.026-.021a4.8 4.8 0 0 1 3.363-1.377c1.26 0 2.47.495 3.363 1.377a4.68 4.68 0 0 1 1.395 3.34 4.65 4.65 0 0 1-1.418 3.33 9.56 9.56 0 0 1-6.727 2.753 9.56 9.56 0 0 1-6.72-2.748 9.4 9.4 0 0 1-2.059-3.044 9.3 9.3 0 0 1 0-7.19 9.4 9.4 0 0 1 2.06-3.044 9.5 9.5 0 0 1 3.083-2.038 9.6 9.6 0 0 1 3.636-.71V14.672c-9.345 0-16.93 7.487-16.93 16.715 0 9.236 7.584 16.723 16.93 16.723a17 17 0 0 0 6.731-1.376 16.9 16.9 0 0 0 5.623-3.92V31.348zm51.782 9.228h-.263v3.392h.263c.382 0 .52-.107.52-.534v-2.341c0-.429-.138-.518-.52-.518m27.455 2.268h-.38v1.9h.38c.384 0 .5-.097.5-.512v-.877c0-.416-.116-.51-.5-.51m-30.178-1.73v2.33c0 .427.138.525.517.525h.276v-3.392h-.276c-.379 0-.517.11-.517.536m35.425-4.18H33.826v11.18h67.608zM41.166 46.03h-1.714v-3.187h-.88v3.187h-1.715v-7.28h1.715v2.81h.88v-2.81h1.714zm14.213-5.905h-2.344v1.432h2.098v1.38h-2.1v1.716h2.346v1.382h-4.112v-7.292h4.112zm15.535 3.309c0 1.477-.757 1.875-2.445 1.875v.72h-1.667v-.72c-1.693 0-2.46-.398-2.46-1.875v-2.275c0-1.486.735-1.864 2.46-1.864v-.545h1.667v.544c1.712 0 2.445.38 2.445 1.865zM84.1 40.124h-1.3v5.91h-1.63v-5.91h-1.392v-1.382h4.32zm14.3 4.028c0 1.591-.732 1.877-2.595 1.877h-1.713v-7.28h1.714v2.81h.286c1.684 0 2.308.39 2.308 1.843zM132.47 19.76h-3.877v8.334h-1.918V18.023h5.795zM132.057 28.095l3.288-10.073h1.835l3.288 10.073h-2.041l-.575-1.913h-3.165l-.575 1.913zm3.137-3.635h2.137l-1.069-3.547zM143.565 22.009h1.027c.548 0 .932-.117 1.165-.336.114-.113.203-.252.262-.405s.087-.32.08-.486a1.145 1.145 0 0 0-.315-.847c-.205-.218-.575-.335-1.096-.335-.507 0-.89.117-1.137.35a2 2 0 0 0-.548.876h-1.685a3.1 3.1 0 0 1 .335-1.202c.191-.37.455-.692.775-.944a3.8 3.8 0 0 1 1.054-.583 4.3 4.3 0 0 1 2.508-.03c.372.098.725.266 1.041.497.307.226.558.53.73.883.172.354.26.747.256 1.146a2.44 2.44 0 0 1-.329 1.314 2.8 2.8 0 0 1-.904.89 2.53 2.53 0 0 1 1.534 2.408c.006.429-.078.853-.246 1.241a2.5 2.5 0 0 1-.699.949c-.333.28-.715.489-1.123.613a4.8 4.8 0 0 1-1.507.22 3.98 3.98 0 0 1-2.48-.73 3.58 3.58 0 0 1-1.233-2.322h1.836c.13.393.358.74.658 1.007.342.235.745.347 1.15.322 1.151 0 1.727-.467 1.727-1.387s-.617-1.387-1.836-1.387h-1zM157.292 18.022v10.073h-1.918V19.76h-3.425v8.334h-1.918V18.023zM161.402 24.548v3.547h-1.918V18.023h3.384c1.096 0 1.946.262 2.576.803.644.54.959 1.342.959 2.423 0 1.065-.315 1.897-.946 2.452a3.7 3.7 0 0 1-2.589.847zm1.192-1.723c.671 0 1.151-.131 1.439-.38.301-.248.452-.656.452-1.196 0-.482-.151-.862-.452-1.11-.288-.248-.768-.38-1.439-.38h-1.192v3.066zM174.855 23.775a6.5 6.5 0 0 1-.274 2 3.9 3.9 0 0 1-.74 1.386 3 3 0 0 1-1.151.803c-.47.18-.966.268-1.466.263a4 4 0 0 1-1.466-.263 3 3 0 0 1-1.137-.803 4 4 0 0 1-.753-1.387 6.8 6.8 0 0 1-.26-2v-1.43c0-.774.082-1.445.26-2 .178-.569.438-1.021.753-1.386.311-.364.702-.64 1.137-.803a4 4 0 0 1 1.466-.263c.5-.006.996.083 1.466.263.441.16.836.436 1.151.803.34.398.593.871.74 1.386.195.646.288 1.322.274 2zm-5.329 0c0 .963.137 1.664.424 2.087.146.212.338.381.561.493a1.4 1.4 0 0 0 .713.15c.548 0 .987-.22 1.274-.643.288-.438.439-1.124.439-2.087v-1.43c0-.964-.137-1.665-.439-2.088a1.5 1.5 0 0 0-.56-.494 1.4 1.4 0 0 0-.714-.149 1.4 1.4 0 0 0-.713.15 1.5 1.5 0 0 0-.561.493c-.274.438-.424 1.124-.424 2.087zM181.211 23.511l2.63-5.489h1.823v10.073h-1.836v-6.248l-2.055 4.437h-1.165l-2.027-4.393v6.204h-1.822V18.022h1.794zM189.773 22.022h3.275v-4h1.918v10.073h-1.918v-4.35h-3.275v4.35h-1.918V18.023h1.918zM203.063 18.023v1.737h-3.973v2.262h3.562v1.723h-3.562v2.627h3.973v1.723h-5.891V18.023zM208.214 18.022h1.918v.73a5.6 5.6 0 0 1 1.52.205c.46.116.885.354 1.237.69.352.337.619.762.777 1.237.218.62.321 1.279.302 1.94v.468a5.5 5.5 0 0 1-.302 1.956c-.17.482-.447.913-.808 1.255a3 3 0 0 1-1.206.672 5.8 5.8 0 0 1-1.52.19v.73h-1.918v-.73a6 6 0 0 1-1.535-.19 3.1 3.1 0 0 1-1.219-.672 3.3 3.3 0 0 1-.794-1.255 5.8 5.8 0 0 1-.288-1.956v-.467c0-.774.096-1.43.288-1.941.163-.482.436-.914.794-1.256a2.9 2.9 0 0 1 1.219-.671 5.6 5.6 0 0 1 1.535-.205zm1.918 7.62c.315 0 .603-.029.835-.102.225-.07.428-.2.59-.38.178-.2.305-.447.369-.715.091-.376.133-.764.124-1.153v-.467a4.5 4.5 0 0 0-.124-1.153 1.66 1.66 0 0 0-.369-.716 1.22 1.22 0 0 0-.59-.364 2.7 2.7 0 0 0-.835-.117zm-1.918-5.167a2.7 2.7 0 0 0-.836.116 1.3 1.3 0 0 0-.603.365 1.8 1.8 0 0 0-.356.716c-.09.376-.132.764-.123 1.153v.467c-.009.389.033.777.123 1.153.064.265.186.51.356.715.169.178.376.308.603.38q.411.11.836.102zM221.843 18.023v1.737h-2.603v8.335h-1.918V19.76h-2.603v-1.737zM225.134 18.021v3.693h1.466a4.6 4.6 0 0 1 1.602.248c.408.14.783.375 1.096.686.286.28.502.632.631 1.022a3.72 3.72 0 0 1 0 2.482c-.132.384-.348.73-.631 1.007a3.15 3.15 0 0 1-1.096.686 4.6 4.6 0 0 1-1.602.248h-3.384V18.021zm0 5.416v2.934h1.356c.63 0 1.069-.132 1.329-.394.274-.263.397-.613.397-1.066s-.137-.817-.397-1.08-.699-.394-1.329-.394zM128.593 41.263v3.547h-1.918V34.738h3.384c1.096 0 1.945.263 2.575.803.644.54.959 1.343.959 2.423 0 1.066-.315 1.898-.945 2.452a3.7 3.7 0 0 1-2.589.847zm1.192-1.722c.671 0 1.15-.132 1.438-.38.301-.248.452-.657.452-1.197 0-.482-.151-.861-.452-1.11-.288-.248-.767-.379-1.438-.379h-1.192v3.066zM133.426 44.81l3.288-10.072h1.835l3.288 10.072h-2.041l-.575-1.912h-3.165l-.575 1.912zm3.137-3.635h2.137l-1.068-3.547zM144.935 38.723h1.027c.548 0 .932-.117 1.165-.336.114-.113.203-.251.262-.405s.087-.32.08-.485a1.2 1.2 0 0 0-.073-.459 1.1 1.1 0 0 0-.242-.388c-.205-.219-.575-.335-1.096-.335-.507 0-.89.116-1.137.35a2 2 0 0 0-.548.876h-1.685c.029-.422.143-.832.335-1.203.191-.37.456-.692.775-.943a3.8 3.8 0 0 1 1.055-.584 4.3 4.3 0 0 1 2.507-.03c.372.098.725.266 1.041.497a2.4 2.4 0 0 1 .73.884c.172.354.26.747.256 1.145a2.43 2.43 0 0 1-.329 1.314 2.8 2.8 0 0 1-.904.89 2.53 2.53 0 0 1 1.535 2.409c.006.428-.079.852-.247 1.24a2.5 2.5 0 0 1-.699.95c-.333.28-.715.488-1.123.612a4.8 4.8 0 0 1-1.507.22 3.98 3.98 0 0 1-2.48-.73 3.58 3.58 0 0 1-1.233-2.321h1.836c.131.392.358.74.658 1.007.342.234.745.347 1.15.32 1.151 0 1.727-.466 1.727-1.386s-.617-1.386-1.836-1.386h-1zM154.563 34.737a4.3 4.3 0 0 1 2.562.642c.589.438.89 1.095.89 2a2.43 2.43 0 0 1-.342 1.328 2.23 2.23 0 0 1-.904.818c.453.163.849.468 1.137.875.274.38.411.876.411 1.519.001.379-.064.755-.192 1.109-.13.353-.336.668-.603.92-.312.285-.675.499-1.068.627a4.8 4.8 0 0 1-1.59.234h-3.466V34.737zm-1.247 8.35h1.384c1.137 0 1.699-.439 1.699-1.329q0-.723-.452-1.007a2.6 2.6 0 0 0-1.425-.307h-1.206zm0-4.365h1.274q.802 0 1.151-.307c.118-.101.212-.23.274-.378.062-.147.09-.307.082-.468a1.2 1.2 0 0 0-.082-.468.72.72 0 0 0-.26-.35 1.3 1.3 0 0 0-.521-.219 4 4 0 0 0-.849-.073h-1.069zM161.951 34.738v6.32l3.946-6.32h1.534V44.81h-1.918v-6.248l-3.904 6.248h-1.576V34.738zM175.925 34.738v1.737h-2.603v8.335h-1.918v-8.335h-2.603v-1.737zM179.213 34.738v6.32l3.945-6.32h1.535V44.81h-1.918v-6.248l-3.905 6.248h-1.575V34.738zM192.773 34.738v1.737H188.8v2.262h3.562v1.723H188.8v2.627h3.973v1.723h-5.891V34.738z"/></svg>