<svg width="204" height="46" viewBox="0 0 204 46" fill="none" xmlns="http://www.w3.org/2000/svg">
<path fill-rule="evenodd" clip-rule="evenodd" d="M55.022 0H26.2021V6.83466e-05H0.0718166C0.0718166 6.83466e-05 -0.50464 3.4927 1.60883 6.2092C3.72231 8.92569 6.02793 9.31376 6.79646 9.31376H7.30143V45.7925H47.6494V12.4185L15.3695 9.31376H28.8918V9.31369H48.2974C49.0659 9.31369 51.3716 8.92562 53.485 6.20913C55.5985 3.49264 55.022 0 55.022 0ZM14.602 25.5862C14.602 24.1007 15.8063 22.8964 17.2918 22.8964C18.7774 22.8964 19.9817 24.1007 19.9817 25.5862V45.7925H14.602V25.5862ZM27.2828 22.8964C25.7972 22.8964 24.5929 24.1007 24.5929 25.5862V45.7925H29.9726V25.5862C29.9726 24.1007 28.7683 22.8964 27.2828 22.8964ZM35.3524 25.5862C35.3524 24.1007 36.5567 22.8964 38.0422 22.8964C39.5278 22.8964 40.7321 24.1007 40.7321 25.5862V45.7925H35.3524V25.5862Z" fill="#016DB5"/>
<path d="M62.4294 21.0466V10.2972H68.6794V12.1246H64.4257V21.0466H62.4294ZM72.9 21.277C72.081 21.277 71.3541 21.0927 70.7194 20.7241C70.0898 20.3505 69.5958 19.8565 69.2375 19.2423C68.8792 18.6229 68.7 17.9446 68.7 17.2075C68.7 16.6649 68.8024 16.1479 69.0072 15.6565C69.2119 15.1651 69.5011 14.7326 69.8748 14.3589C70.2536 13.9801 70.6989 13.6832 71.2108 13.4683C71.7227 13.2481 72.2857 13.1381 72.9 13.1381C73.7139 13.1381 74.4356 13.3224 75.0653 13.6909C75.7 14.0595 76.1965 14.5534 76.5548 15.1728C76.9183 15.7922 77.1 16.4704 77.1 17.2075C77.1 17.7501 76.995 18.2671 76.7852 18.7585C76.5804 19.2448 76.2912 19.6774 75.9175 20.0561C75.5439 20.4349 75.1011 20.7344 74.5892 20.9545C74.0773 21.1695 73.5143 21.277 72.9 21.277ZM72.8923 19.5571C73.3274 19.5571 73.7139 19.4624 74.0517 19.273C74.3947 19.0785 74.6634 18.8072 74.8579 18.4591C75.0525 18.1059 75.1497 17.6887 75.1497 17.2075C75.1497 16.7264 75.0525 16.3092 74.8579 15.956C74.6634 15.6028 74.3973 15.3315 74.0594 15.1421C73.7216 14.9527 73.3351 14.858 72.9 14.858C72.4649 14.858 72.0759 14.9527 71.7329 15.1421C71.3951 15.3315 71.1289 15.6028 70.9344 15.956C70.745 16.3092 70.6503 16.7264 70.6503 17.2075C70.6503 17.6887 70.7476 18.1059 70.9421 18.4591C71.1366 18.8072 71.4028 19.0785 71.7406 19.273C72.0784 19.4624 72.4623 19.5571 72.8923 19.5571ZM82.3555 21.277C81.5416 21.277 80.8173 21.1004 80.1825 20.7472C79.5529 20.3889 79.0564 19.9051 78.693 19.296C78.3295 18.6817 78.1478 17.9856 78.1478 17.2075C78.1478 16.6189 78.2553 16.0788 78.4703 15.5874C78.6853 15.0909 78.9873 14.6609 79.3763 14.2975C79.7653 13.9289 80.2209 13.6449 80.743 13.4452C81.2703 13.2405 81.8436 13.1381 82.463 13.1381C83.0004 13.1381 83.4995 13.2098 83.9602 13.3531C84.4209 13.4964 84.8432 13.7165 85.2271 14.0134L84.3134 15.4953C84.0728 15.2803 83.799 15.1216 83.4918 15.0193C83.1898 14.9118 82.8725 14.858 82.5397 14.858C82.0381 14.858 81.6056 14.9501 81.2421 15.1344C80.8838 15.3187 80.6074 15.5849 80.4129 15.933C80.2184 16.281 80.1211 16.7033 80.1211 17.1999C80.1211 17.937 80.3361 18.5154 80.7661 18.9351C81.2012 19.3498 81.7924 19.5571 82.5397 19.5571C82.9134 19.5571 83.2666 19.488 83.5993 19.3498C83.932 19.2115 84.2213 19.0221 84.467 18.7816L85.3423 20.2711C84.9225 20.5834 84.4542 20.8291 83.9372 21.0082C83.4202 21.1874 82.8929 21.277 82.3555 21.277ZM90.2286 21.277C89.4147 21.277 88.6904 21.1004 88.0557 20.7472C87.4261 20.3889 86.9295 19.9051 86.5661 19.296C86.2027 18.6817 86.021 17.9856 86.021 17.2075C86.021 16.6189 86.1284 16.0788 86.3434 15.5874C86.5584 15.0909 86.8604 14.6609 87.2495 14.2975C87.6385 13.9289 88.0941 13.6449 88.6162 13.4452C89.1434 13.2405 89.7167 13.1381 90.3361 13.1381C90.8736 13.1381 91.3726 13.2098 91.8333 13.3531C92.294 13.4964 92.7163 13.7165 93.1002 14.0134L92.1865 15.4953C91.946 15.2803 91.6721 15.1216 91.365 15.0193C91.063 14.9118 90.7456 14.858 90.4129 14.858C89.9112 14.858 89.4787 14.9501 89.1153 15.1344C88.7569 15.3187 88.4805 15.5849 88.286 15.933C88.0915 16.281 87.9942 16.7033 87.9942 17.1999C87.9942 17.937 88.2092 18.5154 88.6392 18.9351C89.0743 19.3498 89.6655 19.5571 90.4129 19.5571C90.7865 19.5571 91.1397 19.488 91.4725 19.3498C91.8052 19.2115 92.0944 19.0221 92.3401 18.7816L93.2154 20.2711C92.7957 20.5834 92.3273 20.8291 91.8103 21.0082C91.2933 21.1874 90.7661 21.277 90.2286 21.277ZM96.3398 21.0466V14.9655H93.9212V13.3684H100.724V14.9655H98.3055V21.0466H96.3398ZM102.217 24.2715V13.3684H103.953V14.382C104.249 14.0083 104.631 13.7088 105.097 13.4836C105.562 13.2533 106.125 13.1381 106.786 13.1381C107.528 13.1381 108.188 13.3121 108.767 13.6602C109.345 14.0083 109.798 14.4895 110.126 15.1037C110.459 15.7128 110.625 16.4141 110.625 17.2075C110.625 17.7757 110.53 18.3055 110.341 18.7969C110.151 19.2883 109.885 19.7209 109.542 20.0945C109.199 20.4631 108.79 20.7523 108.314 20.9622C107.843 21.172 107.323 21.277 106.755 21.277C106.202 21.277 105.711 21.1823 105.281 20.9929C104.856 20.7984 104.487 20.5348 104.175 20.202V24.2715H102.217ZM106.425 19.5571C106.86 19.5571 107.246 19.4624 107.584 19.273C107.922 19.0785 108.188 18.8072 108.383 18.4591C108.577 18.1059 108.675 17.6887 108.675 17.2075C108.675 16.7264 108.577 16.3092 108.383 15.956C108.188 15.6028 107.92 15.3315 107.577 15.1421C107.239 14.9527 106.855 14.858 106.425 14.858C105.99 14.858 105.603 14.9527 105.265 15.1421C104.928 15.3315 104.661 15.6028 104.467 15.956C104.272 16.3092 104.175 16.7264 104.175 17.2075C104.175 17.6887 104.27 18.1059 104.459 18.4591C104.654 18.8072 104.92 19.0785 105.258 19.273C105.601 19.4624 105.99 19.5571 106.425 19.5571ZM115.88 21.277C115.061 21.277 114.334 21.0927 113.699 20.7241C113.07 20.3505 112.576 19.8565 112.217 19.2423C111.859 18.6229 111.68 17.9446 111.68 17.2075C111.68 16.6649 111.782 16.1479 111.987 15.6565C112.192 15.1651 112.481 14.7326 112.855 14.3589C113.233 13.9801 113.679 13.6832 114.191 13.4683C114.703 13.2481 115.266 13.1381 115.88 13.1381C116.694 13.1381 117.416 13.3224 118.045 13.6909C118.68 14.0595 119.176 14.5534 119.535 15.1728C119.898 15.7922 120.08 16.4704 120.08 17.2075C120.08 17.7501 119.975 18.2671 119.765 18.7585C119.56 19.2448 119.271 19.6774 118.897 20.0561C118.524 20.4349 118.081 20.7344 117.569 20.9545C117.057 21.1695 116.494 21.277 115.88 21.277ZM115.872 19.5571C116.307 19.5571 116.694 19.4624 117.032 19.273C117.375 19.0785 117.643 18.8072 117.838 18.4591C118.032 18.1059 118.13 17.6887 118.13 17.2075C118.13 16.7264 118.032 16.3092 117.838 15.956C117.643 15.6028 117.377 15.3315 117.039 15.1421C116.701 14.9527 116.315 14.858 115.88 14.858C115.445 14.858 115.056 14.9527 114.713 15.1421C114.375 15.3315 114.109 15.6028 113.914 15.956C113.725 16.3092 113.63 16.7264 113.63 17.2075C113.63 17.6887 113.727 18.1059 113.922 18.4591C114.116 18.8072 114.383 19.0785 114.72 19.273C115.058 19.4624 115.442 19.5571 115.872 19.5571ZM121.698 21.0466V13.3684H123.586V18.2211L127.464 13.3684H129.199V21.0466H127.31V16.1326L123.41 21.0466H121.698ZM125.445 12.1399C124.851 12.1399 124.331 12.0222 123.886 11.7867C123.441 11.5461 123.095 11.216 122.849 10.7962C122.609 10.3765 122.496 9.89278 122.512 9.34507H124.132C124.116 9.78528 124.226 10.141 124.462 10.4123C124.702 10.6785 125.03 10.8116 125.445 10.8116C125.859 10.8116 126.184 10.6785 126.42 10.4123C126.66 10.141 126.768 9.78528 126.742 9.34507H128.37C128.385 9.88254 128.268 10.3637 128.017 10.7886C127.771 11.2083 127.426 11.5385 126.98 11.7791C126.535 12.0196 126.023 12.1399 125.445 12.1399ZM131.46 21.0466V13.3684H133.426V16.2631H136.966V13.3684H138.931V21.0466H136.966V17.8602H133.426V21.0466H131.46ZM143.328 21.277C142.805 21.277 142.342 21.1772 141.938 20.9775C141.533 20.7779 141.216 20.4964 140.986 20.1329C140.755 19.7644 140.64 19.3293 140.64 18.8276C140.64 18.3977 140.748 18.0137 140.963 17.6759C141.178 17.3381 141.508 17.0591 141.953 16.839C142.399 16.6138 142.967 16.4628 143.658 16.386C144.354 16.3092 145.178 16.3194 146.13 16.4167L146.161 17.7143C145.536 17.617 144.991 17.5735 144.525 17.5838C144.06 17.594 143.673 17.6478 143.366 17.745C143.064 17.8423 142.836 17.9754 142.683 18.1443C142.534 18.3132 142.46 18.5103 142.46 18.7355C142.46 19.0733 142.583 19.3344 142.829 19.5187C143.074 19.6978 143.41 19.7874 143.834 19.7874C144.198 19.7874 144.523 19.7209 144.809 19.5878C145.101 19.4547 145.332 19.2679 145.501 19.0273C145.669 18.7816 145.754 18.4924 145.754 18.1596V16.217C145.754 15.8946 145.685 15.6156 145.547 15.3801C145.414 15.1395 145.209 14.9553 144.932 14.8273C144.656 14.6942 144.3 14.6277 143.865 14.6277C143.466 14.6277 143.069 14.6891 142.675 14.8119C142.286 14.9297 141.92 15.1139 141.577 15.3648L141.047 13.9597C141.533 13.6372 142.045 13.4068 142.583 13.2686C143.12 13.1304 143.64 13.0613 144.141 13.0613C144.858 13.0613 145.477 13.1739 146 13.3992C146.527 13.6244 146.931 13.9699 147.213 14.4357C147.499 14.8964 147.643 15.4825 147.643 16.194V21.0466H145.907V20.1713C145.652 20.5245 145.298 20.7984 144.848 20.9929C144.397 21.1823 143.891 21.277 143.328 21.277ZM155.321 21.0466V14.9655H152.526V15.8178C152.526 16.473 152.48 17.0796 152.388 17.6375C152.301 18.1955 152.145 18.692 151.92 19.1271C151.695 19.5622 151.382 19.9282 150.983 20.2251C150.584 20.5168 150.075 20.7267 149.455 20.8547L149.018 19.511C149.494 19.3984 149.852 19.1808 150.092 18.8583C150.338 18.5307 150.502 18.111 150.584 17.5991C150.671 17.0872 150.714 16.4935 150.714 15.8178V13.3684H157.287V21.0466H155.321ZM149.018 23.3501V19.511L150.154 19.6108L150.461 19.4496H158.83V23.3501H157.034V21.0466H150.814V23.3501H149.018ZM162.887 21.2386C162.457 21.2386 162.04 21.2053 161.636 21.1388C161.231 21.0773 160.85 20.9775 160.492 20.8393C160.138 20.696 159.818 20.5092 159.532 20.2788L160.346 18.9889C160.663 19.2551 161.039 19.4496 161.474 19.5724C161.91 19.6953 162.355 19.7567 162.81 19.7567C163.394 19.7567 163.85 19.6748 164.177 19.511C164.51 19.3421 164.676 19.0682 164.676 18.6894C164.676 18.3567 164.505 18.1212 164.162 17.983C163.824 17.8448 163.325 17.7757 162.665 17.7757H161.252V16.3476H162.611C163.199 16.3476 163.645 16.281 163.947 16.1479C164.254 16.0149 164.407 15.7922 164.407 15.4799C164.407 15.2905 164.341 15.1344 164.208 15.0116C164.075 14.8836 163.883 14.7889 163.632 14.7275C163.386 14.6609 163.097 14.6277 162.764 14.6277C162.329 14.6277 161.912 14.6916 161.513 14.8196C161.114 14.9476 160.765 15.1447 160.469 15.4108L159.762 14.1132C160.177 13.7805 160.666 13.5297 161.229 13.3608C161.797 13.1918 162.365 13.1074 162.933 13.1074C163.609 13.1074 164.19 13.1893 164.676 13.3531C165.162 13.5169 165.534 13.7549 165.79 14.0672C166.051 14.3794 166.181 14.7582 166.181 15.2035C166.181 15.5823 166.061 15.9176 165.82 16.2094C165.585 16.496 165.237 16.7033 164.776 16.8313C165.339 16.9644 165.767 17.1922 166.058 17.5147C166.35 17.832 166.496 18.2364 166.496 18.7278C166.496 19.2397 166.347 19.685 166.051 20.0638C165.759 20.4375 165.342 20.7267 164.799 20.9315C164.262 21.1362 163.624 21.2386 162.887 21.2386ZM171.832 21.277C171.013 21.277 170.286 21.0927 169.651 20.7241C169.021 20.3505 168.528 19.8565 168.169 19.2423C167.811 18.6229 167.632 17.9446 167.632 17.2075C167.632 16.6649 167.734 16.1479 167.939 15.6565C168.144 15.1651 168.433 14.7326 168.806 14.3589C169.185 13.9801 169.631 13.6832 170.142 13.4683C170.654 13.2481 171.217 13.1381 171.832 13.1381C172.646 13.1381 173.367 13.3224 173.997 13.6909C174.632 14.0595 175.128 14.5534 175.487 15.1728C175.85 15.7922 176.032 16.4704 176.032 17.2075C176.032 17.7501 175.927 18.2671 175.717 18.7585C175.512 19.2448 175.223 19.6774 174.849 20.0561C174.476 20.4349 174.033 20.7344 173.521 20.9545C173.009 21.1695 172.446 21.277 171.832 21.277ZM171.824 19.5571C172.259 19.5571 172.646 19.4624 172.983 19.273C173.326 19.0785 173.595 18.8072 173.79 18.4591C173.984 18.1059 174.081 17.6887 174.081 17.2075C174.081 16.7264 173.984 16.3092 173.79 15.956C173.595 15.6028 173.329 15.3315 172.991 15.1421C172.653 14.9527 172.267 14.858 171.832 14.858C171.397 14.858 171.008 14.9527 170.665 15.1421C170.327 15.3315 170.061 15.6028 169.866 15.956C169.677 16.3092 169.582 16.7264 169.582 17.2075C169.582 17.6887 169.679 18.1059 169.874 18.4591C170.068 18.8072 170.334 19.0785 170.672 19.273C171.01 19.4624 171.394 19.5571 171.824 19.5571ZM177.649 24.2715V13.3684H179.385V14.382C179.682 14.0083 180.063 13.7088 180.529 13.4836C180.995 13.2533 181.558 13.1381 182.218 13.1381C182.96 13.1381 183.621 13.3121 184.199 13.6602C184.777 14.0083 185.23 14.4895 185.558 15.1037C185.891 15.7128 186.057 16.4141 186.057 17.2075C186.057 17.7757 185.962 18.3055 185.773 18.7969C185.584 19.2883 185.317 19.7209 184.974 20.0945C184.632 20.4631 184.222 20.7523 183.746 20.9622C183.275 21.172 182.755 21.277 182.187 21.277C181.634 21.277 181.143 21.1823 180.713 20.9929C180.288 20.7984 179.92 20.5348 179.607 20.202V24.2715H177.649ZM181.857 19.5571C182.292 19.5571 182.679 19.4624 183.017 19.273C183.354 19.0785 183.621 18.8072 183.815 18.4591C184.01 18.1059 184.107 17.6887 184.107 17.2075C184.107 16.7264 184.01 16.3092 183.815 15.956C183.621 15.6028 183.352 15.3315 183.009 15.1421C182.671 14.9527 182.287 14.858 181.857 14.858C181.422 14.858 181.036 14.9527 180.698 15.1421C180.36 15.3315 180.094 15.6028 179.899 15.956C179.705 16.3092 179.607 16.7264 179.607 17.2075C179.607 17.6887 179.702 18.1059 179.892 18.4591C180.086 18.8072 180.352 19.0785 180.69 19.273C181.033 19.4624 181.422 19.5571 181.857 19.5571ZM67.3511 38.277C66.2352 38.277 65.2575 38.0466 64.418 37.5859C63.5785 37.1252 62.9259 36.4777 62.4601 35.6434C61.9943 34.8039 61.7613 33.8185 61.7613 32.6873C61.7613 31.8631 61.897 31.1107 62.1683 30.4299C62.4447 29.7439 62.8337 29.1502 63.3354 28.6485C63.8421 28.1418 64.4359 27.7527 65.1167 27.4814C65.8026 27.205 66.5551 27.0668 67.3741 27.0668C68.2187 27.0668 68.9405 27.1743 69.5394 27.3893C70.1383 27.5992 70.6706 27.8986 71.1364 28.2877L70.1152 29.9231C69.7876 29.6109 69.4037 29.3805 68.9635 29.2321C68.5284 29.0785 68.0447 29.0017 67.5123 29.0017C66.9441 29.0017 66.4348 29.0862 65.9844 29.2551C65.5339 29.424 65.15 29.6697 64.8326 29.9922C64.5153 30.3096 64.2721 30.6935 64.1032 31.1439C63.9343 31.5944 63.8498 32.1012 63.8498 32.6642C63.8498 33.4372 64.0008 34.0975 64.3028 34.6452C64.6048 35.1878 65.0348 35.605 65.5928 35.8967C66.1507 36.1885 66.8136 36.3344 67.5814 36.3344C68.0984 36.3344 68.6026 36.2551 69.094 36.0964C69.5905 35.9377 70.0589 35.6843 70.4991 35.3362L71.4205 37.0178C70.9086 37.417 70.3149 37.7267 69.6392 37.9468C68.9686 38.1669 68.2059 38.277 67.3511 38.277ZM75.0637 38.277C74.5416 38.277 74.0783 38.1772 73.6739 37.9775C73.2696 37.7779 72.9522 37.4964 72.7218 37.1329C72.4915 36.7644 72.3763 36.3293 72.3763 35.8276C72.3763 35.3977 72.4838 35.0137 72.6988 34.6759C72.9138 34.3381 73.244 34.0591 73.6893 33.839C74.1346 33.6138 74.7028 33.4628 75.3939 33.386C76.09 33.3092 76.9141 33.3194 77.8662 33.4167L77.8969 34.7143C77.2725 34.617 76.7273 34.5735 76.2615 34.5838C75.7957 34.594 75.4092 34.6478 75.1021 34.745C74.8001 34.8423 74.5723 34.9754 74.4187 35.1443C74.2703 35.3132 74.1961 35.5103 74.1961 35.7355C74.1961 36.0733 74.3189 36.3344 74.5646 36.5187C74.8103 36.6978 75.1456 36.7874 75.5705 36.7874C75.9339 36.7874 76.2589 36.7209 76.5456 36.5878C76.8374 36.4547 77.0677 36.2679 77.2366 36.0273C77.4055 35.7816 77.49 35.4924 77.49 35.1596V33.217C77.49 32.8946 77.4209 32.6156 77.2827 32.3801C77.1496 32.1395 76.9449 31.9553 76.6684 31.8273C76.392 31.6942 76.0363 31.6277 75.6012 31.6277C75.2019 31.6277 74.8052 31.6891 74.411 31.8119C74.022 31.9297 73.656 32.1139 73.3131 32.3648L72.7833 30.9597C73.2696 30.6372 73.7814 30.4068 74.3189 30.2686C74.8564 30.1304 75.3759 30.0613 75.8776 30.0613C76.5942 30.0613 77.2136 30.1739 77.7357 30.3992C78.2629 30.6244 78.6673 30.9699 78.9489 31.4357C79.2355 31.8964 79.3788 32.4825 79.3788 33.194V38.0466H77.6436V37.1713C77.3876 37.5245 77.0344 37.7984 76.584 37.9929C76.1335 38.1823 75.6268 38.277 75.0637 38.277ZM81.5521 38.0466V30.3684H83.5177V33.2631H87.0574V30.3684H89.023V38.0466H87.0574V34.8602H83.5177V38.0466H81.5521ZM96.3371 38.0466L93.8493 33.9925L96.2449 30.3684H98.3334L95.9609 33.8927L98.6789 38.0466H96.3371ZM91.2848 38.0466V30.3684H93.2504V33.2631H95.5693V34.8602H93.2504V38.0466H91.2848ZM101.739 38.0466V31.9655H99.3199V30.3684H106.123V31.9655H103.704V38.0466H101.739ZM107.347 34.5761V32.8639H111.616V34.5761H107.347ZM113.837 38.0466V27.2972H122.713V38.0466H120.717V29.1246H115.834V38.0466H113.837ZM128.754 38.277C127.92 38.277 127.188 38.1081 126.558 37.7702C125.929 37.4273 125.437 36.9512 125.084 36.3421C124.736 35.7329 124.562 35.024 124.562 34.2152C124.562 33.6214 124.662 33.0763 124.861 32.5798C125.066 32.0832 125.353 31.6533 125.721 31.2898C126.095 30.9213 126.53 30.6372 127.027 30.4375C127.528 30.2379 128.076 30.1381 128.67 30.1381C129.315 30.1381 129.891 30.2533 130.397 30.4836C130.904 30.7088 131.324 31.0288 131.657 31.4434C131.994 31.8529 132.23 32.3341 132.363 32.8869C132.501 33.4346 132.519 34.0335 132.417 34.6836H126.412C126.407 35.088 126.502 35.4412 126.696 35.7432C126.896 36.0452 127.178 36.2832 127.541 36.4572C127.91 36.6262 128.342 36.7106 128.839 36.7106C129.279 36.7106 129.701 36.6466 130.106 36.5187C130.51 36.3907 130.886 36.2013 131.234 35.9505L131.925 37.3249C131.685 37.5194 131.385 37.6883 131.027 37.8316C130.669 37.975 130.29 38.085 129.891 38.1618C129.496 38.2386 129.118 38.277 128.754 38.277ZM126.527 33.2862H130.512C130.497 32.7692 130.326 32.3648 129.998 32.073C129.67 31.7761 129.212 31.6277 128.624 31.6277C128.04 31.6277 127.559 31.7761 127.18 32.073C126.801 32.3648 126.584 32.7692 126.527 33.2862ZM135.751 38.0466V31.9655H133.332V30.3684H140.135V31.9655H137.716V38.0466H135.751ZM145.175 38.277C144.341 38.277 143.609 38.1081 142.979 37.7702C142.35 37.4273 141.858 36.9512 141.505 36.3421C141.157 35.7329 140.983 35.024 140.983 34.2152C140.983 33.6214 141.083 33.0763 141.282 32.5798C141.487 32.0832 141.774 31.6533 142.142 31.2898C142.516 30.9213 142.951 30.6372 143.448 30.4375C143.949 30.2379 144.497 30.1381 145.091 30.1381C145.736 30.1381 146.312 30.2533 146.818 30.4836C147.325 30.7088 147.745 31.0288 148.078 31.4434C148.415 31.8529 148.651 32.3341 148.784 32.8869C148.922 33.4346 148.94 34.0335 148.838 34.6836H142.833C142.828 35.088 142.923 35.4412 143.118 35.7432C143.317 36.0452 143.599 36.2832 143.962 36.4572C144.331 36.6262 144.763 36.7106 145.26 36.7106C145.7 36.7106 146.122 36.6466 146.527 36.5187C146.931 36.3907 147.307 36.2013 147.655 35.9505L148.346 37.3249C148.106 37.5194 147.806 37.6883 147.448 37.8316C147.09 37.975 146.711 38.085 146.312 38.1618C145.918 38.2386 145.539 38.277 145.175 38.277ZM142.949 33.2862H146.934C146.918 32.7692 146.747 32.3648 146.419 32.073C146.092 31.7761 145.633 31.6277 145.045 31.6277C144.461 31.6277 143.98 31.7761 143.601 32.073C143.222 32.3648 143.005 32.7692 142.949 33.2862ZM150.521 41.2715V30.3684H152.256V31.382C152.553 31.0083 152.934 30.7088 153.4 30.4836C153.866 30.2533 154.429 30.1381 155.089 30.1381C155.832 30.1381 156.492 30.3121 157.07 30.6602C157.649 31.0083 158.102 31.4895 158.429 32.1037C158.762 32.7128 158.928 33.4141 158.928 34.2075C158.928 34.7757 158.834 35.3055 158.644 35.7969C158.455 36.2883 158.189 36.7209 157.846 37.0945C157.503 37.4631 157.093 37.7523 156.617 37.9622C156.146 38.172 155.627 38.277 155.059 38.277C154.506 38.277 154.014 38.1823 153.584 37.9929C153.16 37.7984 152.791 37.5348 152.479 37.202V41.2715H150.521ZM154.729 36.5571C155.164 36.5571 155.55 36.4624 155.888 36.273C156.226 36.0785 156.492 35.8072 156.686 35.4591C156.881 35.1059 156.978 34.6887 156.978 34.2075C156.978 33.7264 156.881 33.3092 156.686 32.956C156.492 32.6028 156.223 32.3315 155.88 32.1421C155.542 31.9527 155.158 31.858 154.729 31.858C154.293 31.858 153.907 31.9527 153.569 32.1421C153.231 32.3315 152.965 32.6028 152.771 32.956C152.576 33.3092 152.479 33.7264 152.479 34.2075C152.479 34.6887 152.574 35.1059 152.763 35.4591C152.957 35.8072 153.224 36.0785 153.561 36.273C153.904 36.4624 154.293 36.5571 154.729 36.5571ZM164.354 38.277C163.704 38.277 163.118 38.1669 162.596 37.9468C162.074 37.7216 161.626 37.3991 161.252 36.9794C160.879 36.5545 160.592 36.0401 160.392 35.436C160.198 34.8269 160.1 34.1384 160.1 33.3706C160.1 32.5209 160.167 31.7633 160.3 31.0979C160.438 30.4273 160.656 29.8463 160.953 29.3549C161.25 28.8635 161.639 28.4617 162.12 28.1494C162.601 27.8372 163.182 27.6145 163.863 27.4814L167.541 26.7597L167.848 28.4259L164.27 29.0862C163.707 29.1988 163.264 29.3754 162.941 29.616C162.619 29.8566 162.381 30.1688 162.227 30.5527C162.074 30.9315 161.974 31.3845 161.928 31.9118C162.25 31.5176 162.642 31.2054 163.103 30.975C163.563 30.7447 164.096 30.6295 164.7 30.6295C165.421 30.6295 166.059 30.7959 166.612 31.1286C167.17 31.4613 167.607 31.9092 167.925 32.4723C168.242 33.0353 168.401 33.6573 168.401 34.3381C168.401 34.8807 168.303 35.39 168.109 35.866C167.919 36.3421 167.646 36.7618 167.287 37.1252C166.929 37.4836 166.502 37.7651 166.005 37.9698C165.514 38.1746 164.963 38.277 164.354 38.277ZM164.324 36.5571C164.728 36.5571 165.089 36.4675 165.406 36.2883C165.729 36.1092 165.982 35.8558 166.166 35.5282C166.356 35.2006 166.45 34.8116 166.45 34.3611C166.45 33.9106 166.358 33.5216 166.174 33.194C165.99 32.8613 165.736 32.6079 165.414 32.4339C165.091 32.2547 164.728 32.1651 164.324 32.1651C163.914 32.1651 163.548 32.2547 163.226 32.4339C162.903 32.6079 162.65 32.8613 162.465 33.194C162.281 33.5216 162.189 33.9106 162.189 34.3611C162.189 34.8116 162.281 35.2006 162.465 35.5282C162.65 35.8558 162.903 36.1092 163.226 36.2883C163.548 36.4675 163.914 36.5571 164.324 36.5571ZM170.838 41.4865C170.536 41.4865 170.239 41.4532 169.947 41.3866C169.655 41.3201 169.374 41.2126 169.103 41.0642L169.54 39.398C169.699 39.4952 169.876 39.5695 170.07 39.6207C170.265 39.6718 170.441 39.6974 170.6 39.6974C170.927 39.6974 171.194 39.6207 171.398 39.4671C171.603 39.3187 171.759 39.0806 171.867 38.753L172.074 38.1388L169.064 30.3684H171.206L173.187 36.0887L175.115 30.3684H177.195L173.924 39.0371C173.679 39.6616 173.4 40.1505 173.088 40.5037C172.775 40.862 172.43 41.1153 172.051 41.2638C171.677 41.4122 171.273 41.4865 170.838 41.4865ZM178.444 41.2715V30.3684H180.18V31.382C180.476 31.0083 180.858 30.7088 181.324 30.4836C181.789 30.2533 182.352 30.1381 183.013 30.1381C183.755 30.1381 184.415 30.3121 184.994 30.6602C185.572 31.0083 186.025 31.4895 186.353 32.1037C186.686 32.7128 186.852 33.4141 186.852 34.2075C186.852 34.7757 186.757 35.3055 186.568 35.7969C186.378 36.2883 186.112 36.7209 185.769 37.0945C185.426 37.4631 185.017 37.7523 184.541 37.9622C184.07 38.172 183.55 38.277 182.982 38.277C182.429 38.277 181.938 38.1823 181.508 37.9929C181.083 37.7984 180.714 37.5348 180.402 37.202V41.2715H178.444ZM182.652 36.5571C183.087 36.5571 183.474 36.4624 183.811 36.273C184.149 36.0785 184.415 35.8072 184.61 35.4591C184.804 35.1059 184.902 34.6887 184.902 34.2075C184.902 33.7264 184.804 33.3092 184.61 32.956C184.415 32.6028 184.147 32.3315 183.804 32.1421C183.466 31.9527 183.082 31.858 182.652 31.858C182.217 31.858 181.83 31.9527 181.493 32.1421C181.155 32.3315 180.889 32.6028 180.694 32.956C180.499 33.3092 180.402 33.7264 180.402 34.2075C180.402 34.6887 180.497 35.1059 180.686 35.4591C180.881 35.8072 181.147 36.0785 181.485 36.273C181.828 36.4624 182.217 36.5571 182.652 36.5571ZM188.477 38.0466V30.3684H193.606V31.9655H190.443V38.0466H188.477ZM197.24 38.277C196.718 38.277 196.255 38.1772 195.85 37.9775C195.446 37.7779 195.128 37.4964 194.898 37.1329C194.668 36.7644 194.553 36.3293 194.553 35.8276C194.553 35.3977 194.66 35.0137 194.875 34.6759C195.09 34.3381 195.42 34.0591 195.866 33.839C196.311 33.6138 196.879 33.4628 197.57 33.386C198.266 33.3092 199.09 33.3194 200.042 33.4167L200.073 34.7143C199.449 34.617 198.904 34.5735 198.438 34.5838C197.972 34.594 197.585 34.6478 197.278 34.745C196.976 34.8423 196.748 34.9754 196.595 35.1443C196.446 35.3132 196.372 35.5103 196.372 35.7355C196.372 36.0733 196.495 36.3344 196.741 36.5187C196.987 36.6978 197.322 36.7874 197.747 36.7874C198.11 36.7874 198.435 36.7209 198.722 36.5878C199.014 36.4547 199.244 36.2679 199.413 36.0273C199.582 35.7816 199.666 35.4924 199.666 35.1596V33.217C199.666 32.8946 199.597 32.6156 199.459 32.3801C199.326 32.1395 199.121 31.9553 198.845 31.8273C198.568 31.6942 198.212 31.6277 197.777 31.6277C197.378 31.6277 196.981 31.6891 196.587 31.8119C196.198 31.9297 195.832 32.1139 195.489 32.3648L194.959 30.9597C195.446 30.6372 195.958 30.4068 196.495 30.2686C197.033 30.1304 197.552 30.0613 198.054 30.0613C198.77 30.0613 199.39 30.1739 199.912 30.3992C200.439 30.6244 200.844 30.9699 201.125 31.4357C201.412 31.8964 201.555 32.4825 201.555 33.194V38.0466H199.82V37.1713C199.564 37.5245 199.211 37.7984 198.76 37.9929C198.31 38.1823 197.803 38.277 197.24 38.277Z" fill="#016DB5"/>
</svg>
