<svg xmlns="http://www.w3.org/2000/svg" width="204" height="46" fill="none"><path fill="#016DB5" fill-rule="evenodd" d="M55.022 0H.072s-.577 3.493 1.537 6.21 4.419 3.104 5.187 3.104h.505v36.479H47.65V12.418L15.37 9.314h32.928c.769 0 3.075-.388 5.188-3.105C55.599 3.493 55.022 0 55.022 0m-40.42 25.586a2.69 2.69 0 0 1 5.38 0v20.207h-5.38zm12.68-2.69a2.69 2.69 0 0 0-2.69 2.69v20.207h5.38V25.585a2.69 2.69 0 0 0-2.69-2.69m8.07 2.69a2.69 2.69 0 0 1 5.38 0v20.207h-5.38z" clip-rule="evenodd"/><path fill="#016DB5" d="M62.43 21.047v-10.75h6.25v1.828h-4.254v8.922zm10.47.23q-1.229 0-2.18-.553a4.1 4.1 0 0 1-1.483-1.482 4 4 0 0 1-.537-2.035q0-.814.307-1.55.307-.738.868-1.298a4.1 4.1 0 0 1 1.336-.89 4.2 4.2 0 0 1 1.689-.33q1.221 0 2.165.552a4 4 0 0 1 1.49 1.482q.545.93.545 2.034a3.9 3.9 0 0 1-.315 1.552 4.1 4.1 0 0 1-.867 1.297 4.1 4.1 0 0 1-1.329.898 4.3 4.3 0 0 1-1.689.323m-.008-1.72a2.33 2.33 0 0 0 1.16-.284q.514-.292.806-.814.292-.53.292-1.251 0-.723-.292-1.252a2.04 2.04 0 0 0-.799-.814 2.33 2.33 0 0 0-1.159-.284q-.653 0-1.167.284-.507.284-.799.814-.284.53-.284 1.252 0 .72.292 1.251.291.523.799.814.506.284 1.151.284m9.464 1.72q-1.221 0-2.173-.53a4 4 0 0 1-1.49-1.451q-.546-.921-.545-2.088 0-.885.322-1.62.322-.746.906-1.29a4.1 4.1 0 0 1 1.367-.853 4.7 4.7 0 0 1 1.72-.307q.806 0 1.497.215.69.215 1.267.66l-.914 1.482a2.3 2.3 0 0 0-.821-.476 2.8 2.8 0 0 0-.952-.161q-.752 0-1.298.276a1.95 1.95 0 0 0-.83.799q-.29.522-.29 1.267 0 1.105.644 1.735.652.622 1.774.622.56 0 1.06-.207.498-.208.867-.568l.875 1.49q-.63.467-1.405.736a4.8 4.8 0 0 1-1.581.269m7.873 0q-1.221 0-2.173-.53a4 4 0 0 1-1.49-1.451q-.545-.921-.545-2.088 0-.885.322-1.62.322-.746.906-1.29a4.1 4.1 0 0 1 1.367-.853 4.7 4.7 0 0 1 1.72-.307q.807 0 1.497.215t1.267.66l-.913 1.482a2.3 2.3 0 0 0-.822-.476 2.8 2.8 0 0 0-.952-.161q-.752 0-1.298.276a1.95 1.95 0 0 0-.829.799q-.292.522-.292 1.267 0 1.105.645 1.735.652.622 1.774.622.56 0 1.06-.207.498-.208.867-.568l.875 1.49q-.63.467-1.405.736a4.8 4.8 0 0 1-1.581.269m6.11-.23v-6.081h-2.418v-1.598h6.803v1.598h-2.419v6.08zm5.878 3.224V13.369h1.736v1.014a3.2 3.2 0 0 1 1.144-.898q.698-.346 1.689-.346 1.113 0 1.981.522.867.523 1.359 1.444.5.913.499 2.104a4.4 4.4 0 0 1-.284 1.589q-.285.737-.799 1.297a3.7 3.7 0 0 1-1.228.868 3.8 3.8 0 0 1-1.559.315q-.83 0-1.474-.284a3.5 3.5 0 0 1-1.106-.791v4.07zm4.208-4.714a2.33 2.33 0 0 0 1.159-.284q.507-.292.799-.814.291-.53.292-1.251 0-.723-.292-1.252a2.03 2.03 0 0 0-.806-.814 2.3 2.3 0 0 0-1.152-.284q-.653 0-1.16.284t-.798.814-.292 1.252q0 .72.284 1.251.292.523.799.814.514.284 1.167.284m9.455 1.72q-1.229 0-2.181-.553a4.1 4.1 0 0 1-1.482-1.482 4 4 0 0 1-.537-2.035q0-.814.307-1.55.307-.738.868-1.298a4.1 4.1 0 0 1 1.336-.89 4.2 4.2 0 0 1 1.689-.33q1.221 0 2.165.552a4 4 0 0 1 1.49 1.482q.545.93.545 2.034 0 .814-.315 1.552a4.132 4.132 0 0 1-2.196 2.196 4.3 4.3 0 0 1-1.689.322m-.008-1.72q.653 0 1.16-.284.514-.292.806-.814.292-.53.292-1.251 0-.723-.292-1.252a2.04 2.04 0 0 0-.799-.814 2.33 2.33 0 0 0-1.159-.284q-.653 0-1.167.284a2.04 2.04 0 0 0-.799.814q-.284.53-.284 1.252 0 .72.292 1.251.292.523.798.814.507.284 1.152.284m5.826 1.49v-7.679h1.888v4.853l3.878-4.853h1.735v7.679h-1.889v-4.914l-3.9 4.914zm3.747-8.907q-.891 0-1.559-.353a2.6 2.6 0 0 1-1.037-.99q-.36-.63-.337-1.452h1.62q-.024.66.33 1.067.36.4.983.4.621 0 .975-.4.36-.407.322-1.067h1.628a2.63 2.63 0 0 1-.353 1.444q-.368.63-1.037.99t-1.535.36m6.015 8.907v-7.679h1.966v2.895h3.54v-2.895h1.965v7.679h-1.965V17.86h-3.54v3.187zm11.868.23q-.784 0-1.39-.3a2.3 2.3 0 0 1-.952-.844q-.346-.553-.346-1.305 0-.645.323-1.152.322-.507.99-.837.669-.337 1.705-.453 1.044-.116 2.472.03l.031 1.298a9.5 9.5 0 0 0-1.636-.13q-.698.015-1.159.161-.453.145-.683.4a.87.87 0 0 0-.223.59q0 .508.369.784.368.268 1.005.268.546 0 .975-.2.438-.199.692-.56a1.5 1.5 0 0 0 .253-.867v-1.943q0-.483-.207-.837a1.3 1.3 0 0 0-.615-.553q-.414-.2-1.067-.2a4 4 0 0 0-1.19.185 3.6 3.6 0 0 0-1.098.553l-.53-1.405a5 5 0 0 1 1.536-.691 6.3 6.3 0 0 1 1.558-.208q1.075 0 1.859.338.79.337 1.213 1.037.43.69.43 1.758v4.853h-1.736v-.876q-.383.53-1.059.822-.676.285-1.52.284m11.993-.23v-6.081h-2.795v.852q0 .983-.138 1.82a4.9 4.9 0 0 1-.468 1.49 3.2 3.2 0 0 1-.937 1.097q-.598.438-1.528.63l-.437-1.344q.714-.169 1.074-.653.369-.49.492-1.259.13-.768.13-1.781v-2.45h6.573v7.679zm-6.303 2.303v-3.839l1.136.1.307-.161h8.369v3.9h-1.796v-2.303h-6.22v2.303zm13.869-2.111q-.645 0-1.251-.1a5.4 5.4 0 0 1-1.144-.3 3.8 3.8 0 0 1-.96-.56l.814-1.29q.476.399 1.128.583a5 5 0 0 0 1.336.185q.876 0 1.367-.246.5-.253.499-.822 0-.498-.514-.706-.507-.207-1.497-.207h-1.413v-1.428h1.359q.882 0 1.336-.2.46-.2.46-.668a.61.61 0 0 0-.199-.468q-.2-.192-.576-.285a3.3 3.3 0 0 0-.868-.1 4 4 0 0 0-1.251.193 2.8 2.8 0 0 0-1.044.59l-.707-1.297a4.3 4.3 0 0 1 1.467-.752 6 6 0 0 1 1.704-.254q1.014 0 1.743.246t1.114.714q.391.468.391 1.136 0 .57-.361 1.006-.352.43-1.044.622.845.2 1.282.684.438.475.438 1.213 0 .768-.445 1.336-.438.56-1.252.867-.806.308-1.912.308m8.945.038q-1.228 0-2.181-.553a4.1 4.1 0 0 1-1.482-1.482 4 4 0 0 1-.537-2.035q0-.814.307-1.55.308-.738.867-1.298a4.1 4.1 0 0 1 1.336-.89 4.2 4.2 0 0 1 1.69-.33q1.22 0 2.165.552a4 4 0 0 1 1.49 1.482q.545.93.545 2.034 0 .814-.315 1.552a4.132 4.132 0 0 1-2.196 2.196 4.3 4.3 0 0 1-1.689.322m-.008-1.72q.653 0 1.159-.284.514-.292.807-.814.291-.53.291-1.251 0-.723-.291-1.252a2.04 2.04 0 0 0-.799-.814 2.33 2.33 0 0 0-1.159-.284q-.653 0-1.167.284a2.04 2.04 0 0 0-.799.814q-.284.53-.284 1.252 0 .72.292 1.251.291.523.798.814.507.284 1.152.284m5.825 4.715V13.368h1.736v1.014a3.2 3.2 0 0 1 1.144-.898q.699-.346 1.689-.346 1.113 0 1.981.522.867.523 1.359 1.444.5.913.499 2.104a4.4 4.4 0 0 1-.284 1.589 4 4 0 0 1-.799 1.297 3.7 3.7 0 0 1-1.228.868 3.8 3.8 0 0 1-1.559.315q-.83 0-1.474-.284a3.5 3.5 0 0 1-1.106-.791v4.07zm4.208-4.715q.653 0 1.16-.284.506-.292.798-.814.292-.53.292-1.251 0-.723-.292-1.252a2 2 0 0 0-.806-.814 2.3 2.3 0 0 0-1.152-.284 2.33 2.33 0 0 0-1.159.284 2.04 2.04 0 0 0-.799.814q-.291.53-.292 1.252 0 .72.285 1.251.291.523.798.814.514.284 1.167.284M67.351 38.277q-1.674 0-2.933-.691a4.9 4.9 0 0 1-1.958-1.943q-.699-1.26-.699-2.956 0-1.236.407-2.257a5.3 5.3 0 0 1 1.167-1.782 5.2 5.2 0 0 1 1.782-1.167 6 6 0 0 1 2.257-.414q1.268 0 2.165.322.9.315 1.597.899l-1.02 1.635a3.1 3.1 0 0 0-1.153-.69 4.3 4.3 0 0 0-1.45-.231q-.853 0-1.529.253-.675.254-1.151.737-.476.476-.73 1.152-.253.675-.253 1.52 0 1.16.453 1.981.453.814 1.29 1.252.837.437 1.988.437.776 0 1.513-.238a4.4 4.4 0 0 0 1.405-.76l.922 1.682q-.768.599-1.782.929-1.005.33-2.288.33m7.713 0q-.784 0-1.39-.3a2.3 2.3 0 0 1-.952-.844q-.346-.554-.346-1.305 0-.645.323-1.152.322-.507.99-.837.669-.337 1.705-.453 1.044-.115 2.472.03l.03 1.298a9.4 9.4 0 0 0-1.635-.13q-.698.015-1.159.161-.453.145-.683.4a.87.87 0 0 0-.223.59q0 .508.369.784.368.268 1.005.268.546 0 .976-.2a1.67 1.67 0 0 0 .69-.56q.255-.368.254-.867v-1.943q0-.483-.207-.837a1.3 1.3 0 0 0-.615-.553q-.414-.2-1.067-.2-.6 0-1.19.185a3.6 3.6 0 0 0-1.098.553l-.53-1.405a5 5 0 0 1 1.536-.691 6.3 6.3 0 0 1 1.559-.208q1.075 0 1.858.338.79.337 1.213 1.037.43.69.43 1.758v4.853h-1.735v-.876q-.385.53-1.06.822-.675.285-1.52.284m6.488-.23v-7.679h1.966v2.895h3.54v-2.895h1.965v7.679h-1.966V34.86h-3.54v3.187zm14.785 0-2.488-4.054 2.396-3.625h2.088l-2.372 3.525 2.718 4.154zm-5.052 0v-7.679h1.965v2.895h2.32v1.597h-2.32v3.187zm10.454 0v-6.081h-2.42v-1.598h6.804v1.598h-2.419v6.08zm5.608-3.47v-1.713h4.269v1.712zm6.49 3.47v-10.75h8.876v10.75h-1.996v-8.922h-4.883v8.922zm14.917.23q-1.251 0-2.196-.507a3.74 3.74 0 0 1-1.474-1.428q-.522-.914-.522-2.127 0-.891.299-1.635a3.86 3.86 0 0 1 2.166-2.142q.752-.3 1.643-.3.968 0 1.727.346.76.338 1.26.96.506.613.706 1.443.207.821.054 1.797h-6.005q-.007.606.284 1.06.3.453.845.713.553.255 1.298.254.66 0 1.267-.192t1.128-.569l.691 1.375q-.36.291-.898.507a6 6 0 0 1-1.136.33 6 6 0 0 1-1.137.115m-2.227-4.99h3.985q-.022-.777-.514-1.214-.492-.445-1.374-.445-.876 0-1.444.445-.568.438-.653 1.213m9.224 4.76v-6.081h-2.419v-1.598h6.803v1.598h-2.419v6.08zm9.424.23q-1.251 0-2.196-.507a3.74 3.74 0 0 1-1.474-1.428q-.522-.914-.522-2.127 0-.891.299-1.635a3.86 3.86 0 0 1 2.166-2.142q.752-.3 1.643-.3.968 0 1.727.346.76.338 1.26.96.506.613.706 1.443.207.821.054 1.797h-6.005q-.007.606.285 1.06.299.453.844.713.553.255 1.298.254.66 0 1.267-.192t1.128-.569l.691 1.375q-.36.291-.898.507a6 6 0 0 1-1.136.33 6 6 0 0 1-1.137.115m-2.226-4.99h3.985q-.023-.777-.515-1.214-.491-.445-1.374-.445-.876 0-1.444.445-.568.438-.652 1.213m7.572 7.985V30.368h1.735v1.014a3.2 3.2 0 0 1 1.144-.898q.699-.345 1.689-.346 1.114 0 1.981.522a3.65 3.65 0 0 1 1.359 1.444q.5.913.499 2.104 0 .852-.284 1.589a4 4 0 0 1-.798 1.297 3.7 3.7 0 0 1-1.229.868q-.706.315-1.558.315-.83 0-1.475-.284a3.5 3.5 0 0 1-1.105-.791v4.07zm4.208-4.715a2.33 2.33 0 0 0 1.159-.284q.507-.292.798-.814.292-.53.292-1.251 0-.723-.292-1.252a2 2 0 0 0-.806-.814 2.3 2.3 0 0 0-1.151-.284 2.33 2.33 0 0 0-1.16.284q-.507.284-.798.814t-.292 1.252q0 .72.284 1.251.292.523.798.814.514.285 1.168.284m9.625 1.72q-.975 0-1.758-.33a3.8 3.8 0 0 1-1.344-.968 4.4 4.4 0 0 1-.86-1.543q-.291-.915-.292-2.065 0-1.275.2-2.273.207-1.006.653-1.743a3.7 3.7 0 0 1 1.167-1.206q.721-.468 1.743-.668l3.678-.721.307 1.666-3.578.66q-.844.17-1.329.53-.483.36-.714.937-.23.567-.299 1.359a3.55 3.55 0 0 1 1.175-.937q.69-.346 1.597-.346 1.082 0 1.912.5.837.498 1.313 1.343t.476 1.866a4 4 0 0 1-.292 1.528q-.284.714-.822 1.26-.537.538-1.282.844a4.3 4.3 0 0 1-1.651.307m-.03-1.72q.606 0 1.082-.269.484-.268.76-.76.284-.49.284-1.167 0-.676-.276-1.167a1.88 1.88 0 0 0-.76-.76 2.2 2.2 0 0 0-1.09-.269q-.615 0-1.098.269a1.9 1.9 0 0 0-.761.76q-.276.492-.276 1.167 0 .676.276 1.167.277.492.761.76.483.27 1.098.27m6.514 4.93q-.453 0-.891-.1a3.3 3.3 0 0 1-.844-.323l.437-1.666q.239.145.53.223.292.076.53.076.491 0 .798-.23.307-.222.469-.714l.207-.614-3.01-7.77h2.142l1.981 5.72 1.928-5.72h2.08l-3.271 8.668q-.368.937-.836 1.467-.469.537-1.037.76a3.3 3.3 0 0 1-1.213.222m7.606-.215V30.368h1.736v1.014a3.2 3.2 0 0 1 1.144-.898q.697-.345 1.689-.346 1.113 0 1.981.522.867.522 1.359 1.444.5.913.499 2.104a4.4 4.4 0 0 1-.284 1.589q-.285.737-.799 1.297a3.7 3.7 0 0 1-1.228.868 3.8 3.8 0 0 1-1.559.315q-.83 0-1.474-.284a3.5 3.5 0 0 1-1.106-.791v4.07zm4.208-4.715q.653 0 1.159-.284.507-.292.799-.814.291-.53.292-1.251 0-.723-.292-1.252a2.03 2.03 0 0 0-.806-.814 2.3 2.3 0 0 0-1.152-.284q-.653 0-1.159.284a2.04 2.04 0 0 0-.799.814q-.292.53-.292 1.252 0 .72.284 1.251.292.523.799.814.514.285 1.167.284m5.825 1.49v-7.679h5.129v1.598h-3.163v6.08zm8.763.23q-.783 0-1.39-.3a2.3 2.3 0 0 1-.952-.844q-.345-.554-.345-1.305 0-.645.322-1.152t.991-.837q.667-.337 1.704-.453 1.044-.115 2.472.03l.031 1.298a9.4 9.4 0 0 0-1.635-.13q-.7.015-1.16.161-.453.145-.683.4a.87.87 0 0 0-.223.59q0 .508.369.784.369.268 1.006.268.545 0 .975-.2.438-.199.691-.56.253-.368.253-.867v-1.943q0-.483-.207-.837a1.3 1.3 0 0 0-.614-.553q-.415-.2-1.068-.2a4 4 0 0 0-1.19.185 3.6 3.6 0 0 0-1.098.553l-.53-1.405a5 5 0 0 1 1.536-.691 6.3 6.3 0 0 1 1.559-.208q1.075 0 1.858.338.791.337 1.213 1.037.43.69.43 1.758v4.853h-1.735v-.876a2.5 2.5 0 0 1-1.06.822q-.675.285-1.52.284"/></svg>