<svg width="1080" height="344" viewBox="0 0 1080 344" fill="none" xmlns="http://www.w3.org/2000/svg">
<g clip-path="url(#clip0_3158_4219)">
<path d="M714.461 186.123L-1032.65 184.462" stroke="#D45749" stroke-width="1.66154" stroke-dasharray="3.32 3.32"/>
<rect width="28.2462" height="18.2769" transform="translate(83.0771 175.323)" fill="white"/>
<path d="M88.8921 175.323L88.8921 193.6" stroke="#D45749" stroke-width="4.98462" stroke-linecap="round"/>
<path d="M95.5383 175.323L104.677 184.462L95.5383 193.6" stroke="#D45749" stroke-width="4.98462" stroke-linecap="round"/>
<rect width="47.3539" height="18.2769" transform="translate(0 175.323)" fill="white"/>
<path d="M2.4924 175.323L11.6309 184.462L2.4924 193.6" stroke="#D45749" stroke-width="4.98462" stroke-linecap="round"/>
<path d="M17.446 175.323L26.5845 184.462L17.446 193.6" stroke="#D45749" stroke-width="4.98462" stroke-linecap="round"/>
<path d="M32.4001 175.323L41.5386 184.462L32.4001 193.6" stroke="#D45749" stroke-width="4.98462" stroke-linecap="round"/>
<ellipse cx="12.5341" cy="12.5668" rx="12.5341" ry="12.5668" transform="matrix(-0.00943156 0.999956 -0.999986 -0.00538613 726.025 172.832)" fill="#D45749" fill-opacity="0.2"/>
<path d="M713.274 192.359C709.362 192.338 706.223 189.158 706.259 185.259C706.296 181.361 709.495 178.215 713.407 178.236C717.319 178.257 720.458 181.437 720.421 185.336C720.385 189.234 717.186 192.38 713.274 192.359Z" fill="#D45749" stroke="#D45749" stroke-width="0.830769"/>
<ellipse cx="12.5341" cy="12.5668" rx="12.5341" ry="12.5668" transform="matrix(-0.00943156 0.999956 -0.999986 -0.00538613 572.174 172.831)" fill="#D45749" fill-opacity="0.2"/>
<path d="M559.423 192.358C555.511 192.337 552.372 189.158 552.408 185.259C552.445 181.36 555.644 178.215 559.556 178.236C563.468 178.257 566.607 181.436 566.57 185.335C566.533 189.234 563.334 192.379 559.423 192.358Z" fill="#D45749" stroke="#D45749" stroke-width="0.830769"/>
<ellipse cx="12.5341" cy="12.5668" rx="12.5341" ry="12.5668" transform="matrix(-0.00943156 0.999956 -0.999986 -0.00538613 418.324 172.832)" fill="#D45749" fill-opacity="0.2"/>
<path d="M405.573 192.359C401.661 192.338 398.522 189.158 398.558 185.259C398.595 181.361 401.794 178.215 405.706 178.236C409.618 178.257 412.757 181.437 412.72 185.336C412.683 189.234 409.484 192.38 405.573 192.359Z" fill="#D45749" stroke="#D45749" stroke-width="0.830769"/>
<ellipse cx="12.5341" cy="12.5668" rx="12.5341" ry="12.5668" transform="matrix(-0.00943156 0.999956 -0.999986 -0.00538613 269.616 172.831)" fill="#D45749" fill-opacity="0.2"/>
<path d="M256.865 192.358C252.953 192.337 249.814 189.157 249.85 185.258C249.887 181.36 253.086 178.214 256.998 178.235C260.91 178.256 264.049 181.436 264.012 185.335C263.975 189.233 260.776 192.379 256.865 192.358Z" fill="#D45749" stroke="#D45749" stroke-width="0.830769"/>
<g clip-path="url(#clip1_3158_4219)">
<path d="M714.642 247.133C714.221 245.071 713.098 243.219 711.464 241.894C709.83 240.568 707.786 239.851 705.682 239.864C703.578 239.878 701.544 240.621 699.927 241.967C698.309 243.313 697.209 245.179 696.814 247.245C695.137 247.544 693.633 248.46 692.598 249.813C691.563 251.166 691.073 252.857 691.224 254.554C691.374 256.251 692.155 257.829 693.413 258.979C694.67 260.128 696.312 260.764 698.016 260.762H698.47V258.945H698.016C696.719 258.948 695.471 258.447 694.537 257.547C693.603 256.647 693.056 255.419 693.012 254.122C692.967 252.826 693.429 251.563 694.299 250.601C695.169 249.639 696.379 249.054 697.673 248.968L698.434 248.916L698.515 248.159C698.699 246.469 699.47 244.896 700.694 243.715C701.918 242.535 703.518 241.821 705.214 241.699C706.91 241.577 708.596 242.054 709.976 243.047C711.357 244.04 712.346 245.486 712.77 247.133H714.642Z" fill="#444B50"/>
<path d="M716.642 248.95H707.556C707.074 248.95 706.612 249.142 706.271 249.482C705.93 249.823 705.739 250.286 705.739 250.768V254.402H702.104C701.622 254.402 701.16 254.594 700.819 254.934C700.478 255.275 700.287 255.737 700.287 256.219V265.306H718.46V250.768C718.46 250.286 718.268 249.823 717.927 249.482C717.587 249.142 717.124 248.95 716.642 248.95ZM702.104 263.489V256.219H705.739V263.489H702.104ZM716.642 263.489H707.556V250.768H716.642V263.489Z" fill="#444B50"/>
<path d="M709.373 252.584H711.19V256.219H709.373V252.584ZM713.008 252.584H714.825V256.219H713.008V252.584ZM709.373 258.036H711.19V261.671H709.373V258.036ZM713.008 258.036H714.825V261.671H713.008V258.036Z" fill="#444B50"/>
</g>
<path d="M735.503 244.585V230.628H746.131V244.585H744.615V232.024H737.019V244.585H735.503ZM753.988 244.884C752.971 244.884 752.073 244.671 751.296 244.246C750.518 243.821 749.91 243.226 749.472 242.462C749.033 241.691 748.814 240.797 748.814 239.78C748.814 239.042 748.936 238.358 749.182 237.726C749.435 237.095 749.787 236.546 750.239 236.081C750.698 235.616 751.229 235.257 751.834 235.005C752.446 234.745 753.11 234.616 753.828 234.616C754.592 234.616 755.274 234.752 755.872 235.024C756.47 235.297 756.968 235.676 757.367 236.161C757.773 236.646 758.062 237.218 758.234 237.876C758.414 238.527 758.46 239.231 758.374 239.989H750.339C750.306 240.707 750.439 241.335 750.738 241.873C751.037 242.405 751.475 242.82 752.054 243.119C752.632 243.419 753.32 243.568 754.117 243.568C754.642 243.568 755.161 243.478 755.672 243.299C756.191 243.119 756.639 242.864 757.018 242.531L757.736 243.678C757.41 243.944 757.035 244.17 756.609 244.356C756.191 244.535 755.755 244.668 755.304 244.754C754.858 244.841 754.42 244.884 753.988 244.884ZM750.409 238.763H756.859C756.825 237.866 756.55 237.165 756.031 236.659C755.52 236.154 754.778 235.902 753.808 235.902C752.871 235.902 752.093 236.154 751.475 236.659C750.864 237.165 750.508 237.866 750.409 238.763ZM760.809 248.772V234.915H762.215V236.45C762.627 235.918 763.145 235.48 763.77 235.134C764.394 234.789 765.195 234.616 766.172 234.616C767.136 234.616 767.983 234.845 768.714 235.304C769.452 235.762 770.024 236.38 770.429 237.158C770.841 237.935 771.047 238.799 771.047 239.75C771.047 240.454 770.928 241.119 770.688 241.744C770.456 242.362 770.123 242.907 769.691 243.379C769.259 243.851 768.744 244.219 768.146 244.485C767.548 244.751 766.887 244.884 766.162 244.884C765.272 244.884 764.507 244.718 763.869 244.386C763.231 244.047 762.703 243.601 762.284 243.05V248.772H760.809ZM765.903 243.518C766.608 243.518 767.232 243.365 767.777 243.06C768.322 242.747 768.748 242.312 769.053 241.754C769.366 241.189 769.522 240.521 769.522 239.75C769.522 238.979 769.366 238.311 769.053 237.746C768.741 237.181 768.312 236.746 767.767 236.44C767.229 236.134 766.608 235.982 765.903 235.982C765.199 235.982 764.574 236.134 764.029 236.44C763.484 236.746 763.055 237.181 762.743 237.746C762.437 238.311 762.284 238.979 762.284 239.75C762.284 240.521 762.437 241.189 762.743 241.754C763.055 242.312 763.484 242.747 764.029 243.06C764.574 243.365 765.199 243.518 765.903 243.518ZM777.84 244.884C776.823 244.884 775.926 244.671 775.148 244.246C774.37 243.821 773.762 243.226 773.324 242.462C772.885 241.691 772.666 240.797 772.666 239.78C772.666 239.042 772.789 238.358 773.035 237.726C773.287 237.095 773.639 236.546 774.091 236.081C774.55 235.616 775.082 235.257 775.686 235.005C776.298 234.745 776.962 234.616 777.68 234.616C778.445 234.616 779.126 234.752 779.724 235.024C780.322 235.297 780.821 235.676 781.219 236.161C781.625 236.646 781.914 237.218 782.087 237.876C782.266 238.527 782.313 239.231 782.226 239.989H774.191C774.158 240.707 774.291 241.335 774.59 241.873C774.889 242.405 775.327 242.82 775.906 243.119C776.484 243.419 777.172 243.568 777.969 243.568C778.494 243.568 779.013 243.478 779.525 243.299C780.043 243.119 780.492 242.864 780.87 242.531L781.588 243.678C781.262 243.944 780.887 244.17 780.462 244.356C780.043 244.535 779.608 244.668 779.156 244.754C778.71 244.841 778.272 244.884 777.84 244.884ZM774.261 238.763H780.711C780.678 237.866 780.402 237.165 779.883 236.659C779.372 236.154 778.631 235.902 777.66 235.902C776.723 235.902 775.946 236.154 775.327 236.659C774.716 237.165 774.36 237.866 774.261 238.763ZM791.859 244.585V236.211H787.163V237.926C787.163 238.896 787.12 239.747 787.034 240.478C786.947 241.202 786.788 241.82 786.555 242.332C786.323 242.844 785.994 243.262 785.568 243.588C785.143 243.907 784.595 244.143 783.923 244.296L783.445 243.349C784.096 243.183 784.585 242.894 784.91 242.481C785.243 242.063 785.462 241.485 785.568 240.747C785.681 240.009 785.738 239.069 785.738 237.926V234.915H793.334V244.585H791.859ZM783.445 247.576V243.349L784.571 243.488L784.791 243.289H795.298V247.576H793.942V244.585H784.801V247.576H783.445ZM800.31 244.884C799.619 244.884 799.021 244.758 798.516 244.505C798.01 244.253 797.622 243.9 797.349 243.448C797.077 242.99 796.94 242.455 796.94 241.843C796.94 241.338 797.07 240.876 797.329 240.458C797.595 240.032 798.01 239.68 798.575 239.401C799.147 239.115 799.891 238.926 800.809 238.833C801.726 238.74 802.842 238.766 804.158 238.912L804.208 240.079C803.125 239.939 802.208 239.889 801.457 239.929C800.712 239.969 800.114 240.076 799.662 240.248C799.21 240.421 798.881 240.644 798.675 240.916C798.476 241.189 798.376 241.488 798.376 241.814C798.376 242.372 798.572 242.807 798.964 243.119C799.356 243.432 799.901 243.588 800.599 243.588C801.184 243.588 801.709 243.478 802.174 243.259C802.64 243.04 803.008 242.737 803.281 242.352C803.553 241.966 803.69 241.524 803.69 241.026V238.205C803.69 237.713 803.583 237.291 803.371 236.939C803.158 236.586 802.846 236.314 802.434 236.121C802.028 235.928 801.533 235.832 800.948 235.832C800.443 235.832 799.938 235.908 799.433 236.061C798.934 236.214 798.446 236.467 797.967 236.819L797.489 235.613C798.074 235.201 798.675 234.915 799.293 234.755C799.911 234.596 800.499 234.516 801.058 234.516C801.942 234.516 802.686 234.656 803.291 234.935C803.896 235.214 804.354 235.626 804.667 236.171C804.979 236.716 805.135 237.39 805.135 238.195V244.585H803.739V243.359C803.394 243.851 802.919 244.229 802.314 244.495C801.709 244.754 801.041 244.884 800.31 244.884ZM813.994 244.585V240.518C813.509 240.644 813.047 240.74 812.609 240.807C812.17 240.866 811.701 240.896 811.203 240.896C810.299 240.896 809.558 240.763 808.98 240.498C808.401 240.225 807.973 239.83 807.694 239.311C807.421 238.786 807.285 238.142 807.285 237.377V234.915H808.76V237.158C808.76 237.942 808.956 238.537 809.349 238.942C809.747 239.348 810.422 239.55 811.372 239.55C811.917 239.55 812.396 239.524 812.808 239.471C813.227 239.418 813.622 239.351 813.994 239.271V234.915H815.47V244.585H813.994ZM821.417 244.884C820.726 244.884 820.127 244.758 819.622 244.505C819.117 244.253 818.728 243.9 818.456 243.448C818.183 242.99 818.047 242.455 818.047 241.843C818.047 241.338 818.177 240.876 818.436 240.458C818.702 240.032 819.117 239.68 819.682 239.401C820.254 239.115 820.998 238.926 821.915 238.833C822.832 238.74 823.949 238.766 825.265 238.912L825.315 240.079C824.231 239.939 823.314 239.889 822.563 239.929C821.819 239.969 821.221 240.076 820.769 240.248C820.317 240.421 819.988 240.644 819.782 240.916C819.582 241.189 819.483 241.488 819.483 241.814C819.483 242.372 819.679 242.807 820.071 243.119C820.463 243.432 821.008 243.588 821.706 243.588C822.291 243.588 822.816 243.478 823.281 243.259C823.746 243.04 824.115 242.737 824.388 242.352C824.66 241.966 824.796 241.524 824.796 241.026V238.205C824.796 237.713 824.69 237.291 824.477 236.939C824.265 236.586 823.952 236.314 823.54 236.121C823.135 235.928 822.64 235.832 822.055 235.832C821.55 235.832 821.045 235.908 820.54 236.061C820.041 236.214 819.553 236.467 819.074 236.819L818.596 235.613C819.18 235.201 819.782 234.915 820.4 234.755C821.018 234.596 821.606 234.516 822.164 234.516C823.048 234.516 823.793 234.656 824.398 234.935C825.002 235.214 825.461 235.626 825.773 236.171C826.086 236.716 826.242 237.39 826.242 238.195V244.585H824.846V243.359C824.501 243.851 824.025 244.229 823.421 244.495C822.816 244.754 822.148 244.884 821.417 244.884ZM834.468 244.585V234.915H835.944V238.813H841.596V234.915H843.072V244.585H841.596V240.109H835.944V244.585H834.468ZM849.007 244.884C848.316 244.884 847.718 244.758 847.213 244.505C846.708 244.253 846.319 243.9 846.047 243.448C845.774 242.99 845.638 242.455 845.638 241.843C845.638 241.338 845.767 240.876 846.027 240.458C846.292 240.032 846.708 239.68 847.273 239.401C847.844 239.115 848.589 238.926 849.506 238.833C850.423 238.74 851.54 238.766 852.856 238.912L852.905 240.079C851.822 239.939 850.905 239.889 850.154 239.929C849.41 239.969 848.811 240.076 848.359 240.248C847.907 240.421 847.578 240.644 847.372 240.916C847.173 241.189 847.073 241.488 847.073 241.814C847.073 242.372 847.269 242.807 847.662 243.119C848.054 243.432 848.599 243.588 849.297 243.588C849.881 243.588 850.406 243.478 850.872 243.259C851.337 243.04 851.706 242.737 851.978 242.352C852.251 241.966 852.387 241.524 852.387 241.026V238.205C852.387 237.713 852.281 237.291 852.068 236.939C851.855 236.586 851.543 236.314 851.131 236.121C850.725 235.928 850.23 235.832 849.645 235.832C849.14 235.832 848.635 235.908 848.13 236.061C847.632 236.214 847.143 236.467 846.665 236.819L846.186 235.613C846.771 235.201 847.372 234.915 847.991 234.755C848.609 234.596 849.197 234.516 849.755 234.516C850.639 234.516 851.383 234.656 851.988 234.935C852.593 235.214 853.052 235.626 853.364 236.171C853.676 236.716 853.833 237.39 853.833 238.195V244.585H852.437V243.359C852.091 243.851 851.616 244.229 851.011 244.495C850.406 244.754 849.738 244.884 849.007 244.884ZM866.386 244.884C865.375 244.884 864.478 244.661 863.694 244.216C862.91 243.771 862.295 243.163 861.85 242.392C861.404 241.614 861.182 240.734 861.182 239.75C861.182 238.999 861.311 238.314 861.57 237.696C861.836 237.071 862.212 236.53 862.697 236.071C863.182 235.606 863.75 235.247 864.402 234.995C865.06 234.742 865.774 234.616 866.545 234.616C867.15 234.616 867.705 234.692 868.21 234.845C868.722 234.998 869.197 235.24 869.635 235.573L868.838 236.739C868.546 236.493 868.197 236.307 867.791 236.181C867.392 236.048 866.964 235.982 866.505 235.982C865.734 235.982 865.066 236.131 864.501 236.43C863.936 236.723 863.498 237.151 863.185 237.716C862.873 238.274 862.717 238.946 862.717 239.73C862.717 240.913 863.056 241.84 863.734 242.511C864.412 243.183 865.332 243.518 866.495 243.518C867.007 243.518 867.485 243.425 867.931 243.239C868.376 243.053 868.728 242.824 868.987 242.551L869.845 243.678C869.346 244.05 868.805 244.346 868.22 244.565C867.635 244.778 867.024 244.884 866.386 244.884ZM876.139 244.884C875.156 244.884 874.275 244.651 873.497 244.186C872.72 243.721 872.108 243.1 871.663 242.322C871.218 241.538 870.995 240.68 870.995 239.75C870.995 239.052 871.121 238.394 871.374 237.776C871.633 237.158 871.995 236.613 872.461 236.141C872.926 235.662 873.471 235.29 874.095 235.024C874.72 234.752 875.401 234.616 876.139 234.616C877.129 234.616 878.01 234.848 878.781 235.314C879.559 235.779 880.17 236.404 880.615 237.188C881.061 237.965 881.283 238.819 881.283 239.75C881.283 240.441 881.154 241.099 880.894 241.724C880.642 242.342 880.286 242.89 879.828 243.369C879.369 243.841 878.824 244.213 878.193 244.485C877.568 244.751 876.884 244.884 876.139 244.884ZM876.139 243.518C876.844 243.518 877.468 243.365 878.013 243.06C878.558 242.747 878.984 242.312 879.289 241.754C879.602 241.189 879.758 240.521 879.758 239.75C879.758 238.979 879.602 238.311 879.289 237.746C878.984 237.181 878.558 236.746 878.013 236.44C877.468 236.134 876.844 235.982 876.139 235.982C875.435 235.982 874.81 236.134 874.265 236.44C873.72 236.746 873.291 237.181 872.979 237.746C872.673 238.311 872.52 238.979 872.52 239.75C872.52 240.521 872.677 241.189 872.989 241.754C873.301 242.312 873.727 242.747 874.265 243.06C874.81 243.365 875.435 243.518 876.139 243.518ZM883.672 244.585V234.915H892.255V244.585H890.78V236.211H885.147V244.585H883.672ZM895.53 248.772V234.915H896.935V236.45C897.347 235.918 897.866 235.48 898.491 235.134C899.115 234.789 899.916 234.616 900.893 234.616C901.857 234.616 902.704 234.845 903.435 235.304C904.173 235.762 904.745 236.38 905.15 237.158C905.562 237.935 905.768 238.799 905.768 239.75C905.768 240.454 905.649 241.119 905.409 241.744C905.177 242.362 904.844 242.907 904.412 243.379C903.98 243.851 903.465 244.219 902.867 244.485C902.269 244.751 901.608 244.884 900.883 244.884C899.993 244.884 899.228 244.718 898.59 244.386C897.952 244.047 897.424 243.601 897.005 243.05V248.772H895.53ZM900.624 243.518C901.329 243.518 901.953 243.365 902.498 243.06C903.043 242.747 903.469 242.312 903.774 241.754C904.087 241.189 904.243 240.521 904.243 239.75C904.243 238.979 904.087 238.311 903.774 237.746C903.462 237.181 903.033 236.746 902.488 236.44C901.95 236.134 901.329 235.982 900.624 235.982C899.92 235.982 899.295 236.134 898.75 236.44C898.205 236.746 897.776 237.181 897.464 237.746C897.158 238.311 897.005 238.979 897.005 239.75C897.005 240.521 897.158 241.189 897.464 241.754C897.776 242.312 898.205 242.747 898.75 243.06C899.295 243.365 899.92 243.518 900.624 243.518ZM912.531 244.884C911.547 244.884 910.666 244.651 909.889 244.186C909.111 243.721 908.5 243.1 908.055 242.322C907.609 241.538 907.387 240.68 907.387 239.75C907.387 239.052 907.513 238.394 907.765 237.776C908.025 237.158 908.387 236.613 908.852 236.141C909.317 235.662 909.862 235.29 910.487 235.024C911.112 234.752 911.793 234.616 912.531 234.616C913.521 234.616 914.402 234.848 915.173 235.314C915.95 235.779 916.562 236.404 917.007 237.188C917.452 237.965 917.675 238.819 917.675 239.75C917.675 240.441 917.545 241.099 917.286 241.724C917.034 242.342 916.678 242.89 916.219 243.369C915.761 243.841 915.216 244.213 914.584 244.485C913.96 244.751 913.275 244.884 912.531 244.884ZM912.531 243.518C913.235 243.518 913.86 243.365 914.405 243.06C914.95 242.747 915.375 242.312 915.681 241.754C915.993 241.189 916.15 240.521 916.15 239.75C916.15 238.979 915.993 238.311 915.681 237.746C915.375 237.181 914.95 236.746 914.405 236.44C913.86 236.134 913.235 235.982 912.531 235.982C911.826 235.982 911.202 236.134 910.657 236.44C910.112 236.746 909.683 237.181 909.37 237.746C909.065 238.311 908.912 238.979 908.912 239.75C908.912 240.521 909.068 241.189 909.38 241.754C909.693 242.312 910.118 242.747 910.657 243.06C911.202 243.365 911.826 243.518 912.531 243.518ZM920.063 244.585V234.915H924.35C925.407 234.915 926.268 235.127 926.932 235.553C927.597 235.972 927.929 236.596 927.929 237.427C927.929 237.773 927.849 238.092 927.69 238.384C927.537 238.677 927.314 238.929 927.022 239.142C926.73 239.354 926.377 239.514 925.965 239.62L925.935 239.301C926.726 239.447 927.324 239.743 927.73 240.189C928.135 240.627 928.338 241.166 928.338 241.804C928.338 242.375 928.185 242.87 927.879 243.289C927.58 243.701 927.148 244.02 926.583 244.246C926.025 244.472 925.364 244.585 924.599 244.585H920.063ZM921.519 243.349H924.39C925.181 243.349 925.792 243.222 926.224 242.97C926.656 242.711 926.872 242.319 926.872 241.794C926.872 241.269 926.656 240.88 926.224 240.627C925.792 240.375 925.181 240.248 924.39 240.248H921.25V239.032H924.171C924.908 239.032 925.48 238.922 925.885 238.703C926.291 238.477 926.494 238.108 926.494 237.597C926.494 237.078 926.291 236.706 925.885 236.48C925.487 236.254 924.915 236.141 924.171 236.141H921.519V243.349ZM935.331 244.884C934.348 244.884 933.467 244.651 932.69 244.186C931.912 243.721 931.301 243.1 930.855 242.322C930.41 241.538 930.187 240.68 930.187 239.75C930.187 239.052 930.314 238.394 930.566 237.776C930.825 237.158 931.188 236.613 931.653 236.141C932.118 235.662 932.663 235.29 933.288 235.024C933.913 234.752 934.594 234.616 935.331 234.616C936.322 234.616 937.202 234.848 937.973 235.314C938.751 235.779 939.362 236.404 939.808 237.188C940.253 237.965 940.476 238.819 940.476 239.75C940.476 240.441 940.346 241.099 940.087 241.724C939.834 242.342 939.479 242.89 939.02 243.369C938.561 243.841 938.017 244.213 937.385 244.485C936.76 244.751 936.076 244.884 935.331 244.884ZM935.331 243.518C936.036 243.518 936.661 243.365 937.206 243.06C937.751 242.747 938.176 242.312 938.482 241.754C938.794 241.189 938.95 240.521 938.95 239.75C938.95 238.979 938.794 238.311 938.482 237.746C938.176 237.181 937.751 236.746 937.206 236.44C936.661 236.134 936.036 235.982 935.331 235.982C934.627 235.982 934.002 236.134 933.457 236.44C932.912 236.746 932.484 237.181 932.171 237.746C931.865 238.311 931.713 238.979 931.713 239.75C931.713 240.521 931.869 241.189 932.181 241.754C932.494 242.312 932.919 242.747 933.457 243.06C934.002 243.365 934.627 243.518 935.331 243.518ZM947.814 244.585V240.109H945.202V238.813H947.814V234.915H949.289V238.813H951.891V240.109H949.289V244.585H947.814ZM941.583 244.585L944.733 239.421L942.111 234.915H943.736L946.348 239.391L943.307 244.585H941.583ZM953.745 244.585L950.745 239.391L953.406 234.915H954.981L952.36 239.331L955.53 244.585H953.745ZM964.899 244.585V236.211H960.203V237.926C960.203 238.896 960.16 239.747 960.074 240.478C959.987 241.202 959.828 241.82 959.595 242.332C959.363 242.844 959.034 243.262 958.608 243.588C958.183 243.907 957.635 244.143 956.963 244.296L956.485 243.349C957.136 243.183 957.625 242.894 957.95 242.481C958.283 242.063 958.502 241.485 958.608 240.747C958.721 240.009 958.778 239.069 958.778 237.926V234.915H966.374V244.585H964.899ZM956.485 247.576V243.349L957.611 243.488L957.831 243.289H968.338V247.576H966.983V244.585H957.841V247.576H956.485ZM974.596 244.884C973.579 244.884 972.682 244.671 971.904 244.246C971.126 243.821 970.518 243.226 970.08 242.462C969.641 241.691 969.422 240.797 969.422 239.78C969.422 239.042 969.545 238.358 969.791 237.726C970.043 237.095 970.395 236.546 970.847 236.081C971.306 235.616 971.838 235.257 972.442 235.005C973.054 234.745 973.718 234.616 974.436 234.616C975.201 234.616 975.882 234.752 976.48 235.024C977.078 235.297 977.577 235.676 977.975 236.161C978.381 236.646 978.67 237.218 978.843 237.876C979.022 238.527 979.069 239.231 978.982 239.989H970.947C970.914 240.707 971.047 241.335 971.346 241.873C971.645 242.405 972.083 242.82 972.662 243.119C973.24 243.419 973.928 243.568 974.725 243.568C975.25 243.568 975.769 243.478 976.281 243.299C976.799 243.119 977.248 242.864 977.626 242.531L978.344 243.678C978.019 243.944 977.643 244.17 977.218 244.356C976.799 244.535 976.364 244.668 975.912 244.754C975.466 244.841 975.028 244.884 974.596 244.884ZM971.017 238.763H977.467C977.434 237.866 977.158 237.165 976.639 236.659C976.128 236.154 975.387 235.902 974.416 235.902C973.479 235.902 972.702 236.154 972.083 236.659C971.472 237.165 971.116 237.866 971.017 238.763ZM981.417 244.585V234.915H982.892V238.813H988.545V234.915H990.02V244.585H988.545V240.109H982.892V244.585H981.417ZM993.294 244.585V234.915H994.75V242.292L1000.76 234.915H1002V244.585H1000.55V237.128L994.481 244.585H993.294ZM1009.57 244.884C1008.55 244.884 1007.65 244.671 1006.87 244.246C1006.1 243.821 1005.49 243.226 1005.05 242.462C1004.61 241.691 1004.39 240.797 1004.39 239.78C1004.39 239.042 1004.51 238.358 1004.76 237.726C1005.01 237.095 1005.37 236.546 1005.82 236.081C1006.28 235.616 1006.81 235.257 1007.41 235.005C1008.02 234.745 1008.69 234.616 1009.41 234.616C1010.17 234.616 1010.85 234.752 1011.45 235.024C1012.05 235.297 1012.55 235.676 1012.95 236.161C1013.35 236.646 1013.64 237.218 1013.81 237.876C1013.99 238.527 1014.04 239.231 1013.95 239.989H1005.92C1005.88 240.707 1006.02 241.335 1006.32 241.873C1006.62 242.405 1007.05 242.82 1007.63 243.119C1008.21 243.419 1008.9 243.568 1009.7 243.568C1010.22 243.568 1010.74 243.478 1011.25 243.299C1011.77 243.119 1012.22 242.864 1012.6 242.531L1013.31 243.678C1012.99 243.944 1012.61 244.17 1012.19 244.356C1011.77 244.535 1011.33 244.668 1010.88 244.754C1010.44 244.841 1010 244.884 1009.57 244.884ZM1005.99 238.763H1012.44C1012.4 237.866 1012.13 237.165 1011.61 236.659C1011.1 236.154 1010.36 235.902 1009.39 235.902C1008.45 235.902 1007.67 236.154 1007.05 236.659C1006.44 237.165 1006.09 237.866 1005.99 238.763ZM1021.25 246.878L1019.97 246.369L1027.39 228.534L1028.66 229.043L1021.25 246.878ZM735.503 273.585V259.628H742.98V261.024H737.019V273.585H735.503ZM746.998 273.884C746.307 273.884 745.709 273.758 745.204 273.505C744.698 273.253 744.31 272.9 744.037 272.448C743.765 271.99 743.628 271.455 743.628 270.843C743.628 270.338 743.758 269.876 744.017 269.458C744.283 269.032 744.698 268.68 745.263 268.401C745.835 268.115 746.579 267.926 747.497 267.833C748.414 267.74 749.53 267.766 750.846 267.912L750.896 269.079C749.813 268.939 748.896 268.889 748.145 268.929C747.4 268.969 746.802 269.076 746.35 269.248C745.898 269.421 745.569 269.644 745.363 269.916C745.164 270.189 745.064 270.488 745.064 270.814C745.064 271.372 745.26 271.807 745.652 272.119C746.044 272.432 746.589 272.588 747.287 272.588C747.872 272.588 748.397 272.478 748.862 272.259C749.328 272.04 749.696 271.737 749.969 271.352C750.241 270.966 750.378 270.524 750.378 270.026V267.205C750.378 266.713 750.271 266.291 750.059 265.939C749.846 265.586 749.534 265.314 749.121 265.121C748.716 264.928 748.221 264.832 747.636 264.832C747.131 264.832 746.626 264.908 746.121 265.061C745.622 265.214 745.134 265.467 744.655 265.819L744.177 264.613C744.762 264.201 745.363 263.915 745.981 263.755C746.599 263.596 747.187 263.516 747.746 263.516C748.63 263.516 749.374 263.656 749.979 263.935C750.584 264.214 751.042 264.626 751.355 265.171C751.667 265.716 751.823 266.39 751.823 267.195V273.585H750.427V272.359C750.082 272.851 749.607 273.229 749.002 273.495C748.397 273.754 747.729 273.884 746.998 273.884ZM754.968 277.772V263.915H756.373V265.45C756.785 264.918 757.304 264.48 757.928 264.134C758.553 263.789 759.354 263.616 760.331 263.616C761.295 263.616 762.142 263.845 762.873 264.304C763.611 264.762 764.182 265.38 764.588 266.158C765 266.935 765.206 267.799 765.206 268.75C765.206 269.454 765.086 270.119 764.847 270.744C764.614 271.362 764.282 271.907 763.85 272.379C763.418 272.851 762.903 273.219 762.305 273.485C761.707 273.751 761.045 273.884 760.321 273.884C759.43 273.884 758.666 273.718 758.028 273.386C757.39 273.047 756.862 272.601 756.443 272.05V277.772H754.968ZM760.062 272.518C760.766 272.518 761.391 272.365 761.936 272.06C762.481 271.747 762.906 271.312 763.212 270.754C763.524 270.189 763.681 269.521 763.681 268.75C763.681 267.979 763.524 267.311 763.212 266.746C762.9 266.181 762.471 265.746 761.926 265.44C761.388 265.134 760.766 264.982 760.062 264.982C759.357 264.982 758.733 265.134 758.188 265.44C757.643 265.746 757.214 266.181 756.902 266.746C756.596 267.311 756.443 267.979 756.443 268.75C756.443 269.521 756.596 270.189 756.902 270.754C757.214 271.312 757.643 271.747 758.188 272.06C758.733 272.365 759.357 272.518 760.062 272.518ZM770.266 273.884C769.575 273.884 768.977 273.758 768.472 273.505C767.967 273.253 767.578 272.9 767.305 272.448C767.033 271.99 766.896 271.455 766.896 270.843C766.896 270.338 767.026 269.876 767.285 269.458C767.551 269.032 767.967 268.68 768.531 268.401C769.103 268.115 769.847 267.926 770.765 267.833C771.682 267.74 772.798 267.766 774.114 267.912L774.164 269.079C773.081 268.939 772.164 268.889 771.413 268.929C770.668 268.969 770.07 269.076 769.618 269.248C769.166 269.421 768.837 269.644 768.631 269.916C768.432 270.189 768.332 270.488 768.332 270.814C768.332 271.372 768.528 271.807 768.92 272.119C769.312 272.432 769.857 272.588 770.555 272.588C771.14 272.588 771.665 272.478 772.13 272.259C772.596 272.04 772.964 271.737 773.237 271.352C773.509 270.966 773.646 270.524 773.646 270.026V267.205C773.646 266.713 773.539 266.291 773.327 265.939C773.114 265.586 772.802 265.314 772.39 265.121C771.984 264.928 771.489 264.832 770.904 264.832C770.399 264.832 769.894 264.908 769.389 265.061C768.89 265.214 768.402 265.467 767.923 265.819L767.445 264.613C768.03 264.201 768.631 263.915 769.249 263.755C769.867 263.596 770.455 263.516 771.014 263.516C771.898 263.516 772.642 263.656 773.247 263.935C773.852 264.214 774.31 264.626 774.623 265.171C774.935 265.716 775.091 266.39 775.091 267.195V273.585H773.695V272.359C773.35 272.851 772.875 273.229 772.27 273.495C771.665 273.754 770.997 273.884 770.266 273.884ZM778.236 273.585V263.915H779.711V267.813H785.364V263.915H786.839V273.585H785.364V269.109H779.711V273.585H778.236ZM792.446 273.585V265.211H788.986V263.915H797.381V265.211H793.921V273.585H792.446ZM799.518 273.585V263.915H800.973V271.292L806.984 263.915H808.221V273.585H806.775V266.128L800.704 273.585H799.518ZM811.492 273.585V263.915H812.948V271.292L818.959 263.915H820.195V273.585H818.75V266.128L812.679 273.585H811.492ZM815.839 262.021C815.161 262.021 814.563 261.871 814.044 261.572C813.526 261.266 813.124 260.854 812.838 260.336C812.552 259.811 812.423 259.213 812.449 258.541H813.735C813.709 259.239 813.888 259.804 814.274 260.236C814.659 260.662 815.181 260.874 815.839 260.874C816.497 260.874 817.015 260.662 817.394 260.236C817.773 259.804 817.942 259.239 817.902 258.541H819.208C819.228 259.206 819.095 259.801 818.81 260.326C818.524 260.851 818.122 261.266 817.603 261.572C817.092 261.871 816.503 262.021 815.839 262.021ZM823.467 273.585V263.915H824.942V267.813H830.595V263.915H832.07V273.585H830.595V269.109H824.942V273.585H823.467ZM838.006 273.884C837.315 273.884 836.717 273.758 836.212 273.505C835.707 273.253 835.318 272.9 835.045 272.448C834.773 271.99 834.637 271.455 834.637 270.843C834.637 270.338 834.766 269.876 835.025 269.458C835.291 269.032 835.707 268.68 836.272 268.401C836.843 268.115 837.588 267.926 838.505 267.833C839.422 267.74 840.538 267.766 841.854 267.912L841.904 269.079C840.821 268.939 839.904 268.889 839.153 268.929C838.408 268.969 837.81 269.076 837.358 269.248C836.906 269.421 836.577 269.644 836.371 269.916C836.172 270.189 836.072 270.488 836.072 270.814C836.072 271.372 836.268 271.807 836.66 272.119C837.052 272.432 837.597 272.588 838.295 272.588C838.88 272.588 839.405 272.478 839.87 272.259C840.336 272.04 840.705 271.737 840.977 271.352C841.25 270.966 841.386 270.524 841.386 270.026V267.205C841.386 266.713 841.279 266.291 841.067 265.939C840.854 265.586 840.542 265.314 840.13 265.121C839.724 264.928 839.229 264.832 838.644 264.832C838.139 264.832 837.634 264.908 837.129 265.061C836.63 265.214 836.142 265.467 835.663 265.819L835.185 264.613C835.77 264.201 836.371 263.915 836.989 263.755C837.607 263.596 838.196 263.516 838.754 263.516C839.638 263.516 840.382 263.656 840.987 263.935C841.592 264.214 842.05 264.626 842.363 265.171C842.675 265.716 842.831 266.39 842.831 267.195V273.585H841.436V272.359C841.09 272.851 840.615 273.229 840.01 273.495C839.405 273.754 838.737 273.884 838.006 273.884ZM845.348 273.585L849.325 268.76L849.535 269.797C848.691 269.803 847.989 269.684 847.431 269.438C846.873 269.192 846.458 268.85 846.185 268.411C845.913 267.972 845.776 267.457 845.776 266.866C845.776 266.241 845.942 265.709 846.275 265.271C846.607 264.832 847.072 264.496 847.67 264.264C848.269 264.031 848.963 263.915 849.754 263.915H853.552V273.585H852.107V265.161H849.854C849.003 265.161 848.365 265.301 847.94 265.58C847.514 265.852 847.302 266.274 847.302 266.846C847.302 267.411 847.501 267.839 847.9 268.132C848.299 268.424 848.89 268.57 849.674 268.57H852.366V269.787H850.252L847.142 273.585H845.348ZM861.903 273.585V263.915H870.487V273.585H869.011V265.211H863.379V273.585H861.903ZM878.028 273.884C877.044 273.884 876.164 273.651 875.386 273.186C874.608 272.721 873.997 272.1 873.552 271.322C873.106 270.538 872.884 269.68 872.884 268.75C872.884 268.052 873.01 267.394 873.263 266.776C873.522 266.158 873.884 265.613 874.349 265.141C874.814 264.662 875.359 264.29 875.984 264.024C876.609 263.752 877.29 263.616 878.028 263.616C879.018 263.616 879.899 263.848 880.67 264.314C881.447 264.779 882.059 265.404 882.504 266.188C882.949 266.965 883.172 267.819 883.172 268.75C883.172 269.441 883.042 270.099 882.783 270.724C882.531 271.342 882.175 271.89 881.716 272.369C881.258 272.841 880.713 273.213 880.082 273.485C879.457 273.751 878.772 273.884 878.028 273.884ZM878.028 272.518C878.732 272.518 879.357 272.365 879.902 272.06C880.447 271.747 880.872 271.312 881.178 270.754C881.49 270.189 881.647 269.521 881.647 268.75C881.647 267.979 881.49 267.311 881.178 266.746C880.872 266.181 880.447 265.746 879.902 265.44C879.357 265.134 878.732 264.982 878.028 264.982C877.323 264.982 876.699 265.134 876.154 265.44C875.609 265.746 875.18 266.181 874.868 266.746C874.562 267.311 874.409 267.979 874.409 268.75C874.409 269.521 874.565 270.189 874.878 270.754C875.19 271.312 875.615 271.747 876.154 272.06C876.699 272.365 877.323 272.518 878.028 272.518ZM892.758 273.585V265.211H888.063V266.926C888.063 267.896 888.02 268.747 887.933 269.478C887.847 270.202 887.687 270.82 887.455 271.332C887.222 271.844 886.893 272.262 886.468 272.588C886.042 272.907 885.494 273.143 884.823 273.296L884.344 272.349C884.996 272.183 885.484 271.894 885.81 271.481C886.142 271.063 886.361 270.485 886.468 269.747C886.581 269.009 886.637 268.069 886.637 266.926V263.915H894.234V273.585H892.758ZM884.344 276.576V272.349L885.471 272.488L885.69 272.289H896.198V276.576H894.842V273.585H885.7V276.576H884.344ZM905.921 273.585V265.211H901.225V266.926C901.225 267.896 901.182 268.747 901.096 269.478C901.009 270.202 900.85 270.82 900.617 271.332C900.385 271.844 900.056 272.262 899.63 272.588C899.205 272.907 898.657 273.143 897.985 273.296L897.507 272.349C898.158 272.183 898.647 271.894 898.972 271.481C899.305 271.063 899.524 270.485 899.63 269.747C899.743 269.009 899.8 268.069 899.8 266.926V263.915H907.396V273.585H905.921ZM897.507 276.576V272.349L898.633 272.488L898.853 272.289H909.36V276.576H908.004V273.585H898.863V276.576H897.507ZM915.618 273.884C914.601 273.884 913.704 273.671 912.926 273.246C912.148 272.821 911.54 272.226 911.102 271.462C910.663 270.691 910.444 269.797 910.444 268.78C910.444 268.042 910.567 267.358 910.812 266.726C911.065 266.095 911.417 265.546 911.869 265.081C912.328 264.616 912.859 264.257 913.464 264.005C914.076 263.745 914.74 263.616 915.458 263.616C916.222 263.616 916.904 263.752 917.502 264.024C918.1 264.297 918.598 264.676 918.997 265.161C919.403 265.646 919.692 266.218 919.864 266.876C920.044 267.527 920.09 268.231 920.004 268.989H911.969C911.936 269.707 912.069 270.335 912.368 270.873C912.667 271.405 913.105 271.82 913.684 272.119C914.262 272.419 914.95 272.568 915.747 272.568C916.272 272.568 916.791 272.478 917.302 272.299C917.821 272.119 918.269 271.864 918.648 271.531L919.366 272.678C919.04 272.944 918.665 273.17 918.24 273.356C917.821 273.535 917.385 273.668 916.934 273.754C916.488 273.841 916.05 273.884 915.618 273.884ZM912.039 267.763H918.489C918.456 266.866 918.18 266.165 917.661 265.659C917.15 265.154 916.408 264.902 915.438 264.902C914.501 264.902 913.723 265.154 913.105 265.659C912.494 266.165 912.138 266.866 912.039 267.763ZM922.439 277.772V263.915H923.845V265.45C924.257 264.918 924.775 264.48 925.4 264.134C926.024 263.789 926.825 263.616 927.802 263.616C928.766 263.616 929.613 263.845 930.344 264.304C931.082 264.762 931.654 265.38 932.059 266.158C932.471 266.935 932.677 267.799 932.677 268.75C932.677 269.454 932.558 270.119 932.318 270.744C932.086 271.362 931.753 271.907 931.321 272.379C930.889 272.851 930.374 273.219 929.776 273.485C929.178 273.751 928.517 273.884 927.792 273.884C926.902 273.884 926.137 273.718 925.499 273.386C924.861 273.047 924.333 272.601 923.914 272.05V277.772H922.439ZM927.533 272.518C928.238 272.518 928.862 272.365 929.407 272.06C929.952 271.747 930.378 271.312 930.683 270.754C930.996 270.189 931.152 269.521 931.152 268.75C931.152 267.979 930.996 267.311 930.683 266.746C930.371 266.181 929.942 265.746 929.397 265.44C928.859 265.134 928.238 264.982 927.533 264.982C926.829 264.982 926.204 265.134 925.659 265.44C925.114 265.746 924.685 266.181 924.373 266.746C924.067 267.311 923.914 267.979 923.914 268.75C923.914 269.521 924.067 270.189 924.373 270.754C924.685 271.312 925.114 271.747 925.659 272.06C926.204 272.365 926.829 272.518 927.533 272.518ZM940.025 273.585V269.109H937.413V267.813H940.025V263.915H941.501V267.813H944.103V269.109H941.501V273.585H940.025ZM933.794 273.585L936.945 268.421L934.323 263.915H935.948L938.56 268.391L935.519 273.585H933.794ZM945.957 273.585L942.956 268.391L945.618 263.915H947.193L944.571 268.331L947.741 273.585H945.957ZM956.462 273.585L953.123 268.391L956.014 263.915H957.619L954.738 268.331L958.267 273.585H956.462ZM949.913 273.585V263.915H951.388V267.813H954.269V269.109H951.388V273.585H949.913ZM963.108 273.884C962.417 273.884 961.819 273.758 961.314 273.505C960.809 273.253 960.42 272.9 960.148 272.448C959.875 271.99 959.739 271.455 959.739 270.843C959.739 270.338 959.868 269.876 960.128 269.458C960.393 269.032 960.809 268.68 961.374 268.401C961.945 268.115 962.69 267.926 963.607 267.833C964.524 267.74 965.641 267.766 966.957 267.912L967.006 269.079C965.923 268.939 965.006 268.889 964.255 268.929C963.51 268.969 962.912 269.076 962.46 269.248C962.008 269.421 961.679 269.644 961.473 269.916C961.274 270.189 961.174 270.488 961.174 270.814C961.174 271.372 961.37 271.807 961.763 272.119C962.155 272.432 962.7 272.588 963.397 272.588C963.982 272.588 964.507 272.478 964.973 272.259C965.438 272.04 965.807 271.737 966.079 271.352C966.352 270.966 966.488 270.524 966.488 270.026V267.205C966.488 266.713 966.382 266.291 966.169 265.939C965.956 265.586 965.644 265.314 965.232 265.121C964.826 264.928 964.331 264.832 963.746 264.832C963.241 264.832 962.736 264.908 962.231 265.061C961.733 265.214 961.244 265.467 960.766 265.819L960.287 264.613C960.872 264.201 961.473 263.915 962.092 263.755C962.71 263.596 963.298 263.516 963.856 263.516C964.74 263.516 965.484 263.656 966.089 263.935C966.694 264.214 967.153 264.626 967.465 265.171C967.777 265.716 967.933 266.39 967.933 267.195V273.585H966.538V272.359C966.192 272.851 965.717 273.229 965.112 273.495C964.507 273.754 963.839 273.884 963.108 273.884Z" fill="#444B50"/>
<g clip-path="url(#clip2_3158_4219)">
<path d="M555.292 117.221L554.01 118.502L556.355 120.856H545.296V104.5H543.479V120.856C543.479 121.858 544.294 122.673 545.296 122.673H556.355L554.01 125.026L555.292 126.308L559.835 121.764L555.292 117.221Z" fill="#444B50"/>
<path d="M551.657 112.678C552.159 112.678 552.565 112.271 552.565 111.769C552.565 111.267 552.159 110.86 551.657 110.86C551.155 110.86 550.748 111.267 550.748 111.769C550.748 112.271 551.155 112.678 551.657 112.678Z" fill="#444B50"/>
<path d="M563.469 115.404H548.931C547.928 115.404 547.113 114.589 547.113 113.587V109.952C547.113 108.95 547.928 108.135 548.931 108.135H563.469C564.471 108.135 565.286 108.95 565.286 109.952V113.587C565.286 114.589 564.471 115.404 563.469 115.404ZM548.931 109.952V113.587H563.469V109.952H548.931Z" fill="#444B50"/>
<path d="M567.104 100.866H556.046L558.39 98.5122L557.109 97.231L552.565 101.774L557.109 106.317L558.39 105.036L556.046 102.683H567.104V119.039H568.921V102.683C568.921 101.682 568.106 100.866 567.104 100.866Z" fill="#444B50"/>
</g>
<path d="M585.965 118.27V104.313H596.592V118.27H595.077V105.708H587.48V118.27H585.965ZM604.449 118.569C603.432 118.569 602.535 118.356 601.757 117.931C600.98 117.505 600.372 116.91 599.933 116.146C599.494 115.375 599.275 114.481 599.275 113.464C599.275 112.727 599.398 112.042 599.644 111.411C599.896 110.779 600.249 110.231 600.701 109.766C601.159 109.301 601.691 108.942 602.296 108.689C602.907 108.43 603.572 108.3 604.289 108.3C605.054 108.3 605.735 108.437 606.333 108.709C606.931 108.982 607.43 109.36 607.829 109.846C608.234 110.331 608.523 110.902 608.696 111.56C608.875 112.212 608.922 112.916 608.835 113.674H600.8C600.767 114.392 600.9 115.02 601.199 115.558C601.498 116.09 601.937 116.505 602.515 116.804C603.093 117.103 603.781 117.253 604.579 117.253C605.104 117.253 605.622 117.163 606.134 116.984C606.652 116.804 607.101 116.548 607.48 116.216L608.197 117.362C607.872 117.628 607.496 117.854 607.071 118.04C606.652 118.22 606.217 118.353 605.765 118.439C605.32 118.525 604.881 118.569 604.449 118.569ZM600.87 112.448H607.32C607.287 111.55 607.011 110.849 606.493 110.344C605.981 109.839 605.24 109.586 604.27 109.586C603.332 109.586 602.555 109.839 601.937 110.344C601.325 110.849 600.97 111.55 600.87 112.448ZM611.27 122.457V108.599H612.676V110.135C613.088 109.603 613.606 109.164 614.231 108.819C614.856 108.473 615.657 108.3 616.634 108.3C617.597 108.3 618.445 108.53 619.176 108.988C619.914 109.447 620.485 110.065 620.891 110.842C621.303 111.62 621.509 112.484 621.509 113.434C621.509 114.139 621.389 114.804 621.15 115.428C620.917 116.046 620.585 116.591 620.153 117.063C619.721 117.535 619.206 117.904 618.608 118.17C618.009 118.436 617.348 118.569 616.624 118.569C615.733 118.569 614.969 118.402 614.331 118.07C613.693 117.731 613.164 117.286 612.746 116.734V122.457H611.27ZM616.365 117.203C617.069 117.203 617.694 117.05 618.239 116.744C618.784 116.432 619.209 115.997 619.515 115.438C619.827 114.873 619.983 114.205 619.983 113.434C619.983 112.664 619.827 111.996 619.515 111.431C619.202 110.866 618.774 110.43 618.229 110.125C617.69 109.819 617.069 109.666 616.365 109.666C615.66 109.666 615.035 109.819 614.49 110.125C613.945 110.43 613.517 110.866 613.204 111.431C612.899 111.996 612.746 112.664 612.746 113.434C612.746 114.205 612.899 114.873 613.204 115.438C613.517 115.997 613.945 116.432 614.49 116.744C615.035 117.05 615.66 117.203 616.365 117.203ZM628.301 118.569C627.284 118.569 626.387 118.356 625.609 117.931C624.832 117.505 624.224 116.91 623.785 116.146C623.346 115.375 623.127 114.481 623.127 113.464C623.127 112.727 623.25 112.042 623.496 111.411C623.749 110.779 624.101 110.231 624.553 109.766C625.011 109.301 625.543 108.942 626.148 108.689C626.759 108.43 627.424 108.3 628.142 108.3C628.906 108.3 629.587 108.437 630.185 108.709C630.783 108.982 631.282 109.36 631.681 109.846C632.086 110.331 632.375 110.902 632.548 111.56C632.727 112.212 632.774 112.916 632.688 113.674H624.652C624.619 114.392 624.752 115.02 625.051 115.558C625.35 116.09 625.789 116.505 626.367 116.804C626.945 117.103 627.633 117.253 628.431 117.253C628.956 117.253 629.474 117.163 629.986 116.984C630.504 116.804 630.953 116.548 631.332 116.216L632.05 117.362C631.724 117.628 631.348 117.854 630.923 118.04C630.504 118.22 630.069 118.353 629.617 118.439C629.172 118.525 628.733 118.569 628.301 118.569ZM624.722 112.448H631.172C631.139 111.55 630.863 110.849 630.345 110.344C629.833 109.839 629.092 109.586 628.122 109.586C627.185 109.586 626.407 109.839 625.789 110.344C625.177 110.849 624.822 111.55 624.722 112.448ZM635.122 118.27V108.599H639.409C640.466 108.599 641.327 108.812 641.991 109.237C642.656 109.656 642.988 110.281 642.988 111.112C642.988 111.457 642.908 111.776 642.749 112.069C642.596 112.361 642.373 112.614 642.081 112.826C641.789 113.039 641.436 113.199 641.024 113.305L640.994 112.986C641.785 113.132 642.383 113.428 642.789 113.873C643.194 114.312 643.397 114.85 643.397 115.488C643.397 116.06 643.244 116.555 642.938 116.974C642.639 117.386 642.207 117.705 641.642 117.931C641.084 118.157 640.423 118.27 639.658 118.27H635.122ZM636.578 117.033H639.449C640.24 117.033 640.851 116.907 641.283 116.655C641.715 116.395 641.931 116.003 641.931 115.478C641.931 114.953 641.715 114.564 641.283 114.312C640.851 114.059 640.24 113.933 639.449 113.933H636.309V112.717H639.23C639.967 112.717 640.539 112.607 640.944 112.388C641.35 112.162 641.553 111.793 641.553 111.281C641.553 110.763 641.35 110.391 640.944 110.165C640.546 109.939 639.974 109.826 639.23 109.826H636.578V117.033ZM650.39 118.569C649.407 118.569 648.526 118.336 647.749 117.871C646.971 117.406 646.36 116.784 645.914 116.007C645.469 115.222 645.246 114.365 645.246 113.434C645.246 112.737 645.373 112.079 645.625 111.461C645.884 110.842 646.247 110.297 646.712 109.826C647.177 109.347 647.722 108.975 648.347 108.709C648.972 108.437 649.653 108.3 650.39 108.3C651.381 108.3 652.261 108.533 653.032 108.998C653.81 109.463 654.421 110.088 654.867 110.872C655.312 111.65 655.535 112.504 655.535 113.434C655.535 114.126 655.405 114.784 655.146 115.408C654.893 116.026 654.538 116.575 654.079 117.053C653.621 117.525 653.076 117.897 652.444 118.17C651.819 118.436 651.135 118.569 650.39 118.569ZM650.39 117.203C651.095 117.203 651.72 117.05 652.265 116.744C652.81 116.432 653.235 115.997 653.541 115.438C653.853 114.873 654.009 114.205 654.009 113.434C654.009 112.664 653.853 111.996 653.541 111.431C653.235 110.866 652.81 110.43 652.265 110.125C651.72 109.819 651.095 109.666 650.39 109.666C649.686 109.666 649.061 109.819 648.516 110.125C647.971 110.43 647.543 110.866 647.23 111.431C646.925 111.996 646.772 112.664 646.772 113.434C646.772 114.205 646.928 114.873 647.24 115.438C647.553 115.997 647.978 116.432 648.516 116.744C649.061 117.05 649.686 117.203 650.39 117.203ZM665.121 118.27V109.895H660.425V111.61C660.425 112.58 660.382 113.431 660.296 114.162C660.209 114.887 660.05 115.505 659.817 116.016C659.585 116.528 659.256 116.947 658.83 117.273C658.405 117.592 657.857 117.828 657.185 117.98L656.707 117.033C657.358 116.867 657.847 116.578 658.172 116.166C658.505 115.747 658.724 115.169 658.83 114.431C658.943 113.694 659 112.753 659 111.61V108.599H666.596V118.27H665.121ZM656.707 121.26V117.033L657.833 117.173L658.053 116.974H668.56V121.26H667.205V118.27H658.063V121.26H656.707ZM675.778 118.27V108.599H680.065C681.122 108.599 681.982 108.812 682.647 109.237C683.312 109.656 683.644 110.281 683.644 111.112C683.644 111.457 683.564 111.776 683.405 112.069C683.252 112.361 683.029 112.614 682.737 112.826C682.444 113.039 682.092 113.199 681.68 113.305L681.65 112.986C682.441 113.132 683.039 113.428 683.445 113.873C683.85 114.312 684.053 114.85 684.053 115.488C684.053 116.06 683.9 116.555 683.594 116.974C683.295 117.386 682.863 117.705 682.298 117.931C681.74 118.157 681.079 118.27 680.314 118.27H675.778ZM677.234 117.033H680.105C680.896 117.033 681.507 116.907 681.939 116.655C682.371 116.395 682.587 116.003 682.587 115.478C682.587 114.953 682.371 114.564 681.939 114.312C681.507 114.059 680.896 113.933 680.105 113.933H676.965V112.717H679.886C680.623 112.717 681.195 112.607 681.6 112.388C682.006 112.162 682.208 111.793 682.208 111.281C682.208 110.763 682.006 110.391 681.6 110.165C681.201 109.939 680.63 109.826 679.886 109.826H677.234V117.033ZM691.861 118.27V108.599H700.445V118.27H698.969V109.895H693.337V118.27H691.861ZM703.719 122.457V108.599H705.125V110.135C705.537 109.603 706.055 109.164 706.68 108.819C707.305 108.473 708.106 108.3 709.083 108.3C710.046 108.3 710.894 108.53 711.625 108.988C712.363 109.447 712.934 110.065 713.34 110.842C713.752 111.62 713.958 112.484 713.958 113.434C713.958 114.139 713.838 114.804 713.599 115.428C713.366 116.046 713.034 116.591 712.602 117.063C712.17 117.535 711.655 117.904 711.057 118.17C710.459 118.436 709.797 118.569 709.073 118.569C708.182 118.569 707.418 118.402 706.78 118.07C706.142 117.731 705.613 117.286 705.195 116.734V122.457H703.719ZM708.814 117.203C709.518 117.203 710.143 117.05 710.688 116.744C711.233 116.432 711.658 115.997 711.964 115.438C712.276 114.873 712.432 114.205 712.432 113.434C712.432 112.664 712.276 111.996 711.964 111.431C711.652 110.866 711.223 110.43 710.678 110.125C710.14 109.819 709.518 109.666 708.814 109.666C708.109 109.666 707.484 109.819 706.939 110.125C706.394 110.43 705.966 110.866 705.653 111.431C705.348 111.996 705.195 112.664 705.195 113.434C705.195 114.205 705.348 114.873 705.653 115.438C705.966 115.997 706.394 116.432 706.939 116.744C707.484 117.05 708.109 117.203 708.814 117.203ZM720.72 118.569C719.737 118.569 718.856 118.336 718.078 117.871C717.301 117.406 716.689 116.784 716.244 116.007C715.799 115.222 715.576 114.365 715.576 113.434C715.576 112.737 715.702 112.079 715.955 111.461C716.214 110.842 716.576 110.297 717.042 109.826C717.507 109.347 718.052 108.975 718.677 108.709C719.301 108.437 719.983 108.3 720.72 108.3C721.711 108.3 722.591 108.533 723.362 108.998C724.14 109.463 724.751 110.088 725.196 110.872C725.642 111.65 725.864 112.504 725.864 113.434C725.864 114.126 725.735 114.784 725.476 115.408C725.223 116.026 724.867 116.575 724.409 117.053C723.95 117.525 723.405 117.897 722.774 118.17C722.149 118.436 721.465 118.569 720.72 118.569ZM720.72 117.203C721.425 117.203 722.05 117.05 722.594 116.744C723.139 116.432 723.565 115.997 723.871 115.438C724.183 114.873 724.339 114.205 724.339 113.434C724.339 112.664 724.183 111.996 723.871 111.431C723.565 110.866 723.139 110.43 722.594 110.125C722.05 109.819 721.425 109.666 720.72 109.666C720.016 109.666 719.391 109.819 718.846 110.125C718.301 110.43 717.872 110.866 717.56 111.431C717.254 111.996 717.101 112.664 717.101 113.434C717.101 114.205 717.258 114.873 717.57 115.438C717.882 115.997 718.308 116.432 718.846 116.744C719.391 117.05 720.016 117.203 720.72 117.203ZM735.451 118.27V109.895H730.755V111.61C730.755 112.58 730.712 113.431 730.626 114.162C730.539 114.887 730.38 115.505 730.147 116.016C729.915 116.528 729.586 116.947 729.16 117.273C728.735 117.592 728.187 117.828 727.515 117.98L727.037 117.033C727.688 116.867 728.177 116.578 728.502 116.166C728.835 115.747 729.054 115.169 729.16 114.431C729.273 113.694 729.33 112.753 729.33 111.61V108.599H736.926V118.27H735.451ZM727.037 121.26V117.033L728.163 117.173L728.383 116.974H738.89V121.26H737.534V118.27H728.393V121.26H727.037ZM741.824 122.746C741.538 122.746 741.253 122.709 740.967 122.636C740.688 122.57 740.395 122.443 740.09 122.257L740.458 120.951C740.658 121.091 740.874 121.194 741.106 121.26C741.346 121.327 741.552 121.36 741.725 121.36C742.256 121.36 742.658 121.23 742.931 120.971C743.203 120.712 743.433 120.317 743.619 119.785L744.057 118.509L740.209 108.599H741.854L744.905 116.704L747.876 108.599H749.451L745.154 119.964C744.868 120.709 744.562 121.28 744.237 121.679C743.911 122.084 743.549 122.364 743.15 122.516C742.751 122.669 742.309 122.746 741.824 122.746ZM757.896 118.27L754.556 113.076L757.447 108.599H759.052L756.171 113.016L759.7 118.27H757.896ZM751.346 118.27V108.599H752.821V112.497H755.702V113.793H752.821V118.27H751.346ZM764.212 118.27V109.895H760.753V108.599H769.147V109.895H765.688V118.27H764.212ZM771.284 118.27V108.599H772.74V115.977L778.751 108.599H779.987V118.27H778.542V110.813L772.471 118.27H771.284ZM783.259 118.27V108.599H787.546C788.602 108.599 789.463 108.812 790.128 109.237C790.792 109.656 791.125 110.281 791.125 111.112C791.125 111.457 791.045 111.776 790.885 112.069C790.733 112.361 790.51 112.614 790.218 112.826C789.925 113.039 789.573 113.199 789.161 113.305L789.131 112.986C789.922 113.132 790.52 113.428 790.925 113.873C791.331 114.312 791.533 114.85 791.533 115.488C791.533 116.06 791.381 116.555 791.075 116.974C790.776 117.386 790.344 117.705 789.779 117.931C789.221 118.157 788.559 118.27 787.795 118.27H783.259ZM784.714 117.033H787.586C788.377 117.033 788.988 116.907 789.42 116.655C789.852 116.395 790.068 116.003 790.068 115.478C790.068 114.953 789.852 114.564 789.42 114.312C788.988 114.059 788.377 113.933 787.586 113.933H784.445V112.717H787.366C788.104 112.717 788.676 112.607 789.081 112.388C789.486 112.162 789.689 111.793 789.689 111.281C789.689 110.763 789.486 110.391 789.081 110.165C788.682 109.939 788.111 109.826 787.366 109.826H784.714V117.033ZM794.26 118.27V108.599H795.736V112.497H801.388V108.599H802.864V118.27H801.388V113.793H795.736V118.27H794.26ZM806.138 118.27V108.599H807.613V117.023H809.756C810.614 117.023 811.252 116.867 811.671 116.555C812.096 116.242 812.309 115.767 812.309 115.129C812.309 114.491 812.109 114.009 811.71 113.684C811.312 113.358 810.717 113.195 809.926 113.195H807.344V111.949H810.026C811.215 111.949 812.152 112.225 812.837 112.776C813.521 113.328 813.864 114.112 813.864 115.129C813.864 115.787 813.694 116.352 813.355 116.824C813.023 117.289 812.554 117.648 811.95 117.901C811.345 118.147 810.644 118.27 809.846 118.27H806.138ZM815.608 118.27V108.599H817.084V118.27H815.608ZM820.352 118.27V108.599H821.807V115.977L827.818 108.599H829.055V118.27H827.609V110.813L821.538 118.27H820.352ZM824.698 106.705C824.02 106.705 823.422 106.556 822.904 106.257C822.385 105.951 821.983 105.539 821.697 105.02C821.412 104.495 821.282 103.897 821.309 103.226H822.595C822.568 103.924 822.747 104.489 823.133 104.921C823.518 105.346 824.04 105.559 824.698 105.559C825.356 105.559 825.874 105.346 826.253 104.921C826.632 104.489 826.802 103.924 826.762 103.226H828.068C828.088 103.891 827.955 104.485 827.669 105.01C827.383 105.536 826.981 105.951 826.463 106.257C825.951 106.556 825.363 106.705 824.698 106.705ZM843.958 118.27L840.618 113.076L843.509 108.599H845.114L842.233 113.016L845.762 118.27H843.958ZM837.408 118.27V108.599H838.884V112.497H841.765V113.793H838.884V118.27H837.408ZM852.014 118.569C851.031 118.569 850.15 118.336 849.372 117.871C848.595 117.406 847.983 116.784 847.538 116.007C847.093 115.222 846.87 114.365 846.87 113.434C846.87 112.737 846.996 112.079 847.249 111.461C847.508 110.842 847.87 110.297 848.336 109.826C848.801 109.347 849.346 108.975 849.971 108.709C850.595 108.437 851.277 108.3 852.014 108.3C853.005 108.3 853.885 108.533 854.656 108.998C855.434 109.463 856.045 110.088 856.49 110.872C856.936 111.65 857.158 112.504 857.158 113.434C857.158 114.126 857.029 114.784 856.77 115.408C856.517 116.026 856.161 116.575 855.703 117.053C855.244 117.525 854.699 117.897 854.068 118.17C853.443 118.436 852.759 118.569 852.014 118.569ZM852.014 117.203C852.719 117.203 853.344 117.05 853.888 116.744C854.433 116.432 854.859 115.997 855.165 115.438C855.477 114.873 855.633 114.205 855.633 113.434C855.633 112.664 855.477 111.996 855.165 111.431C854.859 110.866 854.433 110.43 853.888 110.125C853.344 109.819 852.719 109.666 852.014 109.666C851.31 109.666 850.685 109.819 850.14 110.125C849.595 110.43 849.166 110.866 848.854 111.431C848.548 111.996 848.395 112.664 848.395 113.434C848.395 114.205 848.552 114.873 848.864 115.438C849.176 115.997 849.602 116.432 850.14 116.744C850.685 117.05 851.31 117.203 852.014 117.203ZM859.547 118.27V108.599H861.022V112.497H866.675V108.599H868.15V118.27H866.675V113.793H861.022V118.27H859.547ZM873.757 118.27V109.895H870.298V108.599H878.692V109.895H875.233V118.27H873.757ZM881.53 122.746C881.244 122.746 880.958 122.709 880.672 122.636C880.393 122.57 880.101 122.443 879.795 122.257L880.164 120.951C880.363 121.091 880.579 121.194 880.812 121.26C881.051 121.327 881.257 121.36 881.43 121.36C881.962 121.36 882.364 121.23 882.636 120.971C882.909 120.712 883.138 120.317 883.324 119.785L883.763 118.509L879.915 108.599H881.56L884.61 116.704L887.581 108.599H889.156L884.859 119.964C884.574 120.709 884.268 121.28 883.942 121.679C883.617 122.084 883.254 122.364 882.856 122.516C882.457 122.669 882.015 122.746 881.53 122.746ZM891.051 122.457V108.599H892.457V110.135C892.869 109.603 893.387 109.164 894.012 108.819C894.637 108.473 895.438 108.3 896.415 108.3C897.378 108.3 898.226 108.53 898.957 108.988C899.695 109.447 900.266 110.065 900.672 110.842C901.084 111.62 901.29 112.484 901.29 113.434C901.29 114.139 901.17 114.804 900.931 115.428C900.698 116.046 900.366 116.591 899.934 117.063C899.502 117.535 898.987 117.904 898.389 118.17C897.79 118.436 897.129 118.569 896.405 118.569C895.514 118.569 894.75 118.402 894.112 118.07C893.474 117.731 892.945 117.286 892.527 116.734V122.457H891.051ZM896.146 117.203C896.85 117.203 897.475 117.05 898.02 116.744C898.565 116.432 898.99 115.997 899.296 115.438C899.608 114.873 899.764 114.205 899.764 113.434C899.764 112.664 899.608 111.996 899.296 111.431C898.983 110.866 898.555 110.43 898.01 110.125C897.471 109.819 896.85 109.666 896.146 109.666C895.441 109.666 894.816 109.819 894.271 110.125C893.726 110.43 893.298 110.866 892.985 111.431C892.68 111.996 892.527 112.664 892.527 113.434C892.527 114.205 892.68 114.873 892.985 115.438C893.298 115.997 893.726 116.432 894.271 116.744C894.816 117.05 895.441 117.203 896.146 117.203Z" fill="#444B50"/>
<g clip-path="url(#clip3_3158_4219)">
<path d="M403.338 252.057C401.784 250.908 399.456 248.9 392.781 248.9V263.281C399.456 263.281 401.784 265.289 403.338 266.438M403.338 252.057V266.438M403.338 252.057C404.892 250.908 407.22 248.9 413.895 248.9V263.281C407.22 263.281 404.892 265.289 403.338 266.438M407.463 239.656V244.707M411.153 239.543H397.286C396.898 239.543 396.519 239.651 396.189 239.855L392.54 242.127L396.189 244.395C396.519 244.599 396.898 244.707 397.286 244.707H411.153C411.498 244.716 411.842 244.657 412.164 244.532C412.485 244.406 412.779 244.218 413.026 243.977C413.274 243.737 413.47 243.449 413.605 243.131C413.739 242.813 413.808 242.471 413.808 242.126C413.808 241.781 413.739 241.439 413.605 241.121C413.47 240.803 413.274 240.516 413.026 240.275C412.779 240.034 412.485 239.846 412.164 239.721C411.842 239.595 411.498 239.534 411.153 239.543Z" stroke="#444B50" stroke-width="1.55769" stroke-linecap="round" stroke-linejoin="round"/>
</g>
<path d="M439.503 259.799C438.473 259.799 437.513 259.616 436.622 259.251C435.738 258.879 434.967 258.364 434.309 257.706C433.658 257.048 433.146 256.277 432.774 255.393C432.408 254.509 432.226 253.552 432.226 252.522C432.226 251.485 432.408 250.524 432.774 249.64C433.146 248.756 433.658 247.986 434.309 247.328C434.967 246.67 435.738 246.158 436.622 245.792C437.513 245.427 438.473 245.244 439.503 245.244C440.527 245.244 441.48 245.43 442.364 245.802C443.248 246.174 444.019 246.693 444.677 247.357C445.335 248.022 445.847 248.796 446.213 249.68C446.585 250.558 446.771 251.505 446.771 252.522C446.771 253.552 446.585 254.509 446.213 255.393C445.847 256.277 445.335 257.048 444.677 257.706C444.019 258.364 443.248 258.879 442.364 259.251C441.48 259.616 440.527 259.799 439.503 259.799ZM439.503 258.354C440.294 258.354 441.035 258.217 441.726 257.945C442.418 257.666 443.022 257.27 443.541 256.758C444.059 256.24 444.465 255.625 444.757 254.914C445.049 254.196 445.196 253.399 445.196 252.522C445.196 251.352 444.94 250.332 444.428 249.461C443.923 248.584 443.238 247.902 442.374 247.417C441.517 246.932 440.56 246.69 439.503 246.69C438.712 246.69 437.971 246.829 437.28 247.108C436.589 247.381 435.984 247.773 435.466 248.285C434.947 248.796 434.539 249.411 434.239 250.129C433.947 250.84 433.801 251.638 433.801 252.522C433.801 253.691 434.057 254.715 434.568 255.592C435.08 256.463 435.765 257.141 436.622 257.626C437.486 258.111 438.446 258.354 439.503 258.354ZM454.067 259.799C453.256 259.799 452.525 259.663 451.874 259.39C451.229 259.111 450.681 258.709 450.229 258.184C449.777 257.652 449.431 257.001 449.192 256.23C448.959 255.452 448.843 254.565 448.843 253.568C448.843 252.478 448.92 251.498 449.072 250.627C449.225 249.757 449.471 248.999 449.81 248.354C450.156 247.71 450.614 247.178 451.186 246.759C451.764 246.341 452.472 246.038 453.309 245.852L457.945 244.845L458.224 246.221L453.728 247.188C452.864 247.374 452.193 247.68 451.714 248.105C451.236 248.531 450.887 249.066 450.668 249.71C450.455 250.355 450.312 251.099 450.239 251.943C450.658 251.265 451.203 250.72 451.874 250.308C452.545 249.896 453.349 249.69 454.286 249.69C455.223 249.69 456.048 249.92 456.759 250.378C457.476 250.83 458.035 251.438 458.434 252.203C458.839 252.96 459.042 253.794 459.042 254.705C459.042 255.403 458.922 256.061 458.683 256.679C458.45 257.29 458.111 257.832 457.666 258.304C457.227 258.769 456.702 259.134 456.091 259.4C455.486 259.666 454.811 259.799 454.067 259.799ZM454.007 258.433C454.692 258.433 455.297 258.28 455.822 257.975C456.353 257.669 456.769 257.24 457.068 256.689C457.367 256.13 457.516 255.472 457.516 254.715C457.516 253.957 457.367 253.299 457.068 252.741C456.769 252.183 456.353 251.754 455.822 251.455C455.297 251.149 454.692 250.996 454.007 250.996C453.329 250.996 452.724 251.149 452.193 251.455C451.668 251.754 451.256 252.183 450.957 252.741C450.658 253.299 450.508 253.957 450.508 254.715C450.508 255.472 450.658 256.13 450.957 256.689C451.256 257.24 451.668 257.669 452.193 257.975C452.724 258.28 453.329 258.433 454.007 258.433ZM461.855 263.976C461.569 263.976 461.283 263.94 460.997 263.867C460.718 263.8 460.426 263.674 460.12 263.488L460.489 262.182C460.688 262.321 460.904 262.424 461.137 262.491C461.376 262.557 461.582 262.59 461.755 262.59C462.287 262.59 462.689 262.461 462.961 262.202C463.234 261.942 463.463 261.547 463.649 261.015L464.088 259.739L460.24 249.83H461.885L464.935 257.935L467.906 249.83H469.481L465.184 261.195C464.899 261.939 464.593 262.511 464.267 262.909C463.942 263.315 463.579 263.594 463.181 263.747C462.782 263.9 462.34 263.976 461.855 263.976ZM477.578 259.5V255.433C477.093 255.559 476.631 255.655 476.192 255.722C475.753 255.781 475.285 255.811 474.786 255.811C473.882 255.811 473.141 255.678 472.563 255.413C471.985 255.14 471.556 254.745 471.277 254.226C471.005 253.701 470.868 253.057 470.868 252.292V249.83H472.344V252.073C472.344 252.857 472.54 253.452 472.932 253.857C473.331 254.263 474.005 254.466 474.956 254.466C475.501 254.466 475.979 254.439 476.391 254.386C476.81 254.333 477.206 254.266 477.578 254.186V249.83H479.053V259.5H477.578ZM486.635 259.799C485.618 259.799 484.721 259.586 483.944 259.161C483.166 258.736 482.558 258.141 482.119 257.377C481.681 256.606 481.461 255.712 481.461 254.695C481.461 253.957 481.584 253.273 481.83 252.641C482.083 252.01 482.435 251.461 482.887 250.996C483.345 250.531 483.877 250.172 484.482 249.92C485.093 249.66 485.758 249.531 486.476 249.531C487.24 249.531 487.921 249.667 488.519 249.94C489.118 250.212 489.616 250.591 490.015 251.076C490.42 251.561 490.709 252.133 490.882 252.791C491.062 253.442 491.108 254.147 491.022 254.904H482.987C482.953 255.622 483.086 256.25 483.385 256.788C483.684 257.32 484.123 257.735 484.701 258.035C485.279 258.334 485.967 258.483 486.765 258.483C487.29 258.483 487.808 258.393 488.32 258.214C488.838 258.035 489.287 257.779 489.666 257.446L490.384 258.593C490.058 258.859 489.683 259.085 489.257 259.271C488.838 259.45 488.403 259.583 487.951 259.669C487.506 259.756 487.067 259.799 486.635 259.799ZM483.056 253.678H489.506C489.473 252.781 489.197 252.08 488.679 251.574C488.167 251.069 487.426 250.817 486.456 250.817C485.519 250.817 484.741 251.069 484.123 251.574C483.512 252.08 483.156 252.781 483.056 253.678ZM493.457 259.5V249.83H494.932V253.728H500.585V249.83H502.06V259.5H500.585V255.024H494.932V259.5H493.457ZM505.334 259.5V249.83H506.789V257.207L512.801 249.83H514.037V259.5H512.592V252.043L506.52 259.5H505.334ZM521.605 259.799C520.589 259.799 519.691 259.586 518.914 259.161C518.136 258.736 517.528 258.141 517.089 257.377C516.651 256.606 516.431 255.712 516.431 254.695C516.431 253.957 516.554 253.273 516.8 252.641C517.053 252.01 517.405 251.461 517.857 250.996C518.316 250.531 518.847 250.172 519.452 249.92C520.064 249.66 520.728 249.531 521.446 249.531C522.21 249.531 522.891 249.667 523.49 249.94C524.088 250.212 524.586 250.591 524.985 251.076C525.39 251.561 525.68 252.133 525.852 252.791C526.032 253.442 526.078 254.147 525.992 254.904H517.957C517.923 255.622 518.056 256.25 518.355 256.788C518.655 257.32 519.093 257.735 519.671 258.035C520.25 258.334 520.938 258.483 521.735 258.483C522.26 258.483 522.778 258.393 523.29 258.214C523.809 258.035 524.257 257.779 524.636 257.446L525.354 258.593C525.028 258.859 524.653 259.085 524.227 259.271C523.809 259.45 523.373 259.583 522.921 259.669C522.476 259.756 522.037 259.799 521.605 259.799ZM518.026 253.678H524.477C524.443 252.781 524.168 252.08 523.649 251.574C523.137 251.069 522.396 250.817 521.426 250.817C520.489 250.817 519.711 251.069 519.093 251.574C518.482 252.08 518.126 252.781 518.026 253.678ZM533.509 259.5V249.83H542.092V259.5H540.617V251.126H534.984V259.5H533.509ZM549.663 259.799C548.647 259.799 547.749 259.586 546.972 259.161C546.194 258.736 545.586 258.141 545.147 257.377C544.709 256.606 544.489 255.712 544.489 254.695C544.489 253.957 544.612 253.273 544.858 252.641C545.111 252.01 545.463 251.461 545.915 250.996C546.374 250.531 546.905 250.172 547.51 249.92C548.121 249.66 548.786 249.531 549.504 249.531C550.268 249.531 550.949 249.667 551.548 249.94C552.146 250.212 552.644 250.591 553.043 251.076C553.448 251.561 553.737 252.133 553.91 252.791C554.09 253.442 554.136 254.147 554.05 254.904H546.015C545.981 255.622 546.114 256.25 546.413 256.788C546.712 257.32 547.151 257.735 547.729 258.035C548.308 258.334 548.995 258.483 549.793 258.483C550.318 258.483 550.836 258.393 551.348 258.214C551.867 258.035 552.315 257.779 552.694 257.446L553.412 258.593C553.086 258.859 552.711 259.085 552.285 259.271C551.867 259.45 551.431 259.583 550.979 259.669C550.534 259.756 550.095 259.799 549.663 259.799ZM546.084 253.678H552.535C552.501 252.781 552.225 252.08 551.707 251.574C551.195 251.069 550.454 250.817 549.484 250.817C548.547 250.817 547.769 251.069 547.151 251.574C546.54 252.08 546.184 252.781 546.084 253.678ZM556.485 263.687V249.83H557.89V251.365C558.302 250.833 558.821 250.395 559.446 250.049C560.07 249.704 560.871 249.531 561.848 249.531C562.812 249.531 563.659 249.76 564.39 250.219C565.128 250.677 565.7 251.295 566.105 252.073C566.517 252.851 566.723 253.715 566.723 254.665C566.723 255.369 566.603 256.034 566.364 256.659C566.132 257.277 565.799 257.822 565.367 258.294C564.935 258.766 564.42 259.134 563.822 259.4C563.224 259.666 562.563 259.799 561.838 259.799C560.948 259.799 560.183 259.633 559.545 259.301C558.907 258.962 558.379 258.516 557.96 257.965V263.687H556.485ZM561.579 258.433C562.283 258.433 562.908 258.28 563.453 257.975C563.998 257.662 564.423 257.227 564.729 256.669C565.042 256.104 565.198 255.436 565.198 254.665C565.198 253.894 565.042 253.226 564.729 252.661C564.417 252.096 563.988 251.661 563.443 251.355C562.905 251.049 562.283 250.897 561.579 250.897C560.874 250.897 560.25 251.049 559.705 251.355C559.16 251.661 558.731 252.096 558.419 252.661C558.113 253.226 557.96 253.894 557.96 254.665C557.96 255.436 558.113 256.104 558.419 256.669C558.731 257.227 559.16 257.662 559.705 257.975C560.25 258.28 560.874 258.433 561.579 258.433ZM573.545 259.799C572.535 259.799 571.638 259.576 570.854 259.131C570.07 258.686 569.455 258.078 569.009 257.307C568.564 256.529 568.342 255.649 568.342 254.665C568.342 253.914 568.471 253.229 568.73 252.611C568.996 251.987 569.372 251.445 569.857 250.986C570.342 250.521 570.91 250.162 571.562 249.91C572.22 249.657 572.934 249.531 573.705 249.531C574.31 249.531 574.865 249.607 575.37 249.76C575.882 249.913 576.357 250.156 576.795 250.488L575.998 251.654C575.705 251.408 575.357 251.222 574.951 251.096C574.552 250.963 574.124 250.897 573.665 250.897C572.894 250.897 572.226 251.046 571.661 251.345C571.096 251.638 570.658 252.066 570.345 252.631C570.033 253.189 569.877 253.861 569.877 254.645C569.877 255.828 570.216 256.755 570.894 257.426C571.572 258.098 572.492 258.433 573.655 258.433C574.167 258.433 574.645 258.34 575.091 258.154C575.536 257.968 575.888 257.739 576.147 257.466L577.005 258.593C576.506 258.965 575.965 259.261 575.38 259.48C574.795 259.693 574.183 259.799 573.545 259.799ZM583.299 259.799C582.315 259.799 581.435 259.566 580.657 259.101C579.88 258.636 579.268 258.015 578.823 257.237C578.378 256.453 578.155 255.595 578.155 254.665C578.155 253.967 578.281 253.309 578.534 252.691C578.793 252.073 579.155 251.528 579.62 251.056C580.086 250.578 580.631 250.205 581.255 249.94C581.88 249.667 582.561 249.531 583.299 249.531C584.289 249.531 585.17 249.763 585.941 250.229C586.719 250.694 587.33 251.319 587.775 252.103C588.221 252.88 588.443 253.734 588.443 254.665C588.443 255.356 588.314 256.014 588.054 256.639C587.802 257.257 587.446 257.805 586.988 258.284C586.529 258.756 585.984 259.128 585.353 259.4C584.728 259.666 584.043 259.799 583.299 259.799ZM583.299 258.433C584.004 258.433 584.628 258.28 585.173 257.975C585.718 257.662 586.144 257.227 586.449 256.669C586.762 256.104 586.918 255.436 586.918 254.665C586.918 253.894 586.762 253.226 586.449 252.661C586.144 252.096 585.718 251.661 585.173 251.355C584.628 251.049 584.004 250.897 583.299 250.897C582.595 250.897 581.97 251.049 581.425 251.355C580.88 251.661 580.451 252.096 580.139 252.661C579.833 253.226 579.68 253.894 579.68 254.665C579.68 255.436 579.836 256.104 580.149 256.669C580.461 257.227 580.887 257.662 581.425 257.975C581.97 258.28 582.595 258.433 583.299 258.433ZM590.832 259.5V249.83H592.307V253.728H597.96V249.83H599.435V259.5H597.96V255.024H592.307V259.5H590.832ZM605.371 259.799C604.68 259.799 604.082 259.673 603.577 259.42C603.071 259.168 602.683 258.815 602.41 258.364C602.138 257.905 602.001 257.37 602.001 256.758C602.001 256.253 602.131 255.791 602.39 255.373C602.656 254.947 603.071 254.595 603.636 254.316C604.208 254.03 604.952 253.841 605.869 253.748C606.787 253.655 607.903 253.681 609.219 253.828L609.269 254.994C608.186 254.854 607.268 254.804 606.517 254.844C605.773 254.884 605.175 254.991 604.723 255.163C604.271 255.336 603.942 255.559 603.736 255.831C603.537 256.104 603.437 256.403 603.437 256.729C603.437 257.287 603.633 257.722 604.025 258.035C604.417 258.347 604.962 258.503 605.66 258.503C606.245 258.503 606.77 258.393 607.235 258.174C607.7 257.955 608.069 257.652 608.342 257.267C608.614 256.881 608.751 256.439 608.751 255.941V253.12C608.751 252.628 608.644 252.206 608.432 251.854C608.219 251.501 607.906 251.229 607.494 251.036C607.089 250.843 606.594 250.747 606.009 250.747C605.504 250.747 604.999 250.823 604.494 250.976C603.995 251.129 603.507 251.382 603.028 251.734L602.55 250.528C603.135 250.116 603.736 249.83 604.354 249.67C604.972 249.511 605.56 249.431 606.119 249.431C607.003 249.431 607.747 249.571 608.352 249.85C608.957 250.129 609.415 250.541 609.728 251.086C610.04 251.631 610.196 252.306 610.196 253.11V259.5H608.8V258.274C608.455 258.766 607.98 259.144 607.375 259.41C606.77 259.669 606.102 259.799 605.371 259.799ZM612.742 259.62L612.174 258.244C612.852 258.071 613.347 257.789 613.659 257.396C613.978 256.998 614.181 256.433 614.268 255.702C614.354 254.971 614.397 254.017 614.397 252.841V249.83H621.794V259.5H620.319V251.126H615.823V252.841C615.823 253.911 615.78 254.831 615.693 255.602C615.613 256.373 615.464 257.024 615.245 257.556C615.025 258.088 614.713 258.52 614.307 258.852C613.909 259.178 613.387 259.434 612.742 259.62ZM627.724 259.799C627.033 259.799 626.434 259.673 625.929 259.42C625.424 259.168 625.035 258.815 624.763 258.364C624.49 257.905 624.354 257.37 624.354 256.758C624.354 256.253 624.484 255.791 624.743 255.373C625.009 254.947 625.424 254.595 625.989 254.316C626.561 254.03 627.305 253.841 628.222 253.748C629.139 253.655 630.256 253.681 631.572 253.828L631.622 254.994C630.538 254.854 629.621 254.804 628.87 254.844C628.126 254.884 627.528 254.991 627.076 255.163C626.624 255.336 626.295 255.559 626.089 255.831C625.89 256.104 625.79 256.403 625.79 256.729C625.79 257.287 625.986 257.722 626.378 258.035C626.77 258.347 627.315 258.503 628.013 258.503C628.598 258.503 629.123 258.393 629.588 258.174C630.053 257.955 630.422 257.652 630.695 257.267C630.967 256.881 631.103 256.439 631.103 255.941V253.12C631.103 252.628 630.997 252.206 630.784 251.854C630.572 251.501 630.259 251.229 629.847 251.036C629.442 250.843 628.947 250.747 628.362 250.747C627.857 250.747 627.352 250.823 626.847 250.976C626.348 251.129 625.86 251.382 625.381 251.734L624.903 250.528C625.487 250.116 626.089 249.83 626.707 249.67C627.325 249.511 627.913 249.431 628.472 249.431C629.355 249.431 630.1 249.571 630.705 249.85C631.309 250.129 631.768 250.541 632.08 251.086C632.393 251.631 632.549 252.306 632.549 253.11V259.5H631.153V258.274C630.808 258.766 630.332 259.144 629.728 259.41C629.123 259.669 628.455 259.799 627.724 259.799Z" fill="#444B50"/>
<path d="M227.106 34.8613V6.94748H236.696C239.368 6.94748 241.528 7.54563 243.176 8.74194C244.824 9.92496 245.649 11.6729 245.649 13.9858C245.649 14.8763 245.436 15.7204 245.011 16.5179C244.599 17.3022 244.06 17.9934 243.396 18.5915C242.731 19.1897 242.04 19.6283 241.322 19.9075C242.837 20.3727 244.1 21.2234 245.11 22.4596C246.134 23.6958 246.646 25.2178 246.646 27.0255C246.646 28.5541 246.26 29.9099 245.489 31.093C244.718 32.2627 243.622 33.1865 242.199 33.8644C240.777 34.529 239.089 34.8613 237.135 34.8613H227.106ZM231.572 31.3522H236.377C238.291 31.3522 239.714 30.98 240.644 30.2356C241.575 29.4779 242.04 28.3415 242.04 26.8261C242.04 25.3241 241.568 24.181 240.624 23.3967C239.694 22.6125 238.251 22.2203 236.297 22.2203H231.572V31.3522ZM231.572 18.8707H235.998C237.075 18.8707 238.006 18.6979 238.79 18.3523C239.574 18.0067 240.185 17.5082 240.624 16.8569C241.063 16.2056 241.282 15.4213 241.282 14.5042C241.282 13.2015 240.817 12.2046 239.886 11.5134C238.969 10.8089 237.653 10.4566 235.939 10.4566H231.572V18.8707ZM256.208 34.8613V18.7511H249.728V15.1223H267.094V18.7511H260.594V34.8613H256.208ZM280.109 35.4595C278.049 35.4595 276.208 34.9876 274.586 34.0439C272.978 33.0868 271.715 31.8174 270.798 30.2356C269.88 28.6405 269.422 26.8926 269.422 24.9918C269.422 23.5828 269.681 22.2536 270.199 21.0041C270.731 19.7413 271.475 18.6248 272.433 17.6544C273.403 16.6841 274.539 15.9198 275.842 15.3615C277.145 14.8032 278.574 14.5241 280.129 14.5241C282.189 14.5241 284.023 15.0026 285.632 15.9597C287.253 16.9034 288.523 18.1728 289.44 19.7679C290.357 21.3497 290.816 23.091 290.816 24.9918C290.816 26.3875 290.55 27.7167 290.018 28.9795C289.5 30.2423 288.762 31.3588 287.805 32.3291C286.848 33.2995 285.718 34.0638 284.416 34.6221C283.113 35.1803 281.677 35.4595 280.109 35.4595ZM280.109 31.5715C281.332 31.5715 282.415 31.3056 283.359 30.7739C284.316 30.229 285.067 29.4647 285.612 28.481C286.157 27.4974 286.429 26.3343 286.429 24.9918C286.429 23.6493 286.157 22.4862 285.612 21.5026C285.067 20.5056 284.316 19.7413 283.359 19.2096C282.415 18.6779 281.332 18.4121 280.109 18.4121C278.886 18.4121 277.796 18.6779 276.839 19.2096C275.895 19.7413 275.151 20.5056 274.606 21.5026C274.074 22.4862 273.808 23.6493 273.808 24.9918C273.808 26.3343 274.081 27.4974 274.626 28.481C275.171 29.4647 275.915 30.229 276.859 30.7739C277.816 31.3056 278.899 31.5715 280.109 31.5715ZM295.222 43.2355V15.1223H299.17V17.8937C299.954 16.8968 300.957 16.0859 302.18 15.4612C303.403 14.8365 304.912 14.5241 306.706 14.5241C308.634 14.5241 310.342 14.9827 311.831 15.8999C313.333 16.8037 314.502 18.0466 315.34 19.6283C316.177 21.1968 316.596 22.9847 316.596 24.9918C316.596 26.4407 316.357 27.8031 315.878 29.0792C315.4 30.3419 314.715 31.4519 313.824 32.4089C312.947 33.3659 311.897 34.117 310.674 34.6619C309.465 35.1936 308.122 35.4595 306.647 35.4595C305.105 35.4595 303.749 35.1803 302.579 34.6221C301.409 34.0638 300.413 33.3128 299.588 32.369V43.2355H295.222ZM305.909 31.5715C307.132 31.5715 308.215 31.3056 309.159 30.7739C310.116 30.229 310.86 29.4647 311.392 28.481C311.937 27.4974 312.209 26.3343 312.209 24.9918C312.209 23.6493 311.937 22.4862 311.392 21.5026C310.847 20.5056 310.096 19.7413 309.139 19.2096C308.195 18.6779 307.118 18.4121 305.909 18.4121C304.686 18.4121 303.596 18.6779 302.639 19.2096C301.695 19.7413 300.951 20.5056 300.406 21.5026C299.861 22.4862 299.588 23.6493 299.588 24.9918C299.588 26.3343 299.861 27.4974 300.406 28.481C300.951 29.4647 301.695 30.229 302.639 30.7739C303.596 31.3056 304.686 31.5715 305.909 31.5715ZM330.189 35.4595C328.128 35.4595 326.287 34.9876 324.666 34.0439C323.057 33.0868 321.795 31.8174 320.877 30.2356C319.96 28.6405 319.502 26.8926 319.502 24.9918C319.502 23.5828 319.761 22.2536 320.279 21.0041C320.811 19.7413 321.555 18.6248 322.512 17.6544C323.483 16.6841 324.619 15.9198 325.922 15.3615C327.224 14.8032 328.653 14.5241 330.209 14.5241C332.269 14.5241 334.103 15.0026 335.712 15.9597C337.333 16.9034 338.603 18.1728 339.52 19.7679C340.437 21.3497 340.896 23.091 340.896 24.9918C340.896 26.3875 340.63 27.7167 340.098 28.9795C339.58 30.2423 338.842 31.3588 337.885 32.3291C336.928 33.2995 335.798 34.0638 334.495 34.6221C333.193 35.1803 331.757 35.4595 330.189 35.4595ZM330.189 31.5715C331.412 31.5715 332.495 31.3056 333.439 30.7739C334.396 30.229 335.147 29.4647 335.692 28.481C336.237 27.4974 336.509 26.3343 336.509 24.9918C336.509 23.6493 336.237 22.4862 335.692 21.5026C335.147 20.5056 334.396 19.7413 333.439 19.2096C332.495 18.6779 331.412 18.4121 330.189 18.4121C328.966 18.4121 327.876 18.6779 326.919 19.2096C325.975 19.7413 325.231 20.5056 324.686 21.5026C324.154 22.4862 323.888 23.6493 323.888 24.9918C323.888 26.3343 324.161 27.4974 324.706 28.481C325.251 29.4647 325.995 30.229 326.939 30.7739C327.896 31.3056 328.979 31.5715 330.189 31.5715ZM345.302 34.8613V15.1223H349.549V28.4411L360.256 15.1223H364.084V34.8613H359.857V21.3829L349.05 34.8613H345.302ZM354.693 11.7327C353.217 11.7327 351.921 11.427 350.805 10.8155C349.688 10.2041 348.824 9.36003 348.213 8.28336C347.601 7.20668 347.315 5.9705 347.355 4.5748H351.024C350.971 5.7977 351.277 6.78797 351.941 7.54563C352.619 8.29 353.536 8.66219 354.693 8.66219C355.849 8.66219 356.76 8.29 357.424 7.54563C358.089 6.78797 358.388 5.7977 358.321 4.5748H362.01C362.037 5.9572 361.738 7.18674 361.113 8.26342C360.501 9.3401 359.637 10.1908 358.521 10.8155C357.418 11.427 356.142 11.7327 354.693 11.7327ZM385.742 35.4595C384.759 35.4595 383.782 35.3664 382.812 35.1803C381.841 35.0075 380.931 34.7351 380.08 34.3629C379.243 33.9774 378.511 33.4856 377.887 32.8874L379.801 29.8767C380.532 30.5546 381.396 31.0664 382.393 31.412C383.403 31.7576 384.42 31.9304 385.443 31.9304C386.852 31.9304 388.062 31.6778 389.072 31.1727C390.082 30.6543 390.853 29.8701 391.385 28.82C391.917 27.7699 392.183 26.4407 392.183 24.8323C392.183 22.5726 391.604 20.8778 390.448 19.748C389.305 18.6181 387.683 18.0532 385.583 18.0532C384.533 18.0532 383.536 18.2393 382.592 18.6115C381.648 18.9704 380.838 19.4423 380.16 20.0271L378.465 16.9965C379.369 16.2388 380.505 15.6407 381.874 15.202C383.257 14.7501 384.653 14.5241 386.061 14.5241C388.122 14.5241 389.916 14.9561 391.445 15.8201C392.973 16.6708 394.163 17.8671 395.014 19.409C395.865 20.9509 396.29 22.752 396.29 24.8123C396.29 26.4207 396.037 27.8829 395.532 29.1988C395.04 30.5015 394.329 31.618 393.399 32.5485C392.482 33.4789 391.372 34.1967 390.069 34.7018C388.78 35.2069 387.338 35.4595 385.742 35.4595ZM381.815 26.4074V23.1176H393.479V26.4074H381.815ZM405.084 34.8613V18.7511H398.604V15.1223H415.97V18.7511H409.47V34.8613H405.084ZM425.476 35.4595C424.107 35.4595 422.904 35.2069 421.867 34.7018C420.83 34.1834 420.02 33.459 419.435 32.5285C418.863 31.5848 418.577 30.4749 418.577 29.1988C418.577 28.1221 418.85 27.1518 419.395 26.2878C419.94 25.4105 420.784 24.6861 421.927 24.1145C423.083 23.5429 424.566 23.1641 426.373 22.978C428.181 22.7786 430.354 22.8052 432.893 23.0578L432.973 26.0884C431.165 25.8359 429.61 25.7295 428.307 25.7694C427.005 25.8093 425.935 25.9754 425.097 26.2679C424.273 26.547 423.662 26.9258 423.263 27.4043C422.877 27.8696 422.685 28.4079 422.685 29.0194C422.685 29.9764 423.024 30.7141 423.702 31.2325C424.393 31.7509 425.337 32.0101 426.533 32.0101C427.556 32.0101 428.474 31.824 429.284 31.4519C430.095 31.0797 430.733 30.5546 431.198 29.8767C431.677 29.1988 431.916 28.4013 431.916 27.4841V22.2403C431.916 21.363 431.73 20.6053 431.358 19.9673C430.986 19.316 430.421 18.8109 429.663 18.452C428.906 18.0931 427.962 17.9136 426.832 17.9136C425.795 17.9136 424.772 18.0731 423.761 18.3922C422.751 18.6979 421.787 19.1831 420.87 19.8477L419.634 16.6176C420.87 15.7802 422.16 15.1887 423.502 14.8431C424.845 14.4975 426.134 14.3247 427.37 14.3247C429.205 14.3247 430.773 14.6171 432.076 15.202C433.392 15.7736 434.402 16.6442 435.106 17.8139C435.811 18.9704 436.163 20.4325 436.163 22.2004V34.8613H432.215V32.5285C431.551 33.4723 430.627 34.1967 429.444 34.7018C428.261 35.2069 426.938 35.4595 425.476 35.4595ZM441.995 34.8613V15.1223H460.638V34.8613H456.251V18.7511H446.382V34.8613H441.995Z" fill="#444B50"/>
<path d="M229.534 112.981V101.471C229.534 101.185 229.534 101.042 229.623 100.954C229.711 100.865 229.854 100.865 230.14 100.865H235.102C235.345 100.865 235.466 100.865 235.575 100.909C235.684 100.954 235.77 101.037 235.944 101.206L237.747 102.948C237.922 103.116 238.009 103.2 238.118 103.245C238.227 103.288 238.348 103.288 238.59 103.288H246.096C246.39 103.288 246.537 103.288 246.589 103.383C246.641 103.477 246.561 103.601 246.401 103.848L243.072 109.019C242.97 109.179 242.918 109.258 242.918 109.347C242.918 109.436 242.97 109.517 243.072 109.674L246.401 114.845C246.561 115.092 246.64 115.216 246.589 115.31C246.538 115.405 246.39 115.405 246.096 115.405H238.589C238.347 115.405 238.226 115.405 238.117 115.361C238.008 115.316 237.922 115.233 237.747 115.064L235.944 113.322C235.77 113.154 235.683 113.07 235.574 113.025C235.465 112.982 235.344 112.982 235.101 112.982L229.534 112.981ZM229.534 112.981V120.25" stroke="#444B50" stroke-width="1.66154" stroke-linecap="round"/>
<path d="M274.18 118.569C273.15 118.569 272.19 118.386 271.299 118.02C270.415 117.648 269.644 117.133 268.986 116.475C268.335 115.817 267.823 115.046 267.451 114.162C267.086 113.278 266.903 112.321 266.903 111.291C266.903 110.254 267.086 109.294 267.451 108.41C267.823 107.526 268.335 106.755 268.986 106.097C269.644 105.439 270.415 104.927 271.299 104.562C272.19 104.196 273.15 104.014 274.18 104.014C275.204 104.014 276.158 104.2 277.042 104.572C277.926 104.944 278.697 105.462 279.354 106.127C280.012 106.792 280.524 107.566 280.89 108.45C281.262 109.327 281.448 110.274 281.448 111.291C281.448 112.321 281.262 113.278 280.89 114.162C280.524 115.046 280.012 115.817 279.354 116.475C278.697 117.133 277.926 117.648 277.042 118.02C276.158 118.386 275.204 118.569 274.18 118.569ZM274.18 117.123C274.971 117.123 275.712 116.987 276.404 116.714C277.095 116.435 277.7 116.04 278.218 115.528C278.736 115.01 279.142 114.395 279.434 113.684C279.727 112.966 279.873 112.168 279.873 111.291C279.873 110.121 279.617 109.101 279.105 108.231C278.6 107.353 277.916 106.672 277.052 106.187C276.194 105.702 275.237 105.459 274.18 105.459C273.39 105.459 272.649 105.599 271.957 105.878C271.266 106.15 270.661 106.542 270.143 107.054C269.625 107.566 269.216 108.181 268.917 108.898C268.624 109.61 268.478 110.407 268.478 111.291C268.478 112.461 268.734 113.484 269.246 114.362C269.757 115.232 270.442 115.91 271.299 116.395C272.163 116.88 273.124 117.123 274.18 117.123ZM284.148 118.27V108.599H292.732V118.27H291.257V109.895H285.624V118.27H284.148ZM296.006 118.27V108.599H297.482V117.023H299.625C300.483 117.023 301.121 116.867 301.539 116.555C301.965 116.242 302.177 115.767 302.177 115.129C302.177 114.491 301.978 114.009 301.579 113.684C301.18 113.358 300.586 113.195 299.795 113.195H297.213V111.949H299.894C301.084 111.949 302.021 112.225 302.706 112.776C303.39 113.328 303.733 114.112 303.733 115.129C303.733 115.787 303.563 116.352 303.224 116.824C302.892 117.289 302.423 117.648 301.818 117.901C301.214 118.147 300.512 118.27 299.715 118.27H296.006ZM305.477 118.27V108.599H306.953V118.27H305.477ZM312.553 118.27V109.895H309.094V108.599H317.488V109.895H314.029V118.27H312.553ZM319.625 118.27V108.599H321.1V112.497H326.753V108.599H328.228V118.27H326.753V113.793H321.1V118.27H319.625ZM334.164 118.569C333.473 118.569 332.875 118.442 332.37 118.19C331.865 117.937 331.476 117.585 331.203 117.133C330.931 116.674 330.794 116.139 330.794 115.528C330.794 115.023 330.924 114.561 331.183 114.142C331.449 113.717 331.865 113.365 332.429 113.086C333.001 112.8 333.745 112.61 334.663 112.517C335.58 112.424 336.696 112.451 338.012 112.597L338.062 113.763C336.979 113.624 336.062 113.574 335.311 113.614C334.566 113.654 333.968 113.76 333.516 113.933C333.064 114.106 332.735 114.328 332.529 114.601C332.33 114.873 332.23 115.172 332.23 115.498C332.23 116.056 332.426 116.492 332.818 116.804C333.21 117.116 333.755 117.273 334.453 117.273C335.038 117.273 335.563 117.163 336.028 116.944C336.494 116.724 336.862 116.422 337.135 116.036C337.407 115.651 337.544 115.209 337.544 114.711V111.889C337.544 111.397 337.437 110.975 337.225 110.623C337.012 110.271 336.7 109.998 336.288 109.806C335.882 109.613 335.387 109.517 334.802 109.517C334.297 109.517 333.792 109.593 333.287 109.746C332.788 109.899 332.3 110.151 331.821 110.504L331.343 109.297C331.928 108.885 332.529 108.599 333.147 108.44C333.765 108.28 334.353 108.201 334.912 108.201C335.796 108.201 336.54 108.34 337.145 108.619C337.75 108.898 338.208 109.311 338.521 109.856C338.833 110.4 338.989 111.075 338.989 111.879V118.27H337.593V117.043C337.248 117.535 336.773 117.914 336.168 118.18C335.563 118.439 334.895 118.569 334.164 118.569ZM341.505 118.27L345.483 113.444L345.693 114.481C344.849 114.488 344.147 114.368 343.589 114.122C343.031 113.876 342.615 113.534 342.343 113.096C342.07 112.657 341.934 112.142 341.934 111.55C341.934 110.926 342.1 110.394 342.433 109.955C342.765 109.517 343.23 109.181 343.828 108.948C344.426 108.716 345.121 108.599 345.912 108.599H349.71V118.27H348.265V109.846H346.012C345.161 109.846 344.523 109.985 344.097 110.264C343.672 110.537 343.459 110.959 343.459 111.53C343.459 112.095 343.659 112.524 344.058 112.816C344.456 113.109 345.048 113.255 345.832 113.255H348.524V114.471H346.41L343.3 118.27H341.505ZM360.703 118.569C360.258 118.569 359.806 118.525 359.347 118.439C358.895 118.359 358.47 118.23 358.071 118.05C357.672 117.871 357.32 117.632 357.014 117.332L357.772 116.226C358.137 116.565 358.576 116.824 359.088 117.003C359.6 117.176 360.118 117.263 360.643 117.263C361.387 117.263 362.035 117.116 362.587 116.824C363.139 116.532 363.564 116.093 363.863 115.508C364.162 114.923 364.312 114.202 364.312 113.345C364.312 112.135 363.993 111.211 363.355 110.573C362.723 109.929 361.849 109.606 360.733 109.606C360.214 109.606 359.716 109.696 359.237 109.875C358.759 110.055 358.347 110.291 358.001 110.583L357.333 109.487C357.745 109.121 358.277 108.832 358.928 108.619C359.58 108.407 360.224 108.3 360.862 108.3C361.839 108.3 362.697 108.51 363.434 108.928C364.172 109.347 364.747 109.935 365.159 110.693C365.578 111.444 365.787 112.321 365.787 113.325C365.787 114.122 365.664 114.847 365.418 115.498C365.179 116.143 364.833 116.694 364.381 117.153C363.936 117.605 363.401 117.954 362.776 118.2C362.158 118.446 361.467 118.569 360.703 118.569ZM358.669 113.933V112.697H364.73V113.933H358.669ZM374.736 118.27L371.396 113.076L374.287 108.599H375.892L373.011 113.016L376.54 118.27H374.736ZM368.186 118.27V108.599H369.661V112.497H372.543V113.793H369.661V118.27H368.186ZM382.852 118.569C381.842 118.569 380.944 118.346 380.16 117.901C379.376 117.455 378.761 116.847 378.316 116.076C377.87 115.299 377.648 114.418 377.648 113.434C377.648 112.683 377.777 111.999 378.037 111.381C378.302 110.756 378.678 110.214 379.163 109.756C379.648 109.291 380.217 108.932 380.868 108.679C381.526 108.427 382.24 108.3 383.011 108.3C383.616 108.3 384.171 108.377 384.676 108.53C385.188 108.682 385.663 108.925 386.102 109.257L385.304 110.424C385.012 110.178 384.663 109.992 384.257 109.865C383.859 109.733 383.43 109.666 382.971 109.666C382.2 109.666 381.533 109.816 380.968 110.115C380.403 110.407 379.964 110.836 379.652 111.401C379.339 111.959 379.183 112.63 379.183 113.415C379.183 114.598 379.522 115.525 380.2 116.196C380.878 116.867 381.798 117.203 382.961 117.203C383.473 117.203 383.952 117.11 384.397 116.924C384.842 116.738 385.195 116.508 385.454 116.236L386.311 117.362C385.813 117.735 385.271 118.03 384.686 118.25C384.101 118.462 383.49 118.569 382.852 118.569ZM388.533 118.27V108.599H397.117V118.27H395.641V109.895H390.009V118.27H388.533ZM399.793 118.389L399.225 117.013C399.903 116.841 400.398 116.558 400.71 116.166C401.029 115.767 401.232 115.202 401.318 114.471C401.405 113.74 401.448 112.786 401.448 111.61V108.599H408.845V118.27H407.37V109.895H402.874V111.61C402.874 112.68 402.83 113.601 402.744 114.372C402.664 115.143 402.515 115.794 402.295 116.326C402.076 116.857 401.764 117.289 401.358 117.622C400.959 117.947 400.438 118.203 399.793 118.389ZM412.522 122.746C412.236 122.746 411.95 122.709 411.664 122.636C411.385 122.57 411.093 122.443 410.787 122.257L411.156 120.951C411.355 121.091 411.571 121.194 411.804 121.26C412.043 121.327 412.249 121.36 412.422 121.36C412.954 121.36 413.356 121.23 413.628 120.971C413.901 120.712 414.13 120.317 414.316 119.785L414.755 118.509L410.907 108.599H412.552L415.602 116.704L418.573 108.599H420.148L415.851 119.964C415.566 120.709 415.26 121.28 414.934 121.679C414.609 122.084 414.246 122.364 413.848 122.516C413.449 122.669 413.007 122.746 412.522 122.746ZM424.705 118.569C424.014 118.569 423.416 118.442 422.91 118.19C422.405 117.937 422.017 117.585 421.744 117.133C421.472 116.674 421.335 116.139 421.335 115.528C421.335 115.023 421.465 114.561 421.724 114.142C421.99 113.717 422.405 113.365 422.97 113.086C423.542 112.8 424.286 112.61 425.203 112.517C426.121 112.424 427.237 112.451 428.553 112.597L428.603 113.763C427.52 113.624 426.602 113.574 425.851 113.614C425.107 113.654 424.509 113.76 424.057 113.933C423.605 114.106 423.276 114.328 423.07 114.601C422.871 114.873 422.771 115.172 422.771 115.498C422.771 116.056 422.967 116.492 423.359 116.804C423.751 117.116 424.296 117.273 424.994 117.273C425.579 117.273 426.104 117.163 426.569 116.944C427.034 116.724 427.403 116.422 427.676 116.036C427.948 115.651 428.085 115.209 428.085 114.711V111.889C428.085 111.397 427.978 110.975 427.765 110.623C427.553 110.271 427.24 109.998 426.828 109.806C426.423 109.613 425.928 109.517 425.343 109.517C424.838 109.517 424.333 109.593 423.828 109.746C423.329 109.899 422.841 110.151 422.362 110.504L421.884 109.297C422.469 108.885 423.07 108.599 423.688 108.44C424.306 108.28 424.894 108.201 425.453 108.201C426.337 108.201 427.081 108.34 427.686 108.619C428.291 108.898 428.749 109.311 429.061 109.856C429.374 110.4 429.53 111.075 429.53 111.879V118.27H428.134V117.043C427.789 117.535 427.314 117.914 426.709 118.18C426.104 118.439 425.436 118.569 424.705 118.569ZM434.637 118.27V109.895H431.178V108.599H439.572V109.895H436.113V118.27H434.637ZM444.371 118.569C443.68 118.569 443.081 118.442 442.576 118.19C442.071 117.937 441.682 117.585 441.41 117.133C441.137 116.674 441.001 116.139 441.001 115.528C441.001 115.023 441.131 114.561 441.39 114.142C441.656 113.717 442.071 113.365 442.636 113.086C443.208 112.8 443.952 112.61 444.869 112.517C445.786 112.424 446.903 112.451 448.219 112.597L448.269 113.763C447.185 113.624 446.268 113.574 445.517 113.614C444.773 113.654 444.175 113.76 443.723 113.933C443.271 114.106 442.942 114.328 442.736 114.601C442.536 114.873 442.437 115.172 442.437 115.498C442.437 116.056 442.633 116.492 443.025 116.804C443.417 117.116 443.962 117.273 444.66 117.273C445.245 117.273 445.77 117.163 446.235 116.944C446.7 116.724 447.069 116.422 447.342 116.036C447.614 115.651 447.75 115.209 447.75 114.711V111.889C447.75 111.397 447.644 110.975 447.431 110.623C447.219 110.271 446.906 109.998 446.494 109.806C446.089 109.613 445.594 109.517 445.009 109.517C444.504 109.517 443.999 109.593 443.494 109.746C442.995 109.899 442.507 110.151 442.028 110.504L441.55 109.297C442.134 108.885 442.736 108.599 443.354 108.44C443.972 108.28 444.56 108.201 445.118 108.201C446.002 108.201 446.747 108.34 447.352 108.619C447.956 108.898 448.415 109.311 448.727 109.856C449.04 110.4 449.196 111.075 449.196 111.879V118.27H447.8V117.043C447.455 117.535 446.979 117.914 446.375 118.18C445.77 118.439 445.102 118.569 444.371 118.569ZM452.34 118.27V108.599H453.816V116.974H459.299V108.599H460.774V118.27H452.34ZM461.821 121.26V118.27H459.877V116.974H463.187V121.26H461.821ZM465.328 118.27V108.599H466.783V115.977L472.794 108.599H474.031V118.27H472.585V110.813L466.514 118.27H465.328ZM476.674 118.27L480.652 113.444L480.861 114.481C480.017 114.488 479.316 114.368 478.758 114.122C478.2 113.876 477.784 113.534 477.512 113.096C477.239 112.657 477.103 112.142 477.103 111.55C477.103 110.926 477.269 110.394 477.601 109.955C477.934 109.517 478.399 109.181 478.997 108.948C479.595 108.716 480.29 108.599 481.081 108.599H484.879V118.27H483.433V109.846H481.18C480.33 109.846 479.692 109.985 479.266 110.264C478.841 110.537 478.628 110.959 478.628 111.53C478.628 112.095 478.828 112.524 479.226 112.816C479.625 113.109 480.217 113.255 481.001 113.255H483.693V114.471H481.579L478.469 118.27H476.674Z" fill="#444B50"/>
</g>
<defs>
<clipPath id="clip0_3158_4219">
<rect width="1080" height="342.277" fill="white" transform="translate(0 0.861328)"/>
</clipPath>
<clipPath id="clip1_3158_4219">
<rect width="29.0769" height="29.0769" fill="white" transform="translate(691.2 238.046)"/>
</clipPath>
<clipPath id="clip2_3158_4219">
<rect width="29.0769" height="29.0769" fill="white" transform="translate(541.662 97.231)"/>
</clipPath>
<clipPath id="clip3_3158_4219">
<rect width="29.0769" height="29.0769" fill="white" transform="translate(388.8 238.461)"/>
</clipPath>
</defs>
</svg>
