<svg width="1080" height="343" viewBox="0 0 1080 343" fill="none" xmlns="http://www.w3.org/2000/svg">
<g clip-path="url(#clip0_3158_4219)">
<path d="M714.461 185.262L-1032.65 183.6" stroke="#D45749" stroke-width="1.66154" stroke-dasharray="3.32 3.32"/>
<rect width="28.2462" height="18.2769" transform="translate(83.0771 174.462)" fill="white"/>
<path d="M88.8921 174.462L88.8921 192.739" stroke="#D45749" stroke-width="4.98462" stroke-linecap="round"/>
<path d="M95.5383 174.462L104.677 183.6L95.5383 192.739" stroke="#D45749" stroke-width="4.98462" stroke-linecap="round"/>
<rect width="47.3539" height="18.2769" transform="translate(0 174.462)" fill="white"/>
<path d="M2.4924 174.462L11.6309 183.6L2.4924 192.739" stroke="#D45749" stroke-width="4.98462" stroke-linecap="round"/>
<path d="M17.446 174.462L26.5845 183.6L17.446 192.739" stroke="#D45749" stroke-width="4.98462" stroke-linecap="round"/>
<path d="M32.4001 174.462L41.5386 183.6L32.4001 192.739" stroke="#D45749" stroke-width="4.98462" stroke-linecap="round"/>
<ellipse cx="12.5341" cy="12.5668" rx="12.5341" ry="12.5668" transform="matrix(-0.00943156 0.999956 -0.999986 -0.00538613 726.025 171.97)" fill="#D45749" fill-opacity="0.2"/>
<path d="M713.274 191.497C709.362 191.476 706.223 188.297 706.259 184.398C706.296 180.499 709.495 177.354 713.407 177.375C717.319 177.396 720.458 180.576 720.421 184.474C720.385 188.373 717.186 191.519 713.274 191.497Z" fill="#D45749" stroke="#D45749" stroke-width="0.830769"/>
<ellipse cx="12.5341" cy="12.5668" rx="12.5341" ry="12.5668" transform="matrix(-0.00943156 0.999956 -0.999986 -0.00538613 572.174 171.97)" fill="#D45749" fill-opacity="0.2"/>
<path d="M559.423 191.497C555.511 191.476 552.372 188.296 552.408 184.398C552.445 180.499 555.644 177.353 559.556 177.375C563.468 177.396 566.607 180.575 566.57 184.474C566.533 188.373 563.334 191.518 559.423 191.497Z" fill="#D45749" stroke="#D45749" stroke-width="0.830769"/>
<ellipse cx="12.5341" cy="12.5668" rx="12.5341" ry="12.5668" transform="matrix(-0.00943156 0.999956 -0.999986 -0.00538613 418.324 171.97)" fill="#D45749" fill-opacity="0.2"/>
<path d="M405.573 191.497C401.661 191.476 398.522 188.297 398.558 184.398C398.595 180.499 401.794 177.354 405.706 177.375C409.618 177.396 412.757 180.576 412.72 184.474C412.683 188.373 409.484 191.519 405.573 191.497Z" fill="#D45749" stroke="#D45749" stroke-width="0.830769"/>
<ellipse cx="12.5341" cy="12.5668" rx="12.5341" ry="12.5668" transform="matrix(-0.00943156 0.999956 -0.999986 -0.00538613 269.616 171.969)" fill="#D45749" fill-opacity="0.2"/>
<path d="M256.865 191.496C252.953 191.475 249.814 188.296 249.85 184.397C249.887 180.498 253.086 177.353 256.998 177.374C260.91 177.395 264.049 180.575 264.012 184.473C263.975 188.372 260.776 191.518 256.865 191.496Z" fill="#D45749" stroke="#D45749" stroke-width="0.830769"/>
<g clip-path="url(#clip1_3158_4219)">
<path d="M714.642 246.271C714.221 244.21 713.098 242.358 711.464 241.033C709.83 239.707 707.786 238.99 705.682 239.003C703.578 239.016 701.544 239.759 699.927 241.106C698.309 242.452 697.209 244.317 696.814 246.384C695.137 246.682 693.633 247.598 692.598 248.951C691.563 250.304 691.073 251.996 691.224 253.693C691.374 255.389 692.155 256.968 693.413 258.117C694.67 259.267 696.312 259.903 698.016 259.901H698.47V258.084H698.016C696.719 258.087 695.471 257.586 694.537 256.686C693.603 255.786 693.056 254.557 693.012 253.261C692.967 251.965 693.429 250.702 694.299 249.74C695.169 248.778 696.379 248.192 697.673 248.107L698.434 248.055L698.515 247.298C698.699 245.607 699.47 244.035 700.694 242.854C701.918 241.673 703.518 240.96 705.214 240.838C706.91 240.715 708.596 241.192 709.976 242.185C711.357 243.178 712.346 244.624 712.77 246.271H714.642Z" fill="#444B50"/>
<path d="M716.642 248.089H707.556C707.074 248.089 706.612 248.28 706.271 248.621C705.93 248.962 705.739 249.424 705.739 249.906V253.541H702.104C701.622 253.541 701.16 253.732 700.819 254.073C700.478 254.414 700.287 254.876 700.287 255.358V264.445H718.46V249.906C718.46 249.424 718.268 248.962 717.927 248.621C717.587 248.28 717.124 248.089 716.642 248.089ZM702.104 262.627V255.358H705.739V262.627H702.104ZM716.642 262.627H707.556V249.906H716.642V262.627Z" fill="#444B50"/>
<path d="M709.373 251.723H711.19V255.358H709.373V251.723ZM713.008 251.723H714.825V255.358H713.008V251.723ZM709.373 257.175H711.19V260.81H709.373V257.175ZM713.008 257.175H714.825V260.81H713.008V257.175Z" fill="#444B50"/>
</g>
<path d="M735.503 243.724V229.767H746.131V243.724H744.615V231.162H737.019V243.724H735.503ZM753.988 244.023C752.971 244.023 752.073 243.81 751.296 243.385C750.518 242.959 749.91 242.364 749.472 241.6C749.033 240.829 748.814 239.935 748.814 238.918C748.814 238.181 748.936 237.496 749.182 236.865C749.435 236.233 749.787 235.685 750.239 235.22C750.698 234.755 751.229 234.396 751.834 234.143C752.446 233.884 753.11 233.754 753.828 233.754C754.592 233.754 755.274 233.891 755.872 234.163C756.47 234.436 756.968 234.814 757.367 235.3C757.773 235.785 758.062 236.356 758.234 237.014C758.414 237.666 758.46 238.37 758.374 239.128H750.339C750.306 239.846 750.439 240.474 750.738 241.012C751.037 241.544 751.475 241.959 752.054 242.258C752.632 242.557 753.32 242.707 754.117 242.707C754.642 242.707 755.161 242.617 755.672 242.438C756.191 242.258 756.639 242.002 757.018 241.67L757.736 242.816C757.41 243.082 757.035 243.308 756.609 243.494C756.191 243.674 755.755 243.807 755.304 243.893C754.858 243.98 754.42 244.023 753.988 244.023ZM750.409 237.902H756.859C756.825 237.004 756.55 236.303 756.031 235.798C755.52 235.293 754.778 235.04 753.808 235.04C752.871 235.04 752.093 235.293 751.475 235.798C750.864 236.303 750.508 237.004 750.409 237.902ZM760.809 247.911V234.053H762.215V235.589C762.627 235.057 763.145 234.618 763.77 234.273C764.394 233.927 765.195 233.754 766.172 233.754C767.136 233.754 767.983 233.984 768.714 234.442C769.452 234.901 770.024 235.519 770.429 236.297C770.841 237.074 771.047 237.938 771.047 238.889C771.047 239.593 770.928 240.258 770.688 240.882C770.456 241.5 770.123 242.045 769.691 242.517C769.259 242.989 768.744 243.358 768.146 243.624C767.548 243.89 766.887 244.023 766.162 244.023C765.272 244.023 764.507 243.857 763.869 243.524C763.231 243.185 762.703 242.74 762.284 242.188V247.911H760.809ZM765.903 242.657C766.608 242.657 767.232 242.504 767.777 242.198C768.322 241.886 768.748 241.451 769.053 240.892C769.366 240.327 769.522 239.66 769.522 238.889C769.522 238.118 769.366 237.45 769.053 236.885C768.741 236.32 768.312 235.884 767.767 235.579C767.229 235.273 766.608 235.12 765.903 235.12C765.199 235.12 764.574 235.273 764.029 235.579C763.484 235.884 763.055 236.32 762.743 236.885C762.437 237.45 762.284 238.118 762.284 238.889C762.284 239.66 762.437 240.327 762.743 240.892C763.055 241.451 763.484 241.886 764.029 242.198C764.574 242.504 765.199 242.657 765.903 242.657ZM777.84 244.023C776.823 244.023 775.926 243.81 775.148 243.385C774.37 242.959 773.762 242.364 773.324 241.6C772.885 240.829 772.666 239.935 772.666 238.918C772.666 238.181 772.789 237.496 773.035 236.865C773.287 236.233 773.639 235.685 774.091 235.22C774.55 234.755 775.082 234.396 775.686 234.143C776.298 233.884 776.962 233.754 777.68 233.754C778.445 233.754 779.126 233.891 779.724 234.163C780.322 234.436 780.821 234.814 781.219 235.3C781.625 235.785 781.914 236.356 782.087 237.014C782.266 237.666 782.313 238.37 782.226 239.128H774.191C774.158 239.846 774.291 240.474 774.59 241.012C774.889 241.544 775.327 241.959 775.906 242.258C776.484 242.557 777.172 242.707 777.969 242.707C778.494 242.707 779.013 242.617 779.525 242.438C780.043 242.258 780.492 242.002 780.87 241.67L781.588 242.816C781.262 243.082 780.887 243.308 780.462 243.494C780.043 243.674 779.608 243.807 779.156 243.893C778.71 243.98 778.272 244.023 777.84 244.023ZM774.261 237.902H780.711C780.678 237.004 780.402 236.303 779.883 235.798C779.372 235.293 778.631 235.04 777.66 235.04C776.723 235.04 775.946 235.293 775.327 235.798C774.716 236.303 774.36 237.004 774.261 237.902ZM791.859 243.724V235.349H787.163V237.064C787.163 238.035 787.12 238.885 787.034 239.616C786.947 240.341 786.788 240.959 786.555 241.471C786.323 241.982 785.994 242.401 785.568 242.727C785.143 243.046 784.595 243.282 783.923 243.435L783.445 242.487C784.096 242.321 784.585 242.032 784.91 241.62C785.243 241.201 785.462 240.623 785.568 239.885C785.681 239.148 785.738 238.207 785.738 237.064V234.053H793.334V243.724H791.859ZM783.445 246.714V242.487L784.571 242.627L784.791 242.428H795.298V246.714H793.942V243.724H784.801V246.714H783.445ZM800.31 244.023C799.619 244.023 799.021 243.896 798.516 243.644C798.01 243.391 797.622 243.039 797.349 242.587C797.077 242.129 796.94 241.594 796.94 240.982C796.94 240.477 797.07 240.015 797.329 239.596C797.595 239.171 798.01 238.819 798.575 238.54C799.147 238.254 799.891 238.064 800.809 237.971C801.726 237.878 802.842 237.905 804.158 238.051L804.208 239.218C803.125 239.078 802.208 239.028 801.457 239.068C800.712 239.108 800.114 239.214 799.662 239.387C799.21 239.56 798.881 239.782 798.675 240.055C798.476 240.327 798.376 240.627 798.376 240.952C798.376 241.51 798.572 241.946 798.964 242.258C799.356 242.571 799.901 242.727 800.599 242.727C801.184 242.727 801.709 242.617 802.174 242.398C802.64 242.178 803.008 241.876 803.281 241.491C803.553 241.105 803.69 240.663 803.69 240.165V237.343C803.69 236.852 803.583 236.429 803.371 236.077C803.158 235.725 802.846 235.452 802.434 235.26C802.028 235.067 801.533 234.971 800.948 234.971C800.443 234.971 799.938 235.047 799.433 235.2C798.934 235.353 798.446 235.605 797.967 235.958L797.489 234.751C798.074 234.339 798.675 234.053 799.293 233.894C799.911 233.734 800.499 233.655 801.058 233.655C801.942 233.655 802.686 233.794 803.291 234.073C803.896 234.353 804.354 234.765 804.667 235.31C804.979 235.855 805.135 236.529 805.135 237.333V243.724H803.739V242.497C803.394 242.989 802.919 243.368 802.314 243.634C801.709 243.893 801.041 244.023 800.31 244.023ZM813.994 243.724V239.656C813.509 239.782 813.047 239.879 812.609 239.945C812.17 240.005 811.701 240.035 811.203 240.035C810.299 240.035 809.558 239.902 808.98 239.636C808.401 239.364 807.973 238.968 807.694 238.45C807.421 237.925 807.285 237.28 807.285 236.516V234.053H808.76V236.297C808.76 237.081 808.956 237.676 809.349 238.081C809.747 238.486 810.422 238.689 811.372 238.689C811.917 238.689 812.396 238.663 812.808 238.609C813.227 238.556 813.622 238.49 813.994 238.41V234.053H815.47V243.724H813.994ZM821.417 244.023C820.726 244.023 820.127 243.896 819.622 243.644C819.117 243.391 818.728 243.039 818.456 242.587C818.183 242.129 818.047 241.594 818.047 240.982C818.047 240.477 818.177 240.015 818.436 239.596C818.702 239.171 819.117 238.819 819.682 238.54C820.254 238.254 820.998 238.064 821.915 237.971C822.832 237.878 823.949 237.905 825.265 238.051L825.315 239.218C824.231 239.078 823.314 239.028 822.563 239.068C821.819 239.108 821.221 239.214 820.769 239.387C820.317 239.56 819.988 239.782 819.782 240.055C819.582 240.327 819.483 240.627 819.483 240.952C819.483 241.51 819.679 241.946 820.071 242.258C820.463 242.571 821.008 242.727 821.706 242.727C822.291 242.727 822.816 242.617 823.281 242.398C823.746 242.178 824.115 241.876 824.388 241.491C824.66 241.105 824.796 240.663 824.796 240.165V237.343C824.796 236.852 824.69 236.429 824.477 236.077C824.265 235.725 823.952 235.452 823.54 235.26C823.135 235.067 822.64 234.971 822.055 234.971C821.55 234.971 821.045 235.047 820.54 235.2C820.041 235.353 819.553 235.605 819.074 235.958L818.596 234.751C819.18 234.339 819.782 234.053 820.4 233.894C821.018 233.734 821.606 233.655 822.164 233.655C823.048 233.655 823.793 233.794 824.398 234.073C825.002 234.353 825.461 234.765 825.773 235.31C826.086 235.855 826.242 236.529 826.242 237.333V243.724H824.846V242.497C824.501 242.989 824.025 243.368 823.421 243.634C822.816 243.893 822.148 244.023 821.417 244.023ZM834.468 243.724V234.053H835.944V237.951H841.596V234.053H843.072V243.724H841.596V239.247H835.944V243.724H834.468ZM849.007 244.023C848.316 244.023 847.718 243.896 847.213 243.644C846.708 243.391 846.319 243.039 846.047 242.587C845.774 242.129 845.638 241.594 845.638 240.982C845.638 240.477 845.767 240.015 846.027 239.596C846.292 239.171 846.708 238.819 847.273 238.54C847.844 238.254 848.589 238.064 849.506 237.971C850.423 237.878 851.54 237.905 852.856 238.051L852.905 239.218C851.822 239.078 850.905 239.028 850.154 239.068C849.41 239.108 848.811 239.214 848.359 239.387C847.907 239.56 847.578 239.782 847.372 240.055C847.173 240.327 847.073 240.627 847.073 240.952C847.073 241.51 847.269 241.946 847.662 242.258C848.054 242.571 848.599 242.727 849.297 242.727C849.881 242.727 850.406 242.617 850.872 242.398C851.337 242.178 851.706 241.876 851.978 241.491C852.251 241.105 852.387 240.663 852.387 240.165V237.343C852.387 236.852 852.281 236.429 852.068 236.077C851.855 235.725 851.543 235.452 851.131 235.26C850.725 235.067 850.23 234.971 849.645 234.971C849.14 234.971 848.635 235.047 848.13 235.2C847.632 235.353 847.143 235.605 846.665 235.958L846.186 234.751C846.771 234.339 847.372 234.053 847.991 233.894C848.609 233.734 849.197 233.655 849.755 233.655C850.639 233.655 851.383 233.794 851.988 234.073C852.593 234.353 853.052 234.765 853.364 235.31C853.676 235.855 853.833 236.529 853.833 237.333V243.724H852.437V242.497C852.091 242.989 851.616 243.368 851.011 243.634C850.406 243.893 849.738 244.023 849.007 244.023ZM866.386 244.023C865.375 244.023 864.478 243.8 863.694 243.355C862.91 242.909 862.295 242.301 861.85 241.53C861.404 240.753 861.182 239.872 861.182 238.889C861.182 238.138 861.311 237.453 861.57 236.835C861.836 236.21 862.212 235.668 862.697 235.21C863.182 234.745 863.75 234.386 864.402 234.133C865.06 233.881 865.774 233.754 866.545 233.754C867.15 233.754 867.705 233.831 868.21 233.984C868.722 234.137 869.197 234.379 869.635 234.711L868.838 235.878C868.546 235.632 868.197 235.446 867.791 235.32C867.392 235.187 866.964 235.12 866.505 235.12C865.734 235.12 865.066 235.27 864.501 235.569C863.936 235.861 863.498 236.29 863.185 236.855C862.873 237.413 862.717 238.084 862.717 238.869C862.717 240.052 863.056 240.979 863.734 241.65C864.412 242.321 865.332 242.657 866.495 242.657C867.007 242.657 867.485 242.564 867.931 242.378C868.376 242.192 868.728 241.962 868.987 241.69L869.845 242.816C869.346 243.189 868.805 243.484 868.22 243.704C867.635 243.916 867.024 244.023 866.386 244.023ZM876.139 244.023C875.156 244.023 874.275 243.79 873.497 243.325C872.72 242.86 872.108 242.238 871.663 241.461C871.218 240.676 870.995 239.819 870.995 238.889C870.995 238.191 871.121 237.533 871.374 236.915C871.633 236.297 871.995 235.752 872.461 235.28C872.926 234.801 873.471 234.429 874.095 234.163C874.72 233.891 875.401 233.754 876.139 233.754C877.129 233.754 878.01 233.987 878.781 234.452C879.559 234.917 880.17 235.542 880.615 236.326C881.061 237.104 881.283 237.958 881.283 238.889C881.283 239.58 881.154 240.238 880.894 240.862C880.642 241.481 880.286 242.029 879.828 242.507C879.369 242.979 878.824 243.351 878.193 243.624C877.568 243.89 876.884 244.023 876.139 244.023ZM876.139 242.657C876.844 242.657 877.468 242.504 878.013 242.198C878.558 241.886 878.984 241.451 879.289 240.892C879.602 240.327 879.758 239.66 879.758 238.889C879.758 238.118 879.602 237.45 879.289 236.885C878.984 236.32 878.558 235.884 878.013 235.579C877.468 235.273 876.844 235.12 876.139 235.12C875.435 235.12 874.81 235.273 874.265 235.579C873.72 235.884 873.291 236.32 872.979 236.885C872.673 237.45 872.52 238.118 872.52 238.889C872.52 239.66 872.677 240.327 872.989 240.892C873.301 241.451 873.727 241.886 874.265 242.198C874.81 242.504 875.435 242.657 876.139 242.657ZM883.672 243.724V234.053H892.255V243.724H890.78V235.349H885.147V243.724H883.672ZM895.53 247.911V234.053H896.935V235.589C897.347 235.057 897.866 234.618 898.491 234.273C899.115 233.927 899.916 233.754 900.893 233.754C901.857 233.754 902.704 233.984 903.435 234.442C904.173 234.901 904.745 235.519 905.15 236.297C905.562 237.074 905.768 237.938 905.768 238.889C905.768 239.593 905.649 240.258 905.409 240.882C905.177 241.5 904.844 242.045 904.412 242.517C903.98 242.989 903.465 243.358 902.867 243.624C902.269 243.89 901.608 244.023 900.883 244.023C899.993 244.023 899.228 243.857 898.59 243.524C897.952 243.185 897.424 242.74 897.005 242.188V247.911H895.53ZM900.624 242.657C901.329 242.657 901.953 242.504 902.498 242.198C903.043 241.886 903.469 241.451 903.774 240.892C904.087 240.327 904.243 239.66 904.243 238.889C904.243 238.118 904.087 237.45 903.774 236.885C903.462 236.32 903.033 235.884 902.488 235.579C901.95 235.273 901.329 235.12 900.624 235.12C899.92 235.12 899.295 235.273 898.75 235.579C898.205 235.884 897.776 236.32 897.464 236.885C897.158 237.45 897.005 238.118 897.005 238.889C897.005 239.66 897.158 240.327 897.464 240.892C897.776 241.451 898.205 241.886 898.75 242.198C899.295 242.504 899.92 242.657 900.624 242.657ZM912.531 244.023C911.547 244.023 910.666 243.79 909.889 243.325C909.111 242.86 908.5 242.238 908.055 241.461C907.609 240.676 907.387 239.819 907.387 238.889C907.387 238.191 907.513 237.533 907.765 236.915C908.025 236.297 908.387 235.752 908.852 235.28C909.317 234.801 909.862 234.429 910.487 234.163C911.112 233.891 911.793 233.754 912.531 233.754C913.521 233.754 914.402 233.987 915.173 234.452C915.95 234.917 916.562 235.542 917.007 236.326C917.452 237.104 917.675 237.958 917.675 238.889C917.675 239.58 917.545 240.238 917.286 240.862C917.034 241.481 916.678 242.029 916.219 242.507C915.761 242.979 915.216 243.351 914.584 243.624C913.96 243.89 913.275 244.023 912.531 244.023ZM912.531 242.657C913.235 242.657 913.86 242.504 914.405 242.198C914.95 241.886 915.375 241.451 915.681 240.892C915.993 240.327 916.15 239.66 916.15 238.889C916.15 238.118 915.993 237.45 915.681 236.885C915.375 236.32 914.95 235.884 914.405 235.579C913.86 235.273 913.235 235.12 912.531 235.12C911.826 235.12 911.202 235.273 910.657 235.579C910.112 235.884 909.683 236.32 909.37 236.885C909.065 237.45 908.912 238.118 908.912 238.889C908.912 239.66 909.068 240.327 909.38 240.892C909.693 241.451 910.118 241.886 910.657 242.198C911.202 242.504 911.826 242.657 912.531 242.657ZM920.063 243.724V234.053H924.35C925.407 234.053 926.268 234.266 926.932 234.692C927.597 235.11 927.929 235.735 927.929 236.566C927.929 236.911 927.849 237.23 927.69 237.523C927.537 237.815 927.314 238.068 927.022 238.28C926.73 238.493 926.377 238.653 925.965 238.759L925.935 238.44C926.726 238.586 927.324 238.882 927.73 239.327C928.135 239.766 928.338 240.304 928.338 240.942C928.338 241.514 928.185 242.009 927.879 242.428C927.58 242.84 927.148 243.159 926.583 243.385C926.025 243.611 925.364 243.724 924.599 243.724H920.063ZM921.519 242.487H924.39C925.181 242.487 925.792 242.361 926.224 242.109C926.656 241.849 926.872 241.457 926.872 240.932C926.872 240.407 926.656 240.018 926.224 239.766C925.792 239.513 925.181 239.387 924.39 239.387H921.25V238.171H924.171C924.908 238.171 925.48 238.061 925.885 237.842C926.291 237.616 926.494 237.247 926.494 236.735C926.494 236.217 926.291 235.845 925.885 235.619C925.487 235.393 924.915 235.28 924.171 235.28H921.519V242.487ZM935.331 244.023C934.348 244.023 933.467 243.79 932.69 243.325C931.912 242.86 931.301 242.238 930.855 241.461C930.41 240.676 930.187 239.819 930.187 238.889C930.187 238.191 930.314 237.533 930.566 236.915C930.825 236.297 931.188 235.752 931.653 235.28C932.118 234.801 932.663 234.429 933.288 234.163C933.913 233.891 934.594 233.754 935.331 233.754C936.322 233.754 937.202 233.987 937.973 234.452C938.751 234.917 939.362 235.542 939.808 236.326C940.253 237.104 940.476 237.958 940.476 238.889C940.476 239.58 940.346 240.238 940.087 240.862C939.834 241.481 939.479 242.029 939.02 242.507C938.561 242.979 938.017 243.351 937.385 243.624C936.76 243.89 936.076 244.023 935.331 244.023ZM935.331 242.657C936.036 242.657 936.661 242.504 937.206 242.198C937.751 241.886 938.176 241.451 938.482 240.892C938.794 240.327 938.95 239.66 938.95 238.889C938.95 238.118 938.794 237.45 938.482 236.885C938.176 236.32 937.751 235.884 937.206 235.579C936.661 235.273 936.036 235.12 935.331 235.12C934.627 235.12 934.002 235.273 933.457 235.579C932.912 235.884 932.484 236.32 932.171 236.885C931.865 237.45 931.713 238.118 931.713 238.889C931.713 239.66 931.869 240.327 932.181 240.892C932.494 241.451 932.919 241.886 933.457 242.198C934.002 242.504 934.627 242.657 935.331 242.657ZM947.814 243.724V239.247H945.202V237.951H947.814V234.053H949.289V237.951H951.891V239.247H949.289V243.724H947.814ZM941.583 243.724L944.733 238.56L942.111 234.053H943.736L946.348 238.53L943.307 243.724H941.583ZM953.745 243.724L950.745 238.53L953.406 234.053H954.981L952.36 238.47L955.53 243.724H953.745ZM964.899 243.724V235.349H960.203V237.064C960.203 238.035 960.16 238.885 960.074 239.616C959.987 240.341 959.828 240.959 959.595 241.471C959.363 241.982 959.034 242.401 958.608 242.727C958.183 243.046 957.635 243.282 956.963 243.435L956.485 242.487C957.136 242.321 957.625 242.032 957.95 241.62C958.283 241.201 958.502 240.623 958.608 239.885C958.721 239.148 958.778 238.207 958.778 237.064V234.053H966.374V243.724H964.899ZM956.485 246.714V242.487L957.611 242.627L957.831 242.428H968.338V246.714H966.983V243.724H957.841V246.714H956.485ZM974.596 244.023C973.579 244.023 972.682 243.81 971.904 243.385C971.126 242.959 970.518 242.364 970.08 241.6C969.641 240.829 969.422 239.935 969.422 238.918C969.422 238.181 969.545 237.496 969.791 236.865C970.043 236.233 970.395 235.685 970.847 235.22C971.306 234.755 971.838 234.396 972.442 234.143C973.054 233.884 973.718 233.754 974.436 233.754C975.201 233.754 975.882 233.891 976.48 234.163C977.078 234.436 977.577 234.814 977.975 235.3C978.381 235.785 978.67 236.356 978.843 237.014C979.022 237.666 979.069 238.37 978.982 239.128H970.947C970.914 239.846 971.047 240.474 971.346 241.012C971.645 241.544 972.083 241.959 972.662 242.258C973.24 242.557 973.928 242.707 974.725 242.707C975.25 242.707 975.769 242.617 976.281 242.438C976.799 242.258 977.248 242.002 977.626 241.67L978.344 242.816C978.019 243.082 977.643 243.308 977.218 243.494C976.799 243.674 976.364 243.807 975.912 243.893C975.466 243.98 975.028 244.023 974.596 244.023ZM971.017 237.902H977.467C977.434 237.004 977.158 236.303 976.639 235.798C976.128 235.293 975.387 235.04 974.416 235.04C973.479 235.04 972.702 235.293 972.083 235.798C971.472 236.303 971.116 237.004 971.017 237.902ZM981.417 243.724V234.053H982.892V237.951H988.545V234.053H990.02V243.724H988.545V239.247H982.892V243.724H981.417ZM993.294 243.724V234.053H994.75V241.431L1000.76 234.053H1002V243.724H1000.55V236.267L994.481 243.724H993.294ZM1009.57 244.023C1008.55 244.023 1007.65 243.81 1006.87 243.385C1006.1 242.959 1005.49 242.364 1005.05 241.6C1004.61 240.829 1004.39 239.935 1004.39 238.918C1004.39 238.181 1004.51 237.496 1004.76 236.865C1005.01 236.233 1005.37 235.685 1005.82 235.22C1006.28 234.755 1006.81 234.396 1007.41 234.143C1008.02 233.884 1008.69 233.754 1009.41 233.754C1010.17 233.754 1010.85 233.891 1011.45 234.163C1012.05 234.436 1012.55 234.814 1012.95 235.3C1013.35 235.785 1013.64 236.356 1013.81 237.014C1013.99 237.666 1014.04 238.37 1013.95 239.128H1005.92C1005.88 239.846 1006.02 240.474 1006.32 241.012C1006.62 241.544 1007.05 241.959 1007.63 242.258C1008.21 242.557 1008.9 242.707 1009.7 242.707C1010.22 242.707 1010.74 242.617 1011.25 242.438C1011.77 242.258 1012.22 242.002 1012.6 241.67L1013.31 242.816C1012.99 243.082 1012.61 243.308 1012.19 243.494C1011.77 243.674 1011.33 243.807 1010.88 243.893C1010.44 243.98 1010 244.023 1009.57 244.023ZM1005.99 237.902H1012.44C1012.4 237.004 1012.13 236.303 1011.61 235.798C1011.1 235.293 1010.36 235.04 1009.39 235.04C1008.45 235.04 1007.67 235.293 1007.05 235.798C1006.44 236.303 1006.09 237.004 1005.99 237.902ZM1021.25 246.017L1019.97 245.508L1027.39 227.673L1028.66 228.182L1021.25 246.017ZM735.503 272.724V258.767H742.98V260.162H737.019V272.724H735.503ZM746.998 273.023C746.307 273.023 745.709 272.896 745.204 272.644C744.698 272.391 744.31 272.039 744.037 271.587C743.765 271.129 743.628 270.594 743.628 269.982C743.628 269.477 743.758 269.015 744.017 268.596C744.283 268.171 744.698 267.819 745.263 267.54C745.835 267.254 746.579 267.064 747.497 266.971C748.414 266.878 749.53 266.905 750.846 267.051L750.896 268.218C749.813 268.078 748.896 268.028 748.145 268.068C747.4 268.108 746.802 268.214 746.35 268.387C745.898 268.56 745.569 268.782 745.363 269.055C745.164 269.327 745.064 269.627 745.064 269.952C745.064 270.51 745.26 270.946 745.652 271.258C746.044 271.571 746.589 271.727 747.287 271.727C747.872 271.727 748.397 271.617 748.862 271.398C749.328 271.178 749.696 270.876 749.969 270.491C750.241 270.105 750.378 269.663 750.378 269.165V266.343C750.378 265.852 750.271 265.429 750.059 265.077C749.846 264.725 749.534 264.452 749.121 264.26C748.716 264.067 748.221 263.971 747.636 263.971C747.131 263.971 746.626 264.047 746.121 264.2C745.622 264.353 745.134 264.605 744.655 264.958L744.177 263.751C744.762 263.339 745.363 263.053 745.981 262.894C746.599 262.734 747.187 262.655 747.746 262.655C748.63 262.655 749.374 262.794 749.979 263.073C750.584 263.353 751.042 263.765 751.355 264.31C751.667 264.855 751.823 265.529 751.823 266.333V272.724H750.427V271.497C750.082 271.989 749.607 272.368 749.002 272.634C748.397 272.893 747.729 273.023 746.998 273.023ZM754.968 276.911V263.053H756.373V264.589C756.785 264.057 757.304 263.618 757.928 263.273C758.553 262.927 759.354 262.754 760.331 262.754C761.295 262.754 762.142 262.984 762.873 263.442C763.611 263.901 764.182 264.519 764.588 265.297C765 266.074 765.206 266.938 765.206 267.889C765.206 268.593 765.086 269.258 764.847 269.882C764.614 270.5 764.282 271.045 763.85 271.517C763.418 271.989 762.903 272.358 762.305 272.624C761.707 272.89 761.045 273.023 760.321 273.023C759.43 273.023 758.666 272.857 758.028 272.524C757.39 272.185 756.862 271.74 756.443 271.188V276.911H754.968ZM760.062 271.657C760.766 271.657 761.391 271.504 761.936 271.198C762.481 270.886 762.906 270.451 763.212 269.892C763.524 269.327 763.681 268.66 763.681 267.889C763.681 267.118 763.524 266.45 763.212 265.885C762.9 265.32 762.471 264.884 761.926 264.579C761.388 264.273 760.766 264.12 760.062 264.12C759.357 264.12 758.733 264.273 758.188 264.579C757.643 264.884 757.214 265.32 756.902 265.885C756.596 266.45 756.443 267.118 756.443 267.889C756.443 268.66 756.596 269.327 756.902 269.892C757.214 270.451 757.643 270.886 758.188 271.198C758.733 271.504 759.357 271.657 760.062 271.657ZM770.266 273.023C769.575 273.023 768.977 272.896 768.472 272.644C767.967 272.391 767.578 272.039 767.305 271.587C767.033 271.129 766.896 270.594 766.896 269.982C766.896 269.477 767.026 269.015 767.285 268.596C767.551 268.171 767.967 267.819 768.531 267.54C769.103 267.254 769.847 267.064 770.765 266.971C771.682 266.878 772.798 266.905 774.114 267.051L774.164 268.218C773.081 268.078 772.164 268.028 771.413 268.068C770.668 268.108 770.07 268.214 769.618 268.387C769.166 268.56 768.837 268.782 768.631 269.055C768.432 269.327 768.332 269.627 768.332 269.952C768.332 270.51 768.528 270.946 768.92 271.258C769.312 271.571 769.857 271.727 770.555 271.727C771.14 271.727 771.665 271.617 772.13 271.398C772.596 271.178 772.964 270.876 773.237 270.491C773.509 270.105 773.646 269.663 773.646 269.165V266.343C773.646 265.852 773.539 265.429 773.327 265.077C773.114 264.725 772.802 264.452 772.39 264.26C771.984 264.067 771.489 263.971 770.904 263.971C770.399 263.971 769.894 264.047 769.389 264.2C768.89 264.353 768.402 264.605 767.923 264.958L767.445 263.751C768.03 263.339 768.631 263.053 769.249 262.894C769.867 262.734 770.455 262.655 771.014 262.655C771.898 262.655 772.642 262.794 773.247 263.073C773.852 263.353 774.31 263.765 774.623 264.31C774.935 264.855 775.091 265.529 775.091 266.333V272.724H773.695V271.497C773.35 271.989 772.875 272.368 772.27 272.634C771.665 272.893 770.997 273.023 770.266 273.023ZM778.236 272.724V263.053H779.711V266.951H785.364V263.053H786.839V272.724H785.364V268.247H779.711V272.724H778.236ZM792.446 272.724V264.349H788.986V263.053H797.381V264.349H793.921V272.724H792.446ZM799.518 272.724V263.053H800.973V270.431L806.984 263.053H808.221V272.724H806.775V265.267L800.704 272.724H799.518ZM811.492 272.724V263.053H812.948V270.431L818.959 263.053H820.195V272.724H818.75V265.267L812.679 272.724H811.492ZM815.839 261.159C815.161 261.159 814.563 261.01 814.044 260.711C813.526 260.405 813.124 259.993 812.838 259.475C812.552 258.949 812.423 258.351 812.449 257.68H813.735C813.709 258.378 813.888 258.943 814.274 259.375C814.659 259.8 815.181 260.013 815.839 260.013C816.497 260.013 817.015 259.8 817.394 259.375C817.773 258.943 817.942 258.378 817.902 257.68H819.208C819.228 258.345 819.095 258.94 818.81 259.465C818.524 259.99 818.122 260.405 817.603 260.711C817.092 261.01 816.503 261.159 815.839 261.159ZM823.467 272.724V263.053H824.942V266.951H830.595V263.053H832.07V272.724H830.595V268.247H824.942V272.724H823.467ZM838.006 273.023C837.315 273.023 836.717 272.896 836.212 272.644C835.707 272.391 835.318 272.039 835.045 271.587C834.773 271.129 834.637 270.594 834.637 269.982C834.637 269.477 834.766 269.015 835.025 268.596C835.291 268.171 835.707 267.819 836.272 267.54C836.843 267.254 837.588 267.064 838.505 266.971C839.422 266.878 840.538 266.905 841.854 267.051L841.904 268.218C840.821 268.078 839.904 268.028 839.153 268.068C838.408 268.108 837.81 268.214 837.358 268.387C836.906 268.56 836.577 268.782 836.371 269.055C836.172 269.327 836.072 269.627 836.072 269.952C836.072 270.51 836.268 270.946 836.66 271.258C837.052 271.571 837.597 271.727 838.295 271.727C838.88 271.727 839.405 271.617 839.87 271.398C840.336 271.178 840.705 270.876 840.977 270.491C841.25 270.105 841.386 269.663 841.386 269.165V266.343C841.386 265.852 841.279 265.429 841.067 265.077C840.854 264.725 840.542 264.452 840.13 264.26C839.724 264.067 839.229 263.971 838.644 263.971C838.139 263.971 837.634 264.047 837.129 264.2C836.63 264.353 836.142 264.605 835.663 264.958L835.185 263.751C835.77 263.339 836.371 263.053 836.989 262.894C837.607 262.734 838.196 262.655 838.754 262.655C839.638 262.655 840.382 262.794 840.987 263.073C841.592 263.353 842.05 263.765 842.363 264.31C842.675 264.855 842.831 265.529 842.831 266.333V272.724H841.436V271.497C841.09 271.989 840.615 272.368 840.01 272.634C839.405 272.893 838.737 273.023 838.006 273.023ZM845.348 272.724L849.325 267.899L849.535 268.935C848.691 268.942 847.989 268.822 847.431 268.576C846.873 268.331 846.458 267.988 846.185 267.55C845.913 267.111 845.776 266.596 845.776 266.004C845.776 265.38 845.942 264.848 846.275 264.409C846.607 263.971 847.072 263.635 847.67 263.402C848.269 263.17 848.963 263.053 849.754 263.053H853.552V272.724H852.107V264.3H849.854C849.003 264.3 848.365 264.439 847.94 264.718C847.514 264.991 847.302 265.413 847.302 265.984C847.302 266.549 847.501 266.978 847.9 267.27C848.299 267.563 848.89 267.709 849.674 267.709H852.366V268.925H850.252L847.142 272.724H845.348ZM861.903 272.724V263.053H870.487V272.724H869.011V264.349H863.379V272.724H861.903ZM878.028 273.023C877.044 273.023 876.164 272.79 875.386 272.325C874.608 271.86 873.997 271.238 873.552 270.461C873.106 269.676 872.884 268.819 872.884 267.889C872.884 267.191 873.01 266.533 873.263 265.915C873.522 265.297 873.884 264.752 874.349 264.28C874.814 263.801 875.359 263.429 875.984 263.163C876.609 262.891 877.29 262.754 878.028 262.754C879.018 262.754 879.899 262.987 880.67 263.452C881.447 263.917 882.059 264.542 882.504 265.326C882.949 266.104 883.172 266.958 883.172 267.889C883.172 268.58 883.042 269.238 882.783 269.862C882.531 270.481 882.175 271.029 881.716 271.507C881.258 271.979 880.713 272.351 880.082 272.624C879.457 272.89 878.772 273.023 878.028 273.023ZM878.028 271.657C878.732 271.657 879.357 271.504 879.902 271.198C880.447 270.886 880.872 270.451 881.178 269.892C881.49 269.327 881.647 268.66 881.647 267.889C881.647 267.118 881.49 266.45 881.178 265.885C880.872 265.32 880.447 264.884 879.902 264.579C879.357 264.273 878.732 264.12 878.028 264.12C877.323 264.12 876.699 264.273 876.154 264.579C875.609 264.884 875.18 265.32 874.868 265.885C874.562 266.45 874.409 267.118 874.409 267.889C874.409 268.66 874.565 269.327 874.878 269.892C875.19 270.451 875.615 270.886 876.154 271.198C876.699 271.504 877.323 271.657 878.028 271.657ZM892.758 272.724V264.349H888.063V266.064C888.063 267.035 888.02 267.885 887.933 268.616C887.847 269.341 887.687 269.959 887.455 270.471C887.222 270.982 886.893 271.401 886.468 271.727C886.042 272.046 885.494 272.282 884.823 272.435L884.344 271.487C884.996 271.321 885.484 271.032 885.81 270.62C886.142 270.201 886.361 269.623 886.468 268.885C886.581 268.148 886.637 267.207 886.637 266.064V263.053H894.234V272.724H892.758ZM884.344 275.714V271.487L885.471 271.627L885.69 271.428H896.198V275.714H894.842V272.724H885.7V275.714H884.344ZM905.921 272.724V264.349H901.225V266.064C901.225 267.035 901.182 267.885 901.096 268.616C901.009 269.341 900.85 269.959 900.617 270.471C900.385 270.982 900.056 271.401 899.63 271.727C899.205 272.046 898.657 272.282 897.985 272.435L897.507 271.487C898.158 271.321 898.647 271.032 898.972 270.62C899.305 270.201 899.524 269.623 899.63 268.885C899.743 268.148 899.8 267.207 899.8 266.064V263.053H907.396V272.724H905.921ZM897.507 275.714V271.487L898.633 271.627L898.853 271.428H909.36V275.714H908.004V272.724H898.863V275.714H897.507ZM915.618 273.023C914.601 273.023 913.704 272.81 912.926 272.385C912.148 271.959 911.54 271.364 911.102 270.6C910.663 269.829 910.444 268.935 910.444 267.918C910.444 267.181 910.567 266.496 910.812 265.865C911.065 265.233 911.417 264.685 911.869 264.22C912.328 263.755 912.859 263.396 913.464 263.143C914.076 262.884 914.74 262.754 915.458 262.754C916.222 262.754 916.904 262.891 917.502 263.163C918.1 263.436 918.598 263.814 918.997 264.3C919.403 264.785 919.692 265.356 919.864 266.014C920.044 266.666 920.09 267.37 920.004 268.128H911.969C911.936 268.846 912.069 269.474 912.368 270.012C912.667 270.544 913.105 270.959 913.684 271.258C914.262 271.557 914.95 271.707 915.747 271.707C916.272 271.707 916.791 271.617 917.302 271.438C917.821 271.258 918.269 271.002 918.648 270.67L919.366 271.816C919.04 272.082 918.665 272.308 918.24 272.494C917.821 272.674 917.385 272.807 916.934 272.893C916.488 272.98 916.05 273.023 915.618 273.023ZM912.039 266.902H918.489C918.456 266.004 918.18 265.303 917.661 264.798C917.15 264.293 916.408 264.04 915.438 264.04C914.501 264.04 913.723 264.293 913.105 264.798C912.494 265.303 912.138 266.004 912.039 266.902ZM922.439 276.911V263.053H923.845V264.589C924.257 264.057 924.775 263.618 925.4 263.273C926.024 262.927 926.825 262.754 927.802 262.754C928.766 262.754 929.613 262.984 930.344 263.442C931.082 263.901 931.654 264.519 932.059 265.297C932.471 266.074 932.677 266.938 932.677 267.889C932.677 268.593 932.558 269.258 932.318 269.882C932.086 270.5 931.753 271.045 931.321 271.517C930.889 271.989 930.374 272.358 929.776 272.624C929.178 272.89 928.517 273.023 927.792 273.023C926.902 273.023 926.137 272.857 925.499 272.524C924.861 272.185 924.333 271.74 923.914 271.188V276.911H922.439ZM927.533 271.657C928.238 271.657 928.862 271.504 929.407 271.198C929.952 270.886 930.378 270.451 930.683 269.892C930.996 269.327 931.152 268.66 931.152 267.889C931.152 267.118 930.996 266.45 930.683 265.885C930.371 265.32 929.942 264.884 929.397 264.579C928.859 264.273 928.238 264.12 927.533 264.12C926.829 264.12 926.204 264.273 925.659 264.579C925.114 264.884 924.685 265.32 924.373 265.885C924.067 266.45 923.914 267.118 923.914 267.889C923.914 268.66 924.067 269.327 924.373 269.892C924.685 270.451 925.114 270.886 925.659 271.198C926.204 271.504 926.829 271.657 927.533 271.657ZM940.025 272.724V268.247H937.413V266.951H940.025V263.053H941.501V266.951H944.103V268.247H941.501V272.724H940.025ZM933.794 272.724L936.945 267.56L934.323 263.053H935.948L938.56 267.53L935.519 272.724H933.794ZM945.957 272.724L942.956 267.53L945.618 263.053H947.193L944.571 267.47L947.741 272.724H945.957ZM956.462 272.724L953.123 267.53L956.014 263.053H957.619L954.738 267.47L958.267 272.724H956.462ZM949.913 272.724V263.053H951.388V266.951H954.269V268.247H951.388V272.724H949.913ZM963.108 273.023C962.417 273.023 961.819 272.896 961.314 272.644C960.809 272.391 960.42 272.039 960.148 271.587C959.875 271.129 959.739 270.594 959.739 269.982C959.739 269.477 959.868 269.015 960.128 268.596C960.393 268.171 960.809 267.819 961.374 267.54C961.945 267.254 962.69 267.064 963.607 266.971C964.524 266.878 965.641 266.905 966.957 267.051L967.006 268.218C965.923 268.078 965.006 268.028 964.255 268.068C963.51 268.108 962.912 268.214 962.46 268.387C962.008 268.56 961.679 268.782 961.473 269.055C961.274 269.327 961.174 269.627 961.174 269.952C961.174 270.51 961.37 270.946 961.763 271.258C962.155 271.571 962.7 271.727 963.397 271.727C963.982 271.727 964.507 271.617 964.973 271.398C965.438 271.178 965.807 270.876 966.079 270.491C966.352 270.105 966.488 269.663 966.488 269.165V266.343C966.488 265.852 966.382 265.429 966.169 265.077C965.956 264.725 965.644 264.452 965.232 264.26C964.826 264.067 964.331 263.971 963.746 263.971C963.241 263.971 962.736 264.047 962.231 264.2C961.733 264.353 961.244 264.605 960.766 264.958L960.287 263.751C960.872 263.339 961.473 263.053 962.092 262.894C962.71 262.734 963.298 262.655 963.856 262.655C964.74 262.655 965.484 262.794 966.089 263.073C966.694 263.353 967.153 263.765 967.465 264.31C967.777 264.855 967.933 265.529 967.933 266.333V272.724H966.538V271.497C966.192 271.989 965.717 272.368 965.112 272.634C964.507 272.893 963.839 273.023 963.108 273.023Z" fill="#444B50"/>
<g clip-path="url(#clip2_3158_4219)">
<path d="M555.292 116.36L554.01 117.641L556.355 119.994H545.296V103.639H543.479V119.994C543.479 120.997 544.294 121.812 545.296 121.812H556.355L554.01 124.165L555.292 125.446L559.835 120.903L555.292 116.36Z" fill="#444B50"/>
<path d="M551.657 111.816C552.159 111.816 552.565 111.41 552.565 110.908C552.565 110.406 552.159 109.999 551.657 109.999C551.155 109.999 550.748 110.406 550.748 110.908C550.748 111.41 551.155 111.816 551.657 111.816Z" fill="#444B50"/>
<path d="M563.469 114.543H548.931C547.928 114.543 547.113 113.728 547.113 112.725V109.091C547.113 108.088 547.928 107.273 548.931 107.273H563.469C564.471 107.273 565.286 108.088 565.286 109.091V112.725C565.286 113.728 564.471 114.543 563.469 114.543ZM548.931 109.091V112.725H563.469V109.091H548.931Z" fill="#444B50"/>
<path d="M567.104 100.004H556.046L558.39 97.6508L557.109 96.3696L552.565 100.913L557.109 105.456L558.39 104.175L556.046 101.822H567.104V118.177H568.921V101.822C568.921 100.82 568.106 100.004 567.104 100.004Z" fill="#444B50"/>
</g>
<path d="M585.965 117.408V103.451H596.592V117.408H595.077V104.847H587.48V117.408H585.965ZM604.449 117.707C603.432 117.707 602.535 117.495 601.757 117.069C600.98 116.644 600.372 116.049 599.933 115.285C599.494 114.514 599.275 113.62 599.275 112.603C599.275 111.865 599.398 111.181 599.644 110.549C599.896 109.918 600.249 109.37 600.701 108.904C601.159 108.439 601.691 108.08 602.296 107.828C602.907 107.569 603.572 107.439 604.289 107.439C605.054 107.439 605.735 107.575 606.333 107.848C606.931 108.12 607.43 108.499 607.829 108.984C608.234 109.469 608.523 110.041 608.696 110.699C608.875 111.35 608.922 112.055 608.835 112.812H600.8C600.767 113.53 600.9 114.158 601.199 114.697C601.498 115.228 601.937 115.644 602.515 115.943C603.093 116.242 603.781 116.391 604.579 116.391C605.104 116.391 605.622 116.302 606.134 116.122C606.652 115.943 607.101 115.687 607.48 115.355L608.197 116.501C607.872 116.767 607.496 116.993 607.071 117.179C606.652 117.358 606.217 117.491 605.765 117.578C605.32 117.664 604.881 117.707 604.449 117.707ZM600.87 111.586H607.32C607.287 110.689 607.011 109.988 606.493 109.483C605.981 108.978 605.24 108.725 604.27 108.725C603.332 108.725 602.555 108.978 601.937 109.483C601.325 109.988 600.97 110.689 600.87 111.586ZM611.27 121.595V107.738H612.676V109.273C613.088 108.742 613.606 108.303 614.231 107.957C614.856 107.612 615.657 107.439 616.634 107.439C617.597 107.439 618.445 107.668 619.176 108.127C619.914 108.585 620.485 109.204 620.891 109.981C621.303 110.759 621.509 111.623 621.509 112.573C621.509 113.278 621.389 113.942 621.15 114.567C620.917 115.185 620.585 115.73 620.153 116.202C619.721 116.674 619.206 117.043 618.608 117.309C618.009 117.574 617.348 117.707 616.624 117.707C615.733 117.707 614.969 117.541 614.331 117.209C613.693 116.87 613.164 116.425 612.746 115.873V121.595H611.27ZM616.365 116.341C617.069 116.341 617.694 116.189 618.239 115.883C618.784 115.571 619.209 115.135 619.515 114.577C619.827 114.012 619.983 113.344 619.983 112.573C619.983 111.802 619.827 111.134 619.515 110.569C619.202 110.004 618.774 109.569 618.229 109.263C617.69 108.958 617.069 108.805 616.365 108.805C615.66 108.805 615.035 108.958 614.49 109.263C613.945 109.569 613.517 110.004 613.204 110.569C612.899 111.134 612.746 111.802 612.746 112.573C612.746 113.344 612.899 114.012 613.204 114.577C613.517 115.135 613.945 115.571 614.49 115.883C615.035 116.189 615.66 116.341 616.365 116.341ZM628.301 117.707C627.284 117.707 626.387 117.495 625.609 117.069C624.832 116.644 624.224 116.049 623.785 115.285C623.346 114.514 623.127 113.62 623.127 112.603C623.127 111.865 623.25 111.181 623.496 110.549C623.749 109.918 624.101 109.37 624.553 108.904C625.011 108.439 625.543 108.08 626.148 107.828C626.759 107.569 627.424 107.439 628.142 107.439C628.906 107.439 629.587 107.575 630.185 107.848C630.783 108.12 631.282 108.499 631.681 108.984C632.086 109.469 632.375 110.041 632.548 110.699C632.727 111.35 632.774 112.055 632.688 112.812H624.652C624.619 113.53 624.752 114.158 625.051 114.697C625.35 115.228 625.789 115.644 626.367 115.943C626.945 116.242 627.633 116.391 628.431 116.391C628.956 116.391 629.474 116.302 629.986 116.122C630.504 115.943 630.953 115.687 631.332 115.355L632.05 116.501C631.724 116.767 631.348 116.993 630.923 117.179C630.504 117.358 630.069 117.491 629.617 117.578C629.172 117.664 628.733 117.707 628.301 117.707ZM624.722 111.586H631.172C631.139 110.689 630.863 109.988 630.345 109.483C629.833 108.978 629.092 108.725 628.122 108.725C627.185 108.725 626.407 108.978 625.789 109.483C625.177 109.988 624.822 110.689 624.722 111.586ZM635.122 117.408V107.738H639.409C640.466 107.738 641.327 107.951 641.991 108.376C642.656 108.795 642.988 109.42 642.988 110.25C642.988 110.596 642.908 110.915 642.749 111.207C642.596 111.5 642.373 111.752 642.081 111.965C641.789 112.178 641.436 112.337 641.024 112.444L640.994 112.125C641.785 112.271 642.383 112.566 642.789 113.012C643.194 113.45 643.397 113.989 643.397 114.627C643.397 115.198 643.244 115.693 642.938 116.112C642.639 116.524 642.207 116.843 641.642 117.069C641.084 117.295 640.423 117.408 639.658 117.408H635.122ZM636.578 116.172H639.449C640.24 116.172 640.851 116.046 641.283 115.793C641.715 115.534 641.931 115.142 641.931 114.617C641.931 114.092 641.715 113.703 641.283 113.45C640.851 113.198 640.24 113.072 639.449 113.072H636.309V111.855H639.23C639.967 111.855 640.539 111.746 640.944 111.526C641.35 111.3 641.553 110.932 641.553 110.42C641.553 109.901 641.35 109.529 640.944 109.303C640.546 109.077 639.974 108.964 639.23 108.964H636.578V116.172ZM650.39 117.707C649.407 117.707 648.526 117.475 647.749 117.009C646.971 116.544 646.36 115.923 645.914 115.145C645.469 114.361 645.246 113.504 645.246 112.573C645.246 111.875 645.373 111.217 645.625 110.599C645.884 109.981 646.247 109.436 646.712 108.964C647.177 108.486 647.722 108.114 648.347 107.848C648.972 107.575 649.653 107.439 650.39 107.439C651.381 107.439 652.261 107.672 653.032 108.137C653.81 108.602 654.421 109.227 654.867 110.011C655.312 110.789 655.535 111.643 655.535 112.573C655.535 113.264 655.405 113.922 655.146 114.547C654.893 115.165 654.538 115.713 654.079 116.192C653.621 116.664 653.076 117.036 652.444 117.309C651.819 117.574 651.135 117.707 650.39 117.707ZM650.39 116.341C651.095 116.341 651.72 116.189 652.265 115.883C652.81 115.571 653.235 115.135 653.541 114.577C653.853 114.012 654.009 113.344 654.009 112.573C654.009 111.802 653.853 111.134 653.541 110.569C653.235 110.004 652.81 109.569 652.265 109.263C651.72 108.958 651.095 108.805 650.39 108.805C649.686 108.805 649.061 108.958 648.516 109.263C647.971 109.569 647.543 110.004 647.23 110.569C646.925 111.134 646.772 111.802 646.772 112.573C646.772 113.344 646.928 114.012 647.24 114.577C647.553 115.135 647.978 115.571 648.516 115.883C649.061 116.189 649.686 116.341 650.39 116.341ZM665.121 117.408V109.034H660.425V110.749C660.425 111.719 660.382 112.57 660.296 113.301C660.209 114.025 660.05 114.643 659.817 115.155C659.585 115.667 659.256 116.086 658.83 116.411C658.405 116.73 657.857 116.966 657.185 117.119L656.707 116.172C657.358 116.006 657.847 115.717 658.172 115.305C658.505 114.886 658.724 114.308 658.83 113.57C658.943 112.832 659 111.892 659 110.749V107.738H666.596V117.408H665.121ZM656.707 120.399V116.172L657.833 116.312L658.053 116.112H668.56V120.399H667.205V117.408H658.063V120.399H656.707ZM675.778 117.408V107.738H680.065C681.122 107.738 681.982 107.951 682.647 108.376C683.312 108.795 683.644 109.42 683.644 110.25C683.644 110.596 683.564 110.915 683.405 111.207C683.252 111.5 683.029 111.752 682.737 111.965C682.444 112.178 682.092 112.337 681.68 112.444L681.65 112.125C682.441 112.271 683.039 112.566 683.445 113.012C683.85 113.45 684.053 113.989 684.053 114.627C684.053 115.198 683.9 115.693 683.594 116.112C683.295 116.524 682.863 116.843 682.298 117.069C681.74 117.295 681.079 117.408 680.314 117.408H675.778ZM677.234 116.172H680.105C680.896 116.172 681.507 116.046 681.939 115.793C682.371 115.534 682.587 115.142 682.587 114.617C682.587 114.092 682.371 113.703 681.939 113.45C681.507 113.198 680.896 113.072 680.105 113.072H676.965V111.855H679.886C680.623 111.855 681.195 111.746 681.6 111.526C682.006 111.3 682.208 110.932 682.208 110.42C682.208 109.901 682.006 109.529 681.6 109.303C681.201 109.077 680.63 108.964 679.886 108.964H677.234V116.172ZM691.861 117.408V107.738H700.445V117.408H698.969V109.034H693.337V117.408H691.861ZM703.719 121.595V107.738H705.125V109.273C705.537 108.742 706.055 108.303 706.68 107.957C707.305 107.612 708.106 107.439 709.083 107.439C710.046 107.439 710.894 107.668 711.625 108.127C712.363 108.585 712.934 109.204 713.34 109.981C713.752 110.759 713.958 111.623 713.958 112.573C713.958 113.278 713.838 113.942 713.599 114.567C713.366 115.185 713.034 115.73 712.602 116.202C712.17 116.674 711.655 117.043 711.057 117.309C710.459 117.574 709.797 117.707 709.073 117.707C708.182 117.707 707.418 117.541 706.78 117.209C706.142 116.87 705.613 116.425 705.195 115.873V121.595H703.719ZM708.814 116.341C709.518 116.341 710.143 116.189 710.688 115.883C711.233 115.571 711.658 115.135 711.964 114.577C712.276 114.012 712.432 113.344 712.432 112.573C712.432 111.802 712.276 111.134 711.964 110.569C711.652 110.004 711.223 109.569 710.678 109.263C710.14 108.958 709.518 108.805 708.814 108.805C708.109 108.805 707.484 108.958 706.939 109.263C706.394 109.569 705.966 110.004 705.653 110.569C705.348 111.134 705.195 111.802 705.195 112.573C705.195 113.344 705.348 114.012 705.653 114.577C705.966 115.135 706.394 115.571 706.939 115.883C707.484 116.189 708.109 116.341 708.814 116.341ZM720.72 117.707C719.737 117.707 718.856 117.475 718.078 117.009C717.301 116.544 716.689 115.923 716.244 115.145C715.799 114.361 715.576 113.504 715.576 112.573C715.576 111.875 715.702 111.217 715.955 110.599C716.214 109.981 716.576 109.436 717.042 108.964C717.507 108.486 718.052 108.114 718.677 107.848C719.301 107.575 719.983 107.439 720.72 107.439C721.711 107.439 722.591 107.672 723.362 108.137C724.14 108.602 724.751 109.227 725.196 110.011C725.642 110.789 725.864 111.643 725.864 112.573C725.864 113.264 725.735 113.922 725.476 114.547C725.223 115.165 724.867 115.713 724.409 116.192C723.95 116.664 723.405 117.036 722.774 117.309C722.149 117.574 721.465 117.707 720.72 117.707ZM720.72 116.341C721.425 116.341 722.05 116.189 722.594 115.883C723.139 115.571 723.565 115.135 723.871 114.577C724.183 114.012 724.339 113.344 724.339 112.573C724.339 111.802 724.183 111.134 723.871 110.569C723.565 110.004 723.139 109.569 722.594 109.263C722.05 108.958 721.425 108.805 720.72 108.805C720.016 108.805 719.391 108.958 718.846 109.263C718.301 109.569 717.872 110.004 717.56 110.569C717.254 111.134 717.101 111.802 717.101 112.573C717.101 113.344 717.258 114.012 717.57 114.577C717.882 115.135 718.308 115.571 718.846 115.883C719.391 116.189 720.016 116.341 720.72 116.341ZM735.451 117.408V109.034H730.755V110.749C730.755 111.719 730.712 112.57 730.626 113.301C730.539 114.025 730.38 114.643 730.147 115.155C729.915 115.667 729.586 116.086 729.16 116.411C728.735 116.73 728.187 116.966 727.515 117.119L727.037 116.172C727.688 116.006 728.177 115.717 728.502 115.305C728.835 114.886 729.054 114.308 729.16 113.57C729.273 112.832 729.33 111.892 729.33 110.749V107.738H736.926V117.408H735.451ZM727.037 120.399V116.172L728.163 116.312L728.383 116.112H738.89V120.399H737.534V117.408H728.393V120.399H727.037ZM741.824 121.884C741.538 121.884 741.253 121.848 740.967 121.775C740.688 121.708 740.395 121.582 740.09 121.396L740.458 120.09C740.658 120.229 740.874 120.333 741.106 120.399C741.346 120.465 741.552 120.499 741.725 120.499C742.256 120.499 742.658 120.369 742.931 120.11C743.203 119.851 743.433 119.455 743.619 118.924L744.057 117.647L740.209 107.738H741.854L744.905 115.843L747.876 107.738H749.451L745.154 119.103C744.868 119.847 744.562 120.419 744.237 120.818C743.911 121.223 743.549 121.502 743.15 121.655C742.751 121.808 742.309 121.884 741.824 121.884ZM757.896 117.408L754.556 112.214L757.447 107.738H759.052L756.171 112.154L759.7 117.408H757.896ZM751.346 117.408V107.738H752.821V111.636H755.702V112.932H752.821V117.408H751.346ZM764.212 117.408V109.034H760.753V107.738H769.147V109.034H765.688V117.408H764.212ZM771.284 117.408V107.738H772.74V115.115L778.751 107.738H779.987V117.408H778.542V109.951L772.471 117.408H771.284ZM783.259 117.408V107.738H787.546C788.602 107.738 789.463 107.951 790.128 108.376C790.792 108.795 791.125 109.42 791.125 110.25C791.125 110.596 791.045 110.915 790.885 111.207C790.733 111.5 790.51 111.752 790.218 111.965C789.925 112.178 789.573 112.337 789.161 112.444L789.131 112.125C789.922 112.271 790.52 112.566 790.925 113.012C791.331 113.45 791.533 113.989 791.533 114.627C791.533 115.198 791.381 115.693 791.075 116.112C790.776 116.524 790.344 116.843 789.779 117.069C789.221 117.295 788.559 117.408 787.795 117.408H783.259ZM784.714 116.172H787.586C788.377 116.172 788.988 116.046 789.42 115.793C789.852 115.534 790.068 115.142 790.068 114.617C790.068 114.092 789.852 113.703 789.42 113.45C788.988 113.198 788.377 113.072 787.586 113.072H784.445V111.855H787.366C788.104 111.855 788.676 111.746 789.081 111.526C789.486 111.3 789.689 110.932 789.689 110.42C789.689 109.901 789.486 109.529 789.081 109.303C788.682 109.077 788.111 108.964 787.366 108.964H784.714V116.172ZM794.26 117.408V107.738H795.736V111.636H801.388V107.738H802.864V117.408H801.388V112.932H795.736V117.408H794.26ZM806.138 117.408V107.738H807.613V116.162H809.756C810.614 116.162 811.252 116.006 811.671 115.693C812.096 115.381 812.309 114.906 812.309 114.268C812.309 113.63 812.109 113.148 811.71 112.822C811.312 112.497 810.717 112.334 809.926 112.334H807.344V111.088H810.026C811.215 111.088 812.152 111.364 812.837 111.915C813.521 112.467 813.864 113.251 813.864 114.268C813.864 114.926 813.694 115.491 813.355 115.963C813.023 116.428 812.554 116.787 811.95 117.039C811.345 117.285 810.644 117.408 809.846 117.408H806.138ZM815.608 117.408V107.738H817.084V117.408H815.608ZM820.352 117.408V107.738H821.807V115.115L827.818 107.738H829.055V117.408H827.609V109.951L821.538 117.408H820.352ZM824.698 105.844C824.02 105.844 823.422 105.694 822.904 105.395C822.385 105.09 821.983 104.677 821.697 104.159C821.412 103.634 821.282 103.036 821.309 102.365H822.595C822.568 103.062 822.747 103.627 823.133 104.059C823.518 104.485 824.04 104.697 824.698 104.697C825.356 104.697 825.874 104.485 826.253 104.059C826.632 103.627 826.802 103.062 826.762 102.365H828.068C828.088 103.029 827.955 103.624 827.669 104.149C827.383 104.674 826.981 105.09 826.463 105.395C825.951 105.694 825.363 105.844 824.698 105.844ZM843.958 117.408L840.618 112.214L843.509 107.738H845.114L842.233 112.154L845.762 117.408H843.958ZM837.408 117.408V107.738H838.884V111.636H841.765V112.932H838.884V117.408H837.408ZM852.014 117.707C851.031 117.707 850.15 117.475 849.372 117.009C848.595 116.544 847.983 115.923 847.538 115.145C847.093 114.361 846.87 113.504 846.87 112.573C846.87 111.875 846.996 111.217 847.249 110.599C847.508 109.981 847.87 109.436 848.336 108.964C848.801 108.486 849.346 108.114 849.971 107.848C850.595 107.575 851.277 107.439 852.014 107.439C853.005 107.439 853.885 107.672 854.656 108.137C855.434 108.602 856.045 109.227 856.49 110.011C856.936 110.789 857.158 111.643 857.158 112.573C857.158 113.264 857.029 113.922 856.77 114.547C856.517 115.165 856.161 115.713 855.703 116.192C855.244 116.664 854.699 117.036 854.068 117.309C853.443 117.574 852.759 117.707 852.014 117.707ZM852.014 116.341C852.719 116.341 853.344 116.189 853.888 115.883C854.433 115.571 854.859 115.135 855.165 114.577C855.477 114.012 855.633 113.344 855.633 112.573C855.633 111.802 855.477 111.134 855.165 110.569C854.859 110.004 854.433 109.569 853.888 109.263C853.344 108.958 852.719 108.805 852.014 108.805C851.31 108.805 850.685 108.958 850.14 109.263C849.595 109.569 849.166 110.004 848.854 110.569C848.548 111.134 848.395 111.802 848.395 112.573C848.395 113.344 848.552 114.012 848.864 114.577C849.176 115.135 849.602 115.571 850.14 115.883C850.685 116.189 851.31 116.341 852.014 116.341ZM859.547 117.408V107.738H861.022V111.636H866.675V107.738H868.15V117.408H866.675V112.932H861.022V117.408H859.547ZM873.757 117.408V109.034H870.298V107.738H878.692V109.034H875.233V117.408H873.757ZM881.53 121.884C881.244 121.884 880.958 121.848 880.672 121.775C880.393 121.708 880.101 121.582 879.795 121.396L880.164 120.09C880.363 120.229 880.579 120.333 880.812 120.399C881.051 120.465 881.257 120.499 881.43 120.499C881.962 120.499 882.364 120.369 882.636 120.11C882.909 119.851 883.138 119.455 883.324 118.924L883.763 117.647L879.915 107.738H881.56L884.61 115.843L887.581 107.738H889.156L884.859 119.103C884.574 119.847 884.268 120.419 883.942 120.818C883.617 121.223 883.254 121.502 882.856 121.655C882.457 121.808 882.015 121.884 881.53 121.884ZM891.051 121.595V107.738H892.457V109.273C892.869 108.742 893.387 108.303 894.012 107.957C894.637 107.612 895.438 107.439 896.415 107.439C897.378 107.439 898.226 107.668 898.957 108.127C899.695 108.585 900.266 109.204 900.672 109.981C901.084 110.759 901.29 111.623 901.29 112.573C901.29 113.278 901.17 113.942 900.931 114.567C900.698 115.185 900.366 115.73 899.934 116.202C899.502 116.674 898.987 117.043 898.389 117.309C897.79 117.574 897.129 117.707 896.405 117.707C895.514 117.707 894.75 117.541 894.112 117.209C893.474 116.87 892.945 116.425 892.527 115.873V121.595H891.051ZM896.146 116.341C896.85 116.341 897.475 116.189 898.02 115.883C898.565 115.571 898.99 115.135 899.296 114.577C899.608 114.012 899.764 113.344 899.764 112.573C899.764 111.802 899.608 111.134 899.296 110.569C898.983 110.004 898.555 109.569 898.01 109.263C897.471 108.958 896.85 108.805 896.146 108.805C895.441 108.805 894.816 108.958 894.271 109.263C893.726 109.569 893.298 110.004 892.985 110.569C892.68 111.134 892.527 111.802 892.527 112.573C892.527 113.344 892.68 114.012 892.985 114.577C893.298 115.135 893.726 115.571 894.271 115.883C894.816 116.189 895.441 116.341 896.146 116.341Z" fill="#444B50"/>
<g clip-path="url(#clip3_3158_4219)">
<path d="M403.338 251.196C401.784 250.047 399.456 248.039 392.781 248.039V262.419C399.456 262.419 401.784 264.428 403.338 265.576M403.338 251.196V265.576M403.338 251.196C404.892 250.047 407.22 248.039 413.895 248.039V262.419C407.22 262.419 404.892 264.428 403.338 265.576M407.463 238.794V243.845M411.153 238.682H397.286C396.898 238.682 396.519 238.79 396.189 238.994L392.54 241.266L396.189 243.534C396.519 243.738 396.898 243.846 397.286 243.845H411.153C411.498 243.855 411.842 243.796 412.164 243.67C412.485 243.545 412.779 243.357 413.026 243.116C413.274 242.875 413.47 242.588 413.605 242.27C413.739 241.952 413.808 241.61 413.808 241.265C413.808 240.92 413.739 240.578 413.605 240.26C413.47 239.942 413.274 239.654 413.026 239.414C412.779 239.173 412.485 238.984 412.164 238.859C411.842 238.734 411.498 238.672 411.153 238.682Z" stroke="#444B50" stroke-width="1.55769" stroke-linecap="round" stroke-linejoin="round"/>
</g>
<path d="M439.503 258.938C438.473 258.938 437.513 258.755 436.622 258.389C435.738 258.017 434.967 257.502 434.309 256.844C433.658 256.186 433.146 255.415 432.774 254.531C432.408 253.647 432.226 252.69 432.226 251.66C432.226 250.623 432.408 249.663 432.774 248.779C433.146 247.895 433.658 247.124 434.309 246.466C434.967 245.808 435.738 245.297 436.622 244.931C437.513 244.565 438.473 244.383 439.503 244.383C440.527 244.383 441.48 244.569 442.364 244.941C443.248 245.313 444.019 245.832 444.677 246.496C445.335 247.161 445.847 247.935 446.213 248.819C446.585 249.696 446.771 250.643 446.771 251.66C446.771 252.69 446.585 253.647 446.213 254.531C445.847 255.415 445.335 256.186 444.677 256.844C444.019 257.502 443.248 258.017 442.364 258.389C441.48 258.755 440.527 258.938 439.503 258.938ZM439.503 257.492C440.294 257.492 441.035 257.356 441.726 257.083C442.418 256.804 443.022 256.409 443.541 255.897C444.059 255.379 444.465 254.764 444.757 254.053C445.049 253.335 445.196 252.538 445.196 251.66C445.196 250.49 444.94 249.47 444.428 248.6C443.923 247.722 443.238 247.041 442.374 246.556C441.517 246.071 440.56 245.828 439.503 245.828C438.712 245.828 437.971 245.968 437.28 246.247C436.589 246.519 435.984 246.912 435.466 247.423C434.947 247.935 434.539 248.55 434.239 249.268C433.947 249.979 433.801 250.776 433.801 251.66C433.801 252.83 434.057 253.853 434.568 254.731C435.08 255.601 435.765 256.279 436.622 256.764C437.486 257.25 438.446 257.492 439.503 257.492ZM454.067 258.938C453.256 258.938 452.525 258.802 451.874 258.529C451.229 258.25 450.681 257.848 450.229 257.323C449.777 256.791 449.431 256.14 449.192 255.369C448.959 254.591 448.843 253.704 448.843 252.707C448.843 251.617 448.92 250.637 449.072 249.766C449.225 248.895 449.471 248.138 449.81 247.493C450.156 246.848 450.614 246.317 451.186 245.898C451.764 245.479 452.472 245.177 453.309 244.991L457.945 243.984L458.224 245.36L453.728 246.327C452.864 246.513 452.193 246.818 451.714 247.244C451.236 247.669 450.887 248.204 450.668 248.849C450.455 249.494 450.312 250.238 450.239 251.082C450.658 250.404 451.203 249.859 451.874 249.447C452.545 249.035 453.349 248.829 454.286 248.829C455.223 248.829 456.048 249.058 456.759 249.517C457.476 249.969 458.035 250.577 458.434 251.341C458.839 252.099 459.042 252.933 459.042 253.843C459.042 254.541 458.922 255.199 458.683 255.817C458.45 256.429 458.111 256.97 457.666 257.442C457.227 257.908 456.702 258.273 456.091 258.539C455.486 258.805 454.811 258.938 454.067 258.938ZM454.007 257.572C454.692 257.572 455.297 257.419 455.822 257.113C456.353 256.808 456.769 256.379 457.068 255.827C457.367 255.269 457.516 254.611 457.516 253.853C457.516 253.096 457.367 252.438 457.068 251.88C456.769 251.321 456.353 250.893 455.822 250.594C455.297 250.288 454.692 250.135 454.007 250.135C453.329 250.135 452.724 250.288 452.193 250.594C451.668 250.893 451.256 251.321 450.957 251.88C450.658 252.438 450.508 253.096 450.508 253.853C450.508 254.611 450.658 255.269 450.957 255.827C451.256 256.379 451.668 256.808 452.193 257.113C452.724 257.419 453.329 257.572 454.007 257.572ZM461.855 263.115C461.569 263.115 461.283 263.078 460.997 263.005C460.718 262.939 460.426 262.812 460.12 262.626L460.489 261.32C460.688 261.46 460.904 261.563 461.137 261.629C461.376 261.696 461.582 261.729 461.755 261.729C462.287 261.729 462.689 261.6 462.961 261.34C463.234 261.081 463.463 260.686 463.649 260.154L464.088 258.878L460.24 248.969H461.885L464.935 257.074L467.906 248.969H469.481L465.184 260.333C464.899 261.078 464.593 261.649 464.267 262.048C463.942 262.454 463.579 262.733 463.181 262.886C462.782 263.038 462.34 263.115 461.855 263.115ZM477.578 258.639V254.571C477.093 254.698 476.631 254.794 476.192 254.86C475.753 254.92 475.285 254.95 474.786 254.95C473.882 254.95 473.141 254.817 472.563 254.551C471.985 254.279 471.556 253.883 471.277 253.365C471.005 252.84 470.868 252.195 470.868 251.431V248.969H472.344V251.212C472.344 251.996 472.54 252.591 472.932 252.996C473.331 253.402 474.005 253.604 474.956 253.604C475.501 253.604 475.979 253.578 476.391 253.524C476.81 253.471 477.206 253.405 477.578 253.325V248.969H479.053V258.639H477.578ZM486.635 258.938C485.618 258.938 484.721 258.725 483.944 258.3C483.166 257.874 482.558 257.28 482.119 256.515C481.681 255.744 481.461 254.85 481.461 253.834C481.461 253.096 481.584 252.411 481.83 251.78C482.083 251.148 482.435 250.6 482.887 250.135C483.345 249.67 483.877 249.311 484.482 249.058C485.093 248.799 485.758 248.669 486.476 248.669C487.24 248.669 487.921 248.806 488.519 249.078C489.118 249.351 489.616 249.73 490.015 250.215C490.42 250.7 490.709 251.271 490.882 251.929C491.062 252.581 491.108 253.285 491.022 254.043H482.987C482.953 254.761 483.086 255.389 483.385 255.927C483.684 256.459 484.123 256.874 484.701 257.173C485.279 257.472 485.967 257.622 486.765 257.622C487.29 257.622 487.808 257.532 488.32 257.353C488.838 257.173 489.287 256.917 489.666 256.585L490.384 257.731C490.058 257.997 489.683 258.223 489.257 258.409C488.838 258.589 488.403 258.722 487.951 258.808C487.506 258.895 487.067 258.938 486.635 258.938ZM483.056 252.817H489.506C489.473 251.919 489.197 251.218 488.679 250.713C488.167 250.208 487.426 249.955 486.456 249.955C485.519 249.955 484.741 250.208 484.123 250.713C483.512 251.218 483.156 251.919 483.056 252.817ZM493.457 258.639V248.969H494.932V252.866H500.585V248.969H502.06V258.639H500.585V254.162H494.932V258.639H493.457ZM505.334 258.639V248.969H506.789V256.346L512.801 248.969H514.037V258.639H512.592V251.182L506.52 258.639H505.334ZM521.605 258.938C520.589 258.938 519.691 258.725 518.914 258.3C518.136 257.874 517.528 257.28 517.089 256.515C516.651 255.744 516.431 254.85 516.431 253.834C516.431 253.096 516.554 252.411 516.8 251.78C517.053 251.148 517.405 250.6 517.857 250.135C518.316 249.67 518.847 249.311 519.452 249.058C520.064 248.799 520.728 248.669 521.446 248.669C522.21 248.669 522.891 248.806 523.49 249.078C524.088 249.351 524.586 249.73 524.985 250.215C525.39 250.7 525.68 251.271 525.852 251.929C526.032 252.581 526.078 253.285 525.992 254.043H517.957C517.923 254.761 518.056 255.389 518.355 255.927C518.655 256.459 519.093 256.874 519.671 257.173C520.25 257.472 520.938 257.622 521.735 257.622C522.26 257.622 522.778 257.532 523.29 257.353C523.809 257.173 524.257 256.917 524.636 256.585L525.354 257.731C525.028 257.997 524.653 258.223 524.227 258.409C523.809 258.589 523.373 258.722 522.921 258.808C522.476 258.895 522.037 258.938 521.605 258.938ZM518.026 252.817H524.477C524.443 251.919 524.168 251.218 523.649 250.713C523.137 250.208 522.396 249.955 521.426 249.955C520.489 249.955 519.711 250.208 519.093 250.713C518.482 251.218 518.126 251.919 518.026 252.817ZM533.509 258.639V248.969H542.092V258.639H540.617V250.265H534.984V258.639H533.509ZM549.663 258.938C548.647 258.938 547.749 258.725 546.972 258.3C546.194 257.874 545.586 257.28 545.147 256.515C544.709 255.744 544.489 254.85 544.489 253.834C544.489 253.096 544.612 252.411 544.858 251.78C545.111 251.148 545.463 250.6 545.915 250.135C546.374 249.67 546.905 249.311 547.51 249.058C548.121 248.799 548.786 248.669 549.504 248.669C550.268 248.669 550.949 248.806 551.548 249.078C552.146 249.351 552.644 249.73 553.043 250.215C553.448 250.7 553.737 251.271 553.91 251.929C554.09 252.581 554.136 253.285 554.05 254.043H546.015C545.981 254.761 546.114 255.389 546.413 255.927C546.712 256.459 547.151 256.874 547.729 257.173C548.308 257.472 548.995 257.622 549.793 257.622C550.318 257.622 550.836 257.532 551.348 257.353C551.867 257.173 552.315 256.917 552.694 256.585L553.412 257.731C553.086 257.997 552.711 258.223 552.285 258.409C551.867 258.589 551.431 258.722 550.979 258.808C550.534 258.895 550.095 258.938 549.663 258.938ZM546.084 252.817H552.535C552.501 251.919 552.225 251.218 551.707 250.713C551.195 250.208 550.454 249.955 549.484 249.955C548.547 249.955 547.769 250.208 547.151 250.713C546.54 251.218 546.184 251.919 546.084 252.817ZM556.485 262.826V248.969H557.89V250.504C558.302 249.972 558.821 249.533 559.446 249.188C560.07 248.842 560.871 248.669 561.848 248.669C562.812 248.669 563.659 248.899 564.39 249.357C565.128 249.816 565.7 250.434 566.105 251.212C566.517 251.989 566.723 252.853 566.723 253.804C566.723 254.508 566.603 255.173 566.364 255.797C566.132 256.416 565.799 256.961 565.367 257.432C564.935 257.904 564.42 258.273 563.822 258.539C563.224 258.805 562.563 258.938 561.838 258.938C560.948 258.938 560.183 258.772 559.545 258.439C558.907 258.1 558.379 257.655 557.96 257.103V262.826H556.485ZM561.579 257.572C562.283 257.572 562.908 257.419 563.453 257.113C563.998 256.801 564.423 256.366 564.729 255.807C565.042 255.242 565.198 254.575 565.198 253.804C565.198 253.033 565.042 252.365 564.729 251.8C564.417 251.235 563.988 250.8 563.443 250.494C562.905 250.188 562.283 250.035 561.579 250.035C560.874 250.035 560.25 250.188 559.705 250.494C559.16 250.8 558.731 251.235 558.419 251.8C558.113 252.365 557.96 253.033 557.96 253.804C557.96 254.575 558.113 255.242 558.419 255.807C558.731 256.366 559.16 256.801 559.705 257.113C560.25 257.419 560.874 257.572 561.579 257.572ZM573.545 258.938C572.535 258.938 571.638 258.715 570.854 258.27C570.07 257.825 569.455 257.216 569.009 256.445C568.564 255.668 568.342 254.787 568.342 253.804C568.342 253.053 568.471 252.368 568.73 251.75C568.996 251.125 569.372 250.584 569.857 250.125C570.342 249.66 570.91 249.301 571.562 249.048C572.22 248.796 572.934 248.669 573.705 248.669C574.31 248.669 574.865 248.746 575.37 248.899C575.882 249.052 576.357 249.294 576.795 249.626L575.998 250.793C575.705 250.547 575.357 250.361 574.951 250.235C574.552 250.102 574.124 250.035 573.665 250.035C572.894 250.035 572.226 250.185 571.661 250.484C571.096 250.776 570.658 251.205 570.345 251.77C570.033 252.328 569.877 252.999 569.877 253.784C569.877 254.967 570.216 255.894 570.894 256.565C571.572 257.236 572.492 257.572 573.655 257.572C574.167 257.572 574.645 257.479 575.091 257.293C575.536 257.107 575.888 256.877 576.147 256.605L577.005 257.731C576.506 258.104 575.965 258.399 575.38 258.619C574.795 258.831 574.183 258.938 573.545 258.938ZM583.299 258.938C582.315 258.938 581.435 258.705 580.657 258.24C579.88 257.775 579.268 257.153 578.823 256.376C578.378 255.591 578.155 254.734 578.155 253.804C578.155 253.106 578.281 252.448 578.534 251.83C578.793 251.212 579.155 250.667 579.62 250.195C580.086 249.716 580.631 249.344 581.255 249.078C581.88 248.806 582.561 248.669 583.299 248.669C584.289 248.669 585.17 248.902 585.941 249.367C586.719 249.833 587.33 250.457 587.775 251.242C588.221 252.019 588.443 252.873 588.443 253.804C588.443 254.495 588.314 255.153 588.054 255.778C587.802 256.396 587.446 256.944 586.988 257.422C586.529 257.894 585.984 258.266 585.353 258.539C584.728 258.805 584.043 258.938 583.299 258.938ZM583.299 257.572C584.004 257.572 584.628 257.419 585.173 257.113C585.718 256.801 586.144 256.366 586.449 255.807C586.762 255.242 586.918 254.575 586.918 253.804C586.918 253.033 586.762 252.365 586.449 251.8C586.144 251.235 585.718 250.8 585.173 250.494C584.628 250.188 584.004 250.035 583.299 250.035C582.595 250.035 581.97 250.188 581.425 250.494C580.88 250.8 580.451 251.235 580.139 251.8C579.833 252.365 579.68 253.033 579.68 253.804C579.68 254.575 579.836 255.242 580.149 255.807C580.461 256.366 580.887 256.801 581.425 257.113C581.97 257.419 582.595 257.572 583.299 257.572ZM590.832 258.639V248.969H592.307V252.866H597.96V248.969H599.435V258.639H597.96V254.162H592.307V258.639H590.832ZM605.371 258.938C604.68 258.938 604.082 258.811 603.577 258.559C603.071 258.306 602.683 257.954 602.41 257.502C602.138 257.044 602.001 256.509 602.001 255.897C602.001 255.392 602.131 254.93 602.39 254.511C602.656 254.086 603.071 253.734 603.636 253.455C604.208 253.169 604.952 252.979 605.869 252.886C606.787 252.793 607.903 252.82 609.219 252.966L609.269 254.133C608.186 253.993 607.268 253.943 606.517 253.983C605.773 254.023 605.175 254.129 604.723 254.302C604.271 254.475 603.942 254.698 603.736 254.97C603.537 255.242 603.437 255.542 603.437 255.867C603.437 256.426 603.633 256.861 604.025 257.173C604.417 257.486 604.962 257.642 605.66 257.642C606.245 257.642 606.77 257.532 607.235 257.313C607.7 257.093 608.069 256.791 608.342 256.406C608.614 256.02 608.751 255.578 608.751 255.08V252.258C608.751 251.767 608.644 251.345 608.432 250.992C608.219 250.64 607.906 250.368 607.494 250.175C607.089 249.982 606.594 249.886 606.009 249.886C605.504 249.886 604.999 249.962 604.494 250.115C603.995 250.268 603.507 250.52 603.028 250.873L602.55 249.666C603.135 249.254 603.736 248.969 604.354 248.809C604.972 248.65 605.56 248.57 606.119 248.57C607.003 248.57 607.747 248.709 608.352 248.988C608.957 249.268 609.415 249.68 609.728 250.225C610.04 250.77 610.196 251.444 610.196 252.248V258.639H608.8V257.412C608.455 257.904 607.98 258.283 607.375 258.549C606.77 258.808 606.102 258.938 605.371 258.938ZM612.742 258.758L612.174 257.383C612.852 257.21 613.347 256.927 613.659 256.535C613.978 256.136 614.181 255.571 614.268 254.84C614.354 254.109 614.397 253.156 614.397 251.979V248.969H621.794V258.639H620.319V250.265H615.823V251.979C615.823 253.049 615.78 253.97 615.693 254.741C615.613 255.512 615.464 256.163 615.245 256.695C615.025 257.226 614.713 257.658 614.307 257.991C613.909 258.316 613.387 258.572 612.742 258.758ZM627.724 258.938C627.033 258.938 626.434 258.811 625.929 258.559C625.424 258.306 625.035 257.954 624.763 257.502C624.49 257.044 624.354 256.509 624.354 255.897C624.354 255.392 624.484 254.93 624.743 254.511C625.009 254.086 625.424 253.734 625.989 253.455C626.561 253.169 627.305 252.979 628.222 252.886C629.139 252.793 630.256 252.82 631.572 252.966L631.622 254.133C630.538 253.993 629.621 253.943 628.87 253.983C628.126 254.023 627.528 254.129 627.076 254.302C626.624 254.475 626.295 254.698 626.089 254.97C625.89 255.242 625.79 255.542 625.79 255.867C625.79 256.426 625.986 256.861 626.378 257.173C626.77 257.486 627.315 257.642 628.013 257.642C628.598 257.642 629.123 257.532 629.588 257.313C630.053 257.093 630.422 256.791 630.695 256.406C630.967 256.02 631.103 255.578 631.103 255.08V252.258C631.103 251.767 630.997 251.345 630.784 250.992C630.572 250.64 630.259 250.368 629.847 250.175C629.442 249.982 628.947 249.886 628.362 249.886C627.857 249.886 627.352 249.962 626.847 250.115C626.348 250.268 625.86 250.52 625.381 250.873L624.903 249.666C625.487 249.254 626.089 248.969 626.707 248.809C627.325 248.65 627.913 248.57 628.472 248.57C629.355 248.57 630.1 248.709 630.705 248.988C631.309 249.268 631.768 249.68 632.08 250.225C632.393 250.77 632.549 251.444 632.549 252.248V258.639H631.153V257.412C630.808 257.904 630.332 258.283 629.728 258.549C629.123 258.808 628.455 258.938 627.724 258.938Z" fill="#444B50"/>
<path d="M227.106 34V6.08615H236.696C239.368 6.08615 241.528 6.68431 243.176 7.88061C244.824 9.06363 245.649 10.8116 245.649 13.1244C245.649 14.015 245.436 14.8591 245.011 15.6566C244.599 16.4409 244.06 17.1321 243.396 17.7302C242.731 18.3284 242.04 18.767 241.322 19.0462C242.837 19.5114 244.1 20.3621 245.11 21.5983C246.134 22.8345 246.646 24.3564 246.646 26.1642C246.646 27.6928 246.26 29.0486 245.489 30.2316C244.718 31.4014 243.622 32.3252 242.199 33.0031C240.777 33.6677 239.089 34 237.135 34H227.106ZM231.572 30.4908H236.377C238.291 30.4908 239.714 30.1186 240.644 29.3743C241.575 28.6166 242.04 27.4801 242.04 25.9648C242.04 24.4628 241.568 23.3196 240.624 22.5354C239.694 21.7511 238.251 21.359 236.297 21.359H231.572V30.4908ZM231.572 18.0094H235.998C237.075 18.0094 238.006 17.8366 238.79 17.491C239.574 17.1454 240.185 16.6469 240.624 15.9956C241.063 15.3442 241.282 14.56 241.282 13.6428C241.282 12.3402 240.817 11.3433 239.886 10.6521C238.969 9.94757 237.653 9.59532 235.939 9.59532H231.572V18.0094ZM251.801 34V14.2609H261.212C263.445 14.2609 265.233 14.6863 266.576 15.537C267.918 16.3877 268.589 17.6638 268.589 19.3652C268.589 20.1627 268.397 20.8738 268.011 21.4986C267.626 22.11 267.094 22.6218 266.416 23.0338C265.738 23.4459 264.947 23.745 264.043 23.9311L263.964 22.9541C265.705 23.1934 267.054 23.7716 268.011 24.6887C268.968 25.6059 269.447 26.769 269.447 28.178C269.447 29.3743 269.134 30.4111 268.51 31.2884C267.885 32.1524 266.988 32.8236 265.818 33.3022C264.648 33.7674 263.246 34 261.611 34H251.801ZM256.048 30.75H261.013C262.329 30.75 263.339 30.5307 264.043 30.0921C264.761 29.6534 265.12 28.9954 265.12 28.1182C265.12 27.2542 264.768 26.6095 264.063 26.1841C263.359 25.7455 262.342 25.5262 261.013 25.5262H255.47V22.3958H260.554C261.79 22.3958 262.747 22.2097 263.425 21.8375C264.103 21.4521 264.442 20.8273 264.442 19.9633C264.442 19.0993 264.103 18.4746 263.425 18.0891C262.747 17.6903 261.79 17.491 260.554 17.491H256.048V30.75ZM283.38 34.5982C281.32 34.5982 279.479 34.1263 277.857 33.1825C276.249 32.2255 274.986 30.9561 274.069 29.3743C273.152 27.7792 272.693 26.0313 272.693 24.1305C272.693 22.7215 272.952 21.3922 273.471 20.1428C274.002 18.88 274.747 17.7634 275.704 16.7931C276.674 15.8228 277.811 15.0585 279.113 14.5002C280.416 13.9419 281.845 13.6628 283.4 13.6628C285.46 13.6628 287.295 14.1413 288.903 15.0983C290.525 16.0421 291.794 17.3115 292.711 18.9066C293.628 20.4884 294.087 22.2297 294.087 24.1305C294.087 25.5262 293.821 26.8554 293.289 28.1182C292.771 29.3809 292.033 30.4975 291.076 31.4678C290.119 32.4382 288.989 33.2025 287.687 33.7607C286.384 34.319 284.948 34.5982 283.38 34.5982ZM283.38 30.7102C284.603 30.7102 285.686 30.4443 286.63 29.9126C287.587 29.3676 288.338 28.6033 288.883 27.6197C289.428 26.6361 289.7 25.473 289.7 24.1305C289.7 22.7879 289.428 21.6249 288.883 20.6412C288.338 19.6443 287.587 18.88 286.63 18.3483C285.686 17.8166 284.603 17.5508 283.38 17.5508C282.157 17.5508 281.067 17.8166 280.11 18.3483C279.166 18.88 278.422 19.6443 277.877 20.6412C277.345 21.6249 277.079 22.7879 277.079 24.1305C277.079 25.473 277.352 26.6361 277.897 27.6197C278.442 28.6033 279.186 29.3676 280.13 29.9126C281.087 30.4443 282.17 30.7102 283.38 30.7102ZM312.829 34V17.8897H304.853V20.5017C304.853 22.2961 304.747 23.9178 304.534 25.3666C304.322 26.8155 303.943 28.0916 303.398 29.1948C302.853 30.2848 302.089 31.1887 301.105 31.9065C300.135 32.6242 298.892 33.1493 297.376 33.4816L296.3 30.5108C297.563 30.205 298.513 29.6335 299.151 28.7961C299.789 27.9586 300.214 26.8554 300.427 25.4863C300.653 24.1039 300.766 22.4423 300.766 20.5017V14.2609H317.215V34H312.829ZM296.3 39.9815V30.5108L299.011 30.7899L299.689 30.3712H321.183V39.9815H317.175V34H300.307V39.9815H296.3ZM334.826 34V14.2609H344.237C346.47 14.2609 348.258 14.6863 349.601 15.537C350.943 16.3877 351.614 17.6638 351.614 19.3652C351.614 20.1627 351.422 20.8738 351.036 21.4986C350.651 22.11 350.119 22.6218 349.441 23.0338C348.763 23.4459 347.972 23.745 347.068 23.9311L346.989 22.9541C348.73 23.1934 350.079 23.7716 351.036 24.6887C351.993 25.6059 352.472 26.769 352.472 28.178C352.472 29.3743 352.159 30.4111 351.535 31.2884C350.91 32.1524 350.013 32.8236 348.843 33.3022C347.673 33.7674 346.271 34 344.636 34H334.826ZM339.073 30.75H344.038C345.354 30.75 346.364 30.5307 347.068 30.0921C347.786 29.6534 348.145 28.9954 348.145 28.1182C348.145 27.2542 347.793 26.6095 347.088 26.1841C346.384 25.7455 345.367 25.5262 344.038 25.5262H338.495V22.3958H343.579C344.815 22.3958 345.772 22.2097 346.45 21.8375C347.128 21.4521 347.467 20.8273 347.467 19.9633C347.467 19.0993 347.128 18.4746 346.45 18.0891C345.772 17.6903 344.815 17.491 343.579 17.491H339.073V30.75ZM372.969 34.5982C371.986 34.5982 371.009 34.5051 370.038 34.319C369.068 34.1462 368.158 33.8737 367.307 33.5015C366.469 33.1161 365.738 32.6242 365.114 32.0261L367.028 29.0154C367.759 29.6933 368.623 30.205 369.62 30.5506C370.63 30.8962 371.647 31.069 372.67 31.069C374.079 31.069 375.289 30.8165 376.299 30.3114C377.309 29.793 378.08 29.0087 378.612 27.9586C379.144 26.9086 379.41 25.5793 379.41 23.971C379.41 21.7113 378.831 20.0165 377.675 18.8866C376.532 17.7568 374.91 17.1919 372.81 17.1919C371.76 17.1919 370.763 17.378 369.819 17.7502C368.875 18.109 368.065 18.5809 367.387 19.1658L365.692 16.1351C366.596 15.3775 367.732 14.7793 369.101 14.3407C370.484 13.8887 371.879 13.6628 373.288 13.6628C375.349 13.6628 377.143 14.0948 378.672 14.9588C380.2 15.8095 381.39 17.0058 382.241 18.5477C383.091 20.0896 383.517 21.8907 383.517 23.951C383.517 25.5594 383.264 27.0215 382.759 28.3375C382.267 29.6401 381.556 30.7567 380.626 31.6871C379.709 32.6176 378.599 33.3354 377.296 33.8405C376.007 34.3456 374.564 34.5982 372.969 34.5982ZM369.042 25.5461V22.2562H380.706V25.5461H369.042ZM401.024 34L394.484 23.5124L400.565 14.2609H405.251L399.21 23.313L406.268 34H401.024ZM387.905 34V14.2609H392.291V21.8774H398.233V25.5062H392.291V34H387.905ZM418.803 34.5982C416.73 34.5982 414.882 34.1462 413.26 33.2423C411.639 32.3252 410.363 31.0823 409.432 29.5138C408.515 27.9321 408.056 26.1376 408.056 24.1305C408.056 22.6151 408.329 21.2261 408.874 19.9633C409.419 18.6873 410.19 17.5774 411.187 16.6336C412.184 15.6898 413.353 14.9588 414.696 14.4404C416.052 13.922 417.521 13.6628 419.102 13.6628C420.432 13.6628 421.661 13.8422 422.791 14.2011C423.934 14.5467 424.984 15.085 425.941 15.8161L423.828 19.1658C423.216 18.6208 422.512 18.2154 421.714 17.9495C420.93 17.6837 420.093 17.5508 419.202 17.5508C417.82 17.5508 416.63 17.81 415.633 18.3284C414.636 18.8468 413.859 19.5978 413.3 20.5814C412.755 21.5518 412.483 22.7281 412.483 24.1105C412.483 26.1708 413.081 27.7858 414.277 28.9556C415.487 30.1253 417.128 30.7102 419.202 30.7102C420.186 30.7102 421.116 30.5307 421.993 30.1718C422.871 29.7996 423.602 29.3145 424.187 28.7163L426.28 32.046C425.23 32.8436 424.06 33.4683 422.771 33.9202C421.482 34.3722 420.159 34.5982 418.803 34.5982ZM430.313 34V14.2609H448.955V34H444.569V17.8897H434.699V34H430.313ZM454.323 34.339L452.788 30.3911C454.144 30.0455 455.134 29.5006 455.759 28.7562C456.397 28.0118 456.796 26.975 456.955 25.6458C457.128 24.3166 457.214 22.6018 457.214 20.5017V14.2609H473.265V34H468.878V17.8897H461.302V20.5017C461.302 22.6151 461.202 24.4561 461.003 26.0246C460.817 27.5931 460.471 28.929 459.966 30.0322C459.461 31.1355 458.75 32.0394 457.832 32.7439C456.929 33.4351 455.759 33.9668 454.323 34.339ZM481.075 42.9324C480.357 42.9324 479.653 42.8527 478.961 42.6932C478.27 42.5337 477.592 42.2612 476.928 41.8757L477.925 38.1273C478.337 38.3931 478.789 38.5925 479.28 38.7254C479.772 38.8583 480.211 38.9248 480.596 38.9248C481.527 38.9248 482.258 38.7055 482.79 38.2668C483.321 37.8282 483.74 37.1503 484.046 36.2331L484.704 34.319L476.928 14.2609H481.733L487.196 29.5737L492.519 14.2609H497.165L488.631 36.8512C488.02 38.433 487.335 39.6625 486.578 40.5398C485.82 41.4304 484.983 42.0485 484.066 42.3941C483.148 42.753 482.151 42.9324 481.075 42.9324ZM506.087 34.5982C504.718 34.5982 503.515 34.3456 502.478 33.8405C501.441 33.3221 500.63 32.5977 500.045 31.6672C499.474 30.7234 499.188 29.6135 499.188 28.3375C499.188 27.2608 499.46 26.2905 500.005 25.4265C500.55 24.5492 501.394 23.8247 502.538 23.2532C503.694 22.6816 505.176 22.3028 506.984 22.1167C508.792 21.9173 510.965 21.9439 513.504 22.1964L513.584 25.2271C511.776 24.9745 510.221 24.8682 508.918 24.9081C507.615 24.9479 506.545 25.1141 505.708 25.4065C504.884 25.6857 504.272 26.0645 503.874 26.543C503.488 27.0082 503.295 27.5466 503.295 28.158C503.295 29.1151 503.634 29.8528 504.312 30.3712C505.003 30.8896 505.947 31.1488 507.143 31.1488C508.167 31.1488 509.084 30.9627 509.895 30.5905C510.706 30.2183 511.344 29.6933 511.809 29.0154C512.288 28.3375 512.527 27.5399 512.527 26.6228V21.379C512.527 20.5017 512.341 19.744 511.969 19.106C511.596 18.4546 511.031 17.9495 510.274 17.5906C509.516 17.2318 508.572 17.0523 507.442 17.0523C506.406 17.0523 505.382 17.2118 504.372 17.5308C503.362 17.8366 502.398 18.3217 501.481 18.9863L500.245 15.7563C501.481 14.9189 502.77 14.3274 504.113 13.9818C505.455 13.6362 506.745 13.4634 507.981 13.4634C509.815 13.4634 511.384 13.7558 512.686 14.3407C514.002 14.9122 515.012 15.7829 515.717 16.9526C516.421 18.109 516.774 19.5712 516.774 21.3391V34H512.826V31.6672C512.161 32.611 511.237 33.3354 510.054 33.8405C508.871 34.3456 507.549 34.5982 506.087 34.5982ZM526.311 34V17.8897H519.831V14.2609H537.198V17.8897H530.698V34H526.311ZM546.703 34.5982C545.334 34.5982 544.131 34.3456 543.095 33.8405C542.058 33.3221 541.247 32.5977 540.662 31.6672C540.091 30.7234 539.805 29.6135 539.805 28.3375C539.805 27.2608 540.077 26.2905 540.622 25.4265C541.167 24.5492 542.011 23.8247 543.154 23.2532C544.311 22.6816 545.793 22.3028 547.601 22.1167C549.408 21.9173 551.582 21.9439 554.121 22.1964L554.2 25.2271C552.393 24.9745 550.837 24.8682 549.535 24.9081C548.232 24.9479 547.162 25.1141 546.325 25.4065C545.501 25.6857 544.889 26.0645 544.49 26.543C544.105 27.0082 543.912 27.5466 543.912 28.158C543.912 29.1151 544.251 29.8528 544.929 30.3712C545.62 30.8896 546.564 31.1488 547.76 31.1488C548.784 31.1488 549.701 30.9627 550.512 30.5905C551.323 30.2183 551.961 29.6933 552.426 29.0154C552.904 28.3375 553.144 27.5399 553.144 26.6228V21.379C553.144 20.5017 552.958 19.744 552.585 19.106C552.213 18.4546 551.648 17.9495 550.891 17.5906C550.133 17.2318 549.189 17.0523 548.059 17.0523C547.023 17.0523 545.999 17.2118 544.989 17.5308C543.979 17.8366 543.015 18.3217 542.098 18.9863L540.862 15.7563C542.098 14.9189 543.387 14.3274 544.73 13.9818C546.072 13.6362 547.361 13.4634 548.598 13.4634C550.432 13.4634 552 13.7558 553.303 14.3407C554.619 14.9122 555.629 15.7829 556.334 16.9526C557.038 18.109 557.391 19.5712 557.391 21.3391V34H553.443V31.6672C552.778 32.611 551.854 33.3354 550.671 33.8405C549.488 34.3456 548.166 34.5982 546.703 34.5982ZM566.928 34V17.8897H560.448V14.2609H577.815V17.8897H571.315V34H566.928ZM581.837 34V14.2609H586.224V30.3712H595.655V14.2609H600.041V34H581.837ZM601.078 39.9815V34H597.848V30.3712H605.105V39.9815H601.078ZM608.98 34V14.2609H613.227V27.5798L623.934 14.2609H627.762V34H623.535V20.5216L612.728 34H608.98ZM633.864 34V14.2609H638.251L638.231 21.8774H644.91V25.5062H638.231L638.251 34H633.864ZM653.185 34.5982C651.111 34.5982 649.27 34.1263 647.662 33.1825C646.053 32.2255 644.784 30.9561 643.853 29.3743C642.936 27.7792 642.478 26.0313 642.478 24.1305C642.478 22.7215 642.743 21.3922 643.275 20.1428C643.807 18.88 644.551 17.7634 645.508 16.7931C646.465 15.8228 647.595 15.0585 648.898 14.5002C650.2 13.9419 651.629 13.6628 653.185 13.6628C655.258 13.6628 657.099 14.1413 658.707 15.0983C660.316 16.0421 661.579 17.3115 662.496 18.9066C663.426 20.4884 663.891 22.2297 663.891 24.1305C663.891 25.5262 663.626 26.8554 663.094 28.1182C662.562 29.3809 661.818 30.4975 660.861 31.4678C659.904 32.4382 658.774 33.2025 657.471 33.7607C656.169 34.319 654.74 34.5982 653.185 34.5982ZM653.185 30.7102C654.407 30.7102 655.491 30.4443 656.434 29.9126C657.378 29.3676 658.123 28.6033 658.668 27.6197C659.213 26.6361 659.485 25.473 659.485 24.1305C659.485 22.7879 659.213 21.6249 658.668 20.6412C658.123 19.6443 657.378 18.88 656.434 18.3483C655.491 17.8166 654.407 17.5508 653.185 17.5508C651.962 17.5508 650.872 17.8166 649.915 18.3483C648.971 18.88 648.226 19.6443 647.682 20.6412C647.15 21.6249 646.884 22.7879 646.884 24.1305C646.884 25.473 647.15 26.6361 647.682 27.6197C648.226 28.6033 648.971 29.3676 649.915 29.9126C650.872 30.4443 651.962 30.7102 653.185 30.7102Z" fill="#444B50"/>
<path d="M229.534 112.119V100.61C229.534 100.324 229.534 100.181 229.623 100.092C229.711 100.004 229.854 100.004 230.14 100.004H235.102C235.345 100.004 235.466 100.004 235.575 100.048C235.684 100.092 235.77 100.176 235.944 100.344L237.747 102.087C237.922 102.255 238.009 102.339 238.118 102.383C238.227 102.427 238.348 102.427 238.59 102.427H246.096C246.39 102.427 246.537 102.427 246.589 102.521C246.641 102.616 246.561 102.74 246.401 102.987L243.072 108.158C242.97 108.317 242.918 108.396 242.918 108.486C242.918 108.574 242.97 108.656 243.072 108.813L246.401 113.984C246.561 114.231 246.64 114.355 246.589 114.449C246.538 114.544 246.39 114.544 246.096 114.544H238.589C238.347 114.544 238.226 114.544 238.117 114.5C238.008 114.455 237.922 114.372 237.747 114.203L235.944 112.461C235.77 112.293 235.683 112.209 235.574 112.164C235.465 112.121 235.344 112.121 235.101 112.121L229.534 112.119ZM229.534 112.119V119.389" stroke="#444B50" stroke-width="1.66154" stroke-linecap="round"/>
<path d="M274.18 117.707C273.15 117.707 272.19 117.525 271.299 117.159C270.415 116.787 269.644 116.272 268.986 115.614C268.335 114.956 267.823 114.185 267.451 113.301C267.086 112.417 266.903 111.46 266.903 110.43C266.903 109.393 267.086 108.433 267.451 107.549C267.823 106.665 268.335 105.894 268.986 105.236C269.644 104.578 270.415 104.066 271.299 103.701C272.19 103.335 273.15 103.152 274.18 103.152C275.204 103.152 276.158 103.338 277.042 103.71C277.926 104.083 278.697 104.601 279.354 105.266C280.012 105.93 280.524 106.705 280.89 107.589C281.262 108.466 281.448 109.413 281.448 110.43C281.448 111.46 281.262 112.417 280.89 113.301C280.524 114.185 280.012 114.956 279.354 115.614C278.697 116.272 277.926 116.787 277.042 117.159C276.158 117.525 275.204 117.707 274.18 117.707ZM274.18 116.262C274.971 116.262 275.712 116.125 276.404 115.853C277.095 115.574 277.7 115.178 278.218 114.667C278.736 114.148 279.142 113.533 279.434 112.822C279.727 112.105 279.873 111.307 279.873 110.43C279.873 109.26 279.617 108.24 279.105 107.369C278.6 106.492 277.916 105.811 277.052 105.325C276.194 104.84 275.237 104.598 274.18 104.598C273.39 104.598 272.649 104.737 271.957 105.016C271.266 105.289 270.661 105.681 270.143 106.193C269.625 106.705 269.216 107.319 268.917 108.037C268.624 108.748 268.478 109.546 268.478 110.43C268.478 111.599 268.734 112.623 269.246 113.5C269.757 114.371 270.442 115.049 271.299 115.534C272.163 116.019 273.124 116.262 274.18 116.262ZM284.148 117.408V107.738H292.732V117.408H291.257V109.034H285.624V117.408H284.148ZM296.006 117.408V107.738H297.482V116.162H299.625C300.483 116.162 301.121 116.006 301.539 115.693C301.965 115.381 302.177 114.906 302.177 114.268C302.177 113.63 301.978 113.148 301.579 112.822C301.18 112.497 300.586 112.334 299.795 112.334H297.213V111.088H299.894C301.084 111.088 302.021 111.364 302.706 111.915C303.39 112.467 303.733 113.251 303.733 114.268C303.733 114.926 303.563 115.491 303.224 115.963C302.892 116.428 302.423 116.787 301.818 117.039C301.214 117.285 300.512 117.408 299.715 117.408H296.006ZM305.477 117.408V107.738H306.953V117.408H305.477ZM312.553 117.408V109.034H309.094V107.738H317.488V109.034H314.029V117.408H312.553ZM319.625 117.408V107.738H321.1V111.636H326.753V107.738H328.228V117.408H326.753V112.932H321.1V117.408H319.625ZM334.164 117.707C333.473 117.707 332.875 117.581 332.37 117.328C331.865 117.076 331.476 116.724 331.203 116.272C330.931 115.813 330.794 115.278 330.794 114.667C330.794 114.162 330.924 113.7 331.183 113.281C331.449 112.856 331.865 112.503 332.429 112.224C333.001 111.938 333.745 111.749 334.663 111.656C335.58 111.563 336.696 111.589 338.012 111.736L338.062 112.902C336.979 112.763 336.062 112.713 335.311 112.753C334.566 112.792 333.968 112.899 333.516 113.072C333.064 113.244 332.735 113.467 332.529 113.74C332.33 114.012 332.23 114.311 332.23 114.637C332.23 115.195 332.426 115.63 332.818 115.943C333.21 116.255 333.755 116.411 334.453 116.411C335.038 116.411 335.563 116.302 336.028 116.082C336.494 115.863 336.862 115.561 337.135 115.175C337.407 114.79 337.544 114.348 337.544 113.849V111.028C337.544 110.536 337.437 110.114 337.225 109.762C337.012 109.41 336.7 109.137 336.288 108.944C335.882 108.752 335.387 108.655 334.802 108.655C334.297 108.655 333.792 108.732 333.287 108.885C332.788 109.037 332.3 109.29 331.821 109.642L331.343 108.436C331.928 108.024 332.529 107.738 333.147 107.579C333.765 107.419 334.353 107.339 334.912 107.339C335.796 107.339 336.54 107.479 337.145 107.758C337.75 108.037 338.208 108.449 338.521 108.994C338.833 109.539 338.989 110.214 338.989 111.018V117.408H337.593V116.182C337.248 116.674 336.773 117.053 336.168 117.318C335.563 117.578 334.895 117.707 334.164 117.707ZM341.505 117.408L345.483 112.583L345.693 113.62C344.849 113.627 344.147 113.507 343.589 113.261C343.031 113.015 342.615 112.673 342.343 112.234C342.07 111.796 341.934 111.28 341.934 110.689C341.934 110.064 342.1 109.533 342.433 109.094C342.765 108.655 343.23 108.32 343.828 108.087C344.426 107.854 345.121 107.738 345.912 107.738H349.71V117.408H348.265V108.984H346.012C345.161 108.984 344.523 109.124 344.097 109.403C343.672 109.675 343.459 110.097 343.459 110.669C343.459 111.234 343.659 111.663 344.058 111.955C344.456 112.247 345.048 112.394 345.832 112.394H348.524V113.61H346.41L343.3 117.408H341.505ZM360.703 117.707C360.258 117.707 359.806 117.664 359.347 117.578C358.895 117.498 358.47 117.368 358.071 117.189C357.672 117.009 357.32 116.77 357.014 116.471L357.772 115.365C358.137 115.703 358.576 115.963 359.088 116.142C359.6 116.315 360.118 116.401 360.643 116.401C361.387 116.401 362.035 116.255 362.587 115.963C363.139 115.67 363.564 115.232 363.863 114.647C364.162 114.062 364.312 113.341 364.312 112.483C364.312 111.274 363.993 110.35 363.355 109.712C362.723 109.067 361.849 108.745 360.733 108.745C360.214 108.745 359.716 108.835 359.237 109.014C358.759 109.194 358.347 109.429 358.001 109.722L357.333 108.625C357.745 108.26 358.277 107.971 358.928 107.758C359.58 107.545 360.224 107.439 360.862 107.439C361.839 107.439 362.697 107.648 363.434 108.067C364.172 108.486 364.747 109.074 365.159 109.832C365.578 110.583 365.787 111.46 365.787 112.463C365.787 113.261 365.664 113.985 365.418 114.637C365.179 115.281 364.833 115.833 364.381 116.292C363.936 116.744 363.401 117.093 362.776 117.338C362.158 117.584 361.467 117.707 360.703 117.707ZM358.669 113.072V111.835H364.73V113.072H358.669ZM374.736 117.408L371.396 112.214L374.287 107.738H375.892L373.011 112.154L376.54 117.408H374.736ZM368.186 117.408V107.738H369.661V111.636H372.543V112.932H369.661V117.408H368.186ZM382.852 117.707C381.842 117.707 380.944 117.485 380.16 117.039C379.376 116.594 378.761 115.986 378.316 115.215C377.87 114.437 377.648 113.557 377.648 112.573C377.648 111.822 377.777 111.138 378.037 110.519C378.302 109.895 378.678 109.353 379.163 108.894C379.648 108.429 380.217 108.07 380.868 107.818C381.526 107.565 382.24 107.439 383.011 107.439C383.616 107.439 384.171 107.515 384.676 107.668C385.188 107.821 385.663 108.064 386.102 108.396L385.304 109.562C385.012 109.317 384.663 109.13 384.257 109.004C383.859 108.871 383.43 108.805 382.971 108.805C382.2 108.805 381.533 108.954 380.968 109.253C380.403 109.546 379.964 109.974 379.652 110.539C379.339 111.098 379.183 111.769 379.183 112.553C379.183 113.736 379.522 114.663 380.2 115.335C380.878 116.006 381.798 116.341 382.961 116.341C383.473 116.341 383.952 116.248 384.397 116.062C384.842 115.876 385.195 115.647 385.454 115.374L386.311 116.501C385.813 116.873 385.271 117.169 384.686 117.388C384.101 117.601 383.49 117.707 382.852 117.707ZM388.533 117.408V107.738H397.117V117.408H395.641V109.034H390.009V117.408H388.533ZM399.793 117.528L399.225 116.152C399.903 115.979 400.398 115.697 400.71 115.305C401.029 114.906 401.232 114.341 401.318 113.61C401.405 112.879 401.448 111.925 401.448 110.749V107.738H408.845V117.408H407.37V109.034H402.874V110.749C402.874 111.819 402.83 112.739 402.744 113.51C402.664 114.281 402.515 114.933 402.295 115.464C402.076 115.996 401.764 116.428 401.358 116.76C400.959 117.086 400.438 117.342 399.793 117.528ZM412.522 121.884C412.236 121.884 411.95 121.848 411.664 121.775C411.385 121.708 411.093 121.582 410.787 121.396L411.156 120.09C411.355 120.229 411.571 120.333 411.804 120.399C412.043 120.465 412.249 120.499 412.422 120.499C412.954 120.499 413.356 120.369 413.628 120.11C413.901 119.851 414.13 119.455 414.316 118.924L414.755 117.647L410.907 107.738H412.552L415.602 115.843L418.573 107.738H420.148L415.851 119.103C415.566 119.847 415.26 120.419 414.934 120.818C414.609 121.223 414.246 121.502 413.848 121.655C413.449 121.808 413.007 121.884 412.522 121.884ZM424.705 117.707C424.014 117.707 423.416 117.581 422.91 117.328C422.405 117.076 422.017 116.724 421.744 116.272C421.472 115.813 421.335 115.278 421.335 114.667C421.335 114.162 421.465 113.7 421.724 113.281C421.99 112.856 422.405 112.503 422.97 112.224C423.542 111.938 424.286 111.749 425.203 111.656C426.121 111.563 427.237 111.589 428.553 111.736L428.603 112.902C427.52 112.763 426.602 112.713 425.851 112.753C425.107 112.792 424.509 112.899 424.057 113.072C423.605 113.244 423.276 113.467 423.07 113.74C422.871 114.012 422.771 114.311 422.771 114.637C422.771 115.195 422.967 115.63 423.359 115.943C423.751 116.255 424.296 116.411 424.994 116.411C425.579 116.411 426.104 116.302 426.569 116.082C427.034 115.863 427.403 115.561 427.676 115.175C427.948 114.79 428.085 114.348 428.085 113.849V111.028C428.085 110.536 427.978 110.114 427.765 109.762C427.553 109.41 427.24 109.137 426.828 108.944C426.423 108.752 425.928 108.655 425.343 108.655C424.838 108.655 424.333 108.732 423.828 108.885C423.329 109.037 422.841 109.29 422.362 109.642L421.884 108.436C422.469 108.024 423.07 107.738 423.688 107.579C424.306 107.419 424.894 107.339 425.453 107.339C426.337 107.339 427.081 107.479 427.686 107.758C428.291 108.037 428.749 108.449 429.061 108.994C429.374 109.539 429.53 110.214 429.53 111.018V117.408H428.134V116.182C427.789 116.674 427.314 117.053 426.709 117.318C426.104 117.578 425.436 117.707 424.705 117.707ZM434.637 117.408V109.034H431.178V107.738H439.572V109.034H436.113V117.408H434.637ZM444.371 117.707C443.68 117.707 443.081 117.581 442.576 117.328C442.071 117.076 441.682 116.724 441.41 116.272C441.137 115.813 441.001 115.278 441.001 114.667C441.001 114.162 441.131 113.7 441.39 113.281C441.656 112.856 442.071 112.503 442.636 112.224C443.208 111.938 443.952 111.749 444.869 111.656C445.786 111.563 446.903 111.589 448.219 111.736L448.269 112.902C447.185 112.763 446.268 112.713 445.517 112.753C444.773 112.792 444.175 112.899 443.723 113.072C443.271 113.244 442.942 113.467 442.736 113.74C442.536 114.012 442.437 114.311 442.437 114.637C442.437 115.195 442.633 115.63 443.025 115.943C443.417 116.255 443.962 116.411 444.66 116.411C445.245 116.411 445.77 116.302 446.235 116.082C446.7 115.863 447.069 115.561 447.342 115.175C447.614 114.79 447.75 114.348 447.75 113.849V111.028C447.75 110.536 447.644 110.114 447.431 109.762C447.219 109.41 446.906 109.137 446.494 108.944C446.089 108.752 445.594 108.655 445.009 108.655C444.504 108.655 443.999 108.732 443.494 108.885C442.995 109.037 442.507 109.29 442.028 109.642L441.55 108.436C442.134 108.024 442.736 107.738 443.354 107.579C443.972 107.419 444.56 107.339 445.118 107.339C446.002 107.339 446.747 107.479 447.352 107.758C447.956 108.037 448.415 108.449 448.727 108.994C449.04 109.539 449.196 110.214 449.196 111.018V117.408H447.8V116.182C447.455 116.674 446.979 117.053 446.375 117.318C445.77 117.578 445.102 117.707 444.371 117.707ZM452.34 117.408V107.738H453.816V116.112H459.299V107.738H460.774V117.408H452.34ZM461.821 120.399V117.408H459.877V116.112H463.187V120.399H461.821ZM465.328 117.408V107.738H466.783V115.115L472.794 107.738H474.031V117.408H472.585V109.951L466.514 117.408H465.328ZM476.674 117.408L480.652 112.583L480.861 113.62C480.017 113.627 479.316 113.507 478.758 113.261C478.2 113.015 477.784 112.673 477.512 112.234C477.239 111.796 477.103 111.28 477.103 110.689C477.103 110.064 477.269 109.533 477.601 109.094C477.934 108.655 478.399 108.32 478.997 108.087C479.595 107.854 480.29 107.738 481.081 107.738H484.879V117.408H483.433V108.984H481.18C480.33 108.984 479.692 109.124 479.266 109.403C478.841 109.675 478.628 110.097 478.628 110.669C478.628 111.234 478.828 111.663 479.226 111.955C479.625 112.247 480.217 112.394 481.001 112.394H483.693V113.61H481.579L478.469 117.408H476.674Z" fill="#444B50"/>
</g>
<defs>
<clipPath id="clip0_3158_4219">
<rect width="1080" height="342.277" fill="white"/>
</clipPath>
<clipPath id="clip1_3158_4219">
<rect width="29.0769" height="29.0769" fill="white" transform="translate(691.2 237.185)"/>
</clipPath>
<clipPath id="clip2_3158_4219">
<rect width="29.0769" height="29.0769" fill="white" transform="translate(541.662 96.3696)"/>
</clipPath>
<clipPath id="clip3_3158_4219">
<rect width="29.0769" height="29.0769" fill="white" transform="translate(388.8 237.6)"/>
</clipPath>
</defs>
</svg>
