<svg width="779" height="517" viewBox="0 0 779 517" fill="none" xmlns="http://www.w3.org/2000/svg">
<path d="M53.3141 410.641C53.3141 416.763 58.2764 421.725 64.3977 421.725C70.519 421.725 75.4813 416.763 75.4813 410.641C75.4813 404.52 70.519 399.558 64.3977 399.558C58.2764 399.558 53.3141 404.52 53.3141 410.641ZM111 365.892V363.813H110.164L109.561 364.393L111 365.892ZM267.027 334.588C267.027 340.71 271.989 345.672 278.11 345.672C284.232 345.672 289.194 340.71 289.194 334.588C289.194 328.467 284.232 323.505 278.11 323.505C271.989 323.505 267.027 328.467 267.027 334.588ZM144.231 442.342V444.42H144.963L145.534 443.961L144.231 442.342ZM102.415 442.342C102.415 448.463 107.377 453.426 113.499 453.426C119.62 453.426 124.582 448.463 124.582 442.342C124.582 436.221 119.62 431.259 113.499 431.259C107.377 431.259 102.415 436.221 102.415 442.342ZM173.462 418.815L174.765 420.434L174.775 420.426L174.786 420.417L173.462 418.815ZM347.647 337.022C347.647 343.143 352.609 348.105 358.73 348.105C364.851 348.105 369.814 343.143 369.814 337.022C369.814 330.9 364.851 325.938 358.73 325.938C352.609 325.938 347.647 330.9 347.647 337.022ZM347.647 504.954C347.647 511.075 352.609 516.038 358.73 516.038C364.851 516.038 369.814 511.075 369.814 504.954C369.814 498.833 364.851 493.871 358.73 493.871C352.609 493.871 347.647 498.833 347.647 504.954ZM275.287 394.773L274.104 393.065L273.209 393.684V394.773H275.287ZM275.287 451.241H273.209V452.236L273.984 452.86L275.287 451.241ZM295.642 476.545C295.642 482.666 300.605 487.628 306.726 487.628C312.847 487.628 317.809 482.666 317.809 476.545C317.809 470.424 312.847 465.461 306.726 465.461C300.605 465.461 295.642 470.424 295.642 476.545ZM442.512 337.022C442.512 343.143 447.475 348.105 453.596 348.105C459.717 348.105 464.68 343.143 464.68 337.022C464.68 330.9 459.717 325.938 453.596 325.938C447.475 325.938 442.512 330.9 442.512 337.022ZM453.596 416.771H451.518V417.766L452.293 418.39L453.596 416.771ZM492.63 448.187H494.708V447.192L493.933 446.568L492.63 448.187ZM439.323 490.281C439.323 496.403 444.286 501.365 450.407 501.365C456.528 501.365 461.491 496.403 461.491 490.281C461.491 484.16 456.528 479.198 450.407 479.198C444.286 479.198 439.323 484.16 439.323 490.281ZM521.021 481.705C521.021 487.826 525.983 492.788 532.105 492.788C538.226 492.788 543.188 487.826 543.188 481.705C543.188 475.583 538.226 470.621 532.105 470.621C525.983 470.621 521.021 475.583 521.021 481.705ZM515.007 334.588C515.007 340.71 519.969 345.672 526.09 345.672C532.211 345.672 537.174 340.71 537.174 334.588C537.174 328.467 532.211 323.505 526.09 323.505C519.969 323.505 515.007 328.467 515.007 334.588ZM615.814 406.803L614.511 408.422L615.082 408.882H615.814V406.803ZM751.68 406.803C751.68 412.925 756.643 417.887 762.764 417.887C768.885 417.887 773.847 412.925 773.847 406.803C773.847 400.682 768.885 395.72 762.764 395.72C756.643 395.72 751.68 400.682 751.68 406.803ZM711.764 433.813C711.764 439.934 716.726 444.896 722.847 444.896C728.968 444.896 733.931 439.934 733.931 433.813C733.931 427.692 728.968 422.729 722.847 422.729C716.726 422.729 711.764 427.692 711.764 433.813ZM570.952 370.696L572.255 369.077L570.952 370.696ZM559.869 433.813C559.869 439.934 564.831 444.896 570.952 444.896C577.073 444.896 582.036 439.934 582.036 433.813C582.036 427.692 577.073 422.729 570.952 422.729C564.831 422.729 559.869 427.692 559.869 433.813ZM515.896 289.257C515.896 295.379 520.858 300.341 526.979 300.341C533.101 300.341 538.063 295.379 538.063 289.257C538.063 283.136 533.101 278.174 526.979 278.174C520.858 278.174 515.896 283.136 515.896 289.257ZM662.272 337.022L660.969 338.641L661.54 339.1H662.272V337.022ZM752.569 337.022C752.569 343.143 757.532 348.105 763.653 348.105C769.774 348.105 774.737 343.143 774.737 337.022C774.737 330.9 769.774 325.938 763.653 325.938C757.532 325.938 752.569 330.9 752.569 337.022ZM755.925 293.522C755.925 299.643 760.888 304.606 767.009 304.606C773.13 304.606 778.092 299.643 778.092 293.522C778.092 287.401 773.13 282.438 767.009 282.438C760.888 282.438 755.925 287.401 755.925 293.522ZM716.324 272.483C716.324 278.604 721.287 283.567 727.408 283.567C733.529 283.567 738.492 278.604 738.492 272.483C738.492 266.362 733.529 261.399 727.408 261.399C721.287 261.399 716.324 266.362 716.324 272.483ZM516.123 239.675C516.123 245.797 521.086 250.759 527.207 250.759C533.328 250.759 538.291 245.797 538.291 239.675C538.291 233.554 533.328 228.592 527.207 228.592C521.086 228.592 516.123 233.554 516.123 239.675ZM717.408 239.675V241.753H718.517L719.134 240.833L717.408 239.675ZM733 216.428L734.726 217.585L735.522 216.399L734.699 215.231L733 216.428ZM719.5 197.272L717.422 197.322L717.437 197.953L717.801 198.47L719.5 197.272ZM706.324 108.702C706.324 114.824 711.287 119.786 717.408 119.786C723.529 119.786 728.492 114.824 728.492 108.702C728.492 102.581 723.529 97.6187 717.408 97.6187C711.287 97.6187 706.324 102.581 706.324 108.702ZM627.307 167.038L626.004 165.42L625.229 166.043V167.038H627.307ZM667.97 125.39C667.97 131.512 672.932 136.474 679.053 136.474C685.175 136.474 690.137 131.512 690.137 125.39C690.137 119.269 685.175 114.307 679.053 114.307C672.932 114.307 667.97 119.269 667.97 125.39ZM515.007 195.331C515.007 201.452 519.969 206.415 526.09 206.415C532.211 206.415 537.174 201.452 537.174 195.331C537.174 189.21 532.211 184.247 526.09 184.247C519.969 184.247 515.007 189.21 515.007 195.331ZM601.905 125.39C601.905 131.512 606.867 136.474 612.988 136.474C619.109 136.474 624.072 131.512 624.072 125.39C624.072 119.269 619.109 114.307 612.988 114.307C606.867 114.307 601.905 119.269 601.905 125.39ZM569.539 160.361L570.842 161.98L569.539 160.361ZM526.09 125.39H524.012V126.385L524.787 127.009L526.09 125.39ZM515.007 72.7775C515.007 78.8988 519.969 83.8611 526.09 83.8611C532.211 83.8611 537.174 78.8988 537.174 72.7775C537.174 66.6562 532.211 61.6939 526.09 61.6939C519.969 61.6939 515.007 66.6562 515.007 72.7775ZM444.553 194.291C444.553 200.413 449.516 205.375 455.637 205.375C461.758 205.375 466.72 200.413 466.72 194.291C466.72 188.17 461.758 183.208 455.637 183.208C449.516 183.208 444.553 188.17 444.553 194.291ZM455.637 72.7775L454.334 71.1586L453.559 71.7825V72.7775H455.637ZM481.546 43.0036C481.546 49.1249 486.508 54.0872 492.63 54.0872C498.751 54.0872 503.713 49.1249 503.713 43.0036C503.713 36.8823 498.751 31.92 492.63 31.92C486.508 31.92 481.546 36.8823 481.546 43.0036ZM344.919 194.291C344.919 200.413 349.881 205.375 356.002 205.375C362.124 205.375 367.086 200.413 367.086 194.291C367.086 188.17 362.124 183.208 356.002 183.208C349.881 183.208 344.919 188.17 344.919 194.291ZM330.039 66.1083H327.961V66.8372L328.416 67.4065L330.039 66.1083ZM313.691 142.584L312.388 144.203L312.959 144.662H313.691V142.584ZM260.511 108.702C260.511 114.824 265.474 119.786 271.595 119.786C277.716 119.786 282.678 114.824 282.678 108.702C282.678 102.581 277.716 97.6187 271.595 97.6187C265.474 97.6187 260.511 102.581 260.511 108.702ZM264.756 197.604C264.756 203.725 269.718 208.687 275.839 208.687C281.961 208.687 286.923 203.725 286.923 197.604C286.923 191.482 281.961 186.52 275.839 186.52C269.718 186.52 264.756 191.482 264.756 197.604ZM223.5 121.342L224.643 119.606L224.123 119.264H223.5V121.342ZM263.651 238.846C263.651 244.967 268.613 249.93 274.734 249.93C280.856 249.93 285.818 244.967 285.818 238.846C285.818 232.725 280.856 227.763 274.734 227.763C268.613 227.763 263.651 232.725 263.651 238.846ZM71.6212 238.846L70.3182 240.465L70.8888 240.924H71.6212V238.846ZM49.1902 220.792H47.112V221.787L47.8872 222.411L49.1902 220.792ZM38.1066 143.8C38.1066 149.922 43.0689 154.884 49.1902 154.884C55.3115 154.884 60.2738 149.922 60.2738 143.8C60.2738 137.679 55.3115 132.717 49.1902 132.717C43.0689 132.717 38.1066 137.679 38.1066 143.8ZM74.5791 146.871C74.5791 152.993 79.5414 157.955 85.6627 157.955C91.784 157.955 96.7463 152.993 96.7463 146.871C96.7463 140.75 91.784 135.788 85.6627 135.788C79.5414 135.788 74.5791 140.75 74.5791 146.871ZM42.1886 291.132C42.1886 297.254 47.1509 302.216 53.2722 302.216C59.3935 302.216 64.3558 297.254 64.3558 291.132C64.3558 285.011 59.3935 280.049 53.2722 280.049C47.1509 280.049 42.1886 285.011 42.1886 291.132ZM263.89 291.132C263.89 297.254 268.853 302.216 274.974 302.216C281.095 302.216 286.057 297.254 286.057 291.132C286.057 285.011 281.095 280.049 274.974 280.049C268.853 280.049 263.89 285.011 263.89 291.132ZM90.5522 337.33L90.544 339.408L91.1468 339.411L91.6573 339.09L90.5522 337.33ZM399.788 79.1656L398.318 77.6961L396.894 79.1208L398.273 80.5889L399.788 79.1656ZM356.002 98.5661H358.08V97.8372L357.625 97.268L356.002 98.5661ZM0.859515 337.022C0.859515 343.143 5.82181 348.105 11.9431 348.105C18.0644 348.105 23.0267 343.143 23.0267 337.022C23.0267 330.9 18.0644 325.938 11.9431 325.938C5.82181 325.938 0.859515 330.9 0.859515 337.022ZM317.009 365.892V363.813H316.359L315.826 364.183L317.009 365.892ZM623.768 272.483V270.405H623.036L622.465 270.864L623.768 272.483ZM249.916 48.8763C249.916 54.9976 254.879 59.9599 261 59.9599C267.121 59.9599 272.084 54.9976 272.084 48.8763C272.084 42.755 267.121 37.7927 261 37.7927C254.879 37.7927 249.916 42.755 249.916 48.8763ZM123.416 96.3418C123.416 102.463 128.379 107.425 134.5 107.425C140.621 107.425 145.584 102.463 145.584 96.3418C145.584 90.2205 140.621 85.2582 134.5 85.2582C128.379 85.2582 123.416 90.2205 123.416 96.3418ZM424.866 43.0036C424.866 49.1249 429.828 54.0872 435.95 54.0872C442.071 54.0872 447.033 49.1249 447.033 43.0036C447.033 36.8823 442.071 31.92 435.95 31.92C429.828 31.92 424.866 36.8823 424.866 43.0036ZM318.955 11.9998C318.955 18.1211 323.917 23.0834 330.039 23.0834C336.16 23.0834 341.122 18.1211 341.122 11.9998C341.122 5.87845 336.16 0.916156 330.039 0.916156C323.917 0.916156 318.955 5.87845 318.955 11.9998ZM361.747 23.3165C361.747 29.4378 366.709 34.4001 372.831 34.4001C378.952 34.4001 383.914 29.4378 383.914 23.3165C383.914 17.1951 378.952 12.2329 372.831 12.2329C366.709 12.2329 361.747 17.1951 361.747 23.3165ZM173.178 238.846V240.924V238.846ZM162.094 160.361C162.094 166.482 167.057 171.444 173.178 171.444C179.299 171.444 184.261 166.482 184.261 160.361C184.261 154.239 179.299 149.277 173.178 149.277C167.057 149.277 162.094 154.239 162.094 160.361ZM261.5 68L259.423 68.0543L259.429 68.2931L259.489 68.5242L261.5 68ZM159.5 121.342L158.031 122.811L158.639 123.42H159.5V121.342ZM182.605 48.8763C182.605 54.9976 187.567 59.9599 193.688 59.9599C199.809 59.9599 204.772 54.9976 204.772 48.8763C204.772 42.755 199.809 37.7927 193.688 37.7927C187.567 37.7927 182.605 42.755 182.605 48.8763ZM264.756 123.01C264.756 129.131 269.718 134.094 275.839 134.094C281.961 134.094 286.923 129.131 286.923 123.01C286.923 116.889 281.961 111.927 275.839 111.927C269.718 111.927 264.756 116.889 264.756 123.01ZM249.67 138.582L251.569 137.74L251.322 137.183L250.813 136.847L249.67 138.582ZM65.8371 412.14L112.439 367.391L109.561 364.393L62.9583 409.142L65.8371 412.14ZM111 367.97H237.5V363.813H111V367.97ZM238.769 367.538L279.379 336.234L276.842 332.942L236.231 364.246L238.769 367.538ZM144.231 440.264H113.499V444.42H144.231V440.264ZM236.176 364.29L172.138 417.213L174.786 420.417L238.824 367.494L236.176 364.29ZM172.159 417.196L142.928 440.723L145.534 443.961L174.765 420.434L172.159 417.196ZM356.652 337.022V365.892H360.808V337.022H356.652ZM356.652 365.892V504.954H360.808V365.892H356.652ZM273.209 394.773V451.241H277.365V394.773H273.209ZM273.984 452.86L305.423 478.164L308.029 474.926L276.59 449.622L273.984 452.86ZM451.518 337.022V416.771H455.674V337.022H451.518ZM452.293 418.39L491.327 449.806L493.933 446.568L454.899 415.152L452.293 418.39ZM490.551 448.187V449.933H494.708V448.187H490.551ZM491.194 448.431L448.971 488.779L451.843 491.784L494.065 451.435L491.194 448.431ZM491.327 451.552L530.802 483.324L533.408 480.086L493.933 448.314L491.327 451.552ZM615.814 408.882H689.289V404.725H615.814V408.882ZM689.289 408.882H762.764V404.725H689.289V408.882ZM687.986 408.422L721.544 435.432L724.15 432.194L690.592 405.184L687.986 408.422ZM524.787 336.207L569.649 372.315L572.255 369.077L527.393 332.969L524.787 336.207ZM569.649 372.315L614.511 408.422L617.117 405.184L572.255 369.077L569.649 372.315ZM568.874 370.696V433.813H573.03V370.696H568.874ZM526.979 291.336H602.927V287.179H526.979V291.336ZM662.272 339.1H712.962V334.943H662.272V339.1ZM712.962 339.1H763.653V334.943H712.962V339.1ZM714.265 338.641L768.312 295.141L765.706 291.903L711.659 335.403L714.265 338.641ZM601.624 290.876L660.969 338.641L663.575 335.403L604.23 287.638L601.624 290.876ZM719.134 240.833L734.726 217.585L731.274 215.27L715.682 238.518L719.134 240.833ZM734.699 215.231L721.199 196.075L717.801 198.47L731.301 217.625L734.699 215.231ZM721.578 197.223L719.486 108.653L715.331 108.751L717.422 197.322L721.578 197.223ZM527.207 241.753H627.307V237.597H527.207V241.753ZM627.307 241.753H717.408V237.597H627.307V241.753ZM629.386 239.675V167.038H625.229V239.675H629.386ZM628.611 168.657L680.357 127.009L677.75 123.771L626.004 165.42L628.611 168.657ZM527.393 196.95L570.842 161.98L568.236 158.742L524.787 193.712L527.393 196.95ZM570.842 161.98L614.291 127.009L611.685 123.771L568.236 158.742L570.842 161.98ZM570.842 158.742L527.393 123.771L524.787 127.009L568.236 161.98L570.842 158.742ZM528.168 125.39V72.7775H524.012V125.39H528.168ZM456.94 74.3964L493.933 44.6225L491.327 41.3846L454.334 71.1586L456.94 74.3964ZM358.08 194.291V142.584H353.924V194.291H358.08ZM356.002 140.506H313.691V144.662H356.002V140.506ZM314.994 140.965L272.898 107.083L270.292 110.321L312.388 144.203L314.994 140.965ZM72.9242 237.227L50.4932 219.173L47.8872 222.411L70.3182 240.465L72.9242 237.227ZM51.2684 220.792V176.227H47.112V220.792H51.2684ZM51.2684 176.227V143.8H47.112V176.227H51.2684ZM50.4932 177.846L86.9657 148.49L84.3597 145.253L47.8872 174.608L50.4932 177.846ZM274.974 289.054H164.123V293.211H274.974V289.054ZM164.123 289.054H53.2722V293.211H164.123V289.054ZM163.018 289.372L89.4471 335.57L91.6573 339.09L165.228 292.892L163.018 289.372ZM457.715 194.291V138.582H453.559V194.291H457.715ZM457.715 138.582V72.7775H453.559V138.582H457.715ZM455.637 138.582C457.151 137.159 457.151 137.159 457.151 137.159C457.15 137.158 457.15 137.158 457.15 137.158C457.148 137.156 457.147 137.155 457.145 137.153C457.141 137.148 457.135 137.142 457.126 137.133C457.11 137.115 457.085 137.089 457.053 137.055C456.988 136.985 456.891 136.882 456.763 136.747C456.509 136.476 456.133 136.076 455.646 135.558C454.673 134.522 453.258 133.017 451.492 131.138C447.96 127.381 443.023 122.129 437.405 116.152C426.169 104.198 412.207 89.3441 401.302 77.7422L398.273 80.5889C409.179 92.1908 423.141 107.045 434.377 118.999C439.995 124.976 444.931 130.227 448.463 133.985C450.229 135.864 451.644 137.369 452.617 138.404C453.104 138.922 453.48 139.323 453.735 139.593C453.862 139.729 453.959 139.832 454.024 139.901C454.057 139.936 454.081 139.962 454.098 139.979C454.106 139.988 454.112 139.995 454.116 139.999C454.119 140.001 454.12 140.003 454.121 140.004C454.122 140.005 454.122 140.005 454.122 140.005C454.122 140.006 454.123 140.006 455.637 138.582ZM358.08 142.584V98.5661H353.924V142.584H358.08ZM356.002 98.5661C357.625 97.268 357.625 97.2679 357.625 97.2677C357.625 97.2676 357.625 97.2674 357.624 97.2671C357.623 97.2658 357.624 97.2662 357.622 97.2644C357.62 97.2615 357.618 97.2589 357.614 97.2536C357.606 97.2439 357.595 97.2298 357.579 97.2108C357.549 97.1732 357.504 97.1165 357.445 97.0427C357.327 96.8949 357.151 96.6759 356.925 96.3932C356.473 95.8275 355.815 95.0053 354.994 93.9789C353.352 91.9263 351.057 89.0574 348.446 85.7924C343.222 79.2624 336.731 71.1479 331.662 64.8102L328.416 67.4065C333.486 73.7442 339.976 81.8587 345.2 88.3887C347.812 91.6537 350.106 94.5226 351.748 96.5752C352.569 97.6015 353.227 98.4238 353.68 98.9895C353.906 99.2724 354.081 99.4909 354.199 99.639C354.259 99.7132 354.303 99.7691 354.334 99.8071C354.349 99.8259 354.36 99.8404 354.368 99.8499C354.371 99.8541 354.375 99.8587 354.376 99.8606C354.377 99.8612 354.377 99.8618 354.378 99.8622C354.378 99.8627 354.378 99.863 354.379 99.8633C354.379 99.8636 354.379 99.8639 354.379 99.864C354.379 99.8642 354.379 99.8643 356.002 98.5661ZM90.5604 335.252L11.9513 334.943L11.935 339.1L90.544 339.408L90.5604 335.252ZM358.73 363.813H317.009V367.97H358.73V363.813ZM315.826 364.183L274.104 393.065L276.47 396.482L318.191 367.6L315.826 364.183ZM604.23 290.876L625.071 274.102L622.465 270.864L601.624 287.638L604.23 290.876ZM623.768 274.561H727.408V270.405H623.768V274.561ZM401.257 80.6351L437.419 44.4731L434.48 41.5341L398.318 77.6961L401.257 80.6351ZM332.117 66.1083V11.9998H327.961V66.1083H332.117ZM331.508 67.5778L374.3 24.7859L371.361 21.847L328.569 64.6388L331.508 67.5778ZM274.734 236.768L173.178 236.768V240.924L274.734 240.924V236.768ZM173.178 236.768L71.6212 236.768V240.924L173.178 240.924V236.768ZM175.256 238.846V160.361H171.1V238.846H175.256ZM263.577 67.9457L263.077 48.822L258.923 48.9306L259.423 68.0543L263.577 67.9457ZM160.969 119.872L135.969 94.8723L133.031 97.8113L158.031 122.811L160.969 119.872ZM223.5 119.264H193.688V123.42H223.5V119.264ZM193.688 119.264H159.5V123.42H193.688V119.264ZM195.766 121.342V48.8763H191.61V121.342H195.766ZM277.85 122.486L263.511 67.4758L259.489 68.5242L273.828 123.534L277.85 122.486ZM277.739 196.761L251.569 137.74L247.77 139.425L273.939 198.446L277.739 196.761ZM250.813 136.847L224.643 119.606L222.357 123.077L248.526 140.318L250.813 136.847Z" fill="black" fill-opacity="0.04"/>
<g filter="url(#filter0_d_3116_35542)">
<rect x="543" y="303" width="212.999" height="80" rx="40" fill="white"/>
<rect x="543.5" y="303.5" width="211.999" height="79" rx="39.5" stroke="black" stroke-opacity="0.04"/>
<path d="M582.167 327H567V342.167H582.167V327Z" fill="#0078D4"/>
<path d="M598.999 327H583.832V342.167H598.999V327Z" fill="#0078D4"/>
<path d="M582.167 343.833H567V359H582.167V343.833Z" fill="#0078D4"/>
<path d="M598.999 343.833H583.832V359H598.999V343.833Z" fill="#0078D4"/>
<path d="M613.727 353L607.738 333.086H610.569L615.206 349.458L620.029 333.086H622.873L627.667 349.43L632.304 333.086H635.05L629.09 353H626.145L621.437 337.14L616.657 353H613.727ZM638.071 353V339.06H640.688V353H638.071ZM639.38 336.428C638.886 336.428 638.46 336.262 638.099 335.93C637.739 335.599 637.559 335.181 637.559 334.679C637.559 334.157 637.739 333.735 638.099 333.413C638.46 333.081 638.886 332.915 639.38 332.915C639.882 332.915 640.309 333.081 640.66 333.413C641.02 333.735 641.2 334.157 641.2 334.679C641.2 335.181 641.02 335.599 640.66 335.93C640.309 336.262 639.882 336.428 639.38 336.428ZM645.211 353V339.06H647.828V340.938C648.426 340.122 649.123 339.534 649.919 339.174C650.716 338.813 651.531 338.633 652.366 338.633C653.627 338.633 654.67 338.889 655.495 339.401C656.33 339.904 656.951 340.549 657.359 341.336C657.776 342.123 657.985 342.929 657.985 343.754V353H655.367V344.565C655.367 343.512 655.04 342.668 654.386 342.033C653.731 341.388 652.84 341.066 651.712 341.066C650.972 341.066 650.308 341.232 649.72 341.563C649.142 341.886 648.682 342.346 648.34 342.943C647.999 343.541 647.828 344.228 647.828 345.006V353H645.211ZM668.128 353.427C666.753 353.427 665.534 353.1 664.472 352.445C663.42 351.791 662.595 350.909 661.997 349.799C661.409 348.68 661.115 347.424 661.115 346.03C661.115 345.006 661.286 344.048 661.627 343.157C661.969 342.265 662.448 341.483 663.064 340.81C663.69 340.127 664.434 339.596 665.297 339.216C666.16 338.828 667.113 338.633 668.156 338.633C669.493 338.633 670.636 338.903 671.584 339.444C672.542 339.984 673.329 340.71 673.946 341.62L673.419 342.204V332.517H676.037V353H673.633V349.728L674.017 350.326C673.476 351.217 672.732 351.957 671.784 352.545C670.845 353.133 669.626 353.427 668.128 353.427ZM668.597 351.065C669.536 351.065 670.366 350.862 671.087 350.454C671.817 350.037 672.391 349.453 672.808 348.704C673.225 347.946 673.434 347.054 673.434 346.03C673.434 344.996 673.225 344.105 672.808 343.356C672.4 342.597 671.831 342.014 671.101 341.606C670.371 341.198 669.536 340.994 668.597 340.994C667.658 340.994 666.824 341.198 666.094 341.606C665.373 342.014 664.804 342.597 664.387 343.356C663.979 344.105 663.775 344.996 663.775 346.03C663.775 347.054 663.979 347.946 664.387 348.704C664.804 349.453 665.378 350.037 666.108 350.454C666.838 350.862 667.668 351.065 668.597 351.065ZM686.795 353.427C685.353 353.427 684.068 353.09 682.94 352.417C681.811 351.743 680.925 350.847 680.28 349.728C679.635 348.609 679.313 347.377 679.313 346.03C679.313 345.034 679.498 344.091 679.867 343.199C680.237 342.308 680.759 341.521 681.432 340.838C682.105 340.146 682.897 339.605 683.808 339.216C684.718 338.828 685.714 338.633 686.795 338.633C688.246 338.633 689.535 338.97 690.664 339.643C691.792 340.316 692.679 341.213 693.324 342.332C693.969 343.451 694.291 344.683 694.291 346.03C694.291 347.026 694.106 347.969 693.736 348.861C693.367 349.752 692.845 350.539 692.172 351.222C691.498 351.905 690.707 352.445 689.796 352.844C688.886 353.232 687.885 353.427 686.795 353.427ZM686.795 351.065C687.734 351.065 688.563 350.862 689.284 350.454C690.014 350.037 690.588 349.453 691.005 348.704C691.423 347.946 691.631 347.054 691.631 346.03C691.631 344.996 691.423 344.105 691.005 343.356C690.597 342.597 690.029 342.014 689.298 341.606C688.568 341.198 687.734 340.994 686.795 340.994C685.856 340.994 685.021 341.198 684.291 341.606C683.571 342.014 683.002 342.597 682.584 343.356C682.177 344.105 681.973 344.996 681.973 346.03C681.973 347.054 682.177 347.946 682.584 348.704C683.002 349.453 683.575 350.037 684.305 350.454C685.036 350.862 685.865 351.065 686.795 351.065ZM700.102 353L695.65 339.06H698.31L701.539 349.956L705.038 339.06H707.684L710.941 349.956L714.255 339.06H716.773L712.321 353H709.561L706.275 342.46L702.861 353H700.102ZM724.01 353.413C722.91 353.413 721.867 353.251 720.881 352.929C719.904 352.597 719.089 352.156 718.434 351.606L719.515 349.629C720.132 350.141 720.834 350.544 721.621 350.838C722.417 351.122 723.214 351.265 724.01 351.265C724.997 351.265 725.765 351.089 726.315 350.738C726.865 350.378 727.14 349.871 727.14 349.216C727.14 348.609 726.903 348.159 726.429 347.865C725.954 347.571 725.072 347.267 723.783 346.955C722.076 346.566 720.834 346.044 720.056 345.39C719.288 344.736 718.904 343.835 718.904 342.687C718.904 341.872 719.131 341.151 719.586 340.525C720.042 339.89 720.663 339.392 721.45 339.031C722.246 338.671 723.162 338.491 724.195 338.491C725.219 338.491 726.172 338.638 727.054 338.932C727.946 339.216 728.719 339.634 729.373 340.184L728.363 342.175C728.031 341.862 727.638 341.592 727.182 341.364C726.737 341.137 726.258 340.961 725.746 340.838C725.234 340.705 724.722 340.639 724.209 340.639C723.365 340.639 722.673 340.81 722.133 341.151C721.602 341.492 721.336 341.966 721.336 342.573C721.336 343.209 721.592 343.673 722.104 343.967C722.626 344.261 723.489 344.551 724.693 344.835C726.438 345.224 727.69 345.745 728.448 346.4C729.207 347.045 729.586 347.936 729.586 349.074C729.586 349.956 729.354 350.724 728.889 351.378C728.425 352.023 727.775 352.526 726.941 352.886C726.106 353.237 725.129 353.413 724.01 353.413Z" fill="#444B50"/>
</g>
<g filter="url(#filter1_d_3116_35542)">
<rect x="61" y="177" width="158.999" height="80" rx="40" fill="white"/>
<rect x="61.5" y="177.5" width="157.999" height="79" rx="39.5" stroke="black" stroke-opacity="0.04"/>
<path d="M97.1763 210.916C97.5589 209.411 97.1901 207.812 97.2432 206.261C97.3602 202.875 99.2543 202.107 101.196 202.007C103.424 201.891 106.061 203.201 106.221 206.395C106.296 207.924 106.024 209.503 106.421 210.982C107.347 214.432 111.321 216.923 111.379 220.49C111.432 223.881 109.859 227.877 106.957 229.666C105.458 230.591 103.425 229.482 101.664 229.6C99.7049 229.733 97.526 231.46 95.836 230.465C92.7684 228.658 91.9223 224.025 92.1519 220.49C92.3858 216.899 96.2887 214.405 97.1763 210.916Z" fill="#333333"/>
<path d="M102.632 210.12C103.502 210.12 104.207 209.215 104.207 208.098C104.207 206.982 103.502 206.077 102.632 206.077C101.762 206.077 101.057 206.982 101.057 208.098C101.057 209.215 101.762 210.12 102.632 210.12Z" fill="white" fill-opacity="0.941"/>
<path d="M98.9012 209.815C99.5158 209.815 100.014 209.079 100.014 208.17C100.014 207.261 99.5158 206.524 98.9012 206.524C98.2866 206.524 97.7883 207.261 97.7883 208.17C97.7883 209.079 98.2866 209.815 98.9012 209.815Z" fill="white" fill-opacity="0.941"/>
<path d="M102.436 209.487C102.793 209.487 103.082 209.013 103.082 208.428C103.082 207.844 102.793 207.37 102.436 207.37C102.08 207.37 101.791 207.844 101.791 208.428C101.791 209.013 102.08 209.487 102.436 209.487Z" fill="#232629"/>
<path d="M98.9066 209.216C99.1778 209.216 99.3977 208.863 99.3977 208.428C99.3977 207.993 99.1778 207.64 98.9066 207.64C98.6354 207.64 98.4155 207.993 98.4155 208.428C98.4155 208.863 98.6354 209.216 98.9066 209.216Z" fill="#232629"/>
<path d="M102.424 210.182C102.231 210.173 102.037 210.175 101.844 210.187C100.537 210.262 99.136 210.772 98.4281 211.389C97.2951 212.378 97.9668 213.339 97.479 214.727C96.9911 216.115 95.7634 217.932 95.3957 219.664C95.2468 220.364 95.0577 221.063 94.928 221.766L98.4281 226.011C99.1158 226.844 97.3216 226.535 95.6529 225.462C96.837 227.115 99.186 228.754 101.505 228.599C103.975 228.434 106.892 225.871 107.825 223.774C106.92 223.622 106.04 222.27 106.764 221.262C107.016 220.913 107.557 220.883 108.022 220.957C107.742 219.883 107.185 218.92 106.906 218.112C106.421 216.703 105.858 216.308 105.343 215.057C104.828 213.806 105.372 211.491 103.921 210.591C103.513 210.337 102.991 210.211 102.424 210.182Z" fill="white"/>
<path d="M91.5492 223.484C92.0668 223.072 92.3092 222.236 92.9554 222.087C93.4614 221.971 94.0289 222.259 94.4297 222.586C95.3448 223.333 95.4841 224.711 96.2047 225.645C96.6851 226.267 97.4993 226.62 97.8798 227.307C98.2763 228.024 98.7876 228.972 98.4156 229.701C97.9139 230.683 96.4768 230.988 95.3671 231.03C94.6933 231.056 94.1076 230.545 93.4582 230.365C92.5122 230.104 91.4206 230.265 90.5777 229.767C89.9102 229.374 89.1194 228.774 89.0705 228.005C89.0503 227.701 89.4978 227.536 89.5722 227.24C89.7699 226.464 89.012 225.563 89.3713 224.846C89.7539 224.084 90.8785 224.015 91.5492 223.484Z" fill="#F39C1F"/>
<path d="M106.533 222.327C106.319 222.517 106.139 222.757 106.007 222.994C105.435 224.025 105.821 225.357 105.5 226.489C105.285 227.243 104.661 227.871 104.564 228.647C104.463 229.46 104.341 230.527 104.959 231.069C105.792 231.796 107.241 231.551 108.287 231.182C108.923 230.959 109.275 230.269 109.812 229.864C110.592 229.273 111.667 229.02 112.264 228.249C112.737 227.637 113.249 226.791 113.008 226.059C112.912 225.769 112.436 225.779 112.257 225.532C111.784 224.883 112.15 223.77 111.55 223.237C111.103 222.841 110.448 222.886 109.814 222.869C109.508 223.52 108.511 223.963 107.825 223.775C107.245 223.614 106.667 222.959 106.533 222.327Z" fill="#F39C1F"/>
<path d="M100.475 208.489C101.176 208.453 101.82 208.903 102.452 209.204C103.064 209.496 104.107 209.583 104.193 210.251C104.292 211.01 103.216 211.457 102.586 211.897C102.024 212.29 101.397 212.751 100.71 212.745C100.016 212.738 99.4019 212.244 98.8343 211.847C98.3666 211.52 97.63 211.219 97.612 210.65C97.5918 210.042 98.3454 209.655 98.8343 209.287C99.319 208.922 99.8675 208.521 100.475 208.489Z" fill="#F39C1F"/>
<path d="M127.673 227V207.086H130.347V224.539H139.252V227H127.673ZM142.569 227V213.06H145.186V227H142.569ZM143.877 210.428C143.384 210.428 142.957 210.262 142.597 209.93C142.237 209.599 142.057 209.181 142.057 208.679C142.057 208.157 142.237 207.735 142.597 207.413C142.957 207.081 143.384 206.915 143.877 206.915C144.38 206.915 144.807 207.081 145.157 207.413C145.518 207.735 145.698 208.157 145.698 208.679C145.698 209.181 145.518 209.599 145.157 209.93C144.807 210.262 144.38 210.428 143.877 210.428ZM149.709 227V213.06H152.326V214.938C152.923 214.122 153.62 213.534 154.417 213.174C155.214 212.813 156.029 212.633 156.864 212.633C158.125 212.633 159.168 212.889 159.993 213.401C160.828 213.904 161.449 214.549 161.856 215.336C162.274 216.123 162.482 216.929 162.482 217.754V227H159.865V218.565C159.865 217.512 159.538 216.668 158.884 216.033C158.229 215.388 157.338 215.066 156.209 215.066C155.47 215.066 154.806 215.232 154.218 215.563C153.639 215.886 153.179 216.346 152.838 216.943C152.497 217.541 152.326 218.228 152.326 219.006V227H149.709ZM172.06 227.427C170.818 227.427 169.789 227.175 168.973 226.673C168.167 226.17 167.565 225.516 167.167 224.71C166.768 223.904 166.569 223.041 166.569 222.121V213.06H169.187V221.566C169.187 222.59 169.495 223.42 170.111 224.056C170.737 224.681 171.595 224.994 172.686 224.994C173.388 224.994 174.023 224.833 174.592 224.511C175.161 224.188 175.611 223.738 175.943 223.159C176.285 222.571 176.455 221.893 176.455 221.125V213.06H179.073V227H176.669V225.293C176.09 225.995 175.412 226.526 174.635 226.886C173.867 227.247 173.008 227.427 172.06 227.427ZM181.811 227.014L186.861 219.945L182.11 213.06H185.41L188.639 218.024L191.754 213.06H194.954L190.346 219.859L195.367 227H192.01L188.539 221.765L185.011 226.986L181.811 227.014Z" fill="#444B50"/>
</g>
<g filter="url(#filter2_d_3116_35542)">
<rect x="23" y="303" width="196.999" height="80" rx="40" fill="white"/>
<rect x="23.5" y="303.5" width="195.999" height="79" rx="39.5" stroke="black" stroke-opacity="0.04"/>
<mask id="mask0_3116_35542" style="mask-type:luminance" maskUnits="userSpaceOnUse" x="47" y="334" width="32" height="19">
<path d="M78.9987 334H47V352.638H78.9987V334Z" fill="white"/>
</mask>
<g mask="url(#mask0_3116_35542)">
<path d="M78.9116 351.931C78.9019 351.863 78.8922 351.805 78.8825 351.737C78.8148 351.34 78.7373 350.943 78.6405 350.546C78.4759 349.859 78.2629 349.191 78.0112 348.552C77.7981 348 77.5561 347.468 77.285 346.954C76.9365 346.296 76.5492 345.657 76.1135 345.047C75.581 344.301 74.9904 343.614 74.3514 342.965C74.0803 342.694 73.7995 342.433 73.5091 342.191C72.8797 341.648 72.2117 341.155 71.5049 340.719C71.5146 340.709 71.5146 340.7 71.5243 340.69C71.8438 340.128 72.173 339.576 72.4925 339.015C72.812 338.473 73.1218 337.93 73.4413 337.379C73.664 336.991 73.8963 336.594 74.119 336.207C74.1771 336.11 74.2158 336.023 74.2449 335.917C74.332 335.645 74.3417 335.355 74.2643 335.084C74.2449 335.016 74.2255 334.948 74.1965 334.89C74.1674 334.822 74.1384 334.764 74.0997 334.706C73.9835 334.503 73.8092 334.329 73.5865 334.203C73.3929 334.087 73.1799 334.019 72.9572 333.999C72.8604 333.99 72.7732 333.99 72.6764 333.999C72.599 334.009 72.5215 334.019 72.4537 334.038C72.1826 334.106 71.9406 334.251 71.747 334.464C71.6792 334.542 71.6114 334.629 71.563 334.716C71.3403 335.103 71.108 335.5 70.8853 335.887L69.9364 337.524C69.6169 338.085 69.2878 338.637 68.9683 339.199C68.9295 339.257 68.9005 339.325 68.8617 339.383C68.8133 339.363 68.7649 339.344 68.7165 339.325C66.935 338.647 65.0083 338.279 62.9848 338.279C62.9267 338.279 62.8783 338.279 62.8202 338.279C61.0291 338.298 59.3057 338.608 57.6888 339.17C57.5049 339.238 57.3209 339.305 57.137 339.373C57.1079 339.315 57.0692 339.257 57.0401 339.199C56.7206 338.637 56.3914 338.085 56.0719 337.524C55.7524 336.982 55.4426 336.439 55.1231 335.887C54.9004 335.5 54.6681 335.103 54.4454 334.716C54.3873 334.619 54.3292 334.542 54.2614 334.464C54.0678 334.251 53.8161 334.106 53.5546 334.038C53.4772 334.019 53.3997 334.009 53.332 333.999C53.2351 333.99 53.148 333.99 53.0512 333.999C52.8285 334.019 52.6155 334.087 52.4219 334.203C52.2089 334.329 52.0346 334.503 51.9087 334.706C51.87 334.764 51.8409 334.822 51.8119 334.89C51.7829 334.958 51.7635 335.016 51.7441 335.084C51.6764 335.355 51.6764 335.636 51.7635 335.917C51.7925 336.013 51.8409 336.11 51.8894 336.207C52.112 336.594 52.3444 336.991 52.5671 337.379C52.8866 337.921 53.1964 338.463 53.5159 339.015C53.8354 339.576 54.1646 340.128 54.4841 340.69L54.4938 340.7C53.8451 341.106 53.2255 341.552 52.6349 342.045C52.2863 342.336 51.9475 342.646 51.6279 342.965C50.9793 343.604 50.3983 344.301 49.8658 345.047C49.4302 345.657 49.0429 346.286 48.6943 346.954C48.4232 347.468 48.1812 348 47.9682 348.552C47.7165 349.201 47.5035 349.869 47.3389 350.546C47.242 350.934 47.1646 351.331 47.0968 351.737C47.0871 351.805 47.0774 351.863 47.0678 351.931C47.029 352.163 47 352.396 46.9709 352.638H78.9697C78.9697 352.396 78.9406 352.163 78.9116 351.931Z" fill="#34A853"/>
<path d="M71.3211 348.204C71.9601 347.778 72.0569 346.79 71.5244 346.006C71.0016 345.212 70.0527 344.922 69.4137 345.348C68.7746 345.774 68.6778 346.761 69.2103 347.545C69.7332 348.339 70.682 348.63 71.3211 348.204Z" fill="#202124"/>
<path d="M56.8177 347.555C57.3406 346.761 57.2534 345.783 56.6144 345.357C55.9754 344.931 55.0265 345.221 54.5037 346.015C53.9808 346.809 54.068 347.787 54.707 348.213C55.346 348.639 56.2852 348.339 56.8177 347.555Z" fill="#202124"/>
</g>
<path d="M87.3686 353L95.2064 333.086H97.9802L106.06 353H103.044L101.067 348.007H92.1908L90.2989 353H87.3686ZM92.9447 345.674H100.285L96.5293 336.4L92.9447 345.674ZM108.68 353V339.06H111.298V340.938C111.895 340.122 112.592 339.534 113.389 339.174C114.185 338.813 115.001 338.633 115.835 338.633C117.097 338.633 118.14 338.889 118.965 339.401C119.799 339.904 120.42 340.549 120.828 341.336C121.245 342.123 121.454 342.929 121.454 343.754V353H118.837V344.565C118.837 343.512 118.51 342.668 117.855 342.033C117.201 341.388 116.31 341.066 115.181 341.066C114.441 341.066 113.778 341.232 113.19 341.563C112.611 341.886 112.151 342.346 111.81 342.943C111.468 343.541 111.298 344.228 111.298 345.006V353H108.68ZM131.597 353.427C130.222 353.427 129.004 353.1 127.942 352.445C126.889 351.791 126.064 350.909 125.467 349.799C124.879 348.68 124.585 347.424 124.585 346.03C124.585 345.006 124.755 344.048 125.097 343.157C125.438 342.265 125.917 341.483 126.533 340.81C127.159 340.127 127.904 339.596 128.767 339.216C129.63 338.828 130.583 338.633 131.626 338.633C132.963 338.633 134.106 338.903 135.054 339.444C136.012 339.984 136.799 340.71 137.415 341.62L136.889 342.204V332.517H139.506V353H137.102V349.728L137.486 350.326C136.946 351.217 136.201 351.957 135.253 352.545C134.314 353.133 133.096 353.427 131.597 353.427ZM132.067 351.065C133.006 351.065 133.835 350.862 134.556 350.454C135.286 350.037 135.86 349.453 136.277 348.704C136.694 347.946 136.903 347.054 136.903 346.03C136.903 344.996 136.694 344.105 136.277 343.356C135.869 342.597 135.3 342.014 134.57 341.606C133.84 341.198 133.006 340.994 132.067 340.994C131.128 340.994 130.293 341.198 129.563 341.606C128.843 342.014 128.274 342.597 127.856 343.356C127.449 344.105 127.245 344.996 127.245 346.03C127.245 347.054 127.449 347.946 127.856 348.704C128.274 349.453 128.847 350.037 129.577 350.454C130.308 350.862 131.137 351.065 132.067 351.065ZM144.02 353V339.06H146.637V341.08C147.196 340.169 147.86 339.534 148.628 339.174C149.406 338.804 150.231 338.619 151.103 338.619C151.379 338.619 151.644 338.633 151.9 338.662C152.156 338.69 152.407 338.728 152.654 338.775L152.27 341.492C152.004 341.416 151.734 341.36 151.459 341.322C151.184 341.274 150.914 341.25 150.648 341.25C149.482 341.25 148.519 341.616 147.761 342.346C147.012 343.066 146.637 344.034 146.637 345.248V353H144.02ZM161.377 353.427C159.936 353.427 158.651 353.09 157.522 352.417C156.394 351.743 155.507 350.847 154.862 349.728C154.217 348.609 153.895 347.377 153.895 346.03C153.895 345.034 154.08 344.091 154.45 343.199C154.82 342.308 155.341 341.521 156.015 340.838C156.688 340.146 157.48 339.605 158.39 339.216C159.3 338.828 160.296 338.633 161.377 338.633C162.828 338.633 164.118 338.97 165.246 339.643C166.375 340.316 167.261 341.213 167.906 342.332C168.551 343.451 168.874 344.683 168.874 346.03C168.874 347.026 168.689 347.969 168.319 348.861C167.949 349.752 167.427 350.539 166.754 351.222C166.081 351.905 165.289 352.445 164.379 352.844C163.468 353.232 162.468 353.427 161.377 353.427ZM161.377 351.065C162.316 351.065 163.146 350.862 163.867 350.454C164.597 350.037 165.17 349.453 165.588 348.704C166.005 347.946 166.214 347.054 166.214 346.03C166.214 344.996 166.005 344.105 165.588 343.356C165.18 342.597 164.611 342.014 163.881 341.606C163.151 341.198 162.316 340.994 161.377 340.994C160.438 340.994 159.604 341.198 158.874 341.606C158.153 342.014 157.584 342.597 157.167 343.356C156.759 344.105 156.555 344.996 156.555 346.03C156.555 347.054 156.759 347.946 157.167 348.704C157.584 349.453 158.158 350.037 158.888 350.454C159.618 350.862 160.448 351.065 161.377 351.065ZM172.163 353V339.06H174.781V353H172.163ZM173.472 336.428C172.979 336.428 172.552 336.262 172.192 335.93C171.831 335.599 171.651 335.181 171.651 334.679C171.651 334.157 171.831 333.735 172.192 333.413C172.552 333.081 172.979 332.915 173.472 332.915C173.975 332.915 174.401 333.081 174.752 333.413C175.112 333.735 175.293 334.157 175.293 334.679C175.293 335.181 175.112 335.599 174.752 335.93C174.401 336.262 173.975 336.428 173.472 336.428ZM185.079 353.427C183.703 353.427 182.485 353.1 181.423 352.445C180.37 351.791 179.545 350.909 178.948 349.799C178.36 348.68 178.066 347.424 178.066 346.03C178.066 345.006 178.236 344.048 178.578 343.157C178.919 342.265 179.398 341.483 180.015 340.81C180.64 340.127 181.385 339.596 182.248 339.216C183.111 338.828 184.064 338.633 185.107 338.633C186.444 338.633 187.587 338.903 188.535 339.444C189.493 339.984 190.28 340.71 190.896 341.62L190.37 342.204V332.517H192.987V353H190.583V349.728L190.967 350.326C190.427 351.217 189.683 351.957 188.734 352.545C187.795 353.133 186.577 353.427 185.079 353.427ZM185.548 351.065C186.487 351.065 187.317 350.862 188.037 350.454C188.767 350.037 189.341 349.453 189.758 348.704C190.176 347.946 190.384 347.054 190.384 346.03C190.384 344.996 190.176 344.105 189.758 343.356C189.351 342.597 188.782 342.014 188.051 341.606C187.321 341.198 186.487 340.994 185.548 340.994C184.609 340.994 183.775 341.198 183.044 341.606C182.324 342.014 181.755 342.597 181.337 343.356C180.93 344.105 180.726 344.996 180.726 346.03C180.726 347.054 180.93 347.946 181.337 348.704C181.755 349.453 182.328 350.037 183.059 350.454C183.789 350.862 184.619 351.065 185.548 351.065Z" fill="#444B50"/>
</g>
<g filter="url(#filter3_d_3116_35542)">
<rect x="257" y="83" width="249.999" height="80" rx="40" fill="white"/>
<rect x="257.5" y="83.5" width="248.999" height="79" rx="39.5" stroke="black" stroke-opacity="0.04"/>
<path d="M304.756 130.113C304.961 128.471 304.9 128.23 306.175 128.496L306.498 128.523C307.479 128.566 308.761 128.372 309.515 128.036C311.137 127.315 312.098 126.109 310.499 126.426C306.851 127.148 306.6 125.963 306.6 125.963C310.452 120.481 312.063 113.521 310.673 111.817C306.881 107.171 300.319 109.368 300.209 109.425L300.174 109.431C299.454 109.288 298.647 109.202 297.741 109.188C296.09 109.162 294.837 109.603 293.887 110.295C293.887 110.295 282.18 105.668 282.725 116.113C282.841 118.335 286.045 132.925 289.867 128.518C291.264 126.907 292.614 125.544 292.614 125.544C293.284 125.971 294.086 126.189 294.928 126.111L294.993 126.058C294.973 126.258 294.982 126.454 295.019 126.685C294.035 127.74 294.324 127.926 292.356 128.314C290.364 128.708 291.534 129.409 292.298 129.592C293.224 129.814 295.366 130.129 296.814 128.185L296.756 128.407C297.143 128.703 297.117 130.537 297.171 131.847C297.226 133.158 297.318 134.381 297.596 135.101C297.875 135.822 298.203 137.679 300.79 137.147C302.952 136.703 304.605 136.063 304.756 130.113Z" fill="#336791" stroke="#336791" stroke-width="2.10112"/>
<path d="M310.499 126.425C306.851 127.147 306.6 125.962 306.6 125.962C310.452 120.48 312.062 113.52 310.673 111.817C306.882 107.17 300.319 109.368 300.209 109.425L300.174 109.431C299.453 109.287 298.647 109.202 297.74 109.188C296.089 109.162 294.837 109.603 293.887 110.294C293.887 110.294 282.18 105.668 282.724 116.112C282.84 118.334 286.044 132.925 289.866 128.518C291.263 126.906 292.613 125.544 292.613 125.544C293.283 125.971 294.086 126.189 294.927 126.111L294.993 126.057C294.972 126.257 294.982 126.453 295.019 126.685C294.034 127.74 294.323 127.925 292.355 128.314C290.364 128.708 291.534 129.409 292.298 129.592C293.224 129.814 295.366 130.129 296.814 128.185L296.756 128.406C297.142 128.703 297.413 130.334 297.367 131.813C297.322 133.292 297.291 134.308 297.595 135.101C297.899 135.894 298.202 137.679 300.79 137.147C302.952 136.702 304.072 135.551 304.228 133.63C304.339 132.264 304.589 132.466 304.605 131.245L304.806 130.667C305.037 128.815 304.842 128.218 306.174 128.496L306.498 128.523C307.478 128.566 308.762 128.372 309.515 128.036C311.136 127.314 312.098 126.109 310.499 126.425H310.499Z" fill="#336791"/>
<path d="M296.97 127.487C296.87 130.932 296.996 134.401 297.347 135.244C297.699 136.087 298.451 137.727 301.039 137.195C303.201 136.75 303.987 135.89 304.328 133.991C304.58 132.594 305.065 128.714 305.127 127.919M293.869 110.217C293.869 110.217 282.154 105.624 282.698 116.069C282.814 118.291 286.019 132.882 289.841 128.475C291.237 126.863 292.5 125.599 292.5 125.599M300.197 109.379C299.791 109.501 306.713 106.952 310.647 111.773C312.037 113.477 310.427 120.436 306.574 125.919" stroke="white" stroke-width="0.700373" stroke-linecap="round" stroke-linejoin="round"/>
<path d="M306.574 125.92C306.574 125.92 306.825 127.105 310.474 126.382C312.073 126.066 311.11 127.271 309.489 127.993C308.159 128.586 305.176 128.738 305.127 127.919C305.001 125.807 306.697 126.449 306.574 125.92ZM306.574 125.92C306.464 125.443 305.706 124.975 305.204 123.809C304.766 122.791 299.199 114.984 306.748 116.143C307.025 116.088 304.779 109.256 297.714 109.144C290.651 109.033 290.883 117.476 290.883 117.476" stroke="white" stroke-width="0.700373" stroke-linecap="round" stroke-linejoin="bevel"/>
<path d="M294.993 126.642C294.008 127.697 294.298 127.882 292.33 128.271C290.338 128.665 291.508 129.365 292.272 129.549C293.198 129.771 295.34 130.085 296.788 128.141C297.229 127.549 296.785 126.605 296.18 126.364C295.887 126.248 295.496 126.102 294.993 126.642Z" stroke="white" stroke-width="0.700373" stroke-linecap="round" stroke-linejoin="round"/>
<path d="M294.929 126.623C294.829 126.003 295.141 125.265 295.475 124.401C295.977 123.105 297.136 121.809 296.209 117.699C295.518 114.635 290.886 117.061 290.883 117.476C290.88 117.892 291.092 119.582 290.805 121.55C290.431 124.118 292.509 126.29 294.902 126.068" stroke="white" stroke-width="0.700373" stroke-linecap="round" stroke-linejoin="round"/>
<path d="M293.826 117.414C293.805 117.556 294.097 117.935 294.477 117.985C294.857 118.036 295.182 117.74 295.202 117.598C295.223 117.456 294.932 117.3 294.551 117.249C294.171 117.199 293.846 117.273 293.826 117.414H293.826Z" fill="white" stroke="white" stroke-width="0.233458"/>
<path d="M305.389 117.125C305.41 117.267 305.119 117.645 304.738 117.696C304.358 117.747 304.034 117.451 304.013 117.309C303.993 117.167 304.284 117.011 304.664 116.96C305.044 116.91 305.369 116.984 305.389 117.125V117.125Z" fill="white" stroke="white" stroke-width="0.116757"/>
<path d="M306.748 116.143C306.811 117.256 306.498 118.014 306.459 119.198C306.401 120.92 307.315 122.891 305.938 124.864" stroke="white" stroke-width="0.700373" stroke-linecap="round" stroke-linejoin="round"/>
<path d="M323.673 133V113.086H330.629C332.023 113.086 333.251 113.323 334.313 113.797C335.375 114.271 336.205 114.958 336.802 115.859C337.409 116.751 337.713 117.822 337.713 119.074C337.713 120.354 337.433 121.435 336.873 122.317C336.314 123.199 335.503 123.873 334.441 124.337C333.379 124.792 332.089 125.02 330.572 125.02H326.347V133H323.673ZM326.347 122.673H330.657C332.051 122.673 333.128 122.379 333.886 121.791C334.654 121.203 335.038 120.316 335.038 119.131C335.038 117.974 334.645 117.073 333.858 116.428C333.08 115.783 332.023 115.461 330.686 115.461H326.347V122.673ZM346.841 133.427C345.4 133.427 344.115 133.09 342.986 132.417C341.858 131.743 340.971 130.847 340.326 129.728C339.682 128.609 339.359 127.377 339.359 126.03C339.359 125.034 339.544 124.091 339.914 123.199C340.284 122.308 340.805 121.521 341.479 120.838C342.152 120.146 342.944 119.605 343.854 119.216C344.765 118.828 345.76 118.633 346.841 118.633C348.292 118.633 349.582 118.97 350.71 119.643C351.839 120.316 352.726 121.213 353.37 122.332C354.015 123.451 354.338 124.683 354.338 126.03C354.338 127.026 354.153 127.969 353.783 128.861C353.413 129.752 352.892 130.539 352.218 131.222C351.545 131.905 350.753 132.445 349.843 132.844C348.932 133.232 347.932 133.427 346.841 133.427ZM346.841 131.065C347.78 131.065 348.61 130.862 349.331 130.454C350.061 130.037 350.635 129.453 351.052 128.704C351.469 127.946 351.678 127.054 351.678 126.03C351.678 124.996 351.469 124.105 351.052 123.356C350.644 122.597 350.075 122.014 349.345 121.606C348.615 121.198 347.78 120.994 346.841 120.994C345.902 120.994 345.068 121.198 344.338 121.606C343.617 122.014 343.048 122.597 342.631 123.356C342.223 124.105 342.019 124.996 342.019 126.03C342.019 127.054 342.223 127.946 342.631 128.704C343.048 129.453 343.622 130.037 344.352 130.454C345.082 130.862 345.912 131.065 346.841 131.065ZM362.137 133.413C361.037 133.413 359.993 133.251 359.007 132.929C358.03 132.597 357.215 132.156 356.561 131.606L357.642 129.629C358.258 130.141 358.96 130.544 359.747 130.838C360.543 131.122 361.34 131.265 362.137 131.265C363.123 131.265 363.891 131.089 364.441 130.738C364.991 130.378 365.266 129.871 365.266 129.216C365.266 128.609 365.029 128.159 364.555 127.865C364.081 127.571 363.199 127.267 361.909 126.955C360.202 126.566 358.96 126.044 358.182 125.39C357.414 124.736 357.03 123.835 357.03 122.687C357.03 121.872 357.258 121.151 357.713 120.525C358.168 119.89 358.789 119.392 359.576 119.031C360.373 118.671 361.288 118.491 362.321 118.491C363.346 118.491 364.299 118.638 365.181 118.932C366.072 119.216 366.845 119.634 367.499 120.184L366.489 122.175C366.157 121.862 365.764 121.592 365.309 121.364C364.863 121.137 364.384 120.961 363.872 120.838C363.36 120.705 362.848 120.639 362.336 120.639C361.492 120.639 360.799 120.81 360.259 121.151C359.728 121.492 359.462 121.966 359.462 122.573C359.462 123.209 359.718 123.673 360.23 123.967C360.752 124.261 361.615 124.551 362.819 124.835C364.564 125.224 365.816 125.745 366.575 126.4C367.333 127.045 367.713 127.936 367.713 129.074C367.713 129.956 367.48 130.724 367.016 131.378C366.551 132.023 365.901 132.526 365.067 132.886C364.232 133.237 363.256 133.413 362.137 133.413ZM377.196 133.427C375.897 133.427 374.849 133.047 374.053 132.289C373.265 131.53 372.872 130.359 372.872 128.775V114.963H375.489V119.06H379.572V121.279H375.489V128.121C375.489 129.183 375.679 129.932 376.058 130.368C376.447 130.795 377.011 131.009 377.751 131.009C378.083 131.009 378.396 130.971 378.69 130.895C378.993 130.819 379.259 130.719 379.486 130.596L380.027 132.744C379.638 132.953 379.197 133.119 378.704 133.242C378.211 133.365 377.708 133.427 377.196 133.427ZM369.686 121.279V119.06H373.27V121.279H369.686ZM388.97 139.401C387.927 139.401 386.988 139.306 386.153 139.117C385.328 138.927 384.622 138.657 384.034 138.306C383.446 137.964 382.996 137.547 382.683 137.054C382.379 136.561 382.227 136.011 382.227 135.404C382.227 134.901 382.36 134.437 382.626 134.01C382.891 133.593 383.285 133.232 383.806 132.929C384.328 132.616 384.973 132.379 385.741 132.218C385.181 131.943 384.759 131.634 384.475 131.293C384.2 130.942 384.062 130.539 384.062 130.084C384.062 129.695 384.176 129.335 384.404 129.003C384.631 128.661 384.949 128.358 385.357 128.093C385.774 127.818 386.267 127.595 386.836 127.424C387.415 127.244 388.05 127.13 388.742 127.083L389.382 128.306C388.776 128.306 388.249 128.358 387.803 128.462C387.367 128.567 387.026 128.718 386.779 128.918C386.542 129.107 386.424 129.335 386.424 129.6C386.424 129.961 386.623 130.217 387.021 130.368C387.429 130.511 387.974 130.61 388.657 130.667L391.047 130.852C392.232 130.947 393.237 131.141 394.062 131.435C394.887 131.729 395.518 132.137 395.954 132.659C396.39 133.18 396.609 133.839 396.609 134.636C396.609 135.309 396.424 135.935 396.054 136.513C395.693 137.101 395.177 137.609 394.503 138.036C393.83 138.462 393.024 138.794 392.085 139.031C391.146 139.278 390.108 139.401 388.97 139.401ZM389.169 137.495C390.677 137.495 391.862 137.263 392.725 136.798C393.588 136.333 394.02 135.736 394.02 135.006C394.02 134.446 393.721 134.005 393.124 133.683C392.536 133.37 391.644 133.171 390.449 133.085L387.917 132.9C387.253 132.948 386.684 133.066 386.21 133.256C385.736 133.455 385.371 133.711 385.115 134.024C384.868 134.337 384.745 134.693 384.745 135.091C384.745 135.565 384.925 135.982 385.286 136.343C385.646 136.703 386.153 136.983 386.808 137.182C387.472 137.391 388.259 137.495 389.169 137.495ZM389.098 128.548C387.96 128.548 386.931 128.33 386.011 127.893C385.101 127.448 384.375 126.85 383.835 126.101C383.304 125.352 383.038 124.513 383.038 123.583C383.038 122.663 383.304 121.829 383.835 121.08C384.375 120.331 385.106 119.738 386.025 119.302C386.945 118.856 387.969 118.633 389.098 118.633C390.236 118.633 391.26 118.856 392.17 119.302C393.09 119.738 393.816 120.331 394.347 121.08C394.887 121.829 395.158 122.663 395.158 123.583C395.158 124.513 394.887 125.352 394.347 126.101C393.816 126.85 393.095 127.448 392.185 127.893C391.274 128.33 390.245 128.548 389.098 128.548ZM389.098 126.471C389.8 126.471 390.416 126.352 390.947 126.115C391.488 125.869 391.91 125.532 392.213 125.105C392.517 124.669 392.668 124.162 392.668 123.583C392.668 122.73 392.336 122.038 391.673 121.507C391.018 120.966 390.16 120.696 389.098 120.696C388.396 120.696 387.775 120.819 387.235 121.066C386.703 121.312 386.286 121.654 385.983 122.09C385.689 122.516 385.542 123.014 385.542 123.583C385.542 124.437 385.869 125.134 386.523 125.674C387.187 126.205 388.045 126.471 389.098 126.471ZM391.303 121.208L390.335 119.302L397.533 119.06L397.505 121.279L391.303 121.208ZM400.357 133V119.06H402.974V121.08C403.534 120.169 404.197 119.534 404.965 119.174C405.743 118.804 406.568 118.619 407.441 118.619C407.716 118.619 407.981 118.633 408.237 118.662C408.493 118.69 408.744 118.728 408.991 118.775L408.607 121.492C408.341 121.416 408.071 121.36 407.796 121.322C407.521 121.274 407.251 121.25 406.985 121.25C405.819 121.25 404.856 121.616 404.098 122.346C403.349 123.066 402.974 124.034 402.974 125.248V133H400.357ZM417.743 133.427C416.263 133.427 414.959 133.119 413.831 132.502C412.702 131.886 411.821 131.028 411.185 129.927C410.55 128.818 410.232 127.528 410.232 126.058C410.232 124.996 410.412 124.01 410.773 123.1C411.143 122.189 411.655 121.402 412.309 120.738C412.973 120.075 413.746 119.558 414.628 119.188C415.519 118.818 416.486 118.633 417.529 118.633C418.658 118.633 419.663 118.832 420.545 119.231C421.436 119.629 422.171 120.188 422.75 120.909C423.338 121.62 423.76 122.46 424.016 123.427C424.272 124.385 424.324 125.428 424.172 126.556H412.821C412.793 127.486 412.982 128.301 413.39 129.003C413.798 129.695 414.386 130.236 415.154 130.624C415.931 131.013 416.851 131.208 417.913 131.208C418.691 131.208 419.45 131.084 420.189 130.838C420.929 130.591 421.583 130.226 422.152 129.743L423.262 131.691C422.807 132.061 422.266 132.379 421.64 132.644C421.024 132.9 420.379 133.095 419.706 133.228C419.032 133.36 418.378 133.427 417.743 133.427ZM412.963 124.522H421.555C421.517 123.346 421.152 122.431 420.46 121.777C419.767 121.113 418.776 120.781 417.487 120.781C416.235 120.781 415.201 121.113 414.386 121.777C413.57 122.431 413.096 123.346 412.963 124.522ZM434.298 133.427C432.961 133.427 431.657 133.242 430.386 132.872C429.116 132.493 428.044 131.952 427.172 131.25L428.509 129.159C429.002 129.567 429.561 129.913 430.187 130.198C430.813 130.482 431.477 130.7 432.179 130.852C432.88 131.004 433.592 131.08 434.312 131.08C435.725 131.08 436.859 130.805 437.712 130.255C438.575 129.705 439.007 128.899 439.007 127.836C439.007 127.059 438.717 126.4 438.139 125.859C437.57 125.319 436.503 124.826 434.938 124.38L432.776 123.74C430.955 123.209 429.623 122.512 428.779 121.649C427.935 120.786 427.513 119.705 427.513 118.406C427.513 117.533 427.688 116.746 428.039 116.044C428.39 115.343 428.883 114.74 429.519 114.238C430.154 113.726 430.903 113.337 431.766 113.071C432.639 112.796 433.592 112.659 434.625 112.659C435.906 112.659 437.096 112.848 438.196 113.228C439.305 113.598 440.22 114.096 440.941 114.721L439.561 116.727C439.135 116.367 438.646 116.059 438.096 115.802C437.546 115.537 436.958 115.338 436.332 115.205C435.706 115.063 435.071 114.992 434.426 114.992C433.563 114.992 432.8 115.12 432.136 115.376C431.482 115.622 430.97 115.992 430.6 116.485C430.239 116.969 430.059 117.557 430.059 118.249C430.059 118.752 430.178 119.193 430.415 119.572C430.652 119.942 431.064 120.283 431.652 120.596C432.24 120.909 433.051 121.217 434.085 121.521L436.389 122.204C438.163 122.725 439.466 123.413 440.301 124.266C441.135 125.11 441.553 126.22 441.553 127.595C441.553 128.752 441.268 129.771 440.699 130.653C440.14 131.525 439.319 132.208 438.238 132.701C437.157 133.185 435.844 133.427 434.298 133.427ZM462.919 133.967L460.87 131.592C460.026 132.161 459.092 132.611 458.068 132.943C457.053 133.266 455.982 133.427 454.853 133.427C453.393 133.427 452.032 133.166 450.771 132.644C449.51 132.123 448.41 131.393 447.471 130.454C446.532 129.515 445.797 128.415 445.266 127.154C444.744 125.892 444.484 124.522 444.484 123.043C444.484 121.563 444.744 120.193 445.266 118.932C445.797 117.671 446.532 116.571 447.471 115.632C448.41 114.693 449.514 113.963 450.785 113.441C452.056 112.92 453.431 112.659 454.91 112.659C456.371 112.659 457.731 112.924 458.993 113.455C460.254 113.977 461.359 114.712 462.307 115.66C463.265 116.599 464.009 117.694 464.54 118.946C465.071 120.198 465.337 121.554 465.337 123.014C465.337 124.427 465.086 125.75 464.583 126.983C464.08 128.216 463.388 129.297 462.506 130.226L464.512 132.545L462.919 133.967ZM454.91 131.037C455.726 131.037 456.503 130.923 457.243 130.696C457.983 130.468 458.661 130.136 459.277 129.7L456.105 126.058L457.641 124.693L460.828 128.334C461.406 127.661 461.861 126.879 462.193 125.987C462.525 125.096 462.691 124.114 462.691 123.043C462.691 121.44 462.34 120.046 461.639 118.861C460.946 117.666 460.012 116.741 458.836 116.087C457.66 115.433 456.352 115.105 454.91 115.105C453.829 115.105 452.819 115.295 451.88 115.674C450.942 116.044 450.121 116.58 449.42 117.282C448.718 117.974 448.168 118.809 447.77 119.785C447.381 120.753 447.186 121.838 447.186 123.043C447.186 124.636 447.528 126.035 448.21 127.239C448.903 128.434 449.832 129.368 450.999 130.041C452.165 130.705 453.469 131.037 454.91 131.037ZM469.447 133V113.086H472.122V130.539H481.026V133H469.447Z" fill="#444B50"/>
</g>
<g filter="url(#filter4_d_3116_35542)">
<rect x="276.5" y="218.325" width="210.328" height="96" rx="47" fill="#D45749"/>
<rect x="277" y="218.825" width="209.328" height="95" rx="46.5" stroke="black" stroke-opacity="0.04"/>
<g clip-path="url(#clip0_3116_35542)">
<path d="M308.501 258.275H340.701V250.225H308.501V258.275Z" fill="white"/>
<path d="M332.651 255.592V282.426H340.701V255.592H332.651Z" fill="white"/>
<path d="M340.701 262.3H320.576V270.35H340.701V262.3Z" fill="white"/>
<path d="M340.701 274.375H308.5V282.426H340.701V274.375Z" fill="white"/>
<path d="M358.619 258.275V282.425H366.669V258.275H358.619Z" fill="white"/>
<path d="M378.744 250.225H346.543V258.275H378.744V250.225Z" fill="white"/>
<path d="M384.585 258.275H416.786V250.225H384.585V258.275Z" fill="white"/>
<path d="M408.736 255.592V282.426H416.786V255.592H408.736Z" fill="white"/>
<path d="M416.786 274.375H384.585V282.425H416.786V274.375Z" fill="white"/>
<path d="M384.585 255.592V282.426H392.635V255.592H384.585Z" fill="white"/>
<path d="M422.628 258.275H454.829V250.225H422.628V258.275Z" fill="white"/>
<path d="M454.829 274.375H422.628V282.425H454.829V274.375Z" fill="white"/>
<path d="M422.628 255.592V282.426H430.678V255.592H422.628Z" fill="white"/>
</g>
</g>
<g filter="url(#filter5_d_3116_35542)">
<rect x="556" y="177" width="185.999" height="80" rx="40" fill="white"/>
<rect x="556.5" y="177.5" width="184.999" height="79" rx="39.5" stroke="black" stroke-opacity="0.04"/>
<path d="M581.906 201.002C581.144 200.99 580.48 201.283 580.137 202.139C579.55 203.581 581.008 204.999 581.509 205.731C581.879 206.241 582.358 206.818 582.618 207.394C582.77 207.771 582.814 208.171 582.967 208.569C583.315 209.545 583.641 210.631 584.099 211.541C584.337 212.007 584.598 212.495 584.903 212.914C585.078 213.16 585.382 213.269 585.448 213.669C585.144 214.112 585.12 214.777 584.946 215.333C584.163 217.838 584.467 220.942 585.578 222.782C585.925 223.336 586.753 224.556 587.864 224.09C588.843 223.691 588.625 222.427 588.908 221.319C588.973 221.052 588.93 220.876 589.06 220.699V220.743C589.365 221.363 589.67 221.96 589.953 222.584C590.629 223.669 591.803 224.799 592.783 225.552C593.303 225.953 593.717 226.639 594.37 226.884V226.817H594.327C594.196 226.618 594.001 226.529 593.827 226.374C593.435 225.975 593.001 225.487 592.695 225.044C591.782 223.803 590.975 222.428 590.259 221.009C589.91 220.32 589.606 219.567 589.322 218.88C589.192 218.615 589.192 218.215 588.974 218.082C588.647 218.57 588.169 218.991 587.93 219.588C587.516 220.542 587.473 221.717 587.319 222.936C587.233 222.959 587.277 222.936 587.233 222.981C586.537 222.803 586.298 222.072 586.036 221.453C585.383 219.876 585.274 217.349 585.84 215.531C585.992 215.067 586.647 213.604 586.385 213.159C586.253 212.736 585.818 212.495 585.579 212.161C585.297 211.74 584.99 211.208 584.797 210.742C584.274 209.501 584.011 208.126 583.447 206.885C583.186 206.307 582.728 205.709 582.359 205.178C581.945 204.579 581.488 204.158 581.161 203.449C581.053 203.204 580.901 202.805 581.074 202.539C581.117 202.362 581.205 202.295 581.38 202.251C581.661 202.007 582.467 202.316 582.75 202.45C583.555 202.781 584.23 203.093 584.903 203.557C585.208 203.78 585.535 204.201 585.926 204.313H586.384C587.08 204.467 587.865 204.356 588.518 204.556C589.67 204.933 590.715 205.487 591.651 206.085C594.501 207.926 596.852 210.543 598.44 213.668C598.701 214.177 598.811 214.643 599.05 215.174C599.507 216.263 600.074 217.371 600.531 218.434C600.987 219.476 601.423 220.54 602.077 221.405C602.402 221.87 603.708 222.114 604.296 222.358C604.73 222.557 605.406 222.734 605.798 222.978C606.538 223.443 607.276 223.976 607.973 224.486C608.32 224.753 609.408 225.306 609.474 225.75C607.733 225.706 606.384 225.883 605.252 226.372C604.926 226.504 604.404 226.504 604.36 226.926C604.535 227.103 604.556 227.391 604.709 227.636C604.97 228.079 605.426 228.677 605.841 228.988C606.298 229.343 606.755 229.697 607.234 230.007C608.082 230.541 609.04 230.85 609.866 231.382C610.346 231.692 610.823 232.091 611.303 232.424C611.542 232.602 611.693 232.89 611.999 233V232.932C611.845 232.734 611.803 232.446 611.651 232.223C611.434 232.003 611.216 231.802 610.998 231.581C610.366 230.716 609.582 229.963 608.735 229.342C608.038 228.853 606.514 228.188 606.232 227.37C606.232 227.37 606.209 227.347 606.188 227.325C606.667 227.28 607.234 227.102 607.691 226.968C608.43 226.769 609.105 226.814 609.866 226.615C610.215 226.525 610.563 226.414 610.913 226.305V226.104C610.519 225.706 610.238 225.173 609.825 224.797C608.716 223.822 607.496 222.869 606.233 222.069C605.558 221.626 604.687 221.339 603.969 220.961C603.709 220.828 603.274 220.762 603.121 220.539C602.729 220.052 602.51 219.41 602.228 218.832C601.598 217.614 600.987 216.262 600.444 214.974C600.052 214.11 599.813 213.246 599.334 212.447C597.091 208.677 594.655 206.395 590.912 204.155C590.106 203.689 589.149 203.49 588.127 203.246C587.582 203.223 587.039 203.18 586.494 203.158C586.146 203.002 585.797 202.58 585.492 202.381C584.717 201.882 583.176 201.02 581.908 201L581.906 201.002ZM587.275 206.482C586.906 206.482 586.645 206.528 586.382 206.594V206.638H586.425C586.6 206.992 586.906 207.238 587.121 207.548C587.297 207.903 587.449 208.256 587.623 208.611C587.644 208.589 587.665 208.566 587.665 208.566C587.972 208.346 588.124 207.991 588.124 207.459C587.993 207.302 587.972 207.148 587.863 206.992C587.732 206.771 587.449 206.66 587.275 206.482Z" fill="#444B50"/>
<path d="M622.673 227V207.086H625.276L633.583 220.528H632.559L640.582 207.086H643.114V227H640.496L640.525 210.727L641.051 210.898L633.939 222.519H631.876L624.679 210.898L625.091 210.727L625.12 227H622.673ZM648.952 233.387C648.497 233.387 648.047 233.33 647.601 233.216C647.155 233.112 646.705 232.922 646.25 232.647L646.861 230.385C647.155 230.575 647.473 230.717 647.814 230.812C648.156 230.907 648.459 230.954 648.725 230.954C649.426 230.954 649.972 230.784 650.361 230.442C650.749 230.101 651.062 229.579 651.299 228.878L651.854 227.284L646.335 213.06H649.208L653.333 224.297L657.359 213.06H660.133L654.03 229.219C653.613 230.319 653.149 231.168 652.636 231.765C652.134 232.372 651.579 232.794 650.972 233.031C650.365 233.268 649.692 233.387 648.952 233.387ZM669.482 227.427C668.145 227.427 666.841 227.242 665.57 226.872C664.299 226.493 663.228 225.952 662.355 225.25L663.693 223.159C664.186 223.567 664.745 223.913 665.371 224.198C665.997 224.482 666.661 224.7 667.362 224.852C668.064 225.004 668.775 225.08 669.496 225.08C670.909 225.08 672.042 224.805 672.896 224.255C673.759 223.705 674.19 222.899 674.19 221.836C674.19 221.059 673.901 220.4 673.323 219.859C672.754 219.319 671.687 218.826 670.122 218.38L667.96 217.74C666.139 217.209 664.807 216.512 663.963 215.649C663.119 214.786 662.697 213.705 662.697 212.406C662.697 211.533 662.872 210.746 663.223 210.044C663.574 209.343 664.067 208.74 664.702 208.238C665.338 207.726 666.087 207.337 666.95 207.071C667.822 206.796 668.775 206.659 669.809 206.659C671.089 206.659 672.279 206.848 673.379 207.228C674.489 207.598 675.404 208.096 676.125 208.721L674.745 210.727C674.318 210.367 673.83 210.059 673.28 209.802C672.73 209.537 672.142 209.338 671.516 209.205C670.89 209.063 670.255 208.992 669.61 208.992C668.747 208.992 667.984 209.12 667.32 209.376C666.665 209.622 666.153 209.992 665.784 210.485C665.423 210.969 665.243 211.557 665.243 212.249C665.243 212.752 665.362 213.193 665.599 213.572C665.836 213.942 666.248 214.283 666.836 214.596C667.424 214.909 668.235 215.217 669.269 215.521L671.573 216.204C673.346 216.725 674.65 217.413 675.485 218.266C676.319 219.11 676.736 220.22 676.736 221.595C676.736 222.752 676.452 223.771 675.883 224.653C675.324 225.525 674.503 226.208 673.422 226.701C672.341 227.185 671.028 227.427 669.482 227.427ZM698.103 227.967L696.054 225.592C695.21 226.161 694.276 226.611 693.252 226.943C692.237 227.266 691.166 227.427 690.037 227.427C688.577 227.427 687.216 227.166 685.955 226.644C684.693 226.123 683.593 225.393 682.655 224.454C681.716 223.515 680.981 222.415 680.45 221.154C679.928 219.892 679.667 218.522 679.667 217.043C679.667 215.563 679.928 214.193 680.45 212.932C680.981 211.671 681.716 210.571 682.655 209.632C683.593 208.693 684.698 207.963 685.969 207.441C687.24 206.92 688.615 206.659 690.094 206.659C691.554 206.659 692.915 206.924 694.177 207.455C695.438 207.977 696.543 208.712 697.491 209.66C698.449 210.599 699.193 211.694 699.724 212.946C700.255 214.198 700.521 215.554 700.521 217.014C700.521 218.427 700.269 219.75 699.767 220.983C699.264 222.216 698.572 223.297 697.69 224.226L699.696 226.545L698.103 227.967ZM690.094 225.037C690.91 225.037 691.687 224.923 692.427 224.696C693.167 224.468 693.845 224.136 694.461 223.7L691.289 220.058L692.825 218.693L696.011 222.334C696.59 221.661 697.045 220.879 697.377 219.987C697.709 219.096 697.875 218.114 697.875 217.043C697.875 215.44 697.524 214.046 696.822 212.861C696.13 211.666 695.196 210.741 694.02 210.087C692.844 209.433 691.535 209.105 690.094 209.105C689.013 209.105 688.003 209.295 687.064 209.674C686.125 210.044 685.305 210.58 684.603 211.282C683.902 211.974 683.352 212.809 682.953 213.785C682.564 214.753 682.37 215.838 682.37 217.043C682.37 218.636 682.711 220.035 683.394 221.239C684.087 222.434 685.016 223.368 686.182 224.041C687.349 224.705 688.653 225.037 690.094 225.037ZM704.631 227V207.086H707.305V224.539H716.21V227H704.631Z" fill="#444B50"/>
</g>
<g filter="url(#filter6_d_3116_35542)">
<rect x="246" y="383" width="289.999" height="80" rx="40" fill="white"/>
<rect x="246.5" y="383.5" width="288.999" height="79" rx="39.5" stroke="black" stroke-opacity="0.04"/>
<path d="M290.203 421.939L283.189 424.031L277.087 426.492L275.38 426.904C274.945 427.282 274.489 427.664 273.996 428.052C273.455 428.478 272.952 428.866 272.565 429.146C272.135 429.456 271.499 430.038 271.176 430.406C270.693 430.958 270.312 431.544 270.147 431.995C269.856 432.808 269.999 433.632 270.561 434.392C271.282 435.361 272.719 436.349 274.394 437.022C275.247 437.366 276.684 437.807 277.766 438.054C279.563 438.471 283.041 438.921 284.954 438.989C285.341 439.004 285.861 439.004 285.882 438.989C285.925 438.965 286.221 438.447 286.566 437.802C287.743 435.608 288.591 433.549 289.052 431.791C289.328 430.726 289.545 429.306 289.689 427.626C289.726 427.156 289.742 425.581 289.71 425.049C289.662 424.177 289.577 423.47 289.445 422.777C289.423 422.675 289.418 422.583 289.429 422.578C289.45 422.564 289.514 422.544 290.378 422.317L290.203 421.939V421.939H290.203V421.939ZM288.602 422.796C288.665 422.796 288.835 424.283 288.877 425.223C288.888 425.422 288.883 425.552 288.872 425.552C288.83 425.552 287.976 425.092 287.367 424.743C286.836 424.438 285.829 423.828 285.67 423.712C285.617 423.678 285.622 423.673 286.057 423.537C286.794 423.31 288.544 422.796 288.602 422.796ZM285.029 423.871C285.076 423.871 285.198 423.934 285.49 424.099C286.582 424.724 288.066 425.48 288.703 425.732C288.899 425.809 288.92 425.78 288.469 426.061C287.504 426.662 286.301 427.252 284.827 427.848C284.567 427.955 284.35 428.037 284.345 428.037C284.334 428.037 284.366 427.916 284.408 427.771C284.763 426.565 284.965 425.344 284.976 424.366C284.981 423.881 284.981 423.881 285.029 423.867C285.018 423.871 285.023 423.871 285.029 423.871ZM284.292 424.128C284.323 424.157 284.302 425.242 284.26 425.538C284.164 426.245 284.016 426.904 283.772 427.645C283.714 427.824 283.661 427.974 283.65 427.984C283.629 428.008 282.903 427.359 282.664 427.107C282.251 426.671 281.927 426.235 281.689 425.809C281.567 425.591 281.376 425.165 281.392 425.15C281.477 425.097 284.271 424.109 284.292 424.128ZM280.825 425.373C280.83 425.373 280.835 425.373 280.84 425.378C280.851 425.388 280.888 425.465 280.92 425.552C281.09 425.974 281.471 426.594 281.8 426.991C282.161 427.427 282.632 427.892 283.025 428.197C283.152 428.294 283.268 428.386 283.284 428.4C283.316 428.43 283.327 428.425 282.463 428.725C281.461 429.074 280.369 429.422 279.117 429.791C278.819 429.879 278.52 429.967 278.222 430.057C278.174 430.072 278.19 430.047 278.328 429.849C278.948 428.962 279.891 427.223 280.422 425.993C280.512 425.78 280.602 425.567 280.618 425.518C280.639 425.45 280.665 425.426 280.734 425.392C280.771 425.383 280.809 425.373 280.825 425.373ZM279.764 425.775C279.78 425.785 279.51 426.303 279.245 426.778C278.73 427.693 278.168 428.594 277.416 429.689C277.288 429.878 277.167 430.052 277.151 430.072C277.124 430.106 277.113 430.096 277.029 429.946C276.848 429.621 276.7 429.204 276.62 428.822C276.541 428.444 276.557 427.785 276.647 427.378C276.716 427.078 276.711 427.083 276.87 427.01C277.548 426.695 279.743 425.756 279.764 425.775ZM288.909 426.114V426.318C288.909 427.398 288.782 428.88 288.596 429.96C288.565 430.149 288.538 430.304 288.533 430.309C288.533 430.309 288.379 430.27 288.199 430.222C287.404 429.994 286.54 429.66 285.76 429.268C285.246 429.011 284.498 428.589 284.52 428.57C284.525 428.565 284.748 428.459 285.007 428.333C286.047 427.839 287.043 427.306 287.907 426.778C288.231 426.579 288.718 426.26 288.825 426.172L288.909 426.114ZM275.762 427.548C275.783 427.548 275.777 427.587 275.746 427.761C275.724 427.887 275.698 428.119 275.687 428.279C275.645 428.986 275.772 429.51 276.154 430.227C276.26 430.425 276.345 430.59 276.339 430.595C276.302 430.624 272.793 431.563 271.69 431.84C271.361 431.922 271.075 431.995 271.054 431.999C271.017 432.009 271.011 432.004 271.027 431.922C271.149 431.21 271.743 430.28 272.57 429.495C273.121 428.972 273.561 428.667 274.314 428.274C274.855 427.994 275.687 427.572 275.751 427.553C275.751 427.548 275.756 427.548 275.762 427.548ZM284.032 428.899C284.037 428.894 284.164 428.957 284.318 429.04C285.453 429.64 287.033 430.198 288.379 430.483L288.501 430.508L288.331 430.595C287.626 430.953 285.31 431.835 282.94 432.644C282.595 432.76 282.256 432.876 282.192 432.9C282.129 432.924 282.07 432.939 282.07 432.934C282.07 432.929 282.166 432.76 282.288 432.552C282.95 431.418 283.618 430.038 283.958 429.079C284 428.987 284.027 428.904 284.032 428.899ZM283.189 429.151C283.194 429.156 283.152 429.258 283.099 429.374C282.638 430.396 282.033 431.51 281.259 432.76C281.063 433.08 280.899 433.336 280.893 433.336C280.888 433.336 280.729 433.249 280.538 433.143C279.414 432.513 278.418 431.738 277.766 430.987L277.67 430.88L278.153 430.759C279.881 430.328 281.349 429.863 282.807 429.292C283.014 429.214 283.184 429.151 283.189 429.151ZM288.427 430.822C288.432 430.934 288.162 431.932 287.939 432.653C287.754 433.259 287.594 433.733 287.303 434.571C287.176 434.94 287.064 435.245 287.059 435.245C287.054 435.245 287.022 435.24 286.99 435.23C285.416 434.969 284.005 434.605 282.68 434.121C282.309 433.985 281.779 433.767 281.747 433.743C281.736 433.733 282.055 433.598 282.457 433.438C284.87 432.474 287.372 431.379 288.231 430.91C288.331 430.851 288.411 430.822 288.427 430.822ZM276.334 431.2C276.345 431.21 275.671 432.096 274.728 433.302C274.399 433.724 274.017 434.218 273.874 434.402C273.731 434.586 273.514 434.877 273.392 435.051L273.169 435.366L272.931 435.182C272.65 434.969 272.162 434.513 271.944 434.261C271.489 433.743 271.181 433.196 271.059 432.697C271.001 432.464 271.001 432.348 271.054 432.334C271.133 432.314 272.549 432.009 273.874 431.728C274.611 431.573 275.465 431.389 275.772 431.321C276.08 431.253 276.329 431.2 276.334 431.2ZM277.013 431.438L277.182 431.612C277.946 432.392 278.725 432.968 279.669 433.472C279.839 433.559 279.966 433.637 279.955 433.642C279.918 433.666 276.679 434.717 275.178 435.191C274.336 435.463 273.641 435.681 273.636 435.681C273.63 435.681 273.583 435.652 273.53 435.618L273.434 435.555L273.588 435.351C274.086 434.693 274.712 433.971 276.074 432.469L277.013 431.438ZM281.243 434.203C281.249 434.199 281.482 434.276 281.768 434.373C282.457 434.61 283.003 434.76 283.735 434.93C284.636 435.138 285.94 435.342 286.709 435.4C286.826 435.409 286.889 435.419 286.868 435.434C286.831 435.453 286.052 435.69 285.479 435.855C284.567 436.117 281.784 436.867 279.515 437.463C279.096 437.575 278.736 437.667 278.715 437.672C278.662 437.681 278.487 437.638 278.487 437.618C278.487 437.609 278.614 437.458 278.768 437.294C279.531 436.461 280.289 435.531 280.92 434.649C281.095 434.407 281.243 434.208 281.243 434.203ZM280.31 434.228C280.316 434.232 279.939 434.785 279.282 435.734C279.001 436.136 278.688 436.591 278.577 436.751C278.471 436.906 278.312 437.148 278.222 437.284L278.068 437.531L277.988 437.512C277.797 437.463 276.456 437.032 276.101 436.901C275.661 436.741 275.205 436.548 274.866 436.383C274.442 436.175 273.911 435.865 273.954 435.855C273.964 435.85 274.691 435.671 275.565 435.453C277.887 434.877 279.176 434.542 280.019 434.3C280.172 434.257 280.305 434.223 280.31 434.228ZM286.911 435.642H286.916C286.937 435.69 286.078 437.87 285.765 438.558C285.697 438.713 285.67 438.752 285.633 438.747C285.543 438.742 284.297 438.582 283.539 438.48C282.219 438.296 280.003 437.943 279.446 437.827L279.319 437.802L280.109 437.638C281.805 437.289 282.622 437.1 283.449 436.867C284.493 436.577 285.527 436.213 286.571 435.768C286.736 435.7 286.874 435.647 286.911 435.642Z" fill="#C3C5C7"/>
<path d="M282.972 407C282.855 406.986 280.973 407.606 279.759 408.056C278.121 408.667 276.849 409.248 276.064 409.752C275.772 409.941 275.406 410.275 275.348 410.405C275.327 410.454 275.316 410.512 275.316 410.57L276.027 411.185L277.718 411.679L281.742 412.338L286.343 413.06L286.391 412.697C286.375 412.697 286.365 412.692 286.349 412.692L285.744 412.605L285.623 412.406C284.997 411.398 284.308 410.149 283.905 409.306C283.592 408.652 283.295 407.896 283.131 407.354C283.041 407.025 283.03 407.005 282.972 407V407H282.972V407ZM282.887 407.247H282.892C282.898 407.252 282.919 407.388 282.94 407.548C283.03 408.226 283.194 408.88 283.454 409.587C283.65 410.12 283.65 410.091 283.422 410.028C282.882 409.892 280.459 409.509 278.704 409.287C278.423 409.253 278.185 409.219 278.185 409.214C278.163 409.195 279.452 408.579 280.019 408.337C280.745 408.032 282.738 407.272 282.887 407.247ZM277.776 409.417L277.983 409.48C279.107 409.829 281.933 410.323 283.491 410.439C283.666 410.454 283.815 410.469 283.82 410.469C283.825 410.473 283.677 410.546 283.486 410.628C282.733 410.972 281.906 411.394 281.334 411.718C281.164 411.815 281.01 411.893 280.989 411.893C280.968 411.893 280.856 411.873 280.74 411.859L280.528 411.83L279.998 411.355C279.065 410.527 278.333 409.887 278.052 409.645L277.776 409.417ZM277.564 409.567L278.312 410.42C278.72 410.89 279.133 411.35 279.224 411.452C279.314 411.553 279.388 411.636 279.383 411.641C279.361 411.655 278.301 411.466 277.739 411.35C277.161 411.229 276.923 411.171 276.568 411.069L276.276 410.982V410.914C276.281 410.59 276.732 410.105 277.495 409.611L277.564 409.567ZM283.915 410.73C283.937 410.73 283.963 410.774 284.027 410.904C284.207 411.268 284.769 412.246 284.907 412.435C284.949 412.498 285.023 412.503 284.276 412.391C282.479 412.125 281.901 412.038 281.901 412.028C281.901 412.023 281.954 411.989 282.023 411.956C282.579 411.675 283.141 411.316 283.64 410.933C283.762 410.841 283.873 410.754 283.894 410.74C283.899 410.73 283.91 410.725 283.915 410.73Z" fill="#C3C5C7"/>
<path d="M275.385 410.338C275.385 410.338 275.269 410.507 275.38 410.759C275.449 410.914 275.65 411.103 275.878 411.297C275.878 411.297 278.237 413.399 278.524 413.7C279.828 415.075 280.395 416.431 280.448 418.301C280.48 419.502 280.231 420.558 279.611 421.784C278.508 423.983 276.18 426.41 272.591 429.103L273.116 428.943C273.456 428.711 273.917 428.464 274.998 427.921C277.495 426.671 280.305 425.523 283.751 424.341C288.713 422.636 296.872 420.641 301.516 419.992L301.999 419.924L301.924 419.817C301.5 419.217 301.209 418.844 300.859 418.446C299.841 417.294 298.606 416.359 297.095 415.584C295.017 414.523 292.329 413.695 288.925 413.08C288.284 412.963 286.874 412.74 285.728 412.581C283.3 412.237 281.731 411.999 280.003 411.728C279.383 411.631 278.455 411.486 277.84 411.365C277.522 411.302 276.912 411.171 276.435 411.021C276.053 410.885 275.502 410.75 275.385 410.338ZM276.753 411.549C276.758 411.544 276.843 411.573 276.955 411.607C277.156 411.67 277.416 411.743 277.723 411.82C277.956 411.879 278.189 411.935 278.423 411.99C278.741 412.062 279.006 412.13 279.011 412.13C279.049 412.164 279.584 413.728 279.764 414.329C279.833 414.557 279.886 414.751 279.881 414.751C279.876 414.755 279.817 414.673 279.748 414.562C279.128 413.564 278.147 412.552 277.013 411.738C276.864 411.641 276.753 411.554 276.753 411.549ZM279.361 412.208C279.388 412.208 279.505 412.222 279.648 412.251C280.549 412.435 282.166 412.716 283.2 412.876C283.375 412.9 283.512 412.929 283.512 412.939C283.512 412.949 283.449 412.983 283.369 413.021C283.194 413.104 282.489 413.486 282.256 413.632C281.668 413.99 281.137 414.378 280.756 414.726C280.602 414.867 280.469 414.983 280.469 414.983C280.469 414.983 280.438 414.901 280.411 414.799C280.22 414.126 279.823 413.128 279.462 412.426C279.404 412.314 279.356 412.212 279.356 412.203C279.356 412.212 279.356 412.208 279.361 412.208ZM283.952 413.007C283.984 413.017 284.037 413.181 284.143 413.545C284.339 414.247 284.43 415.032 284.398 415.763C284.387 415.966 284.377 416.155 284.366 416.18L284.35 416.228L284.074 416.146C283.507 415.981 282.585 415.734 281.795 415.531C281.344 415.419 280.978 415.317 280.978 415.308C280.978 415.279 281.636 414.678 281.917 414.45C282.452 414.019 283.905 412.992 283.952 413.007ZM284.318 413.055C284.334 413.041 286.513 413.385 287.504 413.559C288.241 413.69 289.312 413.893 289.376 413.918C289.408 413.927 289.296 413.985 288.941 414.131C287.542 414.707 286.502 415.225 285.469 415.855C285.198 416.02 284.97 416.155 284.965 416.155C284.96 416.155 284.955 416.015 284.955 415.845C284.955 414.925 284.753 413.995 284.382 413.21C284.345 413.133 284.313 413.06 284.318 413.055ZM289.954 414.073C289.97 414.087 289.901 414.479 289.837 414.712C289.646 415.434 289.132 416.504 288.501 417.512C288.39 417.691 288.289 417.836 288.278 417.841C288.268 417.846 288.125 417.773 287.96 417.686C287.345 417.357 286.646 417.047 285.882 416.756C285.67 416.674 285.485 416.606 285.479 416.596C285.442 416.567 287.149 415.535 288.051 415.041C288.766 414.644 289.933 414.053 289.954 414.073ZM290.357 414.131C290.404 414.131 291.369 414.373 291.873 414.508C293.119 414.848 294.55 415.327 295.483 415.715L295.87 415.874L295.6 415.933C293.32 416.412 291.369 416.964 289.487 417.662C289.333 417.72 289.196 417.768 289.185 417.768C289.174 417.768 289.227 417.657 289.296 417.521C289.864 416.422 290.229 415.274 290.319 414.295C290.325 414.203 290.341 414.131 290.357 414.131ZM280.75 416.146C280.766 416.131 281.503 416.291 281.901 416.393C282.505 416.548 283.788 416.94 283.788 416.969C283.788 416.974 283.645 417.085 283.475 417.221C282.781 417.749 282.113 418.306 281.312 419.013C281.074 419.222 280.872 419.391 280.862 419.391C280.851 419.391 280.846 419.362 280.851 419.323C280.973 418.509 280.947 417.463 280.777 416.402C280.761 416.267 280.745 416.151 280.75 416.146ZM296.236 416.16C296.247 416.17 295.897 416.674 295.674 416.959C295.356 417.376 294.889 417.928 293.834 419.139C293.278 419.779 292.652 420.5 292.445 420.742C292.233 420.985 292.058 421.188 292.053 421.188C292.048 421.188 291.979 421.101 291.905 420.994C291.311 420.181 290.6 419.469 289.758 418.829C289.599 418.708 289.424 418.577 289.365 418.538C289.307 418.5 289.259 418.461 289.259 418.456C289.259 418.442 290.16 418.088 290.844 417.836C292.043 417.391 293.675 416.858 294.9 416.514C295.541 416.33 296.225 416.151 296.236 416.16ZM296.644 416.257C296.665 416.252 296.793 416.31 296.946 416.393C298.235 417.066 299.496 417.933 300.493 418.824C300.774 419.076 301.469 419.735 301.458 419.74C301.458 419.74 301.214 419.759 300.928 419.779C298.696 419.934 295.838 420.365 293.092 420.97C292.907 421.009 292.742 421.043 292.732 421.043C292.721 421.043 292.928 420.854 293.188 420.626C294.799 419.207 295.536 418.311 296.406 416.712C296.528 416.475 296.634 416.272 296.644 416.257C296.639 416.257 296.639 416.257 296.644 416.257ZM284.838 417.362C284.912 417.376 285.601 417.672 286.121 417.909C286.598 418.127 287.314 418.476 287.351 418.505C287.356 418.509 287.102 418.631 286.789 418.771C285.792 419.226 284.939 419.657 284.048 420.151C283.793 420.292 283.581 420.408 283.576 420.408C283.555 420.408 283.56 420.389 283.703 420.151C284.18 419.357 284.562 418.408 284.78 417.483C284.801 417.41 284.822 417.362 284.838 417.362ZM284.149 417.478C284.165 417.492 283.984 418.088 283.873 418.413C283.656 419.028 283.29 419.798 282.935 420.379C282.85 420.515 282.723 420.713 282.654 420.825L282.521 421.018L282.224 420.757C281.88 420.452 281.599 420.263 281.238 420.093C281.095 420.026 280.984 419.967 280.984 419.958C280.984 419.919 281.89 419.168 282.585 418.626C283.083 418.233 284.133 417.463 284.149 417.478ZM288.363 419.062L288.623 419.217C289.217 419.57 289.917 420.04 290.452 420.452C290.754 420.679 291.337 421.159 291.454 421.275L291.518 421.338L291.088 421.45C288.66 422.065 286.783 422.612 284.594 423.348C284.35 423.431 284.143 423.499 284.127 423.499C284.096 423.499 284.069 423.523 284.615 423.063C286.015 421.886 287.255 420.587 288.178 419.323L288.363 419.062ZM287.255 419.314C287.266 419.323 286.54 420.258 286.105 420.786C285.585 421.416 284.663 422.472 284.027 423.159C283.762 423.445 283.534 423.683 283.523 423.687C283.507 423.692 283.502 423.62 283.502 423.508C283.502 422.922 283.338 422.297 283.051 421.764C282.929 421.542 282.908 421.488 282.935 421.464C283.035 421.382 284.578 420.578 285.554 420.098C286.211 419.779 287.239 419.304 287.255 419.314ZM280.554 420.815C280.57 420.815 280.692 420.873 280.83 420.941C281.169 421.111 281.471 421.299 281.742 421.503C281.752 421.513 281.615 421.614 281.434 421.735C280.931 422.065 280.167 422.593 279.722 422.917C279.255 423.256 279.24 423.266 279.292 423.193C279.642 422.704 279.817 422.428 280.003 422.075C280.167 421.76 280.332 421.387 280.448 421.062C280.491 420.922 280.544 420.815 280.554 420.815ZM282.341 422.094C282.367 422.089 282.399 422.133 282.542 422.326C282.844 422.738 283.078 423.29 283.136 423.736L283.147 423.833L282.42 424.09C281.121 424.55 279.923 425.005 279.112 425.344C278.884 425.441 278.487 425.615 278.227 425.732C277.967 425.853 277.755 425.945 277.755 425.94C277.755 425.935 277.919 425.824 278.121 425.688C279.706 424.637 281.079 423.484 282.108 422.331C282.219 422.21 282.32 422.099 282.33 422.094L282.341 422.094ZM281.519 422.278C281.54 422.297 280.936 422.922 280.522 423.305C279.499 424.259 278.487 425.005 277.23 425.732C277.071 425.824 276.928 425.906 276.912 425.916C276.875 425.935 276.923 425.887 277.474 425.339C277.824 424.995 278.089 424.705 278.391 424.346C278.593 424.109 278.63 424.075 278.921 423.886C279.701 423.373 281.498 422.259 281.519 422.278Z" fill="#D45749"/>
<path d="M312.673 433V413.086H315.276L323.583 426.528H322.559L330.582 413.086H333.114V433H330.496L330.525 416.727L331.051 416.898L323.939 428.519H321.876L314.679 416.898L315.091 416.727L315.12 433H312.673ZM344.813 433.427C343.476 433.427 342.172 433.242 340.901 432.872C339.63 432.493 338.559 431.952 337.686 431.25L339.023 429.159C339.517 429.567 340.076 429.913 340.702 430.198C341.328 430.482 341.992 430.7 342.693 430.852C343.395 431.004 344.106 431.08 344.827 431.08C346.24 431.08 347.373 430.805 348.227 430.255C349.09 429.705 349.521 428.899 349.521 427.836C349.521 427.059 349.232 426.4 348.653 425.859C348.084 425.319 347.018 424.826 345.453 424.38L343.291 423.74C341.47 423.209 340.138 422.512 339.294 421.649C338.45 420.786 338.028 419.705 338.028 418.406C338.028 417.533 338.203 416.746 338.554 416.044C338.905 415.343 339.398 414.74 340.033 414.238C340.669 413.726 341.418 413.337 342.281 413.071C343.153 412.796 344.106 412.659 345.14 412.659C346.42 412.659 347.61 412.848 348.71 413.228C349.82 413.598 350.735 414.096 351.456 414.721L350.076 416.727C349.649 416.367 349.161 416.059 348.611 415.802C348.061 415.537 347.473 415.338 346.847 415.205C346.221 415.063 345.586 414.992 344.941 414.992C344.078 414.992 343.314 415.12 342.651 415.376C341.996 415.622 341.484 415.992 341.114 416.485C340.754 416.969 340.574 417.557 340.574 418.249C340.574 418.752 340.692 419.193 340.93 419.572C341.167 419.942 341.579 420.283 342.167 420.596C342.755 420.909 343.566 421.217 344.599 421.521L346.904 422.204C348.677 422.725 349.981 423.413 350.816 424.266C351.65 425.11 352.067 426.22 352.067 427.595C352.067 428.752 351.783 429.771 351.214 430.653C350.654 431.525 349.834 432.208 348.753 432.701C347.672 433.185 346.359 433.427 344.813 433.427ZM369.678 433.427C368.341 433.427 367.037 433.242 365.766 432.872C364.496 432.493 363.424 431.952 362.552 431.25L363.889 429.159C364.382 429.567 364.941 429.913 365.567 430.198C366.193 430.482 366.857 430.7 367.559 430.852C368.26 431.004 368.972 431.08 369.692 431.08C371.105 431.08 372.239 430.805 373.092 430.255C373.955 429.705 374.386 428.899 374.386 427.836C374.386 427.059 374.097 426.4 373.519 425.859C372.95 425.319 371.883 424.826 370.318 424.38L368.156 423.74C366.335 423.209 365.003 422.512 364.159 421.649C363.315 420.786 362.893 419.705 362.893 418.406C362.893 417.533 363.068 416.746 363.419 416.044C363.77 415.343 364.263 414.74 364.899 414.238C365.534 413.726 366.283 413.337 367.146 413.071C368.019 412.796 368.972 412.659 370.005 412.659C371.285 412.659 372.476 412.848 373.576 413.228C374.685 413.598 375.6 414.096 376.321 414.721L374.941 416.727C374.514 416.367 374.026 416.059 373.476 415.802C372.926 415.537 372.338 415.338 371.712 415.205C371.086 415.063 370.451 414.992 369.806 414.992C368.943 414.992 368.18 415.12 367.516 415.376C366.862 415.622 366.35 415.992 365.98 416.485C365.619 416.969 365.439 417.557 365.439 418.249C365.439 418.752 365.558 419.193 365.795 419.572C366.032 419.942 366.444 420.283 367.032 420.596C367.62 420.909 368.431 421.217 369.465 421.521L371.769 422.204C373.542 422.725 374.846 423.413 375.681 424.266C376.515 425.11 376.933 426.22 376.933 427.595C376.933 428.752 376.648 429.771 376.079 430.653C375.52 431.525 374.699 432.208 373.618 432.701C372.537 433.185 371.224 433.427 369.678 433.427ZM398.299 433.967L396.25 431.592C395.406 432.161 394.472 432.611 393.448 432.943C392.433 433.266 391.362 433.427 390.233 433.427C388.773 433.427 387.412 433.166 386.151 432.644C384.89 432.123 383.79 431.393 382.851 430.454C381.912 429.515 381.177 428.415 380.646 427.154C380.124 425.892 379.864 424.522 379.864 423.043C379.864 421.563 380.124 420.193 380.646 418.932C381.177 417.671 381.912 416.571 382.851 415.632C383.79 414.693 384.894 413.963 386.165 413.441C387.436 412.92 388.811 412.659 390.29 412.659C391.751 412.659 393.111 412.924 394.373 413.455C395.634 413.977 396.739 414.712 397.687 415.66C398.645 416.599 399.389 417.694 399.92 418.946C400.451 420.198 400.717 421.554 400.717 423.014C400.717 424.427 400.466 425.75 399.963 426.983C399.46 428.216 398.768 429.297 397.886 430.226L399.892 432.545L398.299 433.967ZM390.29 431.037C391.106 431.037 391.883 430.923 392.623 430.696C393.363 430.468 394.041 430.136 394.657 429.7L391.485 426.058L393.021 424.693L396.208 428.334C396.786 427.661 397.241 426.879 397.573 425.987C397.905 425.096 398.071 424.114 398.071 423.043C398.071 421.44 397.72 420.046 397.018 418.861C396.326 417.666 395.392 416.741 394.216 416.087C393.04 415.433 391.732 415.105 390.29 415.105C389.209 415.105 388.199 415.295 387.26 415.674C386.322 416.044 385.501 416.58 384.8 417.282C384.098 417.974 383.548 418.809 383.149 419.785C382.761 420.753 382.566 421.838 382.566 423.043C382.566 424.636 382.908 426.035 383.59 427.239C384.283 428.434 385.212 429.368 386.378 430.041C387.545 430.705 388.849 431.037 390.29 431.037ZM404.827 433V413.086H407.502V430.539H416.406V433H404.827ZM433.578 433.427C432.241 433.427 430.937 433.242 429.666 432.872C428.395 432.493 427.324 431.952 426.451 431.25L427.788 429.159C428.281 429.567 428.841 429.913 429.467 430.198C430.093 430.482 430.756 430.7 431.458 430.852C432.16 431.004 432.871 431.08 433.592 431.08C435.005 431.08 436.138 430.805 436.992 430.255C437.855 429.705 438.286 428.899 438.286 427.836C438.286 427.059 437.997 426.4 437.418 425.859C436.849 425.319 435.782 424.826 434.218 424.38L432.056 423.74C430.235 423.209 428.903 422.512 428.059 421.649C427.215 420.786 426.793 419.705 426.793 418.406C426.793 417.533 426.968 416.746 427.319 416.044C427.67 415.343 428.163 414.74 428.798 414.238C429.434 413.726 430.183 413.337 431.046 413.071C431.918 412.796 432.871 412.659 433.905 412.659C435.185 412.659 436.375 412.848 437.475 413.228C438.585 413.598 439.5 414.096 440.221 414.721L438.841 416.727C438.414 416.367 437.926 416.059 437.376 415.802C436.826 415.537 436.238 415.338 435.612 415.205C434.986 415.063 434.351 414.992 433.706 414.992C432.843 414.992 432.079 415.12 431.416 415.376C430.761 415.622 430.249 415.992 429.879 416.485C429.519 416.969 429.339 417.557 429.339 418.249C429.339 418.752 429.457 419.193 429.694 419.572C429.931 419.942 430.344 420.283 430.932 420.596C431.52 420.909 432.331 421.217 433.364 421.521L435.669 422.204C437.442 422.725 438.746 423.413 439.58 424.266C440.415 425.11 440.832 426.22 440.832 427.595C440.832 428.752 440.548 429.771 439.979 430.653C439.419 431.525 438.599 432.208 437.518 432.701C436.437 433.185 435.123 433.427 433.578 433.427ZM450.861 433.427C449.382 433.427 448.078 433.119 446.949 432.502C445.821 431.886 444.939 431.028 444.304 429.927C443.668 428.818 443.351 427.528 443.351 426.058C443.351 424.996 443.531 424.01 443.891 423.1C444.261 422.189 444.773 421.402 445.427 420.738C446.091 420.075 446.864 419.558 447.746 419.188C448.637 418.818 449.605 418.633 450.648 418.633C451.776 418.633 452.782 418.832 453.663 419.231C454.555 419.629 455.29 420.188 455.868 420.909C456.456 421.62 456.878 422.46 457.134 423.427C457.39 424.385 457.442 425.428 457.291 426.556H445.94C445.911 427.486 446.101 428.301 446.508 429.003C446.916 429.695 447.504 430.236 448.272 430.624C449.05 431.013 449.97 431.208 451.032 431.208C451.81 431.208 452.568 431.084 453.308 430.838C454.048 430.591 454.702 430.226 455.271 429.743L456.38 431.691C455.925 432.061 455.385 432.379 454.759 432.644C454.142 432.9 453.498 433.095 452.824 433.228C452.151 433.36 451.497 433.427 450.861 433.427ZM446.082 424.522H454.673C454.635 423.346 454.27 422.431 453.578 421.777C452.886 421.113 451.895 420.781 450.605 420.781C449.353 420.781 448.32 421.113 447.504 421.777C446.689 422.431 446.215 423.346 446.082 424.522ZM460.674 433V419.06H463.292V421.08C463.851 420.169 464.515 419.534 465.283 419.174C466.061 418.804 466.886 418.619 467.758 418.619C468.033 418.619 468.299 418.633 468.555 418.662C468.811 418.69 469.062 418.728 469.309 418.775L468.924 421.492C468.659 421.416 468.389 421.36 468.114 421.322C467.839 421.274 467.568 421.25 467.303 421.25C466.136 421.25 465.174 421.616 464.415 422.346C463.666 423.066 463.292 424.034 463.292 425.248V433H460.674ZM475.954 433L470.634 419.06H473.536L477.703 430.767H477.248L481.345 419.06H484.161L478.913 433H475.954ZM493.035 433.427C491.556 433.427 490.252 433.119 489.123 432.502C487.995 431.886 487.113 431.028 486.477 429.927C485.842 428.818 485.524 427.528 485.524 426.058C485.524 424.996 485.705 424.01 486.065 423.1C486.435 422.189 486.947 421.402 487.601 420.738C488.265 420.075 489.038 419.558 489.92 419.188C490.811 418.818 491.778 418.633 492.822 418.633C493.95 418.633 494.955 418.832 495.837 419.231C496.729 419.629 497.464 420.188 498.042 420.909C498.63 421.62 499.052 422.46 499.308 423.427C499.564 424.385 499.616 425.428 499.464 426.556H488.113C488.085 427.486 488.274 428.301 488.682 429.003C489.09 429.695 489.678 430.236 490.446 430.624C491.224 431.013 492.144 431.208 493.206 431.208C493.983 431.208 494.742 431.084 495.482 430.838C496.221 430.591 496.876 430.226 497.445 429.743L498.554 431.691C498.099 432.061 497.558 432.379 496.932 432.644C496.316 432.9 495.671 433.095 494.998 433.228C494.325 433.36 493.67 433.427 493.035 433.427ZM488.255 424.522H496.847C496.809 423.346 496.444 422.431 495.752 421.777C495.06 421.113 494.069 420.781 492.779 420.781C491.527 420.781 490.493 421.113 489.678 421.777C488.862 422.431 488.388 423.346 488.255 424.522ZM502.848 433V419.06H505.465V421.08C506.025 420.169 506.689 419.534 507.457 419.174C508.234 418.804 509.059 418.619 509.932 418.619C510.207 418.619 510.472 418.633 510.728 418.662C510.984 418.69 511.236 418.728 511.482 418.775L511.098 421.492C510.833 421.416 510.562 421.36 510.287 421.322C510.012 421.274 509.742 421.25 509.477 421.25C508.31 421.25 507.348 421.616 506.589 422.346C505.84 423.066 505.465 424.034 505.465 425.248V433H502.848Z" fill="#444B50"/>
</g>
<defs>
<filter id="filter0_d_3116_35542" x="526.2" y="290.2" width="246.599" height="113.6" filterUnits="userSpaceOnUse" color-interpolation-filters="sRGB">
<feFlood flood-opacity="0" result="BackgroundImageFix"/>
<feColorMatrix in="SourceAlpha" type="matrix" values="0 0 0 0 0 0 0 0 0 0 0 0 0 0 0 0 0 0 127 0" result="hardAlpha"/>
<feMorphology radius="17" operator="erode" in="SourceAlpha" result="effect1_dropShadow_3116_35542"/>
<feOffset dy="4"/>
<feGaussianBlur stdDeviation="16.9"/>
<feComposite in2="hardAlpha" operator="out"/>
<feColorMatrix type="matrix" values="0 0 0 0 0 0 0 0 0 0 0 0 0 0 0 0 0 0 0.25 0"/>
<feBlend mode="normal" in2="BackgroundImageFix" result="effect1_dropShadow_3116_35542"/>
<feBlend mode="normal" in="SourceGraphic" in2="effect1_dropShadow_3116_35542" result="shape"/>
</filter>
<filter id="filter1_d_3116_35542" x="44.2" y="164.2" width="192.599" height="113.6" filterUnits="userSpaceOnUse" color-interpolation-filters="sRGB">
<feFlood flood-opacity="0" result="BackgroundImageFix"/>
<feColorMatrix in="SourceAlpha" type="matrix" values="0 0 0 0 0 0 0 0 0 0 0 0 0 0 0 0 0 0 127 0" result="hardAlpha"/>
<feMorphology radius="17" operator="erode" in="SourceAlpha" result="effect1_dropShadow_3116_35542"/>
<feOffset dy="4"/>
<feGaussianBlur stdDeviation="16.9"/>
<feComposite in2="hardAlpha" operator="out"/>
<feColorMatrix type="matrix" values="0 0 0 0 0 0 0 0 0 0 0 0 0 0 0 0 0 0 0.25 0"/>
<feBlend mode="normal" in2="BackgroundImageFix" result="effect1_dropShadow_3116_35542"/>
<feBlend mode="normal" in="SourceGraphic" in2="effect1_dropShadow_3116_35542" result="shape"/>
</filter>
<filter id="filter2_d_3116_35542" x="6.2" y="290.2" width="230.599" height="113.6" filterUnits="userSpaceOnUse" color-interpolation-filters="sRGB">
<feFlood flood-opacity="0" result="BackgroundImageFix"/>
<feColorMatrix in="SourceAlpha" type="matrix" values="0 0 0 0 0 0 0 0 0 0 0 0 0 0 0 0 0 0 127 0" result="hardAlpha"/>
<feMorphology radius="17" operator="erode" in="SourceAlpha" result="effect1_dropShadow_3116_35542"/>
<feOffset dy="4"/>
<feGaussianBlur stdDeviation="16.9"/>
<feComposite in2="hardAlpha" operator="out"/>
<feColorMatrix type="matrix" values="0 0 0 0 0 0 0 0 0 0 0 0 0 0 0 0 0 0 0.25 0"/>
<feBlend mode="normal" in2="BackgroundImageFix" result="effect1_dropShadow_3116_35542"/>
<feBlend mode="normal" in="SourceGraphic" in2="effect1_dropShadow_3116_35542" result="shape"/>
</filter>
<filter id="filter3_d_3116_35542" x="240.2" y="70.2" width="283.599" height="113.6" filterUnits="userSpaceOnUse" color-interpolation-filters="sRGB">
<feFlood flood-opacity="0" result="BackgroundImageFix"/>
<feColorMatrix in="SourceAlpha" type="matrix" values="0 0 0 0 0 0 0 0 0 0 0 0 0 0 0 0 0 0 127 0" result="hardAlpha"/>
<feMorphology radius="17" operator="erode" in="SourceAlpha" result="effect1_dropShadow_3116_35542"/>
<feOffset dy="4"/>
<feGaussianBlur stdDeviation="16.9"/>
<feComposite in2="hardAlpha" operator="out"/>
<feColorMatrix type="matrix" values="0 0 0 0 0 0 0 0 0 0 0 0 0 0 0 0 0 0 0.25 0"/>
<feBlend mode="normal" in2="BackgroundImageFix" result="effect1_dropShadow_3116_35542"/>
<feBlend mode="normal" in="SourceGraphic" in2="effect1_dropShadow_3116_35542" result="shape"/>
</filter>
<filter id="filter4_d_3116_35542" x="259.7" y="205.525" width="243.928" height="129.6" filterUnits="userSpaceOnUse" color-interpolation-filters="sRGB">
<feFlood flood-opacity="0" result="BackgroundImageFix"/>
<feColorMatrix in="SourceAlpha" type="matrix" values="0 0 0 0 0 0 0 0 0 0 0 0 0 0 0 0 0 0 127 0" result="hardAlpha"/>
<feMorphology radius="17" operator="erode" in="SourceAlpha" result="effect1_dropShadow_3116_35542"/>
<feOffset dy="4"/>
<feGaussianBlur stdDeviation="16.9"/>
<feComposite in2="hardAlpha" operator="out"/>
<feColorMatrix type="matrix" values="0 0 0 0 0 0 0 0 0 0 0 0 0 0 0 0 0 0 1 0"/>
<feBlend mode="normal" in2="BackgroundImageFix" result="effect1_dropShadow_3116_35542"/>
<feBlend mode="normal" in="SourceGraphic" in2="effect1_dropShadow_3116_35542" result="shape"/>
</filter>
<filter id="filter5_d_3116_35542" x="539.2" y="164.2" width="219.599" height="113.6" filterUnits="userSpaceOnUse" color-interpolation-filters="sRGB">
<feFlood flood-opacity="0" result="BackgroundImageFix"/>
<feColorMatrix in="SourceAlpha" type="matrix" values="0 0 0 0 0 0 0 0 0 0 0 0 0 0 0 0 0 0 127 0" result="hardAlpha"/>
<feMorphology radius="17" operator="erode" in="SourceAlpha" result="effect1_dropShadow_3116_35542"/>
<feOffset dy="4"/>
<feGaussianBlur stdDeviation="16.9"/>
<feComposite in2="hardAlpha" operator="out"/>
<feColorMatrix type="matrix" values="0 0 0 0 0 0 0 0 0 0 0 0 0 0 0 0 0 0 0.25 0"/>
<feBlend mode="normal" in2="BackgroundImageFix" result="effect1_dropShadow_3116_35542"/>
<feBlend mode="normal" in="SourceGraphic" in2="effect1_dropShadow_3116_35542" result="shape"/>
</filter>
<filter id="filter6_d_3116_35542" x="229.2" y="370.2" width="323.599" height="113.6" filterUnits="userSpaceOnUse" color-interpolation-filters="sRGB">
<feFlood flood-opacity="0" result="BackgroundImageFix"/>
<feColorMatrix in="SourceAlpha" type="matrix" values="0 0 0 0 0 0 0 0 0 0 0 0 0 0 0 0 0 0 127 0" result="hardAlpha"/>
<feMorphology radius="17" operator="erode" in="SourceAlpha" result="effect1_dropShadow_3116_35542"/>
<feOffset dy="4"/>
<feGaussianBlur stdDeviation="16.9"/>
<feComposite in2="hardAlpha" operator="out"/>
<feColorMatrix type="matrix" values="0 0 0 0 0 0 0 0 0 0 0 0 0 0 0 0 0 0 0.25 0"/>
<feBlend mode="normal" in2="BackgroundImageFix" result="effect1_dropShadow_3116_35542"/>
<feBlend mode="normal" in="SourceGraphic" in2="effect1_dropShadow_3116_35542" result="shape"/>
</filter>
<clipPath id="clip0_3116_35542">
<rect width="146.328" height="32" fill="white" transform="translate(308.5 250.325)"/>
</clipPath>
</defs>
</svg>
