<svg width="984" height="586" viewBox="0 0 984 586" fill="none" xmlns="http://www.w3.org/2000/svg">
<g clip-path="url(#clip0_1082_9333)">
<path d="M69.9126 444.642C69.9126 450.763 74.8749 455.725 80.9962 455.725C87.1175 455.725 92.0798 450.763 92.0798 444.642C92.0798 438.521 87.1175 433.558 80.9962 433.558C74.8749 433.558 69.9126 438.521 69.9126 444.642ZM173.398 444.642V446.72H174.234L174.837 446.141L173.398 444.642ZM220 399.892V397.814H219.164L218.561 398.393L220 399.892ZM376.027 368.589C376.027 374.71 380.989 379.672 387.11 379.672C393.232 379.672 398.194 374.71 398.194 368.589C398.194 362.467 393.232 357.505 387.11 357.505C380.989 357.505 376.027 362.467 376.027 368.589ZM253.231 476.343V478.421H253.963L254.534 477.961L253.231 476.343ZM222.499 476.343V474.264H221.766L221.196 474.724L222.499 476.343ZM168.143 511.171C168.143 517.292 173.105 522.254 179.226 522.254C185.348 522.254 190.31 517.292 190.31 511.171C190.31 505.049 185.348 500.087 179.226 500.087C173.105 500.087 168.143 505.049 168.143 511.171ZM271.378 525.955C271.378 532.076 276.341 537.038 282.462 537.038C288.583 537.038 293.545 532.076 293.545 525.955C293.545 519.834 288.583 514.871 282.462 514.871C276.341 514.871 271.378 519.834 271.378 525.955ZM456.647 371.022C456.647 377.143 461.609 382.106 467.73 382.106C473.851 382.106 478.814 377.143 478.814 371.022C478.814 364.901 473.851 359.938 467.73 359.938C461.609 359.938 456.647 364.901 456.647 371.022ZM467.73 538.954H465.652V539.95L466.427 540.573L467.73 538.954ZM497.704 572C497.704 578.121 502.666 583.084 508.788 583.084C514.909 583.084 519.871 578.121 519.871 572C519.871 565.879 514.909 560.916 508.788 560.916C502.666 560.916 497.704 565.879 497.704 572ZM384.287 428.774L383.104 427.065L382.209 427.685V428.774H384.287ZM384.287 485.241H382.209V486.237L382.984 486.86L384.287 485.241ZM415.726 510.545H417.804V509.55L417.029 508.926L415.726 510.545ZM404.642 563.854C404.642 569.975 409.605 574.937 415.726 574.937C421.847 574.937 426.809 569.975 426.809 563.854C426.809 557.732 421.847 552.77 415.726 552.77C409.605 552.77 404.642 557.732 404.642 563.854ZM551.512 371.022C551.512 377.143 556.475 382.106 562.596 382.106C568.717 382.106 573.68 377.143 573.68 371.022C573.68 364.901 568.717 359.938 562.596 359.938C556.475 359.938 551.512 364.901 551.512 371.022ZM562.596 450.771H560.518V451.766L561.293 452.39L562.596 450.771ZM601.63 482.188H603.708V481.193L602.933 480.569L601.63 482.188ZM548.323 524.282C548.323 530.403 553.286 535.365 559.407 535.365C565.528 535.365 570.491 530.403 570.491 524.282C570.491 518.16 565.528 513.198 559.407 513.198C553.286 513.198 548.323 518.16 548.323 524.282ZM641.105 515.705H643.183V514.71L642.408 514.086L641.105 515.705ZM630.021 565.602C630.021 571.723 634.983 576.685 641.105 576.685C647.226 576.685 652.188 571.723 652.188 565.602C652.188 559.48 647.226 554.518 641.105 554.518C634.983 554.518 630.021 559.48 630.021 565.602ZM624.007 368.589C624.007 374.71 628.969 379.672 635.09 379.672C641.211 379.672 646.174 374.71 646.174 368.589C646.174 362.467 641.211 357.505 635.09 357.505C628.969 357.505 624.007 362.467 624.007 368.589ZM724.814 440.804L723.511 442.423L724.082 442.882H724.814V440.804ZM860.68 440.804C860.68 446.925 865.643 451.887 871.764 451.887C877.885 451.887 882.847 446.925 882.847 440.804C882.847 434.682 877.885 429.72 871.764 429.72C865.643 429.72 860.68 434.682 860.68 440.804ZM831.847 467.813H833.925V466.818L833.15 466.194L831.847 467.813ZM820.764 508.541C820.764 514.662 825.726 519.624 831.847 519.624C837.968 519.624 842.931 514.662 842.931 508.541C842.931 502.419 837.968 497.457 831.847 497.457C825.726 497.457 820.764 502.419 820.764 508.541ZM679.952 404.696L681.255 403.077L679.952 404.696ZM679.952 467.813H677.874V468.808L678.649 469.432L679.952 467.813ZM740.357 516.43H742.435V515.435L741.66 514.811L740.357 516.43ZM729.273 554.961C729.273 561.082 734.236 566.045 740.357 566.045C746.478 566.045 751.441 561.082 751.441 554.961C751.441 548.84 746.478 543.877 740.357 543.877C734.236 543.877 729.273 548.84 729.273 554.961ZM624.896 323.258C624.896 329.379 629.858 334.341 635.979 334.341C642.101 334.341 647.063 329.379 647.063 323.258C647.063 317.136 642.101 312.174 635.979 312.174C629.858 312.174 624.896 317.136 624.896 323.258ZM771.272 371.022L769.969 372.641L770.54 373.1H771.272V371.022ZM861.569 371.022C861.569 377.143 866.532 382.106 872.653 382.106C878.774 382.106 883.737 377.143 883.737 371.022C883.737 364.901 878.774 359.938 872.653 359.938C866.532 359.938 861.569 364.901 861.569 371.022ZM876.009 327.522V325.444H875.276L874.706 325.904L876.009 327.522ZM941.916 327.522C941.916 333.644 946.879 338.606 953 338.606C959.121 338.606 964.084 333.644 964.084 327.522C964.084 321.401 959.121 316.439 953 316.439C946.879 316.439 941.916 321.401 941.916 327.522ZM825.324 306.483C825.324 312.605 830.287 317.567 836.408 317.567C842.529 317.567 847.492 312.605 847.492 306.483C847.492 300.362 842.529 295.4 836.408 295.4C830.287 295.4 825.324 300.362 825.324 306.483ZM625.123 273.676C625.123 279.797 630.086 284.759 636.207 284.759C642.328 284.759 647.291 279.797 647.291 273.676C647.291 267.554 642.328 262.592 636.207 262.592C630.086 262.592 625.123 267.554 625.123 273.676ZM909.176 273.676V275.754H909.909L910.479 275.294L909.176 273.676ZM939.909 248.94L941.212 250.559L941.987 249.936V248.94H939.909ZM939.909 224.604L938.606 222.985L937.83 223.609V224.604H939.909ZM958.664 200.588C958.664 206.709 963.626 211.671 969.748 211.671C975.869 211.671 980.831 206.709 980.831 200.588C980.831 194.467 975.869 189.504 969.748 189.504C963.626 189.504 958.664 194.467 958.664 200.588ZM912.416 136C912.416 142.121 917.379 147.084 923.5 147.084C929.621 147.084 934.584 142.121 934.584 136C934.584 129.879 929.621 124.916 923.5 124.916C917.379 124.916 912.416 129.879 912.416 136ZM828.5 231.273L826.422 231.322L826.437 231.953L826.801 232.47L828.5 231.273ZM826.408 142.703L825.105 141.084L824.306 141.727L824.331 142.752L826.408 142.703ZM842.966 120.455C842.966 126.577 847.928 131.539 854.049 131.539C860.171 131.539 865.133 126.577 865.133 120.455C865.133 114.334 860.171 109.372 854.049 109.372C847.928 109.372 842.966 114.334 842.966 120.455ZM736.307 201.039L735.004 199.42L734.229 200.044V201.039H736.307ZM776.97 159.391C776.97 165.512 781.932 170.474 788.053 170.474C794.175 170.474 799.137 165.512 799.137 159.391C799.137 153.269 794.175 148.307 788.053 148.307C781.932 148.307 776.97 153.269 776.97 159.391ZM624.007 229.331C624.007 235.453 628.969 240.415 635.09 240.415C641.211 240.415 646.174 235.453 646.174 229.331C646.174 223.21 641.211 218.248 635.09 218.248C628.969 218.248 624.007 223.21 624.007 229.331ZM721.988 159.391L723.291 161.01L724.066 160.386V159.391H721.988ZM721.988 77.8247H724.066V76.8296L723.291 76.2057L721.988 77.8247ZM683.175 55.5062C683.175 61.6275 688.137 66.5898 694.258 66.5898C700.38 66.5898 705.342 61.6275 705.342 55.5062C705.342 49.3849 700.38 44.4226 694.258 44.4226C688.137 44.4226 683.175 49.3849 683.175 55.5062ZM678.539 194.361L679.842 195.98L678.539 194.361ZM635.09 159.391H633.012V160.386L633.787 161.01L635.09 159.391ZM635.09 49.8036H637.168V48.8085L636.393 48.1846L635.09 49.8036ZM574.552 10C574.552 16.1213 579.515 21.0836 585.636 21.0836C591.757 21.0836 596.72 16.1213 596.72 10C596.72 3.8787 591.757 -1.0836 585.636 -1.0836C579.515 -1.0836 574.552 3.8787 574.552 10ZM553.553 228.292C553.553 234.413 558.516 239.375 564.637 239.375C570.758 239.375 575.72 234.413 575.72 228.292C575.72 222.17 570.758 217.208 564.637 217.208C558.516 217.208 553.553 222.17 553.553 228.292ZM564.637 106.778L563.334 105.159L562.559 105.783V106.778H564.637ZM590.546 77.0039C590.546 83.1252 595.508 88.0875 601.63 88.0875C607.751 88.0875 612.713 83.1252 612.713 77.0039C612.713 70.8826 607.751 65.9203 601.63 65.9203C595.508 65.9203 590.546 70.8826 590.546 77.0039ZM453.919 228.292C453.919 234.413 458.881 239.375 465.002 239.375C471.123 239.375 476.086 234.413 476.086 228.292C476.086 222.17 471.123 217.208 465.002 217.208C458.881 217.208 453.919 222.17 453.919 228.292ZM439.039 100.109H436.961V100.838L437.416 101.407L439.039 100.109ZM427.955 17.4082C427.955 23.5295 432.917 28.4918 439.039 28.4918C445.16 28.4918 450.122 23.5295 450.122 17.4082C450.122 11.2869 445.16 6.32458 439.039 6.32458C432.917 6.32458 427.955 11.2869 427.955 17.4082ZM422.691 176.584L421.388 178.203L421.959 178.663H422.691V176.584ZM369.511 142.703C369.511 148.824 374.474 153.786 380.595 153.786C386.716 153.786 391.678 148.824 391.678 142.703C391.678 136.581 386.716 131.619 380.595 131.619C374.474 131.619 369.511 136.581 369.511 142.703ZM373.756 231.604C373.756 237.725 378.718 242.688 384.839 242.688C390.961 242.688 395.923 237.725 395.923 231.604C395.923 225.483 390.961 220.52 384.839 220.52C378.718 220.52 373.756 225.483 373.756 231.604ZM255.475 120.561H253.396V121.516L254.121 122.138L255.475 120.561ZM244.391 64.3116C244.391 70.4329 249.353 75.3952 255.475 75.3952C261.596 75.3952 266.558 70.4329 266.558 64.3116C266.558 58.1903 261.596 53.228 255.475 53.228C249.353 53.228 244.391 58.1903 244.391 64.3116ZM331.822 185.726L330.473 187.307L333.9 190.232V185.726H331.822ZM320.738 24.7994C320.738 30.9207 325.701 35.883 331.822 35.883C337.943 35.883 342.905 30.9207 342.905 24.7994C342.905 18.6781 337.943 13.7158 331.822 13.7158C325.701 13.7158 320.738 18.6781 320.738 24.7994ZM372.651 272.847C372.651 278.968 377.613 283.93 383.734 283.93C389.856 283.93 394.818 278.968 394.818 272.847C394.818 266.725 389.856 261.763 383.734 261.763C377.613 261.763 372.651 266.725 372.651 272.847ZM180.621 272.846L179.318 274.465L179.889 274.925H180.621V272.846ZM158.19 254.793H156.112V255.788L156.887 256.412L158.19 254.793ZM158.19 177.801H160.268V176.806L159.493 176.182L158.19 177.801ZM69.9126 115.671C69.9126 121.792 74.8749 126.754 80.9962 126.754C87.1175 126.754 92.0798 121.792 92.0798 115.671C92.0798 109.549 87.1175 104.587 80.9962 104.587C74.8749 104.587 69.9126 109.549 69.9126 115.671ZM194.663 180.872L195.966 182.491L196.741 181.867V180.872H194.663ZM194.663 147.796H196.741V146.721L195.863 146.1L194.663 147.796ZM158.19 122.004H156.112V123.079L156.99 123.701L158.19 122.004ZM147.107 64.3116C147.107 70.4329 152.069 75.3952 158.19 75.3952C164.312 75.3952 169.274 70.4329 169.274 64.3116C169.274 58.1903 164.312 53.228 158.19 53.228C152.069 53.228 147.107 58.1903 147.107 64.3116ZM162.272 325.133L160.854 326.652L161.453 327.211H162.272V325.133ZM1.91671 185.726C1.91671 191.847 6.87901 196.809 13.0003 196.809C19.1216 196.809 24.0839 191.847 24.0839 185.726C24.0839 179.605 19.1216 174.642 13.0003 174.642C6.87901 174.642 1.91671 179.605 1.91671 185.726ZM372.89 325.133C372.89 331.254 377.853 336.216 383.974 336.216C390.095 336.216 395.057 331.254 395.057 325.133C395.057 319.011 390.095 314.049 383.974 314.049C377.853 314.049 372.89 319.011 372.89 325.133ZM199.552 371.331L199.544 373.409L200.147 373.411L200.657 373.091L199.552 371.331ZM42.334 371.022L41.031 372.641L41.6016 373.1H42.334V371.022ZM1.9164 347.413C1.9164 353.534 6.8787 358.496 13 358.496C19.1213 358.496 24.0836 353.534 24.0836 347.413C24.0836 341.291 19.1213 336.329 13 336.329C6.8787 336.329 1.9164 341.291 1.9164 347.413ZM508.788 113.166H506.71V113.989L507.273 114.589L508.788 113.166ZM497.704 17.408C497.704 23.5293 502.666 28.4916 508.788 28.4916C514.909 28.4916 519.871 23.5293 519.871 17.408C519.871 11.2867 514.909 6.32438 508.788 6.32438C502.666 6.32438 497.704 11.2867 497.704 17.408ZM465.002 132.566H467.08V131.838L466.625 131.268L465.002 132.566ZM80.9962 332H78.918V332.875L79.544 333.487L80.9962 332ZM80.9962 303H83.0743V302.139L82.4656 301.531L80.9962 303ZM21.7053 254.793C21.7053 260.914 26.6676 265.876 32.7889 265.876C38.9102 265.876 43.8725 260.914 43.8725 254.793C43.8725 248.671 38.9102 243.709 32.7889 243.709C26.6676 243.709 21.7053 248.671 21.7053 254.793ZM426.009 399.892V397.814H425.359L424.826 398.183L426.009 399.892ZM732.768 306.483V304.405H732.036L731.465 304.864L732.768 306.483ZM80.9962 446.72H173.398V442.564H80.9962V446.72ZM174.837 446.141L221.439 401.391L218.561 398.393L171.958 443.143L174.837 446.141ZM220 401.97H346.5V397.814H220V401.97ZM347.769 401.538L388.379 370.235L385.842 366.943L345.231 398.246L347.769 401.538ZM253.231 474.264H222.499V478.421H253.231V474.264ZM221.196 474.724L177.923 509.552L180.529 512.79L223.802 477.961L221.196 474.724ZM345.176 398.29L281.138 451.214L283.786 454.418L347.824 401.494L345.176 398.29ZM281.159 451.197L251.928 474.724L254.534 477.961L283.765 454.435L281.159 451.197ZM280.384 452.816V525.955H284.54V452.816H280.384ZM466.427 540.573L507.485 573.619L510.091 570.381L469.033 537.336L466.427 540.573ZM465.652 371.022V399.892H469.808V371.022H465.652ZM465.652 399.892V538.954H469.808V399.892H465.652ZM382.209 428.774V485.241H386.365V428.774H382.209ZM382.984 486.86L414.423 512.164L417.029 508.926L385.59 483.623L382.984 486.86ZM413.648 510.545V563.854H417.804V510.545H413.648ZM560.518 371.022V450.771H564.674V371.022H560.518ZM561.293 452.39L600.327 483.807L602.933 480.569L563.899 449.152L561.293 452.39ZM599.551 482.188V483.933H603.708V482.188H599.551ZM600.194 482.431L557.971 522.779L560.843 525.784L603.065 485.436L600.194 482.431ZM600.327 485.552L639.802 517.324L642.408 514.086L602.933 482.314L600.327 485.552ZM639.027 515.705V565.602H643.183V515.705H639.027ZM724.814 442.882H798.289V438.725H724.814V442.882ZM798.289 442.882H871.764V438.725H798.289V442.882ZM796.986 442.423L830.544 469.432L833.15 466.194L799.592 439.185L796.986 442.423ZM829.769 467.813V508.541H833.925V467.813H829.769ZM633.787 370.208L678.649 406.315L681.255 403.077L636.393 366.97L633.787 370.208ZM678.649 406.315L723.511 442.423L726.117 439.185L681.255 403.077L678.649 406.315ZM677.874 404.696V467.813H682.03V404.696H677.874ZM678.649 469.432L739.054 518.049L741.66 514.811L681.255 466.194L678.649 469.432ZM738.279 516.43V554.961H742.435V516.43H738.279ZM635.979 325.336H711.927V321.18H635.979V325.336ZM771.272 373.1H821.962V368.944H771.272V373.1ZM821.962 373.1H872.653V368.944H821.962V373.1ZM823.265 372.641L877.312 329.141L874.706 325.904L820.659 369.403L823.265 372.641ZM876.009 329.601H953V325.444H876.009V329.601ZM710.624 324.877L769.969 372.641L772.575 369.403L713.23 321.639L710.624 324.877ZM910.479 275.294L941.212 250.559L938.606 247.322L907.873 272.057L910.479 275.294ZM941.987 248.94V224.604H937.83V248.94H941.987ZM941.212 226.223L971.051 202.207L968.445 198.969L938.606 222.985L941.212 226.223ZM826.408 275.754H909.176V271.597H826.408V275.754ZM828.134 274.833L843.726 251.586L840.274 249.271L824.682 272.518L828.134 274.833ZM843.693 251.634L925.193 137.206L921.807 134.794L840.307 249.223L843.693 251.634ZM843.699 249.231L830.199 230.076L826.801 232.47L840.301 251.625L843.699 249.231ZM830.578 231.224L828.486 142.654L824.331 142.752L826.422 231.322L830.578 231.224ZM827.711 144.322L855.353 122.074L852.746 118.836L825.105 141.084L827.711 144.322ZM636.207 275.754H736.307V271.597H636.207V275.754ZM736.307 275.754H826.408V271.597H736.307V275.754ZM738.386 273.676V201.039H734.229V273.676H738.386ZM737.611 202.658L789.357 161.01L786.75 157.772L735.004 199.42L737.611 202.658ZM724.066 159.391V77.8247H719.91V159.391H724.066ZM723.291 76.2057L695.561 53.8873L692.955 57.1252L720.685 79.4436L723.291 76.2057ZM636.393 230.95L679.842 195.98L677.236 192.742L633.787 227.712L636.393 230.95ZM679.842 195.98L723.291 161.01L720.685 157.772L677.236 192.742L679.842 195.98ZM679.842 192.742L636.393 157.772L633.787 161.01L677.236 195.98L679.842 192.742ZM637.168 159.391V49.8036H633.012V159.391H637.168ZM636.393 48.1846L586.939 8.38106L584.333 11.6189L633.787 51.4225L636.393 48.1846ZM565.94 108.397L602.933 78.6228L600.327 75.385L563.334 105.159L565.94 108.397ZM441.117 100.109V17.4082H436.961V100.109H441.117ZM467.08 228.292V176.584H462.924V228.292H467.08ZM465.002 174.506H422.691V178.663H465.002V174.506ZM423.994 174.965L381.898 141.084L379.292 144.322L421.388 178.203L423.994 174.965ZM386.193 230.027L256.828 118.985L254.121 122.138L383.486 233.181L386.193 230.027ZM257.553 120.561V64.3116H253.396V120.561H257.553ZM333.9 185.726V24.7994H329.744V185.726H333.9ZM383.734 270.768L180.621 270.768V274.925L383.734 274.925V270.768ZM181.924 271.228L159.493 253.174L156.887 256.412L179.318 274.465L181.924 271.228ZM159.493 176.182L82.2992 114.052L79.6931 117.29L156.887 179.42L159.493 176.182ZM160.268 254.793V210.227H156.112V254.793H160.268ZM160.268 210.227V177.801H156.112V210.227H160.268ZM159.493 211.846L195.966 182.491L193.36 179.253L156.887 208.608L159.493 211.846ZM196.741 180.872V147.796H192.584V180.872H196.741ZM195.863 146.1L159.39 120.307L156.99 123.701L193.463 149.493L195.863 146.1ZM160.268 122.004V64.3116H156.112V122.004H160.268ZM163.691 323.614L14.4188 184.207L11.5819 187.245L160.854 326.652L163.691 323.614ZM383.974 323.055H273.123V327.211H383.974V323.055ZM273.123 323.055H162.272V327.211H273.123V323.055ZM272.018 323.373L198.447 369.571L200.657 373.091L274.228 326.893L272.018 323.373ZM43.637 369.403L14.303 345.794L11.697 349.032L41.031 372.641L43.637 369.403ZM566.715 228.292V172.583H562.559V228.292H566.715ZM566.715 172.583V106.778H562.559V172.583H566.715ZM566.151 171.159L510.302 111.743L507.273 114.589L563.123 174.006L566.151 171.159ZM510.866 113.166L510.866 17.408L506.71 17.408L506.71 113.166H510.866ZM467.08 176.584V132.566H462.924V176.584H467.08ZM466.625 131.268L440.662 98.8105L437.416 101.407L463.379 133.865L466.625 131.268ZM254.126 122.142L330.473 187.307L333.171 184.145L256.824 118.981L254.126 122.142ZM199.56 369.252L120.951 368.944L120.935 373.1L199.544 373.409L199.56 369.252ZM120.943 368.944H42.334V373.1H120.943V368.944ZM122.395 369.535L82.4483 330.513L79.544 333.487L119.491 372.509L122.395 369.535ZM83.0743 332V303H78.918V332H83.0743ZM82.4656 301.531L34.2584 253.323L31.3194 256.262L79.5267 304.469L82.4656 301.531ZM467.73 397.814H426.009V401.97H467.73V397.814ZM424.826 398.183L383.104 427.065L385.47 430.482L427.191 401.601L424.826 398.183ZM713.23 324.877L734.071 308.102L731.465 304.864L710.624 321.639L713.23 324.877ZM732.768 308.562H836.408V304.405H732.768V308.562Z" fill="black" fill-opacity="0.04"/>
<g filter="url(#filter0_d_1082_9333)">
<rect x="74" y="160.325" width="212.999" height="80" rx="40" fill="white"/>
<rect x="74.5" y="160.825" width="211.999" height="79" rx="39.5" stroke="black" stroke-opacity="0.04"/>
<path d="M113.167 184.325H98V199.492H113.167V184.325Z" fill="#0078D4"/>
<path d="M129.999 184.325H114.832V199.492H129.999V184.325Z" fill="#0078D4"/>
<path d="M113.167 201.158H98V216.325H113.167V201.158Z" fill="#0078D4"/>
<path d="M129.999 201.158H114.832V216.325H129.999V201.158Z" fill="#0078D4"/>
<path d="M144.727 210.325L138.738 190.411H141.569L146.206 206.783L151.029 190.411H153.873L158.667 206.755L163.304 190.411H166.05L160.09 210.325H157.145L152.437 194.465L147.657 210.325H144.727ZM169.071 210.325V196.385H171.688V210.325H169.071ZM170.38 193.754C169.886 193.754 169.46 193.588 169.099 193.256C168.739 192.924 168.559 192.507 168.559 192.004C168.559 191.482 168.739 191.06 169.099 190.738C169.46 190.406 169.886 190.24 170.38 190.24C170.882 190.24 171.309 190.406 171.66 190.738C172.02 191.06 172.2 191.482 172.2 192.004C172.2 192.507 172.02 192.924 171.66 193.256C171.309 193.588 170.882 193.754 170.38 193.754ZM176.211 210.325V196.385H178.828V198.263C179.426 197.447 180.123 196.859 180.919 196.499C181.716 196.139 182.531 195.958 183.366 195.958C184.627 195.958 185.67 196.214 186.495 196.726C187.33 197.229 187.951 197.874 188.359 198.661C188.776 199.448 188.985 200.254 188.985 201.079V210.325H186.367V201.89C186.367 200.837 186.04 199.993 185.386 199.358C184.731 198.713 183.84 198.391 182.712 198.391C181.972 198.391 181.308 198.557 180.72 198.889C180.142 199.211 179.682 199.671 179.34 200.268C178.999 200.866 178.828 201.553 178.828 202.331V210.325H176.211ZM199.128 210.752C197.753 210.752 196.534 210.425 195.472 209.77C194.42 209.116 193.595 208.234 192.997 207.125C192.409 206.006 192.115 204.749 192.115 203.355C192.115 202.331 192.286 201.373 192.627 200.482C192.969 199.59 193.448 198.808 194.064 198.135C194.69 197.452 195.434 196.921 196.297 196.542C197.16 196.153 198.113 195.958 199.156 195.958C200.493 195.958 201.636 196.229 202.584 196.769C203.542 197.31 204.329 198.035 204.946 198.946L204.419 199.529V189.842H207.037V210.325H204.633V207.054L205.017 207.651C204.476 208.542 203.732 209.282 202.784 209.87C201.845 210.458 200.626 210.752 199.128 210.752ZM199.597 208.391C200.536 208.391 201.366 208.187 202.087 207.779C202.817 207.362 203.391 206.779 203.808 206.029C204.225 205.271 204.434 204.379 204.434 203.355C204.434 202.321 204.225 201.43 203.808 200.681C203.4 199.922 202.831 199.339 202.101 198.931C201.371 198.524 200.536 198.32 199.597 198.32C198.658 198.32 197.824 198.524 197.094 198.931C196.373 199.339 195.804 199.922 195.387 200.681C194.979 201.43 194.775 202.321 194.775 203.355C194.775 204.379 194.979 205.271 195.387 206.029C195.804 206.779 196.378 207.362 197.108 207.779C197.838 208.187 198.668 208.391 199.597 208.391ZM217.795 210.752C216.353 210.752 215.068 210.415 213.94 209.742C212.811 209.069 211.925 208.173 211.28 207.054C210.635 205.935 210.313 204.702 210.313 203.355C210.313 202.359 210.498 201.416 210.867 200.524C211.237 199.633 211.759 198.846 212.432 198.163C213.105 197.471 213.897 196.93 214.808 196.542C215.718 196.153 216.714 195.958 217.795 195.958C219.246 195.958 220.535 196.295 221.664 196.968C222.792 197.642 223.679 198.538 224.324 199.657C224.969 200.776 225.291 202.009 225.291 203.355C225.291 204.351 225.106 205.294 224.736 206.186C224.367 207.077 223.845 207.864 223.172 208.547C222.498 209.23 221.707 209.77 220.796 210.169C219.886 210.558 218.885 210.752 217.795 210.752ZM217.795 208.391C218.734 208.391 219.563 208.187 220.284 207.779C221.014 207.362 221.588 206.779 222.005 206.029C222.423 205.271 222.631 204.379 222.631 203.355C222.631 202.321 222.423 201.43 222.005 200.681C221.597 199.922 221.029 199.339 220.298 198.931C219.568 198.524 218.734 198.32 217.795 198.32C216.856 198.32 216.021 198.524 215.291 198.931C214.571 199.339 214.002 199.922 213.584 200.681C213.177 201.43 212.973 202.321 212.973 203.355C212.973 204.379 213.177 205.271 213.584 206.029C214.002 206.779 214.575 207.362 215.305 207.779C216.036 208.187 216.865 208.391 217.795 208.391ZM231.102 210.325L226.65 196.385H229.31L232.539 207.281L236.038 196.385H238.684L241.941 207.281L245.255 196.385H247.773L243.321 210.325H240.561L237.275 199.785L233.861 210.325H231.102ZM255.01 210.738C253.91 210.738 252.867 210.576 251.881 210.254C250.904 209.922 250.089 209.481 249.434 208.931L250.515 206.954C251.132 207.466 251.834 207.869 252.621 208.163C253.417 208.448 254.214 208.59 255.01 208.59C255.997 208.59 256.765 208.414 257.315 208.063C257.865 207.703 258.14 207.196 258.14 206.541C258.14 205.935 257.903 205.484 257.429 205.19C256.954 204.896 256.072 204.593 254.783 204.28C253.076 203.891 251.834 203.369 251.056 202.715C250.288 202.061 249.904 201.16 249.904 200.012C249.904 199.197 250.131 198.476 250.586 197.85C251.042 197.215 251.663 196.717 252.45 196.357C253.246 195.996 254.162 195.816 255.195 195.816C256.219 195.816 257.172 195.963 258.054 196.257C258.946 196.542 259.719 196.959 260.373 197.509L259.363 199.5C259.031 199.187 258.638 198.917 258.182 198.689C257.737 198.462 257.258 198.286 256.746 198.163C256.234 198.03 255.722 197.964 255.209 197.964C254.365 197.964 253.673 198.135 253.133 198.476C252.602 198.817 252.336 199.292 252.336 199.899C252.336 200.534 252.592 200.999 253.104 201.293C253.626 201.587 254.489 201.876 255.693 202.16C257.438 202.549 258.69 203.071 259.448 203.725C260.207 204.37 260.586 205.261 260.586 206.399C260.586 207.281 260.354 208.049 259.889 208.704C259.425 209.348 258.775 209.851 257.941 210.211C257.106 210.562 256.129 210.738 255.01 210.738Z" fill="#444B50"/>
</g>
<g filter="url(#filter1_d_1082_9333)">
<rect x="429" y="64" width="158.999" height="80" rx="40" fill="white"/>
<rect x="429.5" y="64.5" width="157.999" height="79" rx="39.5" stroke="black" stroke-opacity="0.04"/>
<path d="M465.176 97.9157C465.559 96.4113 465.19 94.812 465.243 93.2612C465.36 89.8748 467.254 89.1068 469.196 89.0066C471.424 88.8905 474.061 90.2008 474.221 93.3952C474.296 94.9238 474.024 96.5031 474.421 97.9821C475.347 101.432 479.321 103.923 479.379 107.49C479.432 110.881 477.859 114.877 474.957 116.666C473.458 117.591 471.425 116.482 469.664 116.6C467.705 116.733 465.526 118.46 463.836 117.465C460.768 115.658 459.922 111.025 460.152 107.49C460.386 103.899 464.289 101.405 465.176 97.9157Z" fill="#333333"/>
<path d="M470.632 97.1197C471.502 97.1197 472.207 96.2148 472.207 95.0984C472.207 93.9821 471.502 93.0771 470.632 93.0771C469.762 93.0771 469.057 93.9821 469.057 95.0984C469.057 96.2148 469.762 97.1197 470.632 97.1197Z" fill="white" fill-opacity="0.941"/>
<path d="M466.901 96.8154C467.516 96.8154 468.014 96.0786 468.014 95.1697C468.014 94.2607 467.516 93.5239 466.901 93.5239C466.287 93.5239 465.788 94.2607 465.788 95.1697C465.788 96.0786 466.287 96.8154 466.901 96.8154Z" fill="white" fill-opacity="0.941"/>
<path d="M470.436 96.4866C470.793 96.4866 471.082 96.0129 471.082 95.4285C471.082 94.8441 470.793 94.3704 470.436 94.3704C470.08 94.3704 469.791 94.8441 469.791 95.4285C469.791 96.0129 470.08 96.4866 470.436 96.4866Z" fill="#232629"/>
<path d="M466.907 96.216C467.178 96.216 467.398 95.8632 467.398 95.4279C467.398 94.9927 467.178 94.6399 466.907 94.6399C466.635 94.6399 466.416 94.9927 466.416 95.4279C466.416 95.8632 466.635 96.216 466.907 96.216Z" fill="#232629"/>
<path d="M470.424 97.1823C470.231 97.1734 470.037 97.1748 469.844 97.1865C468.537 97.2625 467.136 97.772 466.428 98.3892C465.295 99.3776 465.967 100.339 465.479 101.727C464.991 103.115 463.763 104.932 463.396 106.664C463.247 107.364 463.058 108.063 462.928 108.766L466.428 113.011C467.116 113.844 465.322 113.535 463.653 112.462C464.837 114.115 467.186 115.754 469.505 115.599C471.975 115.434 474.892 112.871 475.825 110.774C474.92 110.622 474.04 109.27 474.764 108.262C475.016 107.913 475.557 107.883 476.022 107.957C475.742 106.883 475.185 105.92 474.906 105.112C474.421 103.703 473.858 103.308 473.343 102.057C472.828 100.806 473.372 98.4915 471.921 97.5906C471.513 97.3374 470.991 97.2108 470.424 97.1823Z" fill="white"/>
<path d="M459.549 110.484C460.067 110.072 460.309 109.236 460.955 109.087C461.461 108.971 462.029 109.259 462.43 109.586C463.345 110.333 463.484 111.711 464.205 112.645C464.685 113.267 465.499 113.62 465.88 114.307C466.276 115.024 466.788 115.972 466.416 116.701C465.914 117.683 464.477 117.988 463.367 118.03C462.693 118.056 462.108 117.545 461.458 117.365C460.512 117.104 459.421 117.265 458.578 116.767C457.91 116.374 457.119 115.774 457.07 115.005C457.05 114.701 457.498 114.536 457.572 114.24C457.77 113.464 457.012 112.563 457.371 111.846C457.754 111.084 458.878 111.015 459.549 110.484Z" fill="#F39C1F"/>
<path d="M474.533 109.327C474.319 109.517 474.139 109.757 474.007 109.994C473.435 111.025 473.821 112.357 473.5 113.489C473.285 114.243 472.661 114.871 472.564 115.647C472.463 116.46 472.341 117.527 472.959 118.069C473.792 118.796 475.241 118.551 476.287 118.182C476.923 117.959 477.275 117.269 477.812 116.864C478.592 116.273 479.667 116.02 480.264 115.249C480.737 114.637 481.249 113.791 481.008 113.059C480.912 112.769 480.436 112.779 480.257 112.532C479.784 111.883 480.15 110.77 479.55 110.237C479.103 109.841 478.448 109.886 477.814 109.869C477.508 110.52 476.511 110.963 475.825 110.775C475.245 110.614 474.667 109.959 474.533 109.327Z" fill="#F39C1F"/>
<path d="M468.475 95.4894C469.176 95.4525 469.82 95.903 470.452 96.2036C471.064 96.4959 472.107 96.5834 472.193 97.2512C472.292 98.0097 471.216 98.457 470.586 98.8969C470.024 99.2904 469.397 99.7515 468.71 99.7451C468.016 99.7378 467.402 99.244 466.834 98.8474C466.367 98.5203 465.63 98.2186 465.612 97.65C465.592 97.0423 466.345 96.6552 466.834 96.287C467.319 95.922 467.867 95.5211 468.475 95.4894Z" fill="#F39C1F"/>
<path d="M495.673 114V94.0856H498.347V111.539H507.252V114H495.673ZM510.569 114V100.06H513.186V114H510.569ZM511.877 97.4283C511.384 97.4283 510.957 97.2624 510.597 96.9305C510.237 96.5986 510.057 96.1813 510.057 95.6787C510.057 95.1571 510.237 94.7351 510.597 94.4127C510.957 94.0808 511.384 93.9149 511.877 93.9149C512.38 93.9149 512.807 94.0808 513.157 94.4127C513.518 94.7351 513.698 95.1571 513.698 95.6787C513.698 96.1813 513.518 96.5986 513.157 96.9305C512.807 97.2624 512.38 97.4283 511.877 97.4283ZM517.709 114V100.06H520.326V101.938C520.923 101.122 521.62 100.534 522.417 100.174C523.214 99.8133 524.029 99.6332 524.864 99.6332C526.125 99.6332 527.168 99.8892 527.993 100.401C528.828 100.904 529.449 101.549 529.856 102.336C530.274 103.123 530.482 103.929 530.482 104.754V114H527.865V105.565C527.865 104.512 527.538 103.668 526.884 103.033C526.229 102.388 525.338 102.066 524.209 102.066C523.47 102.066 522.806 102.232 522.218 102.563C521.639 102.886 521.179 103.346 520.838 103.943C520.497 104.541 520.326 105.228 520.326 106.006V114H517.709ZM540.06 114.427C538.818 114.427 537.789 114.175 536.973 113.673C536.167 113.17 535.565 112.516 535.167 111.71C534.768 110.904 534.569 110.041 534.569 109.121V100.06H537.187V108.566C537.187 109.59 537.495 110.42 538.111 111.056C538.737 111.681 539.595 111.994 540.686 111.994C541.388 111.994 542.023 111.833 542.592 111.511C543.161 111.188 543.611 110.738 543.943 110.159C544.285 109.571 544.455 108.893 544.455 108.125V100.06H547.073V114H544.669V112.293C544.09 112.995 543.412 113.526 542.635 113.886C541.867 114.247 541.008 114.427 540.06 114.427ZM549.811 114.014L554.861 106.945L550.11 100.06H553.41L556.639 105.024L559.754 100.06H562.954L558.346 106.859L563.367 114H560.01L556.539 108.765L553.011 113.986L549.811 114.014Z" fill="#444B50"/>
</g>
<g filter="url(#filter2_d_1082_9333)">
<rect x="711" y="160.325" width="196.999" height="80" rx="40" fill="white"/>
<rect x="711.5" y="160.825" width="195.999" height="79" rx="39.5" stroke="black" stroke-opacity="0.04"/>
<mask id="mask0_1082_9333" style="mask-type:luminance" maskUnits="userSpaceOnUse" x="735" y="191" width="32" height="19">
<path d="M766.999 191.325H735V209.964H766.999V191.325Z" fill="white"/>
</mask>
<g mask="url(#mask0_1082_9333)">
<path d="M766.912 209.256C766.902 209.188 766.892 209.13 766.883 209.063C766.815 208.666 766.737 208.269 766.64 207.872C766.476 207.184 766.263 206.516 766.011 205.877C765.798 205.325 765.556 204.793 765.285 204.28C764.936 203.621 764.549 202.982 764.113 202.372C763.581 201.627 762.99 200.939 762.351 200.29C762.08 200.019 761.8 199.758 761.509 199.516C760.88 198.974 760.212 198.48 759.505 198.044C759.515 198.034 759.515 198.025 759.524 198.015C759.844 197.454 760.173 196.902 760.492 196.34C760.812 195.798 761.122 195.256 761.441 194.704C761.664 194.316 761.896 193.919 762.119 193.532C762.177 193.435 762.216 193.348 762.245 193.242C762.332 192.971 762.342 192.68 762.264 192.409C762.245 192.341 762.226 192.274 762.196 192.215C762.167 192.148 762.138 192.09 762.1 192.031C761.983 191.828 761.809 191.654 761.587 191.528C761.393 191.412 761.18 191.344 760.957 191.325C760.86 191.315 760.773 191.315 760.676 191.325C760.599 191.334 760.522 191.344 760.454 191.363C760.183 191.431 759.941 191.576 759.747 191.789C759.679 191.867 759.611 191.954 759.563 192.041C759.34 192.428 759.108 192.825 758.885 193.213L757.936 194.849C757.617 195.411 757.288 195.962 756.968 196.524C756.93 196.582 756.9 196.65 756.862 196.708C756.813 196.689 756.765 196.669 756.717 196.65C754.935 195.972 753.008 195.604 750.985 195.604C750.927 195.604 750.878 195.604 750.82 195.604C749.029 195.624 747.306 195.933 745.689 196.495C745.505 196.563 745.321 196.631 745.137 196.698C745.108 196.64 745.069 196.582 745.04 196.524C744.721 195.962 744.391 195.411 744.072 194.849C743.752 194.307 743.443 193.765 743.123 193.213C742.9 192.825 742.668 192.428 742.445 192.041C742.387 191.944 742.329 191.867 742.261 191.789C742.068 191.576 741.816 191.431 741.555 191.363C741.477 191.344 741.4 191.334 741.332 191.325C741.235 191.315 741.148 191.315 741.051 191.325C740.829 191.344 740.615 191.412 740.422 191.528C740.209 191.654 740.035 191.828 739.909 192.031C739.87 192.09 739.841 192.148 739.812 192.215C739.783 192.283 739.763 192.341 739.744 192.409C739.676 192.68 739.676 192.961 739.763 193.242C739.793 193.339 739.841 193.435 739.889 193.532C740.112 193.919 740.344 194.316 740.567 194.704C740.887 195.246 741.196 195.788 741.516 196.34C741.835 196.902 742.165 197.454 742.484 198.015L742.494 198.025C741.845 198.431 741.225 198.877 740.635 199.371C740.286 199.661 739.947 199.971 739.628 200.29C738.979 200.929 738.398 201.627 737.866 202.372C737.43 202.982 737.043 203.611 736.694 204.28C736.423 204.793 736.181 205.325 735.968 205.877C735.716 206.526 735.503 207.194 735.339 207.872C735.242 208.259 735.165 208.656 735.097 209.063C735.087 209.13 735.077 209.188 735.068 209.256C735.029 209.489 735 209.721 734.971 209.963H766.97C766.97 209.721 766.941 209.489 766.912 209.256Z" fill="#34A853"/>
<path d="M759.321 205.529C759.96 205.103 760.057 204.115 759.524 203.331C759.002 202.537 758.053 202.247 757.414 202.673C756.775 203.099 756.678 204.086 757.21 204.871C757.733 205.665 758.682 205.955 759.321 205.529Z" fill="#202124"/>
<path d="M744.818 204.88C745.341 204.086 745.253 203.108 744.614 202.682C743.975 202.256 743.027 202.547 742.504 203.34C741.981 204.134 742.068 205.112 742.707 205.538C743.346 205.964 744.285 205.664 744.818 204.88Z" fill="#202124"/>
</g>
<path d="M775.369 210.325L783.206 190.411H785.98L794.06 210.325H791.044L789.067 205.332H780.191L778.299 210.325H775.369ZM780.945 203H788.285L784.529 193.725L780.945 203ZM796.68 210.325V196.385H799.298V198.263C799.895 197.447 800.592 196.859 801.389 196.499C802.185 196.139 803.001 195.958 803.835 195.958C805.097 195.958 806.14 196.214 806.965 196.726C807.799 197.229 808.42 197.874 808.828 198.661C809.245 199.448 809.454 200.254 809.454 201.079V210.325H806.837V201.89C806.837 200.837 806.51 199.993 805.855 199.358C805.201 198.713 804.31 198.391 803.181 198.391C802.441 198.391 801.778 198.557 801.19 198.889C800.611 199.211 800.151 199.671 799.81 200.268C799.468 200.866 799.298 201.553 799.298 202.331V210.325H796.68ZM819.597 210.752C818.222 210.752 817.004 210.425 815.942 209.77C814.889 209.116 814.064 208.234 813.467 207.125C812.879 206.006 812.585 204.749 812.585 203.355C812.585 202.331 812.755 201.373 813.097 200.482C813.438 199.59 813.917 198.808 814.533 198.135C815.159 197.452 815.904 196.921 816.767 196.542C817.63 196.153 818.583 195.958 819.626 195.958C820.963 195.958 822.106 196.229 823.054 196.769C824.012 197.31 824.799 198.035 825.415 198.946L824.889 199.529V189.842H827.506V210.325H825.102V207.054L825.486 207.651C824.946 208.542 824.201 209.282 823.253 209.87C822.314 210.458 821.096 210.752 819.597 210.752ZM820.067 208.391C821.006 208.391 821.835 208.187 822.556 207.779C823.286 207.362 823.86 206.779 824.277 206.029C824.694 205.271 824.903 204.379 824.903 203.355C824.903 202.321 824.694 201.43 824.277 200.681C823.869 199.922 823.3 199.339 822.57 198.931C821.84 198.524 821.006 198.32 820.067 198.32C819.128 198.32 818.293 198.524 817.563 198.931C816.843 199.339 816.274 199.922 815.856 200.681C815.449 201.43 815.245 202.321 815.245 203.355C815.245 204.379 815.449 205.271 815.856 206.029C816.274 206.779 816.847 207.362 817.577 207.779C818.308 208.187 819.137 208.391 820.067 208.391ZM832.02 210.325V196.385H834.637V198.405C835.196 197.495 835.86 196.859 836.628 196.499C837.406 196.129 838.231 195.944 839.103 195.944C839.379 195.944 839.644 195.958 839.9 195.987C840.156 196.015 840.407 196.053 840.654 196.101L840.27 198.817C840.004 198.742 839.734 198.685 839.459 198.647C839.184 198.599 838.914 198.576 838.648 198.576C837.482 198.576 836.519 198.941 835.761 199.671C835.012 200.392 834.637 201.359 834.637 202.573V210.325H832.02ZM849.377 210.752C847.936 210.752 846.651 210.415 845.522 209.742C844.394 209.069 843.507 208.173 842.862 207.054C842.217 205.935 841.895 204.702 841.895 203.355C841.895 202.359 842.08 201.416 842.45 200.524C842.82 199.633 843.341 198.846 844.015 198.163C844.688 197.471 845.48 196.93 846.39 196.542C847.3 196.153 848.296 195.958 849.377 195.958C850.828 195.958 852.118 196.295 853.246 196.968C854.375 197.642 855.261 198.538 855.906 199.657C856.551 200.776 856.874 202.009 856.874 203.355C856.874 204.351 856.689 205.294 856.319 206.186C855.949 207.077 855.427 207.864 854.754 208.547C854.081 209.23 853.289 209.77 852.379 210.169C851.468 210.558 850.468 210.752 849.377 210.752ZM849.377 208.391C850.316 208.391 851.146 208.187 851.867 207.779C852.597 207.362 853.17 206.779 853.588 206.029C854.005 205.271 854.214 204.379 854.214 203.355C854.214 202.321 854.005 201.43 853.588 200.681C853.18 199.922 852.611 199.339 851.881 198.931C851.151 198.524 850.316 198.32 849.377 198.32C848.438 198.32 847.604 198.524 846.874 198.931C846.153 199.339 845.584 199.922 845.167 200.681C844.759 201.43 844.555 202.321 844.555 203.355C844.555 204.379 844.759 205.271 845.167 206.029C845.584 206.779 846.158 207.362 846.888 207.779C847.618 208.187 848.448 208.391 849.377 208.391ZM860.163 210.325V196.385H862.781V210.325H860.163ZM861.472 193.754C860.979 193.754 860.552 193.588 860.192 193.256C859.831 192.924 859.651 192.507 859.651 192.004C859.651 191.482 859.831 191.06 860.192 190.738C860.552 190.406 860.979 190.24 861.472 190.24C861.975 190.24 862.401 190.406 862.752 190.738C863.112 191.06 863.293 191.482 863.293 192.004C863.293 192.507 863.112 192.924 862.752 193.256C862.401 193.588 861.975 193.754 861.472 193.754ZM873.079 210.752C871.703 210.752 870.485 210.425 869.423 209.77C868.37 209.116 867.545 208.234 866.948 207.125C866.36 206.006 866.066 204.749 866.066 203.355C866.066 202.331 866.236 201.373 866.578 200.482C866.919 199.59 867.398 198.808 868.015 198.135C868.64 197.452 869.385 196.921 870.248 196.542C871.111 196.153 872.064 195.958 873.107 195.958C874.444 195.958 875.587 196.229 876.535 196.769C877.493 197.31 878.28 198.035 878.896 198.946L878.37 199.529V189.842H880.987V210.325H878.583V207.054L878.967 207.651C878.427 208.542 877.683 209.282 876.734 209.87C875.795 210.458 874.577 210.752 873.079 210.752ZM873.548 208.391C874.487 208.391 875.317 208.187 876.037 207.779C876.767 207.362 877.341 206.779 877.758 206.029C878.176 205.271 878.384 204.379 878.384 203.355C878.384 202.321 878.176 201.43 877.758 200.681C877.351 199.922 876.782 199.339 876.051 198.931C875.321 198.524 874.487 198.32 873.548 198.32C872.609 198.32 871.775 198.524 871.044 198.931C870.324 199.339 869.755 199.922 869.337 200.681C868.93 201.43 868.726 202.321 868.726 203.355C868.726 204.379 868.93 205.271 869.337 206.029C869.755 206.779 870.328 207.362 871.059 207.779C871.789 208.187 872.619 208.391 873.548 208.391Z" fill="#444B50"/>
</g>
<g filter="url(#filter3_d_1082_9333)">
<rect x="56" y="343.325" width="249.999" height="80" rx="40" fill="white"/>
<rect x="56.5" y="343.825" width="248.999" height="79" rx="39.5" stroke="black" stroke-opacity="0.04"/>
<path d="M103.756 390.438C103.961 388.796 103.9 388.555 105.175 388.821L105.498 388.849C106.479 388.891 107.761 388.697 108.515 388.362C110.137 387.64 111.098 386.434 109.499 386.751C105.851 387.473 105.6 386.288 105.6 386.288C109.452 380.806 111.063 373.846 109.673 372.143C105.881 367.496 99.3191 369.693 99.2093 369.75L99.1744 369.757C98.4536 369.613 97.6469 369.527 96.7407 369.513C95.0899 369.487 93.8372 369.929 92.887 370.62C92.887 370.62 81.1801 365.993 81.7247 376.438C81.8406 378.66 85.0449 393.25 88.8667 388.843C90.2636 387.232 91.6135 385.869 91.6135 385.869C92.2838 386.297 93.0864 386.514 93.9281 386.436L93.9931 386.383C93.9728 386.583 93.9818 386.779 94.0192 387.01C93.0348 388.066 93.3241 388.251 91.3557 388.64C89.3642 389.033 90.5342 389.734 91.2979 389.917C92.2239 390.139 94.3662 390.454 95.8141 388.51L95.7565 388.732C96.1427 389.028 96.1166 390.862 96.1714 392.173C96.2262 393.483 96.3176 394.706 96.5961 395.427C96.8745 396.147 97.2031 398.004 99.79 397.472C101.952 397.028 103.605 396.388 103.756 390.438Z" fill="#336791" stroke="#336791" stroke-width="2.10112"/>
<path d="M109.499 386.751C105.851 387.473 105.6 386.288 105.6 386.288C109.452 380.805 111.062 373.845 109.673 372.142C105.882 367.496 99.319 369.693 99.2095 369.75L99.1742 369.756C98.4534 369.613 97.6468 369.527 96.7401 369.513C95.0893 369.487 93.8371 369.928 92.8869 370.619C92.8869 370.619 81.1797 365.993 81.7242 376.437C81.8401 378.659 85.0444 393.25 88.8663 388.843C90.2632 387.232 91.6129 385.869 91.6129 385.869C92.2833 386.296 93.0859 386.514 93.9272 386.436L93.9926 386.383C93.9723 386.583 93.9815 386.778 94.0188 387.01C93.0342 388.065 93.3235 388.251 91.3552 388.639C89.3636 389.033 90.5336 389.734 91.2975 389.917C92.2236 390.139 94.366 390.454 95.8136 388.51L95.7559 388.732C96.1417 389.028 96.4126 390.66 96.3672 392.139C96.3218 393.618 96.2915 394.633 96.5954 395.426C96.8994 396.219 97.2024 398.004 99.7898 397.472C101.952 397.028 103.072 395.876 103.228 393.955C103.339 392.589 103.589 392.791 103.605 391.57L103.806 390.992C104.037 389.14 103.842 388.543 105.174 388.821L105.498 388.848C106.478 388.891 107.762 388.697 108.515 388.361C110.136 387.639 111.098 386.434 109.499 386.751H109.499Z" fill="#336791"/>
<path d="M95.9703 387.812C95.8699 391.257 95.9956 394.726 96.347 395.569C96.6986 396.412 97.4511 398.052 100.039 397.52C102.201 397.076 102.987 396.215 103.328 394.316C103.58 392.919 104.065 389.039 104.127 388.244M92.8688 370.542C92.8688 370.542 81.1537 365.949 81.6983 376.394C81.8142 378.616 85.0187 393.207 88.8406 388.8C90.2372 387.188 91.5003 385.924 91.5003 385.924M99.1967 369.704C98.7912 369.826 105.713 367.277 109.647 372.099C111.037 373.802 109.427 380.762 105.574 386.245" stroke="white" stroke-width="0.700373" stroke-linecap="round" stroke-linejoin="round"/>
<path d="M105.574 386.245C105.574 386.245 105.825 387.43 109.474 386.708C111.073 386.391 110.11 387.596 108.489 388.319C107.159 388.911 104.176 389.063 104.127 388.244C104.001 386.132 105.697 386.774 105.574 386.245ZM105.574 386.245C105.464 385.768 104.706 385.301 104.204 384.134C103.766 383.116 98.199 375.309 105.748 376.468C106.025 376.414 103.779 369.581 96.7143 369.47C89.651 369.358 89.8827 377.802 89.8827 377.802" stroke="white" stroke-width="0.700373" stroke-linecap="round" stroke-linejoin="bevel"/>
<path d="M93.9932 386.967C93.0084 388.022 93.298 388.207 91.3296 388.596C89.3381 388.99 90.5082 389.691 91.2718 389.874C92.1979 390.096 94.3404 390.411 95.788 388.466C96.2288 387.874 95.7854 386.93 95.1798 386.689C94.8872 386.573 94.496 386.427 93.9932 386.967Z" stroke="white" stroke-width="0.700373" stroke-linecap="round" stroke-linejoin="round"/>
<path d="M93.9287 386.949C93.8294 386.328 94.1412 385.59 94.4752 384.726C94.9773 383.43 96.1357 382.134 95.209 378.024C94.5183 374.961 89.8856 377.386 89.8827 377.802C89.8799 378.217 90.0923 379.907 89.8053 381.875C89.4309 384.443 91.5089 386.615 93.9018 386.393" stroke="white" stroke-width="0.700373" stroke-linecap="round" stroke-linejoin="round"/>
<path d="M92.8263 377.739C92.8054 377.881 93.097 378.26 93.4773 378.31C93.8569 378.361 94.1818 378.065 94.2024 377.924C94.223 377.782 93.9318 377.625 93.5513 377.575C93.1715 377.524 92.8464 377.598 92.8263 377.739H92.8263Z" fill="white" stroke="white" stroke-width="0.233458"/>
<path d="M104.389 377.45C104.41 377.592 104.119 377.971 103.738 378.021C103.358 378.072 103.034 377.776 103.013 377.634C102.993 377.493 103.284 377.336 103.664 377.286C104.044 377.235 104.369 377.309 104.389 377.45V377.45Z" fill="white" stroke="white" stroke-width="0.116757"/>
<path d="M105.748 376.469C105.811 377.581 105.498 378.339 105.459 379.524C105.401 381.245 106.315 383.216 104.938 385.189" stroke="white" stroke-width="0.700373" stroke-linecap="round" stroke-linejoin="round"/>
<path d="M122.673 393.325V373.411H129.629C131.023 373.411 132.251 373.648 133.313 374.122C134.375 374.596 135.205 375.284 135.802 376.185C136.409 377.076 136.713 378.148 136.713 379.399C136.713 380.68 136.433 381.761 135.873 382.643C135.314 383.524 134.503 384.198 133.441 384.662C132.379 385.118 131.089 385.345 129.572 385.345H125.347V393.325H122.673ZM125.347 382.998H129.657C131.051 382.998 132.128 382.704 132.886 382.116C133.654 381.528 134.038 380.642 134.038 379.456C134.038 378.299 133.645 377.398 132.858 376.754C132.08 376.109 131.023 375.786 129.686 375.786H125.347V382.998ZM145.841 393.752C144.4 393.752 143.115 393.415 141.986 392.742C140.858 392.069 139.971 391.173 139.326 390.054C138.682 388.935 138.359 387.702 138.359 386.355C138.359 385.359 138.544 384.416 138.914 383.524C139.284 382.633 139.805 381.846 140.479 381.163C141.152 380.471 141.944 379.93 142.854 379.542C143.765 379.153 144.76 378.958 145.841 378.958C147.292 378.958 148.582 379.295 149.71 379.968C150.839 380.642 151.726 381.538 152.37 382.657C153.015 383.776 153.338 385.009 153.338 386.355C153.338 387.351 153.153 388.294 152.783 389.186C152.413 390.077 151.892 390.864 151.218 391.547C150.545 392.23 149.753 392.77 148.843 393.169C147.932 393.558 146.932 393.752 145.841 393.752ZM145.841 391.391C146.78 391.391 147.61 391.187 148.331 390.779C149.061 390.362 149.635 389.779 150.052 389.029C150.469 388.271 150.678 387.379 150.678 386.355C150.678 385.321 150.469 384.43 150.052 383.681C149.644 382.922 149.075 382.339 148.345 381.931C147.615 381.524 146.78 381.32 145.841 381.32C144.902 381.32 144.068 381.524 143.338 381.931C142.617 382.339 142.048 382.922 141.631 383.681C141.223 384.43 141.019 385.321 141.019 386.355C141.019 387.379 141.223 388.271 141.631 389.029C142.048 389.779 142.622 390.362 143.352 390.779C144.082 391.187 144.912 391.391 145.841 391.391ZM161.137 393.738C160.037 393.738 158.993 393.576 158.007 393.254C157.03 392.922 156.215 392.481 155.561 391.931L156.642 389.954C157.258 390.466 157.96 390.869 158.747 391.163C159.543 391.448 160.34 391.59 161.137 391.59C162.123 391.59 162.891 391.414 163.441 391.063C163.991 390.703 164.266 390.196 164.266 389.541C164.266 388.935 164.029 388.484 163.555 388.19C163.081 387.896 162.199 387.593 160.909 387.28C159.202 386.891 157.96 386.369 157.182 385.715C156.414 385.061 156.03 384.16 156.03 383.012C156.03 382.197 156.258 381.476 156.713 380.85C157.168 380.215 157.789 379.717 158.576 379.357C159.373 378.996 160.288 378.816 161.321 378.816C162.346 378.816 163.299 378.963 164.181 379.257C165.072 379.542 165.845 379.959 166.499 380.509L165.489 382.5C165.157 382.187 164.764 381.917 164.309 381.689C163.863 381.462 163.384 381.286 162.872 381.163C162.36 381.03 161.848 380.964 161.336 380.964C160.492 380.964 159.799 381.135 159.259 381.476C158.728 381.817 158.462 382.292 158.462 382.899C158.462 383.534 158.718 383.999 159.23 384.293C159.752 384.587 160.615 384.876 161.819 385.16C163.564 385.549 164.816 386.071 165.575 386.725C166.333 387.37 166.713 388.261 166.713 389.399C166.713 390.281 166.48 391.049 166.016 391.704C165.551 392.348 164.901 392.851 164.067 393.211C163.232 393.562 162.256 393.738 161.137 393.738ZM176.196 393.752C174.897 393.752 173.849 393.373 173.053 392.614C172.265 391.855 171.872 390.684 171.872 389.1V375.288H174.489V379.385H178.572V381.604H174.489V388.446C174.489 389.508 174.679 390.257 175.058 390.694C175.447 391.12 176.011 391.334 176.751 391.334C177.083 391.334 177.396 391.296 177.69 391.22C177.993 391.144 178.259 391.045 178.486 390.921L179.027 393.069C178.638 393.278 178.197 393.444 177.704 393.567C177.211 393.69 176.708 393.752 176.196 393.752ZM168.686 381.604V379.385H172.27V381.604H168.686ZM187.97 399.726C186.927 399.726 185.988 399.631 185.153 399.442C184.328 399.252 183.622 398.982 183.034 398.631C182.446 398.29 181.996 397.872 181.683 397.379C181.379 396.886 181.227 396.336 181.227 395.729C181.227 395.227 181.36 394.762 181.626 394.335C181.891 393.918 182.285 393.558 182.806 393.254C183.328 392.941 183.973 392.704 184.741 392.543C184.181 392.268 183.759 391.96 183.475 391.618C183.2 391.267 183.062 390.864 183.062 390.409C183.062 390.02 183.176 389.66 183.404 389.328C183.631 388.987 183.949 388.683 184.357 388.418C184.774 388.143 185.267 387.92 185.836 387.749C186.415 387.569 187.05 387.455 187.742 387.408L188.382 388.631C187.776 388.631 187.249 388.683 186.803 388.788C186.367 388.892 186.026 389.044 185.779 389.243C185.542 389.432 185.424 389.66 185.424 389.926C185.424 390.286 185.623 390.542 186.021 390.694C186.429 390.836 186.974 390.935 187.657 390.992L190.047 391.177C191.232 391.272 192.237 391.467 193.062 391.76C193.887 392.054 194.518 392.462 194.954 392.984C195.39 393.505 195.609 394.164 195.609 394.961C195.609 395.634 195.424 396.26 195.054 396.839C194.693 397.427 194.177 397.934 193.503 398.361C192.83 398.787 192.024 399.119 191.085 399.356C190.146 399.603 189.108 399.726 187.97 399.726ZM188.169 397.82C189.677 397.82 190.862 397.588 191.725 397.123C192.588 396.658 193.02 396.061 193.02 395.331C193.02 394.771 192.721 394.33 192.124 394.008C191.536 393.695 190.644 393.496 189.449 393.411L186.917 393.226C186.253 393.273 185.684 393.392 185.21 393.581C184.736 393.78 184.371 394.036 184.115 394.349C183.868 394.662 183.745 395.018 183.745 395.416C183.745 395.89 183.925 396.308 184.286 396.668C184.646 397.028 185.153 397.308 185.808 397.507C186.472 397.716 187.259 397.82 188.169 397.82ZM188.098 388.873C186.96 388.873 185.931 388.655 185.011 388.219C184.101 387.773 183.375 387.175 182.835 386.426C182.304 385.677 182.038 384.838 182.038 383.909C182.038 382.989 182.304 382.154 182.835 381.405C183.375 380.656 184.106 380.063 185.025 379.627C185.945 379.181 186.969 378.958 188.098 378.958C189.236 378.958 190.26 379.181 191.17 379.627C192.09 380.063 192.816 380.656 193.347 381.405C193.887 382.154 194.158 382.989 194.158 383.909C194.158 384.838 193.887 385.677 193.347 386.426C192.816 387.175 192.095 387.773 191.185 388.219C190.274 388.655 189.245 388.873 188.098 388.873ZM188.098 386.796C188.8 386.796 189.416 386.678 189.947 386.44C190.488 386.194 190.91 385.857 191.213 385.431C191.517 384.994 191.668 384.487 191.668 383.909C191.668 383.055 191.336 382.363 190.673 381.832C190.018 381.291 189.16 381.021 188.098 381.021C187.396 381.021 186.775 381.144 186.235 381.391C185.703 381.637 185.286 381.979 184.983 382.415C184.689 382.842 184.542 383.34 184.542 383.909C184.542 384.762 184.869 385.459 185.523 386C186.187 386.531 187.045 386.796 188.098 386.796ZM190.303 381.533L189.335 379.627L196.533 379.385L196.505 381.604L190.303 381.533ZM199.357 393.325V379.385H201.974V381.405C202.534 380.495 203.197 379.859 203.965 379.499C204.743 379.129 205.568 378.944 206.441 378.944C206.716 378.944 206.981 378.958 207.237 378.987C207.493 379.015 207.744 379.053 207.991 379.101L207.607 381.817C207.341 381.742 207.071 381.685 206.796 381.647C206.521 381.599 206.251 381.576 205.985 381.576C204.819 381.576 203.856 381.941 203.098 382.671C202.349 383.392 201.974 384.359 201.974 385.573V393.325H199.357ZM216.743 393.752C215.263 393.752 213.959 393.444 212.831 392.827C211.702 392.211 210.821 391.353 210.185 390.253C209.55 389.143 209.232 387.853 209.232 386.384C209.232 385.321 209.412 384.335 209.773 383.425C210.143 382.514 210.655 381.727 211.309 381.064C211.973 380.4 212.746 379.883 213.628 379.513C214.519 379.143 215.486 378.958 216.529 378.958C217.658 378.958 218.663 379.157 219.545 379.556C220.436 379.954 221.171 380.514 221.75 381.234C222.338 381.946 222.76 382.785 223.016 383.752C223.272 384.71 223.324 385.753 223.172 386.881H211.821C211.793 387.811 211.982 388.626 212.39 389.328C212.798 390.02 213.386 390.561 214.154 390.95C214.931 391.338 215.851 391.533 216.913 391.533C217.691 391.533 218.45 391.41 219.189 391.163C219.929 390.916 220.583 390.551 221.152 390.068L222.262 392.017C221.807 392.386 221.266 392.704 220.64 392.97C220.024 393.226 219.379 393.42 218.706 393.553C218.032 393.686 217.378 393.752 216.743 393.752ZM211.963 384.847H220.555C220.517 383.671 220.152 382.756 219.46 382.102C218.767 381.438 217.776 381.106 216.487 381.106C215.235 381.106 214.201 381.438 213.386 382.102C212.57 382.756 212.096 383.671 211.963 384.847ZM233.298 393.752C231.961 393.752 230.657 393.567 229.386 393.197C228.116 392.818 227.044 392.277 226.172 391.576L227.509 389.485C228.002 389.892 228.561 390.238 229.187 390.523C229.813 390.807 230.477 391.026 231.179 391.177C231.88 391.329 232.592 391.405 233.312 391.405C234.725 391.405 235.859 391.13 236.712 390.58C237.575 390.03 238.007 389.224 238.007 388.162C238.007 387.384 237.717 386.725 237.139 386.184C236.57 385.644 235.503 385.151 233.938 384.705L231.776 384.065C229.955 383.534 228.623 382.837 227.779 381.974C226.935 381.111 226.513 380.03 226.513 378.731C226.513 377.858 226.688 377.071 227.039 376.369C227.39 375.668 227.883 375.066 228.519 374.563C229.154 374.051 229.903 373.662 230.766 373.397C231.639 373.122 232.592 372.984 233.625 372.984C234.906 372.984 236.096 373.174 237.196 373.553C238.305 373.923 239.22 374.421 239.941 375.047L238.561 377.052C238.135 376.692 237.646 376.384 237.096 376.128C236.546 375.862 235.958 375.663 235.332 375.53C234.706 375.388 234.071 375.317 233.426 375.317C232.563 375.317 231.8 375.445 231.136 375.701C230.482 375.947 229.97 376.317 229.6 376.81C229.239 377.294 229.059 377.882 229.059 378.574C229.059 379.077 229.178 379.518 229.415 379.897C229.652 380.267 230.064 380.608 230.652 380.921C231.24 381.234 232.051 381.542 233.085 381.846L235.389 382.529C237.163 383.05 238.466 383.738 239.301 384.591C240.135 385.435 240.553 386.545 240.553 387.92C240.553 389.077 240.268 390.096 239.699 390.978C239.14 391.851 238.319 392.533 237.238 393.026C236.157 393.51 234.844 393.752 233.298 393.752ZM261.919 394.292L259.87 391.917C259.026 392.486 258.092 392.936 257.068 393.268C256.053 393.591 254.982 393.752 253.853 393.752C252.393 393.752 251.032 393.491 249.771 392.97C248.51 392.448 247.41 391.718 246.471 390.779C245.532 389.84 244.797 388.74 244.266 387.479C243.744 386.218 243.484 384.847 243.484 383.368C243.484 381.889 243.744 380.518 244.266 379.257C244.797 377.996 245.532 376.896 246.471 375.957C247.41 375.018 248.514 374.288 249.785 373.766C251.056 373.245 252.431 372.984 253.91 372.984C255.371 372.984 256.731 373.25 257.993 373.781C259.254 374.302 260.359 375.037 261.307 375.985C262.265 376.924 263.009 378.02 263.54 379.271C264.071 380.523 264.337 381.879 264.337 383.34C264.337 384.753 264.086 386.075 263.583 387.308C263.08 388.541 262.388 389.622 261.506 390.551L263.512 392.87L261.919 394.292ZM253.91 391.362C254.726 391.362 255.503 391.248 256.243 391.021C256.983 390.793 257.661 390.461 258.277 390.025L255.105 386.384L256.641 385.018L259.828 388.66C260.406 387.986 260.861 387.204 261.193 386.312C261.525 385.421 261.691 384.44 261.691 383.368C261.691 381.765 261.34 380.371 260.639 379.186C259.946 377.991 259.012 377.066 257.836 376.412C256.66 375.758 255.352 375.431 253.91 375.431C252.829 375.431 251.819 375.62 250.88 376C249.942 376.369 249.121 376.905 248.42 377.607C247.718 378.299 247.168 379.134 246.77 380.111C246.381 381.078 246.186 382.164 246.186 383.368C246.186 384.961 246.528 386.36 247.21 387.564C247.903 388.759 248.832 389.693 249.999 390.366C251.165 391.03 252.469 391.362 253.91 391.362ZM268.447 393.325V373.411H271.122V390.864H280.026V393.325H268.447Z" fill="#444B50"/>
</g>
<g filter="url(#filter4_d_1082_9333)">
<rect x="403.5" y="252.325" width="210.328" height="96" rx="47" fill="#D45749"/>
<rect x="404" y="252.825" width="209.328" height="95" rx="46.5" stroke="black" stroke-opacity="0.04"/>
<g clip-path="url(#clip1_1082_9333)">
<path d="M435.501 292.275H467.701V284.225H435.501V292.275Z" fill="white"/>
<path d="M459.651 289.592V316.426H467.701V289.592H459.651Z" fill="white"/>
<path d="M467.701 296.3H447.576V304.35H467.701V296.3Z" fill="white"/>
<path d="M467.701 308.375H435.5V316.426H467.701V308.375Z" fill="white"/>
<path d="M485.619 292.275V316.425H493.669V292.275H485.619Z" fill="white"/>
<path d="M505.744 284.225H473.543V292.275H505.744V284.225Z" fill="white"/>
<path d="M511.585 292.275H543.786V284.225H511.585V292.275Z" fill="white"/>
<path d="M535.736 289.592V316.426H543.786V289.592H535.736Z" fill="white"/>
<path d="M543.786 308.375H511.585V316.425H543.786V308.375Z" fill="white"/>
<path d="M511.585 289.592V316.426H519.635V289.592H511.585Z" fill="white"/>
<path d="M549.628 292.275H581.829V284.225H549.628V292.275Z" fill="white"/>
<path d="M581.829 308.375H549.628V316.425H581.829V308.375Z" fill="white"/>
<path d="M549.628 289.592V316.426H557.678V289.592H549.628Z" fill="white"/>
</g>
</g>
<g filter="url(#filter5_d_1082_9333)">
<rect x="716" y="343.325" width="185.999" height="80" rx="40" fill="white"/>
<rect x="716.5" y="343.825" width="184.999" height="79" rx="39.5" stroke="black" stroke-opacity="0.04"/>
<path d="M741.906 367.327C741.144 367.316 740.48 367.608 740.137 368.464C739.55 369.906 741.008 371.324 741.509 372.057C741.879 372.566 742.358 373.143 742.618 373.719C742.77 374.096 742.814 374.496 742.967 374.894C743.315 375.87 743.641 376.956 744.099 377.866C744.337 378.332 744.598 378.82 744.903 379.24C745.078 379.485 745.382 379.594 745.448 379.994C745.144 380.437 745.12 381.102 744.946 381.658C744.163 384.163 744.467 387.267 745.578 389.107C745.925 389.661 746.753 390.881 747.864 390.415C748.843 390.016 748.625 388.753 748.908 387.645C748.973 387.377 748.93 387.201 749.06 387.024V387.069C749.365 387.688 749.67 388.286 749.953 388.909C750.629 389.994 751.803 391.124 752.783 391.878C753.303 392.278 753.717 392.964 754.37 393.209V393.142H754.327C754.196 392.943 754.001 392.854 753.827 392.7C753.435 392.3 753.001 391.812 752.695 391.369C751.782 390.128 750.975 388.753 750.259 387.334C749.91 386.645 749.606 385.892 749.322 385.205C749.192 384.941 749.192 384.54 748.974 384.408C748.647 384.895 748.169 385.317 747.93 385.913C747.516 386.867 747.473 388.042 747.319 389.261C747.233 389.285 747.277 389.262 747.233 389.306C746.537 389.129 746.298 388.397 746.036 387.778C745.383 386.202 745.274 383.674 745.84 381.856C745.992 381.392 746.647 379.929 746.385 379.485C746.253 379.062 745.818 378.82 745.579 378.486C745.297 378.065 744.99 377.534 744.797 377.067C744.274 375.826 744.011 374.451 743.447 373.21C743.186 372.632 742.728 372.034 742.359 371.503C741.945 370.904 741.488 370.483 741.161 369.774C741.053 369.529 740.901 369.13 741.074 368.865C741.117 368.687 741.205 368.62 741.38 368.576C741.661 368.332 742.467 368.642 742.75 368.775C743.555 369.106 744.23 369.418 744.903 369.883C745.208 370.105 745.535 370.526 745.926 370.638H746.384C747.08 370.792 747.865 370.681 748.518 370.881C749.67 371.258 750.715 371.812 751.651 372.411C754.501 374.251 756.852 376.868 758.44 379.993C758.701 380.502 758.811 380.968 759.05 381.499C759.507 382.588 760.074 383.696 760.531 384.759C760.987 385.802 761.423 386.865 762.077 387.73C762.402 388.195 763.708 388.439 764.296 388.683C764.73 388.882 765.406 389.06 765.798 389.303C766.538 389.768 767.276 390.301 767.973 390.812C768.32 391.078 769.408 391.631 769.474 392.076C767.733 392.031 766.384 392.209 765.252 392.697C764.926 392.83 764.404 392.829 764.36 393.251C764.535 393.428 764.556 393.716 764.709 393.961C764.97 394.404 765.426 395.002 765.841 395.313C766.298 395.668 766.755 396.022 767.234 396.332C768.082 396.866 769.04 397.176 769.866 397.707C770.346 398.017 770.823 398.416 771.303 398.75C771.542 398.927 771.693 399.216 771.999 399.325V399.258C771.845 399.059 771.803 398.771 771.651 398.548C771.434 398.328 771.216 398.127 770.998 397.906C770.366 397.042 769.582 396.289 768.735 395.668C768.038 395.179 766.514 394.513 766.232 393.695C766.232 393.695 766.209 393.672 766.188 393.65C766.667 393.605 767.234 393.428 767.691 393.293C768.43 393.094 769.105 393.139 769.866 392.94C770.215 392.851 770.563 392.739 770.913 392.63V392.429C770.519 392.031 770.238 391.498 769.825 391.122C768.716 390.147 767.496 389.194 766.233 388.394C765.558 387.951 764.687 387.664 763.969 387.286C763.709 387.153 763.274 387.088 763.121 386.865C762.729 386.377 762.51 385.735 762.228 385.158C761.598 383.939 760.987 382.587 760.444 381.299C760.052 380.435 759.813 379.571 759.334 378.772C757.091 375.002 754.655 372.72 750.912 370.48C750.106 370.014 749.149 369.815 748.127 369.571C747.582 369.548 747.039 369.505 746.494 369.483C746.146 369.327 745.797 368.905 745.492 368.706C744.717 368.207 743.176 367.345 741.908 367.325L741.906 367.327ZM747.275 372.807C746.906 372.807 746.645 372.853 746.382 372.919V372.963H746.425C746.6 373.317 746.906 373.563 747.121 373.873C747.297 374.228 747.449 374.581 747.623 374.936C747.644 374.915 747.665 374.892 747.665 374.892C747.972 374.671 748.124 374.316 748.124 373.784C747.993 373.627 747.972 373.473 747.863 373.318C747.732 373.096 747.449 372.985 747.275 372.807Z" fill="#444B50"/>
<path d="M782.673 393.325V373.411H785.276L793.583 386.853H792.559L800.582 373.411H803.114V393.325H800.496L800.525 377.052L801.051 377.223L793.939 388.844H791.876L784.679 377.223L785.091 377.052L785.12 393.325H782.673ZM808.952 399.712C808.497 399.712 808.047 399.655 807.601 399.541C807.155 399.437 806.705 399.247 806.25 398.972L806.861 396.711C807.155 396.9 807.473 397.043 807.814 397.137C808.156 397.232 808.459 397.28 808.725 397.28C809.426 397.28 809.972 397.109 810.361 396.768C810.749 396.426 811.062 395.905 811.299 395.203L811.854 393.61L806.335 379.385H809.208L813.333 390.623L817.359 379.385H820.133L814.03 395.544C813.613 396.644 813.149 397.493 812.636 398.09C812.134 398.697 811.579 399.119 810.972 399.356C810.365 399.594 809.692 399.712 808.952 399.712ZM829.482 393.752C828.145 393.752 826.841 393.567 825.57 393.197C824.299 392.818 823.228 392.277 822.355 391.576L823.693 389.485C824.186 389.892 824.745 390.238 825.371 390.523C825.997 390.807 826.661 391.026 827.362 391.177C828.064 391.329 828.775 391.405 829.496 391.405C830.909 391.405 832.042 391.13 832.896 390.58C833.759 390.03 834.19 389.224 834.19 388.162C834.19 387.384 833.901 386.725 833.323 386.184C832.754 385.644 831.687 385.151 830.122 384.705L827.96 384.065C826.139 383.534 824.807 382.837 823.963 381.974C823.119 381.111 822.697 380.03 822.697 378.731C822.697 377.858 822.872 377.071 823.223 376.369C823.574 375.668 824.067 375.066 824.702 374.563C825.338 374.051 826.087 373.662 826.95 373.397C827.822 373.122 828.775 372.984 829.809 372.984C831.089 372.984 832.279 373.174 833.379 373.553C834.489 373.923 835.404 374.421 836.125 375.047L834.745 377.052C834.318 376.692 833.83 376.384 833.28 376.128C832.73 375.862 832.142 375.663 831.516 375.53C830.89 375.388 830.255 375.317 829.61 375.317C828.747 375.317 827.984 375.445 827.32 375.701C826.665 375.947 826.153 376.317 825.784 376.81C825.423 377.294 825.243 377.882 825.243 378.574C825.243 379.077 825.362 379.518 825.599 379.897C825.836 380.267 826.248 380.608 826.836 380.921C827.424 381.234 828.235 381.542 829.269 381.846L831.573 382.529C833.346 383.05 834.65 383.738 835.485 384.591C836.319 385.435 836.736 386.545 836.736 387.92C836.736 389.077 836.452 390.096 835.883 390.978C835.324 391.851 834.503 392.533 833.422 393.026C832.341 393.51 831.028 393.752 829.482 393.752ZM858.103 394.292L856.054 391.917C855.21 392.486 854.276 392.936 853.252 393.268C852.237 393.591 851.166 393.752 850.037 393.752C848.577 393.752 847.216 393.491 845.955 392.97C844.693 392.448 843.593 391.718 842.655 390.779C841.716 389.84 840.981 388.74 840.45 387.479C839.928 386.218 839.667 384.847 839.667 383.368C839.667 381.889 839.928 380.518 840.45 379.257C840.981 377.996 841.716 376.896 842.655 375.957C843.593 375.018 844.698 374.288 845.969 373.766C847.24 373.245 848.615 372.984 850.094 372.984C851.554 372.984 852.915 373.25 854.177 373.781C855.438 374.302 856.543 375.037 857.491 375.985C858.449 376.924 859.193 378.02 859.724 379.271C860.255 380.523 860.521 381.879 860.521 383.34C860.521 384.753 860.269 386.075 859.767 387.308C859.264 388.541 858.572 389.622 857.69 390.551L859.696 392.87L858.103 394.292ZM850.094 391.362C850.91 391.362 851.687 391.248 852.427 391.021C853.167 390.793 853.845 390.461 854.461 390.025L851.289 386.384L852.825 385.018L856.011 388.66C856.59 387.986 857.045 387.204 857.377 386.312C857.709 385.421 857.875 384.44 857.875 383.368C857.875 381.765 857.524 380.371 856.822 379.186C856.13 377.991 855.196 377.066 854.02 376.412C852.844 375.758 851.535 375.431 850.094 375.431C849.013 375.431 848.003 375.62 847.064 376C846.125 376.369 845.305 376.905 844.603 377.607C843.902 378.299 843.352 379.134 842.953 380.111C842.564 381.078 842.37 382.164 842.37 383.368C842.37 384.961 842.711 386.36 843.394 387.564C844.087 388.759 845.016 389.693 846.182 390.366C847.349 391.03 848.653 391.362 850.094 391.362ZM864.631 393.325V373.411H867.305V390.864H876.21V393.325H864.631Z" fill="#444B50"/>
</g>
<g filter="url(#filter6_d_1082_9333)">
<rect x="364" y="456.325" width="289.999" height="80" rx="40" fill="white"/>
<rect x="364.5" y="456.825" width="288.999" height="79" rx="39.5" stroke="black" stroke-opacity="0.04"/>
<path d="M408.203 495.264L401.189 497.356L395.087 499.817L393.38 500.229C392.945 500.607 392.489 500.989 391.996 501.377C391.455 501.803 390.952 502.191 390.565 502.472C390.135 502.782 389.499 503.363 389.176 503.731C388.693 504.283 388.312 504.869 388.147 505.32C387.856 506.134 387.999 506.957 388.561 507.718C389.282 508.686 390.719 509.674 392.394 510.348C393.247 510.692 394.684 511.132 395.766 511.379C397.563 511.796 401.041 512.246 402.954 512.314C403.341 512.329 403.861 512.329 403.882 512.314C403.925 512.29 404.221 511.772 404.566 511.128C405.743 508.933 406.591 506.875 407.052 505.116C407.328 504.051 407.545 502.632 407.689 500.951C407.726 500.481 407.742 498.907 407.71 498.374C407.662 497.502 407.577 496.795 407.445 496.102C407.423 496 407.418 495.908 407.429 495.903C407.45 495.889 407.514 495.87 408.378 495.642L408.203 495.264V495.264H408.203V495.264ZM406.602 496.121C406.665 496.121 406.835 497.608 406.877 498.548C406.888 498.747 406.883 498.877 406.872 498.877C406.83 498.877 405.976 498.417 405.367 498.069C404.836 497.763 403.829 497.153 403.67 497.037C403.617 497.003 403.622 496.998 404.057 496.862C404.794 496.635 406.544 496.121 406.602 496.121ZM403.029 497.197C403.076 497.197 403.198 497.26 403.49 497.424C404.582 498.049 406.066 498.805 406.703 499.057C406.899 499.134 406.92 499.105 406.469 499.386C405.504 499.987 404.301 500.578 402.827 501.173C402.567 501.28 402.35 501.362 402.345 501.362C402.334 501.362 402.366 501.241 402.408 501.096C402.763 499.89 402.965 498.669 402.976 497.691C402.981 497.206 402.981 497.206 403.029 497.192C403.018 497.197 403.023 497.197 403.029 497.197ZM402.292 497.453C402.323 497.482 402.302 498.567 402.26 498.863C402.164 499.57 402.016 500.229 401.772 500.97C401.714 501.149 401.661 501.299 401.65 501.309C401.629 501.333 400.903 500.684 400.664 500.432C400.251 499.996 399.927 499.56 399.689 499.134C399.567 498.916 399.376 498.49 399.392 498.475C399.477 498.422 402.271 497.434 402.292 497.453ZM398.825 498.698C398.83 498.698 398.835 498.698 398.84 498.703C398.851 498.713 398.888 498.79 398.92 498.877C399.09 499.299 399.471 499.919 399.8 500.316C400.161 500.752 400.632 501.217 401.025 501.522C401.152 501.619 401.268 501.711 401.284 501.726C401.316 501.755 401.327 501.75 400.463 502.05C399.461 502.399 398.369 502.748 397.117 503.116C396.819 503.204 396.52 503.293 396.222 503.382C396.174 503.397 396.19 503.373 396.328 503.174C396.948 502.287 397.891 500.549 398.422 499.318C398.512 499.105 398.602 498.892 398.618 498.844C398.639 498.776 398.665 498.752 398.734 498.718C398.771 498.708 398.809 498.698 398.825 498.698ZM397.764 499.1C397.78 499.11 397.51 499.628 397.245 500.103C396.73 501.018 396.168 501.919 395.416 503.014C395.288 503.203 395.167 503.377 395.151 503.397C395.124 503.431 395.113 503.421 395.029 503.271C394.848 502.946 394.7 502.53 394.62 502.147C394.541 501.769 394.557 501.11 394.647 500.704C394.716 500.403 394.711 500.408 394.87 500.335C395.548 500.021 397.743 499.081 397.764 499.1ZM406.909 499.439V499.643C406.909 500.723 406.782 502.205 406.596 503.285C406.565 503.474 406.538 503.629 406.533 503.634C406.533 503.634 406.379 503.595 406.199 503.547C405.404 503.319 404.54 502.985 403.76 502.593C403.246 502.336 402.498 501.915 402.52 501.895C402.525 501.89 402.748 501.784 403.007 501.658C404.047 501.164 405.043 500.631 405.907 500.103C406.231 499.904 406.718 499.585 406.825 499.498L406.909 499.439ZM393.762 500.873C393.783 500.873 393.777 500.912 393.746 501.086C393.724 501.212 393.698 501.445 393.687 501.604C393.645 502.312 393.772 502.835 394.154 503.552C394.26 503.75 394.345 503.915 394.339 503.92C394.302 503.949 390.793 504.889 389.69 505.165C389.361 505.247 389.075 505.32 389.054 505.325C389.017 505.334 389.011 505.329 389.027 505.247C389.149 504.535 389.743 503.605 390.57 502.82C391.121 502.297 391.561 501.992 392.314 501.6C392.855 501.319 393.687 500.897 393.751 500.878C393.751 500.873 393.756 500.873 393.762 500.873ZM402.032 502.225C402.037 502.22 402.164 502.283 402.318 502.365C403.453 502.966 405.033 503.523 406.379 503.808L406.501 503.833L406.331 503.92C405.626 504.278 403.31 505.16 400.94 505.969C400.595 506.085 400.256 506.201 400.192 506.226C400.129 506.25 400.07 506.264 400.07 506.259C400.07 506.255 400.166 506.085 400.288 505.877C400.95 504.743 401.618 503.363 401.958 502.404C402 502.312 402.027 502.229 402.032 502.225ZM401.189 502.476C401.194 502.481 401.152 502.583 401.099 502.699C400.638 503.721 400.033 504.835 399.259 506.085C399.063 506.405 398.899 506.662 398.893 506.662C398.888 506.662 398.729 506.574 398.538 506.468C397.414 505.838 396.418 505.063 395.766 504.312L395.67 504.206L396.153 504.085C397.881 503.654 399.349 503.189 400.807 502.617C401.014 502.539 401.184 502.476 401.189 502.476ZM406.427 504.148C406.432 504.259 406.162 505.257 405.939 505.978C405.754 506.584 405.594 507.059 405.303 507.897C405.176 508.265 405.064 508.57 405.059 508.57C405.054 508.57 405.022 508.565 404.99 508.555C403.416 508.294 402.005 507.931 400.68 507.446C400.309 507.311 399.779 507.093 399.747 507.068C399.736 507.059 400.055 506.923 400.457 506.763C402.87 505.799 405.372 504.705 406.231 504.235C406.331 504.177 406.411 504.148 406.427 504.148ZM394.334 504.525C394.345 504.535 393.671 505.421 392.728 506.628C392.399 507.049 392.017 507.543 391.874 507.727C391.731 507.911 391.514 508.202 391.392 508.376L391.169 508.691L390.931 508.507C390.65 508.294 390.162 507.839 389.944 507.587C389.489 507.068 389.181 506.521 389.059 506.022C389.001 505.79 389.001 505.673 389.054 505.659C389.133 505.64 390.549 505.334 391.874 505.053C392.611 504.898 393.465 504.714 393.772 504.647C394.08 504.579 394.329 504.525 394.334 504.525ZM395.013 504.763L395.182 504.937C395.946 505.717 396.725 506.293 397.669 506.797C397.839 506.884 397.966 506.962 397.955 506.967C397.918 506.991 394.679 508.042 393.178 508.517C392.336 508.788 391.641 509.006 391.636 509.006C391.63 509.006 391.583 508.977 391.53 508.943L391.434 508.88L391.588 508.677C392.086 508.018 392.712 507.296 394.074 505.794L395.013 504.763ZM399.243 507.529C399.249 507.524 399.482 507.601 399.768 507.698C400.457 507.935 401.003 508.086 401.735 508.255C402.636 508.463 403.94 508.667 404.709 508.725C404.826 508.735 404.889 508.744 404.868 508.759C404.831 508.778 404.052 509.016 403.479 509.18C402.567 509.442 399.784 510.193 397.515 510.788C397.096 510.9 396.736 510.992 396.715 510.997C396.662 511.006 396.487 510.963 396.487 510.943C396.487 510.934 396.614 510.784 396.768 510.619C397.531 509.786 398.289 508.856 398.92 507.974C399.095 507.732 399.243 507.533 399.243 507.529ZM398.31 507.553C398.316 507.558 397.939 508.11 397.282 509.059C397.001 509.461 396.688 509.917 396.577 510.076C396.471 510.231 396.312 510.474 396.222 510.609L396.068 510.856L395.988 510.837C395.797 510.788 394.456 510.357 394.101 510.227C393.661 510.067 393.205 509.873 392.866 509.708C392.442 509.5 391.911 509.19 391.954 509.18C391.964 509.175 392.691 508.996 393.565 508.778C395.887 508.202 397.176 507.868 398.019 507.625C398.172 507.582 398.305 507.548 398.31 507.553ZM404.911 508.967H404.916C404.937 509.016 404.078 511.195 403.765 511.883C403.697 512.038 403.67 512.077 403.633 512.072C403.543 512.067 402.297 511.907 401.539 511.806C400.219 511.622 398.003 511.268 397.446 511.152L397.319 511.128L398.109 510.963C399.805 510.614 400.622 510.425 401.449 510.193C402.493 509.902 403.527 509.539 404.571 509.093C404.736 509.025 404.874 508.972 404.911 508.967Z" fill="#C3C5C7"/>
<path d="M400.972 480.325C400.855 480.311 398.973 480.931 397.759 481.381C396.121 481.992 394.849 482.573 394.064 483.077C393.772 483.266 393.406 483.6 393.348 483.731C393.327 483.779 393.316 483.837 393.316 483.895L394.027 484.511L395.718 485.005L399.742 485.663L404.343 486.385L404.391 486.022C404.375 486.022 404.365 486.017 404.349 486.017L403.744 485.93L403.623 485.731C402.997 484.724 402.308 483.474 401.905 482.631C401.592 481.977 401.295 481.222 401.131 480.679C401.041 480.35 401.03 480.33 400.972 480.326V480.325H400.972V480.325ZM400.887 480.573H400.892C400.898 480.577 400.919 480.713 400.94 480.873C401.03 481.551 401.194 482.205 401.454 482.912C401.65 483.445 401.65 483.416 401.422 483.353C400.882 483.217 398.459 482.835 396.704 482.612C396.423 482.578 396.185 482.544 396.185 482.539C396.163 482.52 397.452 481.905 398.019 481.662C398.745 481.357 400.738 480.597 400.887 480.573ZM395.776 482.743L395.983 482.805C397.107 483.154 399.933 483.648 401.491 483.765C401.666 483.779 401.815 483.794 401.82 483.794C401.825 483.799 401.677 483.871 401.486 483.954C400.733 484.297 399.906 484.719 399.334 485.043C399.164 485.14 399.01 485.218 398.989 485.218C398.968 485.218 398.856 485.198 398.74 485.184L398.528 485.155L397.998 484.68C397.065 483.852 396.333 483.212 396.052 482.97L395.776 482.743ZM395.564 482.893L396.312 483.745C396.72 484.215 397.133 484.675 397.224 484.777C397.314 484.879 397.388 484.961 397.383 484.966C397.361 484.98 396.301 484.791 395.739 484.675C395.161 484.554 394.923 484.496 394.568 484.394L394.276 484.307V484.239C394.281 483.915 394.732 483.43 395.495 482.936L395.564 482.893ZM401.915 484.055C401.937 484.055 401.963 484.099 402.027 484.23C402.207 484.593 402.769 485.571 402.907 485.76C402.949 485.823 403.023 485.828 402.276 485.717C400.479 485.45 399.901 485.363 399.901 485.353C399.901 485.349 399.954 485.315 400.023 485.281C400.579 485 401.141 484.641 401.64 484.259C401.762 484.167 401.873 484.079 401.894 484.065C401.899 484.055 401.91 484.05 401.915 484.055Z" fill="#C3C5C7"/>
<path d="M393.385 483.663C393.385 483.663 393.269 483.833 393.38 484.085C393.449 484.24 393.65 484.428 393.878 484.622C393.878 484.622 396.237 486.724 396.524 487.025C397.828 488.4 398.395 489.757 398.448 491.626C398.48 492.828 398.231 493.884 397.611 495.109C396.508 497.308 394.18 499.735 390.591 502.428L391.116 502.268C391.456 502.036 391.917 501.789 392.998 501.246C395.495 499.996 398.305 498.849 401.751 497.667C406.713 495.962 414.872 493.966 419.516 493.317L419.999 493.249L419.924 493.142C419.5 492.542 419.209 492.169 418.859 491.772C417.841 490.619 416.606 489.684 415.095 488.909C413.017 487.848 410.329 487.02 406.925 486.405C406.284 486.288 404.874 486.066 403.728 485.906C401.3 485.562 399.731 485.325 398.003 485.053C397.383 484.956 396.455 484.811 395.84 484.69C395.522 484.627 394.912 484.496 394.435 484.346C394.053 484.21 393.502 484.075 393.385 483.663ZM394.753 484.874C394.758 484.869 394.843 484.898 394.955 484.932C395.156 484.995 395.416 485.068 395.723 485.145C395.956 485.204 396.189 485.26 396.423 485.315C396.741 485.387 397.006 485.455 397.011 485.455C397.049 485.489 397.584 487.054 397.764 487.654C397.833 487.882 397.886 488.076 397.881 488.076C397.876 488.081 397.817 487.998 397.748 487.887C397.128 486.889 396.147 485.877 395.013 485.063C394.864 484.966 394.753 484.879 394.753 484.874ZM397.361 485.533C397.388 485.533 397.505 485.547 397.648 485.576C398.549 485.76 400.166 486.041 401.2 486.201C401.375 486.225 401.512 486.255 401.512 486.264C401.512 486.274 401.449 486.308 401.369 486.347C401.194 486.429 400.489 486.812 400.256 486.957C399.668 487.315 399.137 487.703 398.756 488.052C398.602 488.192 398.469 488.308 398.469 488.308C398.469 488.308 398.438 488.226 398.411 488.124C398.22 487.451 397.823 486.453 397.462 485.751C397.404 485.639 397.356 485.538 397.356 485.528C397.356 485.538 397.356 485.533 397.361 485.533ZM401.952 486.332C401.984 486.342 402.037 486.506 402.143 486.87C402.339 487.572 402.43 488.357 402.398 489.088C402.387 489.292 402.377 489.481 402.366 489.505L402.35 489.553L402.074 489.471C401.507 489.306 400.585 489.059 399.795 488.856C399.344 488.744 398.978 488.643 398.978 488.633C398.978 488.604 399.636 488.003 399.917 487.776C400.452 487.344 401.905 486.318 401.952 486.332ZM402.318 486.38C402.334 486.366 404.513 486.71 405.504 486.884C406.241 487.015 407.312 487.218 407.376 487.243C407.408 487.252 407.296 487.31 406.941 487.456C405.542 488.032 404.502 488.55 403.469 489.18C403.198 489.345 402.97 489.481 402.965 489.481C402.96 489.481 402.955 489.34 402.955 489.171C402.955 488.25 402.753 487.32 402.382 486.536C402.345 486.458 402.313 486.385 402.318 486.38ZM407.954 487.398C407.97 487.412 407.901 487.805 407.837 488.037C407.646 488.759 407.132 489.829 406.501 490.837C406.39 491.016 406.289 491.161 406.278 491.166C406.268 491.171 406.125 491.098 405.96 491.011C405.345 490.682 404.646 490.372 403.882 490.081C403.67 489.999 403.485 489.931 403.479 489.921C403.442 489.892 405.149 488.861 406.051 488.366C406.766 487.969 407.933 487.378 407.954 487.398ZM408.357 487.456C408.404 487.456 409.369 487.698 409.873 487.834C411.119 488.173 412.55 488.652 413.483 489.04L413.87 489.2L413.6 489.258C411.32 489.737 409.369 490.29 407.487 490.987C407.333 491.045 407.196 491.094 407.185 491.094C407.174 491.094 407.227 490.982 407.296 490.847C407.864 489.747 408.229 488.599 408.319 487.62C408.325 487.528 408.341 487.456 408.357 487.456ZM398.75 489.471C398.766 489.456 399.503 489.616 399.901 489.718C400.505 489.873 401.788 490.265 401.788 490.294C401.788 490.299 401.645 490.411 401.475 490.546C400.781 491.074 400.113 491.631 399.312 492.338C399.074 492.547 398.872 492.716 398.862 492.716C398.851 492.716 398.846 492.687 398.851 492.648C398.973 491.835 398.947 490.788 398.777 489.728C398.761 489.592 398.745 489.476 398.75 489.471ZM414.236 489.485C414.247 489.495 413.897 489.999 413.674 490.285C413.356 490.701 412.889 491.253 411.834 492.464C411.278 493.104 410.652 493.825 410.445 494.068C410.233 494.31 410.058 494.513 410.053 494.513C410.048 494.513 409.979 494.426 409.905 494.32C409.311 493.506 408.6 492.794 407.758 492.154C407.599 492.033 407.424 491.902 407.365 491.864C407.307 491.825 407.259 491.786 407.259 491.781C407.259 491.767 408.16 491.413 408.844 491.161C410.043 490.716 411.675 490.183 412.9 489.839C413.541 489.655 414.225 489.476 414.236 489.485ZM414.644 489.582C414.665 489.577 414.793 489.636 414.946 489.718C416.235 490.391 417.496 491.258 418.493 492.149C418.774 492.401 419.469 493.06 419.458 493.065C419.458 493.065 419.214 493.084 418.928 493.104C416.696 493.259 413.838 493.69 411.092 494.295C410.907 494.334 410.742 494.368 410.732 494.368C410.721 494.368 410.928 494.179 411.188 493.951C412.799 492.532 413.536 491.636 414.406 490.038C414.528 489.8 414.634 489.597 414.644 489.582C414.639 489.582 414.639 489.582 414.644 489.582ZM402.838 490.687C402.912 490.701 403.601 490.997 404.121 491.234C404.598 491.452 405.314 491.801 405.351 491.83C405.356 491.835 405.102 491.956 404.789 492.096C403.792 492.552 402.939 492.983 402.048 493.477C401.793 493.617 401.581 493.733 401.576 493.733C401.555 493.733 401.56 493.714 401.703 493.477C402.18 492.682 402.562 491.733 402.78 490.808C402.801 490.735 402.822 490.687 402.838 490.687ZM402.149 490.803C402.165 490.817 401.984 491.413 401.873 491.738C401.656 492.353 401.29 493.123 400.935 493.704C400.85 493.84 400.723 494.039 400.654 494.15L400.521 494.344L400.224 494.082C399.88 493.777 399.599 493.588 399.238 493.419C399.095 493.351 398.984 493.293 398.984 493.283C398.984 493.244 399.89 492.493 400.585 491.951C401.083 491.559 402.133 490.788 402.149 490.803ZM406.363 492.387L406.623 492.542C407.217 492.895 407.917 493.365 408.452 493.777C408.754 494.005 409.337 494.484 409.454 494.6L409.518 494.663L409.088 494.775C406.66 495.39 404.783 495.937 402.594 496.674C402.35 496.756 402.143 496.824 402.127 496.824C402.096 496.824 402.069 496.848 402.615 496.388C404.015 495.211 405.255 493.913 406.178 492.648L406.363 492.387ZM405.255 492.639C405.266 492.648 404.54 493.583 404.105 494.111C403.585 494.741 402.663 495.797 402.027 496.485C401.762 496.77 401.534 497.008 401.523 497.013C401.507 497.017 401.502 496.945 401.502 496.833C401.502 496.247 401.338 495.622 401.051 495.09C400.929 494.867 400.908 494.814 400.935 494.789C401.035 494.707 402.578 493.903 403.554 493.423C404.211 493.104 405.239 492.629 405.255 492.639ZM398.554 494.14C398.57 494.14 398.692 494.198 398.83 494.266C399.169 494.436 399.471 494.625 399.742 494.828C399.752 494.838 399.615 494.94 399.434 495.061C398.931 495.39 398.167 495.918 397.722 496.243C397.255 496.582 397.24 496.591 397.292 496.519C397.642 496.029 397.817 495.753 398.003 495.4C398.167 495.085 398.332 494.712 398.448 494.387C398.491 494.247 398.544 494.14 398.554 494.14ZM400.341 495.419C400.367 495.414 400.399 495.458 400.542 495.652C400.844 496.063 401.078 496.616 401.136 497.061L401.147 497.158L400.42 497.415C399.121 497.875 397.923 498.33 397.112 498.669C396.884 498.766 396.487 498.941 396.227 499.057C395.967 499.178 395.755 499.27 395.755 499.265C395.755 499.26 395.919 499.149 396.121 499.013C397.706 497.962 399.079 496.809 400.108 495.656C400.219 495.535 400.32 495.424 400.33 495.419L400.341 495.419ZM399.519 495.603C399.54 495.623 398.936 496.247 398.522 496.63C397.499 497.584 396.487 498.33 395.23 499.057C395.071 499.149 394.928 499.231 394.912 499.241C394.875 499.26 394.923 499.212 395.474 498.664C395.824 498.321 396.089 498.03 396.391 497.672C396.593 497.434 396.63 497.4 396.921 497.211C397.701 496.698 399.498 495.584 399.519 495.603Z" fill="#D45749"/>
<path d="M430.673 506.325V486.411H433.276L441.583 499.853H440.559L448.582 486.411H451.114V506.325H448.496L448.525 490.052L449.051 490.223L441.939 501.844H439.876L432.679 490.223L433.091 490.052L433.12 506.325H430.673ZM462.813 506.752C461.476 506.752 460.172 506.567 458.901 506.197C457.63 505.818 456.559 505.277 455.686 504.576L457.023 502.485C457.517 502.892 458.076 503.238 458.702 503.523C459.328 503.807 459.992 504.026 460.693 504.177C461.395 504.329 462.106 504.405 462.827 504.405C464.24 504.405 465.373 504.13 466.227 503.58C467.09 503.03 467.521 502.224 467.521 501.162C467.521 500.384 467.232 499.725 466.653 499.184C466.084 498.644 465.018 498.151 463.453 497.705L461.291 497.065C459.47 496.534 458.138 495.837 457.294 494.974C456.45 494.111 456.028 493.03 456.028 491.731C456.028 490.858 456.203 490.071 456.554 489.369C456.905 488.668 457.398 488.066 458.033 487.563C458.669 487.051 459.418 486.662 460.281 486.397C461.153 486.122 462.106 485.984 463.14 485.984C464.42 485.984 465.61 486.174 466.71 486.553C467.82 486.923 468.735 487.421 469.456 488.047L468.076 490.052C467.649 489.692 467.161 489.384 466.611 489.128C466.061 488.862 465.473 488.663 464.847 488.53C464.221 488.388 463.586 488.317 462.941 488.317C462.078 488.317 461.314 488.445 460.651 488.701C459.996 488.947 459.484 489.317 459.114 489.81C458.754 490.294 458.574 490.882 458.574 491.574C458.574 492.077 458.692 492.518 458.93 492.897C459.167 493.267 459.579 493.608 460.167 493.921C460.755 494.234 461.566 494.542 462.599 494.846L464.904 495.529C466.677 496.05 467.981 496.738 468.816 497.591C469.65 498.435 470.067 499.545 470.067 500.92C470.067 502.077 469.783 503.096 469.214 503.978C468.654 504.851 467.834 505.533 466.753 506.026C465.672 506.51 464.359 506.752 462.813 506.752ZM487.678 506.752C486.341 506.752 485.037 506.567 483.766 506.197C482.496 505.818 481.424 505.277 480.552 504.576L481.889 502.485C482.382 502.892 482.941 503.238 483.567 503.523C484.193 503.807 484.857 504.026 485.559 504.177C486.26 504.329 486.972 504.405 487.692 504.405C489.105 504.405 490.239 504.13 491.092 503.58C491.955 503.03 492.386 502.224 492.386 501.162C492.386 500.384 492.097 499.725 491.519 499.184C490.95 498.644 489.883 498.151 488.318 497.705L486.156 497.065C484.335 496.534 483.003 495.837 482.159 494.974C481.315 494.111 480.893 493.03 480.893 491.731C480.893 490.858 481.068 490.071 481.419 489.369C481.77 488.668 482.263 488.066 482.899 487.563C483.534 487.051 484.283 486.662 485.146 486.397C486.019 486.122 486.972 485.984 488.005 485.984C489.285 485.984 490.476 486.174 491.576 486.553C492.685 486.923 493.6 487.421 494.321 488.047L492.941 490.052C492.514 489.692 492.026 489.384 491.476 489.128C490.926 488.862 490.338 488.663 489.712 488.53C489.086 488.388 488.451 488.317 487.806 488.317C486.943 488.317 486.18 488.445 485.516 488.701C484.862 488.947 484.35 489.317 483.98 489.81C483.619 490.294 483.439 490.882 483.439 491.574C483.439 492.077 483.558 492.518 483.795 492.897C484.032 493.267 484.444 493.608 485.032 493.921C485.62 494.234 486.431 494.542 487.465 494.846L489.769 495.529C491.542 496.05 492.846 496.738 493.681 497.591C494.515 498.435 494.933 499.545 494.933 500.92C494.933 502.077 494.648 503.096 494.079 503.978C493.52 504.851 492.699 505.533 491.618 506.026C490.537 506.51 489.224 506.752 487.678 506.752ZM516.299 507.292L514.25 504.917C513.406 505.486 512.472 505.936 511.448 506.268C510.433 506.591 509.362 506.752 508.233 506.752C506.773 506.752 505.412 506.491 504.151 505.97C502.89 505.448 501.79 504.718 500.851 503.779C499.912 502.84 499.177 501.74 498.646 500.479C498.124 499.218 497.864 497.847 497.864 496.368C497.864 494.889 498.124 493.518 498.646 492.257C499.177 490.996 499.912 489.896 500.851 488.957C501.79 488.018 502.894 487.288 504.165 486.766C505.436 486.245 506.811 485.984 508.29 485.984C509.751 485.984 511.111 486.25 512.373 486.781C513.634 487.302 514.739 488.037 515.687 488.985C516.645 489.924 517.389 491.02 517.92 492.271C518.451 493.523 518.717 494.879 518.717 496.34C518.717 497.753 518.466 499.075 517.963 500.308C517.46 501.541 516.768 502.622 515.886 503.551L517.892 505.87L516.299 507.292ZM508.29 504.362C509.106 504.362 509.883 504.248 510.623 504.021C511.363 503.793 512.041 503.461 512.657 503.025L509.485 499.384L511.021 498.018L514.208 501.66C514.786 500.986 515.241 500.204 515.573 499.312C515.905 498.421 516.071 497.44 516.071 496.368C516.071 494.765 515.72 493.371 515.018 492.186C514.326 490.991 513.392 490.066 512.216 489.412C511.04 488.758 509.732 488.431 508.29 488.431C507.209 488.431 506.199 488.62 505.26 489C504.322 489.369 503.501 489.905 502.8 490.607C502.098 491.299 501.548 492.134 501.149 493.111C500.761 494.078 500.566 495.164 500.566 496.368C500.566 497.961 500.908 499.36 501.59 500.564C502.283 501.759 503.212 502.693 504.378 503.366C505.545 504.03 506.849 504.362 508.29 504.362ZM522.827 506.325V486.411H525.502V503.864H534.406V506.325H522.827ZM551.578 506.752C550.241 506.752 548.937 506.567 547.666 506.197C546.395 505.818 545.324 505.277 544.451 504.576L545.788 502.485C546.281 502.892 546.841 503.238 547.467 503.523C548.093 503.807 548.756 504.026 549.458 504.177C550.16 504.329 550.871 504.405 551.592 504.405C553.005 504.405 554.138 504.13 554.992 503.58C555.855 503.03 556.286 502.224 556.286 501.162C556.286 500.384 555.997 499.725 555.418 499.184C554.849 498.644 553.782 498.151 552.218 497.705L550.056 497.065C548.235 496.534 546.903 495.837 546.059 494.974C545.215 494.111 544.793 493.03 544.793 491.731C544.793 490.858 544.968 490.071 545.319 489.369C545.67 488.668 546.163 488.066 546.798 487.563C547.434 487.051 548.183 486.662 549.046 486.397C549.918 486.122 550.871 485.984 551.905 485.984C553.185 485.984 554.375 486.174 555.475 486.553C556.585 486.923 557.5 487.421 558.221 488.047L556.841 490.052C556.414 489.692 555.926 489.384 555.376 489.128C554.826 488.862 554.238 488.663 553.612 488.53C552.986 488.388 552.351 488.317 551.706 488.317C550.843 488.317 550.079 488.445 549.416 488.701C548.761 488.947 548.249 489.317 547.879 489.81C547.519 490.294 547.339 490.882 547.339 491.574C547.339 492.077 547.457 492.518 547.694 492.897C547.931 493.267 548.344 493.608 548.932 493.921C549.52 494.234 550.331 494.542 551.364 494.846L553.669 495.529C555.442 496.05 556.746 496.738 557.58 497.591C558.415 498.435 558.832 499.545 558.832 500.92C558.832 502.077 558.548 503.096 557.979 503.978C557.419 504.851 556.599 505.533 555.518 506.026C554.437 506.51 553.123 506.752 551.578 506.752ZM568.861 506.752C567.382 506.752 566.078 506.444 564.949 505.827C563.821 505.211 562.939 504.353 562.304 503.253C561.668 502.143 561.351 500.853 561.351 499.384C561.351 498.321 561.531 497.335 561.891 496.425C562.261 495.514 562.773 494.727 563.427 494.064C564.091 493.4 564.864 492.883 565.746 492.513C566.637 492.143 567.605 491.958 568.648 491.958C569.776 491.958 570.782 492.157 571.663 492.556C572.555 492.954 573.29 493.514 573.868 494.234C574.456 494.946 574.878 495.785 575.134 496.752C575.39 497.71 575.442 498.753 575.291 499.881H563.94C563.911 500.811 564.101 501.626 564.508 502.328C564.916 503.02 565.504 503.561 566.272 503.95C567.05 504.338 567.97 504.533 569.032 504.533C569.81 504.533 570.568 504.41 571.308 504.163C572.048 503.916 572.702 503.551 573.271 503.068L574.38 505.017C573.925 505.386 573.385 505.704 572.759 505.97C572.142 506.226 571.498 506.42 570.824 506.553C570.151 506.686 569.497 506.752 568.861 506.752ZM564.082 497.847H572.673C572.635 496.671 572.27 495.756 571.578 495.102C570.886 494.438 569.895 494.106 568.605 494.106C567.353 494.106 566.32 494.438 565.504 495.102C564.689 495.756 564.215 496.671 564.082 497.847ZM578.674 506.325V492.385H581.292V494.405C581.851 493.495 582.515 492.859 583.283 492.499C584.061 492.129 584.886 491.944 585.758 491.944C586.033 491.944 586.299 491.958 586.555 491.987C586.811 492.015 587.062 492.053 587.309 492.101L586.924 494.817C586.659 494.742 586.389 494.685 586.114 494.647C585.839 494.599 585.568 494.576 585.303 494.576C584.136 494.576 583.174 494.941 582.415 495.671C581.666 496.392 581.292 497.359 581.292 498.573V506.325H578.674ZM593.954 506.325L588.634 492.385H591.536L595.703 504.092H595.248L599.345 492.385H602.161L596.913 506.325H593.954ZM611.035 506.752C609.556 506.752 608.252 506.444 607.123 505.827C605.995 505.211 605.113 504.353 604.477 503.253C603.842 502.143 603.524 500.853 603.524 499.384C603.524 498.321 603.705 497.335 604.065 496.425C604.435 495.514 604.947 494.727 605.601 494.064C606.265 493.4 607.038 492.883 607.92 492.513C608.811 492.143 609.778 491.958 610.822 491.958C611.95 491.958 612.955 492.157 613.837 492.556C614.729 492.954 615.464 493.514 616.042 494.234C616.63 494.946 617.052 495.785 617.308 496.752C617.564 497.71 617.616 498.753 617.464 499.881H606.113C606.085 500.811 606.274 501.626 606.682 502.328C607.09 503.02 607.678 503.561 608.446 503.95C609.224 504.338 610.144 504.533 611.206 504.533C611.983 504.533 612.742 504.41 613.482 504.163C614.221 503.916 614.876 503.551 615.445 503.068L616.554 505.017C616.099 505.386 615.558 505.704 614.932 505.97C614.316 506.226 613.671 506.42 612.998 506.553C612.325 506.686 611.67 506.752 611.035 506.752ZM606.255 497.847H614.847C614.809 496.671 614.444 495.756 613.752 495.102C613.06 494.438 612.069 494.106 610.779 494.106C609.527 494.106 608.493 494.438 607.678 495.102C606.862 495.756 606.388 496.671 606.255 497.847ZM620.848 506.325V492.385H623.465V494.405C624.025 493.495 624.689 492.859 625.457 492.499C626.234 492.129 627.059 491.944 627.932 491.944C628.207 491.944 628.472 491.958 628.728 491.987C628.984 492.015 629.236 492.053 629.482 492.101L629.098 494.817C628.833 494.742 628.562 494.685 628.287 494.647C628.012 494.599 627.742 494.576 627.477 494.576C626.31 494.576 625.348 494.941 624.589 495.671C623.84 496.392 623.465 497.359 623.465 498.573V506.325H620.848Z" fill="#444B50"/>
</g>
</g>
<defs>
<filter id="filter0_d_1082_9333" x="57.2" y="147.525" width="246.599" height="113.6" filterUnits="userSpaceOnUse" color-interpolation-filters="sRGB">
<feFlood flood-opacity="0" result="BackgroundImageFix"/>
<feColorMatrix in="SourceAlpha" type="matrix" values="0 0 0 0 0 0 0 0 0 0 0 0 0 0 0 0 0 0 127 0" result="hardAlpha"/>
<feMorphology radius="17" operator="erode" in="SourceAlpha" result="effect1_dropShadow_1082_9333"/>
<feOffset dy="4"/>
<feGaussianBlur stdDeviation="16.9"/>
<feComposite in2="hardAlpha" operator="out"/>
<feColorMatrix type="matrix" values="0 0 0 0 0 0 0 0 0 0 0 0 0 0 0 0 0 0 0.25 0"/>
<feBlend mode="normal" in2="BackgroundImageFix" result="effect1_dropShadow_1082_9333"/>
<feBlend mode="normal" in="SourceGraphic" in2="effect1_dropShadow_1082_9333" result="shape"/>
</filter>
<filter id="filter1_d_1082_9333" x="412.2" y="51.2" width="192.599" height="113.6" filterUnits="userSpaceOnUse" color-interpolation-filters="sRGB">
<feFlood flood-opacity="0" result="BackgroundImageFix"/>
<feColorMatrix in="SourceAlpha" type="matrix" values="0 0 0 0 0 0 0 0 0 0 0 0 0 0 0 0 0 0 127 0" result="hardAlpha"/>
<feMorphology radius="17" operator="erode" in="SourceAlpha" result="effect1_dropShadow_1082_9333"/>
<feOffset dy="4"/>
<feGaussianBlur stdDeviation="16.9"/>
<feComposite in2="hardAlpha" operator="out"/>
<feColorMatrix type="matrix" values="0 0 0 0 0 0 0 0 0 0 0 0 0 0 0 0 0 0 0.25 0"/>
<feBlend mode="normal" in2="BackgroundImageFix" result="effect1_dropShadow_1082_9333"/>
<feBlend mode="normal" in="SourceGraphic" in2="effect1_dropShadow_1082_9333" result="shape"/>
</filter>
<filter id="filter2_d_1082_9333" x="694.2" y="147.525" width="230.599" height="113.6" filterUnits="userSpaceOnUse" color-interpolation-filters="sRGB">
<feFlood flood-opacity="0" result="BackgroundImageFix"/>
<feColorMatrix in="SourceAlpha" type="matrix" values="0 0 0 0 0 0 0 0 0 0 0 0 0 0 0 0 0 0 127 0" result="hardAlpha"/>
<feMorphology radius="17" operator="erode" in="SourceAlpha" result="effect1_dropShadow_1082_9333"/>
<feOffset dy="4"/>
<feGaussianBlur stdDeviation="16.9"/>
<feComposite in2="hardAlpha" operator="out"/>
<feColorMatrix type="matrix" values="0 0 0 0 0 0 0 0 0 0 0 0 0 0 0 0 0 0 0.25 0"/>
<feBlend mode="normal" in2="BackgroundImageFix" result="effect1_dropShadow_1082_9333"/>
<feBlend mode="normal" in="SourceGraphic" in2="effect1_dropShadow_1082_9333" result="shape"/>
</filter>
<filter id="filter3_d_1082_9333" x="39.2" y="330.525" width="283.599" height="113.6" filterUnits="userSpaceOnUse" color-interpolation-filters="sRGB">
<feFlood flood-opacity="0" result="BackgroundImageFix"/>
<feColorMatrix in="SourceAlpha" type="matrix" values="0 0 0 0 0 0 0 0 0 0 0 0 0 0 0 0 0 0 127 0" result="hardAlpha"/>
<feMorphology radius="17" operator="erode" in="SourceAlpha" result="effect1_dropShadow_1082_9333"/>
<feOffset dy="4"/>
<feGaussianBlur stdDeviation="16.9"/>
<feComposite in2="hardAlpha" operator="out"/>
<feColorMatrix type="matrix" values="0 0 0 0 0 0 0 0 0 0 0 0 0 0 0 0 0 0 0.25 0"/>
<feBlend mode="normal" in2="BackgroundImageFix" result="effect1_dropShadow_1082_9333"/>
<feBlend mode="normal" in="SourceGraphic" in2="effect1_dropShadow_1082_9333" result="shape"/>
</filter>
<filter id="filter4_d_1082_9333" x="386.7" y="239.525" width="243.928" height="129.6" filterUnits="userSpaceOnUse" color-interpolation-filters="sRGB">
<feFlood flood-opacity="0" result="BackgroundImageFix"/>
<feColorMatrix in="SourceAlpha" type="matrix" values="0 0 0 0 0 0 0 0 0 0 0 0 0 0 0 0 0 0 127 0" result="hardAlpha"/>
<feMorphology radius="17" operator="erode" in="SourceAlpha" result="effect1_dropShadow_1082_9333"/>
<feOffset dy="4"/>
<feGaussianBlur stdDeviation="16.9"/>
<feComposite in2="hardAlpha" operator="out"/>
<feColorMatrix type="matrix" values="0 0 0 0 0 0 0 0 0 0 0 0 0 0 0 0 0 0 1 0"/>
<feBlend mode="normal" in2="BackgroundImageFix" result="effect1_dropShadow_1082_9333"/>
<feBlend mode="normal" in="SourceGraphic" in2="effect1_dropShadow_1082_9333" result="shape"/>
</filter>
<filter id="filter5_d_1082_9333" x="699.2" y="330.525" width="219.599" height="113.6" filterUnits="userSpaceOnUse" color-interpolation-filters="sRGB">
<feFlood flood-opacity="0" result="BackgroundImageFix"/>
<feColorMatrix in="SourceAlpha" type="matrix" values="0 0 0 0 0 0 0 0 0 0 0 0 0 0 0 0 0 0 127 0" result="hardAlpha"/>
<feMorphology radius="17" operator="erode" in="SourceAlpha" result="effect1_dropShadow_1082_9333"/>
<feOffset dy="4"/>
<feGaussianBlur stdDeviation="16.9"/>
<feComposite in2="hardAlpha" operator="out"/>
<feColorMatrix type="matrix" values="0 0 0 0 0 0 0 0 0 0 0 0 0 0 0 0 0 0 0.25 0"/>
<feBlend mode="normal" in2="BackgroundImageFix" result="effect1_dropShadow_1082_9333"/>
<feBlend mode="normal" in="SourceGraphic" in2="effect1_dropShadow_1082_9333" result="shape"/>
</filter>
<filter id="filter6_d_1082_9333" x="347.2" y="443.525" width="323.599" height="113.6" filterUnits="userSpaceOnUse" color-interpolation-filters="sRGB">
<feFlood flood-opacity="0" result="BackgroundImageFix"/>
<feColorMatrix in="SourceAlpha" type="matrix" values="0 0 0 0 0 0 0 0 0 0 0 0 0 0 0 0 0 0 127 0" result="hardAlpha"/>
<feMorphology radius="17" operator="erode" in="SourceAlpha" result="effect1_dropShadow_1082_9333"/>
<feOffset dy="4"/>
<feGaussianBlur stdDeviation="16.9"/>
<feComposite in2="hardAlpha" operator="out"/>
<feColorMatrix type="matrix" values="0 0 0 0 0 0 0 0 0 0 0 0 0 0 0 0 0 0 0.25 0"/>
<feBlend mode="normal" in2="BackgroundImageFix" result="effect1_dropShadow_1082_9333"/>
<feBlend mode="normal" in="SourceGraphic" in2="effect1_dropShadow_1082_9333" result="shape"/>
</filter>
<clipPath id="clip0_1082_9333">
<rect width="984" height="586" fill="white"/>
</clipPath>
<clipPath id="clip1_1082_9333">
<rect width="146.328" height="32" fill="white" transform="translate(435.5 284.325)"/>
</clipPath>
</defs>
</svg>
