<svg width="511" height="545" viewBox="0 0 511 545" fill="none" xmlns="http://www.w3.org/2000/svg">
<path d="M105.557 369.892L104.288 368.246L104.26 368.267L104.233 368.29L105.557 369.892ZM135.084 338.588C135.084 344.71 140.046 349.672 146.167 349.672C152.289 349.672 157.251 344.71 157.251 338.588C157.251 332.467 152.289 327.505 146.167 327.505C140.046 327.505 135.084 332.467 135.084 338.588ZM30.4351 422.816C30.4351 428.937 35.3974 433.899 41.5187 433.899C47.64 433.899 52.6023 428.937 52.6023 422.816C52.6023 416.694 47.64 411.732 41.5187 411.732C35.3974 411.732 30.4351 416.694 30.4351 422.816ZM215.703 341.022C215.703 347.143 220.666 352.105 226.787 352.105C232.908 352.105 237.871 347.143 237.871 341.022C237.871 334.901 232.908 329.938 226.787 329.938C220.666 329.938 215.703 334.901 215.703 341.022ZM215.703 508.954C215.703 515.076 220.666 520.038 226.787 520.038C232.908 520.038 237.871 515.076 237.871 508.954C237.871 502.833 232.908 497.871 226.787 497.871C220.666 497.871 215.703 502.833 215.703 508.954ZM143.344 398.774L142.161 397.065L142.007 397.172L141.875 397.304L143.344 398.774ZM143.344 455.241H141.266V456.236L142.041 456.86L143.344 455.241ZM163.699 480.545C163.699 486.666 168.661 491.629 174.783 491.629C180.904 491.629 185.866 486.666 185.866 480.545C185.866 474.424 180.904 469.461 174.783 469.461C168.661 469.461 163.699 474.424 163.699 480.545ZM310.569 341.022C310.569 347.143 315.532 352.105 321.653 352.105C327.774 352.105 332.736 347.143 332.736 341.022C332.736 334.901 327.774 329.938 321.653 329.938C315.532 329.938 310.569 334.901 310.569 341.022ZM321.653 420.771H319.575V421.766L320.35 422.39L321.653 420.771ZM360.687 452.188H362.765V451.192L361.99 450.569L360.687 452.188ZM307.38 494.282C307.38 500.403 312.343 505.365 318.464 505.365C324.585 505.365 329.548 500.403 329.548 494.282C329.548 488.16 324.585 483.198 318.464 483.198C312.343 483.198 307.38 488.16 307.38 494.282ZM389.078 485.705C389.078 491.826 394.04 496.789 400.162 496.789C406.283 496.789 411.245 491.826 411.245 485.705C411.245 479.584 406.283 474.621 400.162 474.621C394.04 474.621 389.078 479.584 389.078 485.705ZM383.064 338.588C383.064 344.71 388.026 349.672 394.147 349.672C400.268 349.672 405.231 344.71 405.231 338.588C405.231 332.467 400.268 327.505 394.147 327.505C388.026 327.505 383.064 332.467 383.064 338.588ZM472.788 410.804C472.788 416.925 477.75 421.887 483.871 421.887C489.992 421.887 494.955 416.925 494.955 410.804C494.955 404.682 489.992 399.72 483.871 399.72C477.75 399.72 472.788 404.682 472.788 410.804ZM439.009 374.696L440.312 373.077L439.009 374.696ZM427.926 437.813C427.926 443.934 432.888 448.897 439.009 448.897C445.13 448.897 450.093 443.934 450.093 437.813C450.093 431.692 445.13 426.729 439.009 426.729C432.888 426.729 427.926 431.692 427.926 437.813ZM383.953 293.258C383.953 299.379 388.915 304.341 395.036 304.341C401.158 304.341 406.12 299.379 406.12 293.258C406.12 287.136 401.158 282.174 395.036 282.174C388.915 282.174 383.953 287.136 383.953 293.258ZM470.984 293.258V295.336H471.716L472.287 294.877L470.984 293.258ZM384.18 243.675C384.18 249.797 389.143 254.759 395.264 254.759C401.385 254.759 406.347 249.797 406.347 243.675C406.347 237.554 401.385 232.592 395.264 232.592C389.143 232.592 384.18 237.554 384.18 243.675ZM495.364 243.675V245.754H497.443V243.675H495.364ZM484.281 171.039C484.281 177.16 489.243 182.122 495.364 182.122C501.486 182.122 506.448 177.16 506.448 171.039C506.448 164.917 501.486 159.955 495.364 159.955C489.243 159.955 484.281 164.917 484.281 171.039ZM383.064 199.331C383.064 205.452 388.026 210.415 394.147 210.415C400.268 210.415 405.231 205.452 405.231 199.331C405.231 193.21 400.268 188.248 394.147 188.248C388.026 188.248 383.064 193.21 383.064 199.331ZM469.962 129.391C469.962 135.512 474.924 140.474 481.045 140.474C487.166 140.474 492.129 135.512 492.129 129.391C492.129 123.269 487.166 118.307 481.045 118.307C474.924 118.307 469.962 123.269 469.962 129.391ZM437.596 164.361L438.899 165.98L437.596 164.361ZM394.147 129.391H392.069V130.386L392.844 131.01L394.147 129.391ZM383.064 76.7777C383.064 82.899 388.026 87.8614 394.147 87.8614C400.268 87.8614 405.231 82.899 405.231 76.7777C405.231 70.6564 400.268 65.6941 394.147 65.6941C388.026 65.6941 383.064 70.6564 383.064 76.7777ZM312.61 198.292C312.61 204.413 317.572 209.375 323.694 209.375C329.815 209.375 334.777 204.413 334.777 198.292C334.777 192.17 329.815 187.208 323.694 187.208C317.572 187.208 312.61 192.17 312.61 198.292ZM323.694 76.7777L322.391 75.1588L321.616 75.7827V76.7777H323.694ZM349.603 47.0038C349.603 53.1251 354.565 58.0874 360.687 58.0874C366.808 58.0874 371.77 53.1251 371.77 47.0038C371.77 40.8825 366.808 35.9202 360.687 35.9202C354.565 35.9202 349.603 40.8825 349.603 47.0038ZM212.975 198.292C212.975 204.413 217.938 209.375 224.059 209.375C230.18 209.375 235.143 204.413 235.143 198.292C235.143 192.17 230.18 187.208 224.059 187.208C217.938 187.208 212.975 192.17 212.975 198.292ZM198.096 70.1086H196.017V70.8375L196.473 71.4067L198.096 70.1086ZM181.748 146.584L180.445 148.203L181.016 148.663H181.748V146.584ZM139.652 112.703L137.635 113.203L137.803 113.882L138.349 114.321L139.652 112.703ZM132.813 201.604C132.813 207.725 137.775 212.688 143.896 212.688C150.017 212.688 154.98 207.725 154.98 201.604C154.98 195.483 150.017 190.52 143.896 190.52C137.775 190.52 132.813 195.483 132.813 201.604ZM91.5569 125.342L90.0511 126.774L90.215 126.947L90.4136 127.077L91.5569 125.342ZM131.708 242.846C131.708 248.968 136.67 253.93 142.791 253.93C148.913 253.93 153.875 248.968 153.875 242.846C153.875 236.725 148.913 231.763 142.791 231.763C136.67 231.763 131.708 236.725 131.708 242.846ZM131.947 295.133C131.947 301.254 136.909 306.216 143.031 306.216C149.152 306.216 154.114 301.254 154.114 295.133C154.114 289.011 149.152 284.049 143.031 284.049C136.909 284.049 131.947 289.011 131.947 295.133ZM21.0963 295.133C21.0963 301.254 26.0586 306.216 32.1799 306.216C38.3012 306.216 43.2635 301.254 43.2635 295.133C43.2635 289.011 38.3012 284.049 32.1799 284.049C26.0586 284.049 21.0963 289.011 21.0963 295.133ZM267.845 83.1658L266.375 81.6963L264.95 83.121L266.33 84.5891L267.845 83.1658ZM224.059 102.566H226.137V101.837L225.682 101.268L224.059 102.566ZM185.065 369.892V367.814H184.416L183.883 368.183L185.065 369.892ZM480.742 276.483C480.742 282.605 485.704 287.567 491.825 287.567C497.947 287.567 502.909 282.605 502.909 276.483C502.909 270.362 497.947 265.4 491.825 265.4C485.704 265.4 480.742 270.362 480.742 276.483ZM117.973 52.8766C117.973 58.9979 122.936 63.9602 129.057 63.9602C135.178 63.9602 140.14 58.9979 140.14 52.8766C140.14 46.7553 135.178 41.793 129.057 41.793C122.936 41.793 117.973 46.7553 117.973 52.8766ZM292.923 47.0038C292.923 53.1251 297.885 58.0874 304.007 58.0874C310.128 58.0874 315.09 53.1251 315.09 47.0038C315.09 40.8825 310.128 35.9202 304.007 35.9202C297.885 35.9202 292.923 40.8825 292.923 47.0038ZM187.012 16C187.012 22.1213 191.974 27.0836 198.096 27.0836C204.217 27.0836 209.179 22.1213 209.179 16C209.179 9.8787 204.217 4.9164 198.096 4.9164C191.974 4.9164 187.012 9.8787 187.012 16ZM229.804 27.3167C229.804 33.438 234.766 38.4003 240.887 38.4003C247.009 38.4003 251.971 33.438 251.971 27.3167C251.971 21.1954 247.009 16.2331 240.887 16.2331C234.766 16.2331 229.804 21.1954 229.804 27.3167ZM61.745 242.846L60.1695 244.202L60.7913 244.925H61.745V242.846ZM30.1511 164.361C30.1511 170.482 35.1134 175.444 41.2347 175.444C47.356 175.444 52.3183 170.482 52.3183 164.361C52.3183 158.24 47.356 153.277 41.2347 153.277C35.1134 153.277 30.1511 158.24 30.1511 164.361ZM129.557 72.0002L127.479 72.0546L127.485 72.2808L127.54 72.5005L129.557 72.0002ZM61.745 94H59.6669V94.8305L60.2392 95.4323L61.745 94ZM50.6614 52.8766C50.6614 58.9979 55.6237 63.9602 61.745 63.9602C67.8663 63.9602 72.8286 58.9979 72.8286 52.8766C72.8286 46.7553 67.8663 41.793 61.745 41.793C55.6237 41.793 50.6614 46.7553 50.6614 52.8766ZM117.727 142.583L119.626 141.74L119.379 141.183L118.87 140.847L117.727 142.583ZM80.4733 450.561C80.4733 456.682 85.4356 461.644 91.5569 461.644C97.6782 461.644 102.64 456.682 102.64 450.561C102.64 444.44 97.6782 439.477 91.5569 439.477C85.4356 439.477 80.4733 444.44 80.4733 450.561ZM41.2346 219H39.1564L39.1564 219.771L39.6591 220.355L41.2346 219ZM106.826 371.538L147.436 340.234L144.899 336.943L104.288 368.246L106.826 371.538ZM104.233 368.29L40.1948 421.214L42.8426 424.418L106.881 371.494L104.233 368.29ZM224.709 341.022V369.892H228.865V341.022H224.709ZM224.709 369.892V508.954H228.865V369.892H224.709ZM141.266 398.774V455.241H145.422V398.774H141.266ZM142.041 456.86L173.48 482.164L176.086 478.926L144.647 453.622L142.041 456.86ZM319.575 341.022V420.771H323.731V341.022H319.575ZM320.35 422.39L359.384 453.806L361.99 450.569L322.956 419.152L320.35 422.39ZM358.608 452.188V453.933H362.765V452.188H358.608ZM359.251 452.431L317.028 492.779L319.9 495.784L362.122 455.436L359.251 452.431ZM359.384 455.552L398.859 487.324L401.465 484.086L361.99 452.314L359.384 455.552ZM392.844 340.207L437.706 376.315L440.312 373.077L395.45 336.97L392.844 340.207ZM437.706 376.315L482.568 412.422L485.174 409.185L440.312 373.077L437.706 376.315ZM436.931 374.696V437.813H441.087V374.696H436.931ZM395.036 295.336H470.984V291.179H395.036V295.336ZM395.264 245.754H495.364V241.597H395.264V245.754ZM497.443 243.675V171.039H493.286V243.675H497.443ZM395.45 200.95L438.899 165.98L436.293 162.742L392.844 197.712L395.45 200.95ZM438.899 165.98L482.348 131.01L479.742 127.772L436.293 162.742L438.899 165.98ZM438.899 162.742L395.45 127.772L392.844 131.01L436.293 165.98L438.899 162.742ZM396.225 129.391V76.7777H392.069V129.391H396.225ZM324.997 78.3967L361.99 48.6228L359.384 45.3849L322.391 75.1588L324.997 78.3967ZM226.137 198.292V146.584H221.981V198.292H226.137ZM224.059 144.506H181.748V148.663H224.059V144.506ZM183.051 144.965L140.955 111.084L138.349 114.321L180.445 148.203L183.051 144.965ZM143.031 293.054H32.1799V297.211H143.031V293.054ZM325.772 198.292V142.583H321.616V198.292H325.772ZM325.772 142.583V76.7777H321.616V142.583H325.772ZM323.694 142.583C325.208 141.159 325.208 141.159 325.208 141.159C325.207 141.159 325.207 141.158 325.206 141.158C325.205 141.157 325.204 141.155 325.202 141.153C325.198 141.148 325.192 141.142 325.183 141.133C325.167 141.116 325.142 141.089 325.11 141.055C325.045 140.986 324.948 140.882 324.82 140.747C324.566 140.476 324.19 140.076 323.703 139.558C322.729 138.523 321.315 137.017 319.549 135.139C316.017 131.381 311.08 126.129 305.462 120.152C294.226 108.199 280.264 93.3444 269.359 81.7425L266.33 84.5891C277.236 96.191 291.198 111.045 302.434 122.999C308.052 128.976 312.988 134.228 316.52 137.985C318.286 139.864 319.701 141.369 320.674 142.405C321.161 142.922 321.537 143.323 321.792 143.594C321.919 143.729 322.016 143.832 322.081 143.901C322.114 143.936 322.138 143.962 322.155 143.98C322.163 143.988 322.169 143.995 322.173 143.999C322.175 144.002 322.177 144.003 322.178 144.004C322.178 144.005 322.179 144.005 322.179 144.006C322.179 144.006 322.18 144.006 323.694 142.583ZM226.137 146.584V102.566H221.981V146.584H226.137ZM224.059 102.566C225.682 101.268 225.682 101.268 225.682 101.268C225.682 101.268 225.681 101.268 225.681 101.267C225.68 101.265 225.681 101.267 225.679 101.265C225.677 101.263 225.674 101.258 225.67 101.254C225.663 101.244 225.651 101.23 225.636 101.211C225.606 101.173 225.561 101.117 225.502 101.043C225.383 100.895 225.208 100.676 224.982 100.393C224.53 99.8277 223.872 99.0055 223.051 97.9792C221.409 95.9265 219.114 93.0576 216.502 89.7926C211.279 83.2626 204.788 75.1482 199.718 68.8104L196.473 71.4067C201.542 77.7445 208.033 85.8589 213.257 92.3889C215.868 95.6539 218.163 98.5228 219.805 100.575C220.626 101.602 221.284 102.424 221.736 102.99C221.963 103.273 222.138 103.491 222.256 103.639C222.315 103.713 222.36 103.77 222.391 103.807C222.406 103.826 222.417 103.84 222.425 103.85C222.429 103.855 222.431 103.858 222.433 103.861C222.434 103.861 222.434 103.862 222.435 103.862C222.435 103.863 222.435 103.863 222.436 103.864C222.436 103.864 222.436 103.864 222.436 103.864C222.436 103.864 222.436 103.864 224.059 102.566ZM226.787 367.814H185.065V371.97H226.787V367.814ZM183.883 368.183L142.161 397.065L144.527 400.482L186.248 371.601L183.883 368.183ZM472.287 294.877L493.128 278.102L490.522 274.864L469.681 291.639L472.287 294.877ZM269.314 84.6353L305.476 48.4733L302.537 45.5343L266.375 81.6963L269.314 84.6353ZM200.174 70.1086V16H196.017V70.1086H200.174ZM199.565 71.578L242.357 28.7862L239.418 25.8472L196.626 68.6391L199.565 71.578ZM142.791 240.768H61.745V244.925H142.791V240.768ZM131.634 71.9459L131.134 52.8222L126.979 52.9309L127.479 72.0546L131.634 71.9459ZM93.0627 123.91L63.2508 92.5677L60.2392 95.4323L90.0511 126.774L93.0627 123.91ZM63.8232 94V52.8766H59.6669V94H63.8232ZM145.796 200.762L119.626 141.74L115.827 143.425L141.996 202.446L145.796 200.762ZM118.87 140.847L92.7002 123.607L90.4136 127.077L116.583 144.318L118.87 140.847ZM141.875 397.304L90.0874 449.091L93.0264 452.03L144.814 400.243L141.875 397.304ZM63.3206 241.491L42.8102 217.645L39.6591 220.355L60.1695 244.202L63.3206 241.491ZM43.3128 219L43.3129 164.361H39.1565L39.1564 219H43.3128ZM141.669 112.202L131.574 71.5L127.54 72.5005L137.635 113.203L141.669 112.202Z" fill="black" fill-opacity="0.04"/>
<g filter="url(#filter0_d_3122_4188)">
<rect x="274" y="135" width="212.999" height="80" rx="40" fill="white"/>
<rect x="274.5" y="135.5" width="211.999" height="79" rx="39.5" stroke="black" stroke-opacity="0.04"/>
<path d="M313.167 159H298V174.167H313.167V159Z" fill="#0078D4"/>
<path d="M329.999 159H314.832V174.167H329.999V159Z" fill="#0078D4"/>
<path d="M313.167 175.833H298V191H313.167V175.833Z" fill="#0078D4"/>
<path d="M329.999 175.833H314.832V191H329.999V175.833Z" fill="#0078D4"/>
<path d="M344.727 185L338.738 165.086H341.569L346.206 181.458L351.029 165.086H353.873L358.667 181.43L363.304 165.086H366.05L360.09 185H357.145L352.437 169.14L347.657 185H344.727ZM369.071 185V171.06H371.688V185H369.071ZM370.38 168.428C369.886 168.428 369.46 168.262 369.099 167.93C368.739 167.599 368.559 167.181 368.559 166.679C368.559 166.157 368.739 165.735 369.099 165.413C369.46 165.081 369.886 164.915 370.38 164.915C370.882 164.915 371.309 165.081 371.66 165.413C372.02 165.735 372.2 166.157 372.2 166.679C372.2 167.181 372.02 167.599 371.66 167.93C371.309 168.262 370.882 168.428 370.38 168.428ZM376.211 185V171.06H378.828V172.938C379.426 172.122 380.123 171.534 380.919 171.174C381.716 170.813 382.531 170.633 383.366 170.633C384.627 170.633 385.67 170.889 386.495 171.401C387.33 171.904 387.951 172.549 388.359 173.336C388.776 174.123 388.985 174.929 388.985 175.754V185H386.367V176.565C386.367 175.512 386.04 174.668 385.386 174.033C384.731 173.388 383.84 173.066 382.712 173.066C381.972 173.066 381.308 173.232 380.72 173.563C380.142 173.886 379.682 174.346 379.34 174.943C378.999 175.541 378.828 176.228 378.828 177.006V185H376.211ZM399.128 185.427C397.753 185.427 396.534 185.1 395.472 184.445C394.42 183.791 393.595 182.909 392.997 181.799C392.409 180.68 392.115 179.424 392.115 178.03C392.115 177.006 392.286 176.048 392.627 175.157C392.969 174.265 393.448 173.483 394.064 172.81C394.69 172.127 395.434 171.596 396.297 171.216C397.16 170.828 398.113 170.633 399.156 170.633C400.493 170.633 401.636 170.903 402.584 171.444C403.542 171.984 404.329 172.71 404.946 173.62L404.419 174.204V164.517H407.037V185H404.633V181.728L405.017 182.326C404.476 183.217 403.732 183.957 402.784 184.545C401.845 185.133 400.626 185.427 399.128 185.427ZM399.597 183.065C400.536 183.065 401.366 182.862 402.087 182.454C402.817 182.037 403.391 181.453 403.808 180.704C404.225 179.946 404.434 179.054 404.434 178.03C404.434 176.996 404.225 176.105 403.808 175.356C403.4 174.597 402.831 174.014 402.101 173.606C401.371 173.198 400.536 172.994 399.597 172.994C398.658 172.994 397.824 173.198 397.094 173.606C396.373 174.014 395.804 174.597 395.387 175.356C394.979 176.105 394.775 176.996 394.775 178.03C394.775 179.054 394.979 179.946 395.387 180.704C395.804 181.453 396.378 182.037 397.108 182.454C397.838 182.862 398.668 183.065 399.597 183.065ZM417.795 185.427C416.353 185.427 415.068 185.09 413.94 184.417C412.811 183.743 411.925 182.847 411.28 181.728C410.635 180.609 410.313 179.377 410.313 178.03C410.313 177.034 410.498 176.091 410.867 175.199C411.237 174.308 411.759 173.521 412.432 172.838C413.105 172.146 413.897 171.605 414.808 171.216C415.718 170.828 416.714 170.633 417.795 170.633C419.246 170.633 420.535 170.97 421.664 171.643C422.792 172.316 423.679 173.213 424.324 174.332C424.969 175.451 425.291 176.683 425.291 178.03C425.291 179.026 425.106 179.969 424.736 180.861C424.367 181.752 423.845 182.539 423.172 183.222C422.498 183.905 421.707 184.445 420.796 184.844C419.886 185.232 418.885 185.427 417.795 185.427ZM417.795 183.065C418.734 183.065 419.563 182.862 420.284 182.454C421.014 182.037 421.588 181.453 422.005 180.704C422.423 179.946 422.631 179.054 422.631 178.03C422.631 176.996 422.423 176.105 422.005 175.356C421.597 174.597 421.029 174.014 420.298 173.606C419.568 173.198 418.734 172.994 417.795 172.994C416.856 172.994 416.021 173.198 415.291 173.606C414.571 174.014 414.002 174.597 413.584 175.356C413.177 176.105 412.973 176.996 412.973 178.03C412.973 179.054 413.177 179.946 413.584 180.704C414.002 181.453 414.575 182.037 415.305 182.454C416.036 182.862 416.865 183.065 417.795 183.065ZM431.102 185L426.65 171.06H429.31L432.539 181.956L436.038 171.06H438.684L441.941 181.956L445.255 171.06H447.773L443.321 185H440.561L437.275 174.46L433.861 185H431.102ZM455.01 185.413C453.91 185.413 452.867 185.251 451.881 184.929C450.904 184.597 450.089 184.156 449.434 183.606L450.515 181.629C451.132 182.141 451.834 182.544 452.621 182.838C453.417 183.122 454.214 183.265 455.01 183.265C455.997 183.265 456.765 183.089 457.315 182.738C457.865 182.378 458.14 181.871 458.14 181.216C458.14 180.609 457.903 180.159 457.429 179.865C456.954 179.571 456.072 179.267 454.783 178.955C453.076 178.566 451.834 178.044 451.056 177.39C450.288 176.736 449.904 175.835 449.904 174.687C449.904 173.872 450.131 173.151 450.586 172.525C451.042 171.89 451.663 171.392 452.45 171.031C453.246 170.671 454.162 170.491 455.195 170.491C456.219 170.491 457.172 170.638 458.054 170.932C458.946 171.216 459.719 171.634 460.373 172.184L459.363 174.175C459.031 173.862 458.638 173.592 458.182 173.364C457.737 173.137 457.258 172.961 456.746 172.838C456.234 172.705 455.722 172.639 455.209 172.639C454.365 172.639 453.673 172.81 453.133 173.151C452.602 173.492 452.336 173.966 452.336 174.573C452.336 175.209 452.592 175.673 453.104 175.967C453.626 176.261 454.489 176.551 455.693 176.835C457.438 177.224 458.69 177.745 459.448 178.4C460.207 179.045 460.586 179.936 460.586 181.074C460.586 181.956 460.354 182.724 459.889 183.378C459.425 184.023 458.775 184.526 457.941 184.886C457.106 185.237 456.129 185.413 455.01 185.413Z" fill="#444B50"/>
</g>
<g filter="url(#filter1_d_3122_4188)">
<rect x="51" y="133" width="158.999" height="80" rx="40" fill="white"/>
<rect x="51.5" y="133.5" width="157.999" height="79" rx="39.5" stroke="black" stroke-opacity="0.04"/>
<path d="M87.1763 166.916C87.5589 165.412 87.1901 163.812 87.2432 162.262C87.3602 158.875 89.2543 158.107 91.1962 158.007C93.424 157.891 96.0611 159.201 96.2205 162.396C96.296 163.924 96.0239 165.504 96.4214 166.983C97.3472 170.432 101.321 172.923 101.379 176.491C101.432 179.882 99.8589 183.878 96.9571 185.667C95.4584 186.591 93.4251 185.482 91.6639 185.601C89.7049 185.733 87.526 187.46 85.836 186.466C82.7684 184.658 81.9223 180.025 82.1519 176.491C82.3858 172.9 86.2887 170.406 87.1763 166.916Z" fill="#333333"/>
<path d="M92.6319 166.12C93.5018 166.12 94.2071 165.215 94.2071 164.099C94.2071 162.983 93.5018 162.078 92.6319 162.078C91.7619 162.078 91.0566 162.983 91.0566 164.099C91.0566 165.215 91.7619 166.12 92.6319 166.12Z" fill="white" fill-opacity="0.941"/>
<path d="M88.9012 165.815C89.5158 165.815 90.0141 165.079 90.0141 164.17C90.0141 163.261 89.5158 162.524 88.9012 162.524C88.2866 162.524 87.7883 163.261 87.7883 164.17C87.7883 165.079 88.2866 165.815 88.9012 165.815Z" fill="white" fill-opacity="0.941"/>
<path d="M92.4364 165.487C92.7928 165.487 93.0816 165.013 93.0816 164.429C93.0816 163.844 92.7928 163.371 92.4364 163.371C92.0801 163.371 91.7913 163.844 91.7913 164.429C91.7913 165.013 92.0801 165.487 92.4364 165.487Z" fill="#232629"/>
<path d="M88.9066 165.216C89.1778 165.216 89.3977 164.863 89.3977 164.428C89.3977 163.993 89.1778 163.64 88.9066 163.64C88.6354 163.64 88.4155 163.993 88.4155 164.428C88.4155 164.863 88.6354 165.216 88.9066 165.216Z" fill="#232629"/>
<path d="M92.4236 166.183C92.2306 166.174 92.0372 166.175 91.8443 166.187C90.5369 166.263 89.136 166.772 88.4281 167.389C87.2951 168.378 87.9668 169.339 87.479 170.727C86.9911 172.116 85.7634 173.932 85.3957 175.664C85.2468 176.364 85.0577 177.063 84.928 177.766L88.4281 182.011C89.1158 182.845 87.3216 182.535 85.6529 181.463C86.837 183.116 89.186 184.754 91.5052 184.599C93.9754 184.434 96.892 181.871 97.8253 179.775C96.9197 179.623 96.0396 178.27 96.7645 177.263C97.0164 176.914 97.5574 176.883 98.0219 176.957C97.7424 175.883 97.1854 174.921 96.9059 174.113C96.4212 172.703 95.8578 172.309 95.3434 171.057C94.8279 169.806 95.3721 167.492 93.9212 166.591C93.5131 166.338 92.9912 166.211 92.4236 166.183Z" fill="white"/>
<path d="M81.5492 179.484C82.0668 179.073 82.3092 178.236 82.9554 178.087C83.4614 177.971 84.0289 178.259 84.4297 178.586C85.3448 179.333 85.4841 180.711 86.2047 181.646C86.6851 182.267 87.4993 182.62 87.8798 183.307C88.2763 184.025 88.7876 184.972 88.4156 185.701C87.9139 186.683 86.4768 186.988 85.3671 187.03C84.6933 187.056 84.1076 186.545 83.4582 186.365C82.5122 186.104 81.4206 186.265 80.5777 185.767C79.9102 185.374 79.1194 184.775 79.0705 184.006C79.0503 183.702 79.4978 183.536 79.5722 183.241C79.7699 182.464 79.012 181.563 79.3713 180.846C79.7539 180.084 80.8785 180.016 81.5492 179.484Z" fill="#F39C1F"/>
<path d="M96.5329 178.327C96.3193 178.517 96.1386 178.757 96.0068 178.994C95.4349 180.025 95.8208 181.357 95.4998 182.489C95.285 183.243 94.6611 183.871 94.5644 184.647C94.4634 185.46 94.3412 186.527 94.9587 187.069C95.7921 187.796 97.2408 187.551 98.2867 187.182C98.9234 186.959 99.2752 186.269 99.812 185.864C100.592 185.273 101.667 185.02 102.264 184.249C102.737 183.637 103.249 182.791 103.008 182.059C102.912 181.769 102.436 181.779 102.257 181.532C101.784 180.883 102.15 179.77 101.55 179.237C101.103 178.841 100.448 178.886 99.8141 178.869C99.508 179.52 98.511 179.963 97.8254 179.775C97.245 179.614 96.6668 178.959 96.5329 178.327Z" fill="#F39C1F"/>
<path d="M90.4754 164.489C91.1759 164.453 91.82 164.903 92.4524 165.204C93.0636 165.496 94.1074 165.583 94.1935 166.251C94.2923 167.01 93.2156 167.457 92.5864 167.897C92.0241 168.29 91.397 168.751 90.7103 168.745C90.0163 168.738 89.4019 168.244 88.8343 167.847C88.3666 167.52 87.63 167.219 87.612 166.65C87.5918 166.042 88.3454 165.655 88.8343 165.287C89.319 164.922 89.8675 164.521 90.4754 164.489Z" fill="#F39C1F"/>
<path d="M117.673 183V163.086H120.347V180.539H129.252V183H117.673ZM132.569 183V169.06H135.186V183H132.569ZM133.877 166.428C133.384 166.428 132.957 166.262 132.597 165.93C132.237 165.599 132.057 165.181 132.057 164.679C132.057 164.157 132.237 163.735 132.597 163.413C132.957 163.081 133.384 162.915 133.877 162.915C134.38 162.915 134.807 163.081 135.157 163.413C135.518 163.735 135.698 164.157 135.698 164.679C135.698 165.181 135.518 165.599 135.157 165.93C134.807 166.262 134.38 166.428 133.877 166.428ZM139.709 183V169.06H142.326V170.938C142.923 170.122 143.62 169.534 144.417 169.174C145.214 168.813 146.029 168.633 146.864 168.633C148.125 168.633 149.168 168.889 149.993 169.401C150.828 169.904 151.449 170.549 151.856 171.336C152.274 172.123 152.482 172.929 152.482 173.754V183H149.865V174.565C149.865 173.512 149.538 172.668 148.884 172.033C148.229 171.388 147.338 171.066 146.209 171.066C145.47 171.066 144.806 171.232 144.218 171.563C143.639 171.886 143.179 172.346 142.838 172.943C142.497 173.541 142.326 174.228 142.326 175.006V183H139.709ZM162.06 183.427C160.818 183.427 159.789 183.175 158.973 182.673C158.167 182.17 157.565 181.516 157.167 180.71C156.768 179.904 156.569 179.041 156.569 178.121V169.06H159.187V177.566C159.187 178.59 159.495 179.42 160.111 180.056C160.737 180.681 161.595 180.994 162.686 180.994C163.388 180.994 164.023 180.833 164.592 180.511C165.161 180.188 165.611 179.738 165.943 179.159C166.285 178.571 166.455 177.893 166.455 177.125V169.06H169.073V183H166.669V181.293C166.09 181.995 165.412 182.526 164.635 182.886C163.867 183.247 163.008 183.427 162.06 183.427ZM171.811 183.014L176.861 175.945L172.11 169.06H175.41L178.639 174.024L181.754 169.06H184.954L180.346 175.859L185.367 183H182.01L178.539 177.765L175.011 182.986L171.811 183.014Z" fill="#444B50"/>
</g>
<g filter="url(#filter2_d_3122_4188)">
<rect x="17" y="337" width="196.999" height="80" rx="40" fill="white"/>
<rect x="17.5" y="337.5" width="195.999" height="79" rx="39.5" stroke="black" stroke-opacity="0.04"/>
<mask id="mask0_3122_4188" style="mask-type:luminance" maskUnits="userSpaceOnUse" x="41" y="368" width="32" height="19">
<path d="M72.9987 368H41V386.638H72.9987V368Z" fill="white"/>
</mask>
<g mask="url(#mask0_3122_4188)">
<path d="M72.9116 385.931C72.9019 385.863 72.8922 385.805 72.8825 385.737C72.8148 385.34 72.7373 384.943 72.6405 384.546C72.4759 383.859 72.2629 383.191 72.0112 382.552C71.7981 382 71.5561 381.468 71.285 380.954C70.9365 380.296 70.5492 379.657 70.1135 379.047C69.581 378.301 68.9904 377.614 68.3514 376.965C68.0803 376.694 67.7995 376.433 67.5091 376.191C66.8797 375.648 66.2117 375.155 65.5049 374.719C65.5146 374.709 65.5146 374.7 65.5243 374.69C65.8438 374.128 66.173 373.576 66.4925 373.015C66.812 372.473 67.1218 371.93 67.4413 371.379C67.664 370.991 67.8963 370.594 68.119 370.207C68.1771 370.11 68.2158 370.023 68.2449 369.917C68.332 369.645 68.3417 369.355 68.2643 369.084C68.2449 369.016 68.2255 368.948 68.1965 368.89C68.1674 368.822 68.1384 368.764 68.0997 368.706C67.9835 368.503 67.8092 368.329 67.5865 368.203C67.3929 368.087 67.1799 368.019 66.9572 367.999C66.8604 367.99 66.7732 367.99 66.6764 367.999C66.599 368.009 66.5215 368.019 66.4537 368.038C66.1826 368.106 65.9406 368.251 65.747 368.464C65.6792 368.542 65.6114 368.629 65.563 368.716C65.3403 369.103 65.108 369.5 64.8853 369.887L63.9364 371.524C63.6169 372.085 63.2878 372.637 62.9683 373.199C62.9295 373.257 62.9005 373.325 62.8617 373.383C62.8133 373.363 62.7649 373.344 62.7165 373.325C60.935 372.647 59.0083 372.279 56.9848 372.279C56.9267 372.279 56.8783 372.279 56.8202 372.279C55.0291 372.298 53.3057 372.608 51.6888 373.17C51.5049 373.238 51.3209 373.305 51.137 373.373C51.1079 373.315 51.0692 373.257 51.0401 373.199C50.7206 372.637 50.3914 372.085 50.0719 371.524C49.7524 370.982 49.4426 370.439 49.1231 369.887C48.9004 369.5 48.6681 369.103 48.4454 368.716C48.3873 368.619 48.3292 368.542 48.2614 368.464C48.0678 368.251 47.8161 368.106 47.5546 368.038C47.4772 368.019 47.3997 368.009 47.332 367.999C47.2351 367.99 47.148 367.99 47.0512 367.999C46.8285 368.019 46.6155 368.087 46.4219 368.203C46.2089 368.329 46.0346 368.503 45.9087 368.706C45.87 368.764 45.8409 368.822 45.8119 368.89C45.7829 368.958 45.7635 369.016 45.7441 369.084C45.6764 369.355 45.6764 369.636 45.7635 369.917C45.7925 370.013 45.8409 370.11 45.8894 370.207C46.112 370.594 46.3444 370.991 46.5671 371.379C46.8866 371.921 47.1964 372.463 47.5159 373.015C47.8354 373.576 48.1646 374.128 48.4841 374.69L48.4938 374.7C47.8451 375.106 47.2255 375.552 46.6349 376.045C46.2863 376.336 45.9475 376.646 45.6279 376.965C44.9793 377.604 44.3983 378.301 43.8658 379.047C43.4302 379.657 43.0429 380.286 42.6943 380.954C42.4232 381.468 42.1812 382 41.9682 382.552C41.7165 383.201 41.5035 383.869 41.3389 384.546C41.242 384.934 41.1646 385.331 41.0968 385.737C41.0871 385.805 41.0774 385.863 41.0678 385.931C41.029 386.163 41 386.396 40.9709 386.638H72.9697C72.9697 386.396 72.9406 386.163 72.9116 385.931Z" fill="#34A853"/>
<path d="M65.3211 382.204C65.9601 381.778 66.0569 380.791 65.5244 380.006C65.0016 379.212 64.0527 378.922 63.4137 379.348C62.7746 379.774 62.6778 380.761 63.2103 381.546C63.7332 382.34 64.682 382.63 65.3211 382.204Z" fill="#202124"/>
<path d="M50.8177 381.555C51.3406 380.761 51.2534 379.783 50.6144 379.357C49.9754 378.931 49.0265 379.222 48.5037 380.016C47.9808 380.809 48.068 381.787 48.707 382.213C49.346 382.639 50.2852 382.339 50.8177 381.555Z" fill="#202124"/>
</g>
<path d="M81.3686 387L89.2064 367.086H91.9802L100.06 387H97.0441L95.0669 382.007H86.1908L84.2989 387H81.3686ZM86.9447 379.674H94.2846L90.5293 370.4L86.9447 379.674ZM102.68 387V373.06H105.298V374.938C105.895 374.122 106.592 373.534 107.389 373.174C108.185 372.813 109.001 372.633 109.835 372.633C111.097 372.633 112.14 372.889 112.965 373.401C113.799 373.904 114.42 374.549 114.828 375.336C115.245 376.123 115.454 376.929 115.454 377.754V387H112.837V378.565C112.837 377.512 112.51 376.668 111.855 376.033C111.201 375.388 110.31 375.066 109.181 375.066C108.441 375.066 107.778 375.232 107.19 375.563C106.611 375.886 106.151 376.346 105.81 376.943C105.468 377.541 105.298 378.228 105.298 379.006V387H102.68ZM125.597 387.427C124.222 387.427 123.004 387.1 121.942 386.445C120.889 385.791 120.064 384.909 119.467 383.799C118.879 382.68 118.585 381.424 118.585 380.03C118.585 379.006 118.755 378.048 119.097 377.157C119.438 376.265 119.917 375.483 120.533 374.81C121.159 374.127 121.904 373.596 122.767 373.216C123.63 372.828 124.583 372.633 125.626 372.633C126.963 372.633 128.106 372.903 129.054 373.444C130.012 373.984 130.799 374.71 131.415 375.62L130.889 376.204V366.517H133.506V387H131.102V383.728L131.486 384.326C130.946 385.217 130.201 385.957 129.253 386.545C128.314 387.133 127.096 387.427 125.597 387.427ZM126.067 385.065C127.006 385.065 127.835 384.862 128.556 384.454C129.286 384.037 129.86 383.453 130.277 382.704C130.694 381.946 130.903 381.054 130.903 380.03C130.903 378.996 130.694 378.105 130.277 377.356C129.869 376.597 129.3 376.014 128.57 375.606C127.84 375.198 127.006 374.994 126.067 374.994C125.128 374.994 124.293 375.198 123.563 375.606C122.843 376.014 122.274 376.597 121.856 377.356C121.449 378.105 121.245 378.996 121.245 380.03C121.245 381.054 121.449 381.946 121.856 382.704C122.274 383.453 122.847 384.037 123.577 384.454C124.308 384.862 125.137 385.065 126.067 385.065ZM138.02 387V373.06H140.637V375.08C141.196 374.169 141.86 373.534 142.628 373.174C143.406 372.804 144.231 372.619 145.103 372.619C145.379 372.619 145.644 372.633 145.9 372.662C146.156 372.69 146.407 372.728 146.654 372.775L146.27 375.492C146.004 375.416 145.734 375.36 145.459 375.322C145.184 375.274 144.914 375.25 144.648 375.25C143.482 375.25 142.519 375.616 141.761 376.346C141.012 377.066 140.637 378.034 140.637 379.248V387H138.02ZM155.377 387.427C153.936 387.427 152.651 387.09 151.522 386.417C150.394 385.743 149.507 384.847 148.862 383.728C148.217 382.609 147.895 381.377 147.895 380.03C147.895 379.034 148.08 378.091 148.45 377.199C148.82 376.308 149.341 375.521 150.015 374.838C150.688 374.146 151.48 373.605 152.39 373.216C153.3 372.828 154.296 372.633 155.377 372.633C156.828 372.633 158.118 372.97 159.246 373.643C160.375 374.316 161.261 375.213 161.906 376.332C162.551 377.451 162.874 378.683 162.874 380.03C162.874 381.026 162.689 381.969 162.319 382.861C161.949 383.752 161.427 384.539 160.754 385.222C160.081 385.905 159.289 386.445 158.379 386.844C157.468 387.232 156.468 387.427 155.377 387.427ZM155.377 385.065C156.316 385.065 157.146 384.862 157.867 384.454C158.597 384.037 159.17 383.453 159.588 382.704C160.005 381.946 160.214 381.054 160.214 380.03C160.214 378.996 160.005 378.105 159.588 377.356C159.18 376.597 158.611 376.014 157.881 375.606C157.151 375.198 156.316 374.994 155.377 374.994C154.438 374.994 153.604 375.198 152.874 375.606C152.153 376.014 151.584 376.597 151.167 377.356C150.759 378.105 150.555 378.996 150.555 380.03C150.555 381.054 150.759 381.946 151.167 382.704C151.584 383.453 152.158 384.037 152.888 384.454C153.618 384.862 154.448 385.065 155.377 385.065ZM166.163 387V373.06H168.781V387H166.163ZM167.472 370.428C166.979 370.428 166.552 370.262 166.192 369.93C165.831 369.599 165.651 369.181 165.651 368.679C165.651 368.157 165.831 367.735 166.192 367.413C166.552 367.081 166.979 366.915 167.472 366.915C167.975 366.915 168.401 367.081 168.752 367.413C169.112 367.735 169.293 368.157 169.293 368.679C169.293 369.181 169.112 369.599 168.752 369.93C168.401 370.262 167.975 370.428 167.472 370.428ZM179.079 387.427C177.703 387.427 176.485 387.1 175.423 386.445C174.37 385.791 173.545 384.909 172.948 383.799C172.36 382.68 172.066 381.424 172.066 380.03C172.066 379.006 172.236 378.048 172.578 377.157C172.919 376.265 173.398 375.483 174.015 374.81C174.64 374.127 175.385 373.596 176.248 373.216C177.111 372.828 178.064 372.633 179.107 372.633C180.444 372.633 181.587 372.903 182.535 373.444C183.493 373.984 184.28 374.71 184.896 375.62L184.37 376.204V366.517H186.987V387H184.583V383.728L184.967 384.326C184.427 385.217 183.683 385.957 182.734 386.545C181.795 387.133 180.577 387.427 179.079 387.427ZM179.548 385.065C180.487 385.065 181.317 384.862 182.037 384.454C182.767 384.037 183.341 383.453 183.758 382.704C184.176 381.946 184.384 381.054 184.384 380.03C184.384 378.996 184.176 378.105 183.758 377.356C183.351 376.597 182.782 376.014 182.051 375.606C181.321 375.198 180.487 374.994 179.548 374.994C178.609 374.994 177.775 375.198 177.044 375.606C176.324 376.014 175.755 376.597 175.337 377.356C174.93 378.105 174.726 378.996 174.726 380.03C174.726 381.054 174.93 381.946 175.337 382.704C175.755 383.453 176.328 384.037 177.059 384.454C177.789 384.862 178.619 385.065 179.548 385.065Z" fill="#444B50"/>
</g>
<g filter="url(#filter3_d_3122_4188)">
<rect x="128" y="28" width="249.999" height="80" rx="40" fill="white"/>
<rect x="128.5" y="28.5" width="248.999" height="79" rx="39.5" stroke="black" stroke-opacity="0.04"/>
<path d="M175.756 75.1127C175.961 73.4708 175.9 73.23 177.175 73.4959L177.498 73.5232C178.479 73.566 179.761 73.372 180.515 73.0362C182.137 72.3143 183.098 71.1091 181.499 71.4257C177.851 72.1476 177.6 70.9627 177.6 70.9627C181.452 65.4803 183.063 58.5208 181.673 56.8172C177.881 52.1706 171.319 54.3679 171.209 54.425L171.174 54.4312C170.454 54.2877 169.647 54.202 168.741 54.1879C167.09 54.1619 165.837 54.6031 164.887 55.2944C164.887 55.2944 153.18 50.668 153.725 61.1126C153.841 63.3344 157.045 77.925 160.867 73.518C162.264 71.9065 163.614 70.5439 163.614 70.5439C164.284 70.9711 165.086 71.189 165.928 71.1107L165.993 71.0575C165.973 71.2576 165.982 71.4534 166.019 71.685C165.035 72.7402 165.324 72.9255 163.356 73.3141C161.364 73.7078 162.534 74.4087 163.298 74.5919C164.224 74.814 166.366 75.1287 167.814 73.1849L167.756 73.4067C168.143 73.703 168.117 75.537 168.171 76.8471C168.226 78.1575 168.318 79.3803 168.596 80.1011C168.875 80.8219 169.203 82.6787 171.79 82.1469C173.952 81.7025 175.605 81.0629 175.756 75.1127Z" fill="#336791" stroke="#336791" stroke-width="2.10112"/>
<path d="M181.499 71.4253C177.851 72.1471 177.6 70.9623 177.6 70.9623C181.452 65.4794 183.062 58.5198 181.673 56.8164C177.882 52.1701 171.319 54.3675 171.209 54.4246L171.174 54.4306C170.453 54.2871 169.647 54.2016 168.74 54.1874C167.089 54.1614 165.837 54.6025 164.887 55.2937C164.887 55.2937 153.18 50.6675 153.724 61.112C153.84 63.334 157.044 77.9246 160.866 73.5176C162.263 71.9061 163.613 70.5435 163.613 70.5435C164.283 70.9707 165.086 71.1886 165.927 71.1103L165.993 71.0571C165.972 71.2572 165.982 71.4529 166.019 71.6846C165.034 72.7397 165.323 72.9251 163.355 73.3136C161.364 73.7074 162.534 74.4083 163.298 74.5915C164.224 74.8136 166.366 75.1283 167.814 73.1845L167.756 73.4062C168.142 73.7026 168.413 75.3342 168.367 76.8132C168.322 78.2922 168.291 79.3076 168.595 80.1007C168.899 80.8938 169.202 82.6783 171.79 82.1465C173.952 81.7021 175.072 80.5504 175.228 78.6293C175.339 77.2636 175.589 77.4654 175.605 76.2444L175.806 75.6663C176.037 73.815 175.842 73.2176 177.174 73.4954L177.498 73.5227C178.478 73.5655 179.762 73.3715 180.515 73.0357C182.136 72.3138 183.098 71.1086 181.499 71.4253H181.499Z" fill="#336791"/>
<path d="M167.97 72.4867C167.87 75.9316 167.996 79.4005 168.347 80.2436C168.699 81.0867 169.451 82.7265 172.039 82.1947C174.201 81.7502 174.987 80.8898 175.328 78.991C175.58 77.5937 176.065 73.7136 176.127 72.9186M164.869 55.2169C164.869 55.2169 153.154 50.6241 153.698 61.0686C153.814 63.2906 157.019 77.8816 160.841 73.4744C162.237 71.8627 163.5 70.5986 163.5 70.5986M171.197 54.3787C170.791 54.5006 177.713 51.9514 181.647 56.7731C183.037 58.4765 181.427 65.4362 177.574 70.9192" stroke="white" stroke-width="0.700373" stroke-linecap="round" stroke-linejoin="round"/>
<path d="M177.574 70.9194C177.574 70.9194 177.825 72.1046 181.474 71.3822C183.073 71.0655 182.11 72.2709 180.489 72.9932C179.159 73.5855 176.176 73.7373 176.127 72.9188C176.001 70.8069 177.697 71.4485 177.574 70.9194ZM177.574 70.9194C177.464 70.4428 176.706 69.9751 176.204 68.8087C175.766 67.7906 170.199 59.9835 177.748 61.143C178.025 61.0881 175.779 54.2553 168.714 54.1442C161.651 54.033 161.883 62.4762 161.883 62.4762" stroke="white" stroke-width="0.700373" stroke-linecap="round" stroke-linejoin="bevel"/>
<path d="M165.993 71.6414C165.008 72.6966 165.298 72.8819 163.33 73.2706C161.338 73.6644 162.508 74.3652 163.272 74.5483C164.198 74.7706 166.34 75.0852 167.788 73.1409C168.229 72.5489 167.785 71.6044 167.18 71.3636C166.887 71.2474 166.496 71.1016 165.993 71.6414Z" stroke="white" stroke-width="0.700373" stroke-linecap="round" stroke-linejoin="round"/>
<path d="M165.929 71.6231C165.829 71.0027 166.141 70.2645 166.475 69.4008C166.977 68.1049 168.136 66.8089 167.209 62.6983C166.518 59.6351 161.886 62.0608 161.883 62.4761C161.88 62.8914 162.092 64.5814 161.805 66.5495C161.431 69.1176 163.509 71.2895 165.902 71.0673" stroke="white" stroke-width="0.700373" stroke-linecap="round" stroke-linejoin="round"/>
<path d="M164.826 62.4141C164.805 62.556 165.097 62.9345 165.477 62.9851C165.857 63.0359 166.182 62.74 166.202 62.5983C166.223 62.4565 165.932 62.3002 165.551 62.2494C165.171 62.1986 164.846 62.2726 164.826 62.4141H164.826Z" fill="white" stroke="white" stroke-width="0.233458"/>
<path d="M176.389 62.1246C176.41 62.2665 176.119 62.645 175.738 62.6955C175.358 62.7463 175.034 62.4505 175.013 62.3088C174.993 62.1669 175.284 62.0107 175.664 61.9599C176.044 61.9091 176.369 61.983 176.389 62.1246V62.1246Z" fill="white" stroke="white" stroke-width="0.116757"/>
<path d="M177.748 61.1431C177.811 62.2558 177.498 63.0137 177.459 64.1983C177.401 65.92 178.315 67.8907 176.938 69.8639" stroke="white" stroke-width="0.700373" stroke-linecap="round" stroke-linejoin="round"/>
<path d="M194.673 78V58.0856H201.629C203.023 58.0856 204.251 58.3226 205.313 58.7968C206.375 59.2709 207.205 59.9585 207.802 60.8594C208.409 61.7508 208.713 62.8224 208.713 64.0741C208.713 65.3543 208.433 66.4354 207.873 67.3173C207.314 68.1992 206.503 68.8725 205.441 69.3372C204.379 69.7924 203.089 70.02 201.572 70.02H197.347V78H194.673ZM197.347 67.6729H201.657C203.051 67.6729 204.128 67.379 204.886 66.791C205.654 66.2031 206.038 65.3164 206.038 64.131C206.038 62.9741 205.645 62.0732 204.858 61.4283C204.08 60.7835 203.023 60.4611 201.686 60.4611H197.347V67.6729ZM217.841 78.4267C216.4 78.4267 215.115 78.0901 213.986 77.4168C212.858 76.7435 211.971 75.8473 211.326 74.7283C210.682 73.6093 210.359 72.3765 210.359 71.0299C210.359 70.0342 210.544 69.0907 210.914 68.1993C211.284 67.3078 211.805 66.5207 212.479 65.838C213.152 65.1457 213.944 64.6052 214.854 64.2164C215.765 63.8276 216.76 63.6332 217.841 63.6332C219.292 63.6332 220.582 63.9698 221.71 64.6431C222.839 65.3164 223.726 66.2125 224.37 67.3315C225.015 68.4506 225.338 69.6834 225.338 71.0299C225.338 72.0257 225.153 72.9692 224.783 73.8606C224.413 74.752 223.892 75.5391 223.218 76.2219C222.545 76.9047 221.753 77.4452 220.843 77.8435C219.932 78.2323 218.932 78.4267 217.841 78.4267ZM217.841 76.0655C218.78 76.0655 219.61 75.8616 220.331 75.4538C221.061 75.0365 221.635 74.4533 222.052 73.7042C222.469 72.9455 222.678 72.0541 222.678 71.0299C222.678 69.9963 222.469 69.1049 222.052 68.3557C221.644 67.5971 221.075 67.0139 220.345 66.6061C219.615 66.1983 218.78 65.9944 217.841 65.9944C216.902 65.9944 216.068 66.1983 215.338 66.6061C214.617 67.0139 214.048 67.5971 213.631 68.3557C213.223 69.1049 213.019 69.9963 213.019 71.0299C213.019 72.0541 213.223 72.9455 213.631 73.7042C214.048 74.4533 214.622 75.0365 215.352 75.4538C216.082 75.8616 216.912 76.0655 217.841 76.0655ZM233.137 78.4125C232.037 78.4125 230.993 78.2513 230.007 77.9289C229.03 77.597 228.215 77.156 227.561 76.606L228.642 74.6288C229.258 75.1409 229.96 75.5439 230.747 75.8379C231.543 76.1224 232.34 76.2646 233.137 76.2646C234.123 76.2646 234.891 76.0892 235.441 75.7383C235.991 75.3779 236.266 74.8706 236.266 74.2163C236.266 73.6093 236.029 73.1589 235.555 72.8649C235.081 72.5709 234.199 72.2675 232.909 71.9545C231.202 71.5657 229.96 71.0442 229.182 70.3898C228.414 69.7355 228.03 68.8346 228.03 67.6872C228.03 66.8716 228.258 66.1509 228.713 65.525C229.168 64.8897 229.789 64.3918 230.576 64.0314C231.373 63.6711 232.288 63.4909 233.321 63.4909C234.346 63.4909 235.299 63.6379 236.181 63.9319C237.072 64.2164 237.845 64.6336 238.499 65.1836L237.489 67.1751C237.157 66.8621 236.764 66.5919 236.309 66.3643C235.863 66.1367 235.384 65.9612 234.872 65.838C234.36 65.7052 233.848 65.6388 233.336 65.6388C232.492 65.6388 231.799 65.8095 231.259 66.1509C230.728 66.4923 230.462 66.9665 230.462 67.5734C230.462 68.2087 230.718 68.6734 231.23 68.9674C231.752 69.2614 232.615 69.5506 233.819 69.8351C235.564 70.2239 236.816 70.7455 237.575 71.3998C238.333 72.0446 238.713 72.936 238.713 74.074C238.713 74.9559 238.48 75.7241 238.016 76.3784C237.551 77.0232 236.901 77.5258 236.067 77.8862C235.232 78.2371 234.256 78.4125 233.137 78.4125ZM248.196 78.4267C246.897 78.4267 245.849 78.0474 245.053 77.2888C244.265 76.5301 243.872 75.359 243.872 73.7753V59.9632H246.489V64.0599H250.572V66.2789H246.489V73.121C246.489 74.1831 246.679 74.9322 247.058 75.3684C247.447 75.7952 248.011 76.0086 248.751 76.0086C249.083 76.0086 249.396 75.9706 249.69 75.8948C249.993 75.8189 250.259 75.7193 250.486 75.596L251.027 77.744C250.638 77.9526 250.197 78.1185 249.704 78.2418C249.211 78.3651 248.708 78.4267 248.196 78.4267ZM240.686 66.2789V64.0599H244.27V66.2789H240.686ZM259.97 84.4011C258.927 84.4011 257.988 84.3062 257.153 84.1166C256.328 83.9269 255.622 83.6566 255.034 83.3058C254.446 82.9644 253.996 82.5471 253.683 82.054C253.379 81.5609 253.227 81.0109 253.227 80.404C253.227 79.9014 253.36 79.4367 253.626 79.0099C253.891 78.5927 254.285 78.2323 254.806 77.9289C255.328 77.6159 255.973 77.3789 256.741 77.2176C256.181 76.9426 255.759 76.6344 255.475 76.293C255.2 75.9422 255.062 75.5391 255.062 75.084C255.062 74.6952 255.176 74.3348 255.404 74.0029C255.631 73.6615 255.949 73.358 256.357 73.0925C256.774 72.8175 257.267 72.5947 257.836 72.424C258.415 72.2438 259.05 72.13 259.742 72.0826L260.382 73.3059C259.776 73.3059 259.249 73.358 258.803 73.4624C258.367 73.5667 258.026 73.7184 257.779 73.9175C257.542 74.1072 257.424 74.3348 257.424 74.6003C257.424 74.9607 257.623 75.2167 258.021 75.3684C258.429 75.5107 258.974 75.6103 259.657 75.6672L262.047 75.8521C263.232 75.9469 264.237 76.1413 265.062 76.4353C265.887 76.7293 266.518 77.137 266.954 77.6586C267.39 78.1802 267.609 78.8393 267.609 79.6358C267.609 80.3091 267.424 80.935 267.054 81.5135C266.693 82.1014 266.177 82.6088 265.503 83.0355C264.83 83.4622 264.024 83.7942 263.085 84.0312C262.146 84.2778 261.108 84.4011 259.97 84.4011ZM260.169 82.495C261.677 82.495 262.862 82.2626 263.725 81.798C264.588 81.3333 265.02 80.7359 265.02 80.0057C265.02 79.4462 264.721 79.0052 264.124 78.6828C263.536 78.3698 262.644 78.1707 261.449 78.0853L258.917 77.9004C258.253 77.9478 257.684 78.0664 257.21 78.256C256.736 78.4552 256.371 78.7112 256.115 79.0242C255.868 79.3371 255.745 79.6927 255.745 80.091C255.745 80.5652 255.925 80.9824 256.286 81.3428C256.646 81.7031 257.153 81.9829 257.808 82.182C258.472 82.3907 259.259 82.495 260.169 82.495ZM260.098 73.5477C258.96 73.5477 257.931 73.3296 257.011 72.8934C256.101 72.4477 255.375 71.8502 254.835 71.1011C254.304 70.3519 254.038 69.5127 254.038 68.5833C254.038 67.6635 254.304 66.8289 254.835 66.0798C255.375 65.3306 256.106 64.7379 257.025 64.3017C257.945 63.856 258.969 63.6332 260.098 63.6332C261.236 63.6332 262.26 63.856 263.17 64.3017C264.09 64.7379 264.816 65.3306 265.347 66.0798C265.887 66.8289 266.158 67.6635 266.158 68.5833C266.158 69.5127 265.887 70.3519 265.347 71.1011C264.816 71.8502 264.095 72.4477 263.185 72.8934C262.274 73.3296 261.245 73.5477 260.098 73.5477ZM260.098 71.4709C260.8 71.4709 261.416 71.3524 261.947 71.1153C262.488 70.8687 262.91 70.5321 263.213 70.1053C263.517 69.6691 263.668 69.1618 263.668 68.5833C263.668 67.7298 263.336 67.0376 262.673 66.5065C262.018 65.966 261.16 65.6957 260.098 65.6957C259.396 65.6957 258.775 65.819 258.235 66.0656C257.703 66.3121 257.286 66.6535 256.983 67.0897C256.689 67.5165 256.542 68.0143 256.542 68.5833C256.542 69.4368 256.869 70.1338 257.523 70.6743C258.187 71.2054 259.045 71.4709 260.098 71.4709ZM262.303 66.2078L261.335 64.3017L268.533 64.0599L268.505 66.2789L262.303 66.2078ZM271.357 78V64.0599H273.974V66.0798C274.534 65.1694 275.197 64.534 275.965 64.1737C276.743 63.8038 277.568 63.6189 278.441 63.6189C278.716 63.6189 278.981 63.6332 279.237 63.6616C279.493 63.6901 279.744 63.728 279.991 63.7754L279.607 66.4923C279.341 66.4164 279.071 66.3595 278.796 66.3216C278.521 66.2742 278.251 66.2505 277.985 66.2505C276.819 66.2505 275.856 66.6156 275.098 67.3458C274.349 68.0665 273.974 69.0338 273.974 70.2476V78H271.357ZM288.743 78.4267C287.263 78.4267 285.959 78.1185 284.831 77.5021C283.702 76.8857 282.821 76.0275 282.185 74.9275C281.55 73.818 281.232 72.5283 281.232 71.0584C281.232 69.9963 281.412 69.0101 281.773 68.0997C282.143 67.1893 282.655 66.4022 283.309 65.7384C283.973 65.0746 284.746 64.5578 285.628 64.1879C286.519 63.8181 287.486 63.6332 288.529 63.6332C289.658 63.6332 290.663 63.8323 291.545 64.2306C292.436 64.6289 293.171 65.1884 293.75 65.9091C294.338 66.6203 294.76 67.4596 295.016 68.4268C295.272 69.3846 295.324 70.4278 295.172 71.5563H283.821C283.793 72.4856 283.982 73.3011 284.39 74.0029C284.798 74.6952 285.386 75.2357 286.154 75.6245C286.931 76.0133 287.851 76.2077 288.913 76.2077C289.691 76.2077 290.45 76.0844 291.189 75.8379C291.929 75.5913 292.583 75.2262 293.152 74.7426L294.262 76.6913C293.807 77.0612 293.266 77.3789 292.64 77.6444C292.024 77.9004 291.379 78.0948 290.706 78.2276C290.032 78.3604 289.378 78.4267 288.743 78.4267ZM283.963 69.5221H292.555C292.517 68.3462 292.152 67.4311 291.46 66.7768C290.767 66.113 289.776 65.7811 288.487 65.7811C287.235 65.7811 286.201 66.113 285.386 66.7768C284.57 67.4311 284.096 68.3462 283.963 69.5221ZM305.298 78.4267C303.961 78.4267 302.657 78.2418 301.386 77.872C300.116 77.4927 299.044 76.9521 298.172 76.2504L299.509 74.1594C300.002 74.5671 300.561 74.9133 301.187 75.1978C301.813 75.4822 302.477 75.7004 303.179 75.8521C303.88 76.0038 304.592 76.0797 305.312 76.0797C306.725 76.0797 307.859 75.8047 308.712 75.2547C309.575 74.7046 310.007 73.8986 310.007 72.8365C310.007 72.0589 309.717 71.3998 309.139 70.8593C308.57 70.3187 307.503 69.8256 305.938 69.3799L303.776 68.7398C301.955 68.2087 300.623 67.5117 299.779 66.6488C298.935 65.7858 298.513 64.7047 298.513 63.4056C298.513 62.5331 298.688 61.746 299.039 61.0443C299.39 60.3425 299.883 59.7404 300.519 59.2378C301.154 58.7257 301.903 58.3369 302.766 58.0713C303.639 57.7963 304.592 57.6588 305.625 57.6588C306.906 57.6588 308.096 57.8485 309.196 58.2278C310.305 58.5976 311.22 59.0955 311.941 59.7214L310.561 61.7271C310.135 61.3667 309.646 61.0585 309.096 60.8025C308.546 60.5369 307.958 60.3378 307.332 60.205C306.706 60.0628 306.071 59.9917 305.426 59.9917C304.563 59.9917 303.8 60.1197 303.136 60.3757C302.482 60.6223 301.97 60.9921 301.6 61.4852C301.239 61.9689 301.059 62.5568 301.059 63.2491C301.059 63.7517 301.178 64.1927 301.415 64.572C301.652 64.9418 302.064 65.2832 302.652 65.5961C303.24 65.9091 304.051 66.2173 305.085 66.5207L307.389 67.2035C309.163 67.7251 310.466 68.4126 311.301 69.2661C312.135 70.1101 312.553 71.2196 312.553 72.5947C312.553 73.7516 312.268 74.771 311.699 75.6529C311.14 76.5254 310.319 77.2082 309.238 77.7013C308.157 78.1849 306.844 78.4267 305.298 78.4267ZM333.919 78.9673L331.87 76.5918C331.026 77.1607 330.092 77.6112 329.068 77.9431C328.053 78.2655 326.982 78.4267 325.853 78.4267C324.393 78.4267 323.032 78.166 321.771 77.6444C320.51 77.1228 319.41 76.3926 318.471 75.4538C317.532 74.515 316.797 73.4149 316.266 72.1537C315.744 70.8924 315.484 69.5221 315.484 68.0428C315.484 66.5634 315.744 65.1931 316.266 63.9319C316.797 62.6706 317.532 61.5706 318.471 60.6318C319.41 59.6929 320.514 58.9627 321.785 58.4412C323.056 57.9196 324.431 57.6588 325.91 57.6588C327.371 57.6588 328.731 57.9243 329.993 58.4554C331.254 58.977 332.359 59.7119 333.307 60.6602C334.265 61.599 335.009 62.6943 335.54 63.9461C336.071 65.1979 336.337 66.5539 336.337 68.0143C336.337 69.4273 336.086 70.7502 335.583 71.983C335.08 73.2158 334.388 74.2969 333.506 75.2262L335.512 77.5448L333.919 78.9673ZM325.91 76.037C326.726 76.037 327.503 75.9232 328.243 75.6956C328.983 75.468 329.661 75.1361 330.277 74.6999L327.105 71.0584L328.641 69.6928L331.828 73.3343C332.406 72.661 332.861 71.8787 333.193 70.9873C333.525 70.0959 333.691 69.1144 333.691 68.0428C333.691 66.4401 333.34 65.0461 332.639 63.8607C331.946 62.6659 331.012 61.7413 329.836 61.087C328.66 60.4326 327.352 60.1055 325.91 60.1055C324.829 60.1055 323.819 60.2951 322.88 60.6744C321.942 61.0443 321.121 61.5801 320.42 62.2818C319.718 62.9741 319.168 63.8086 318.77 64.7853C318.381 65.7526 318.186 66.8384 318.186 68.0428C318.186 69.6359 318.528 71.0347 319.21 72.239C319.903 73.4339 320.832 74.368 321.999 75.0413C323.165 75.7051 324.469 76.037 325.91 76.037ZM340.447 78V58.0856H343.122V75.5391H352.026V78H340.447Z" fill="#444B50"/>
</g>
<g filter="url(#filter4_d_3122_4188)">
<rect x="161" y="228" width="184.037" height="84" rx="41.125" fill="#D45749"/>
<rect x="161.438" y="228.438" width="183.162" height="83.125" rx="40.6875" stroke="black" stroke-opacity="0.04" stroke-width="0.875"/>
<g clip-path="url(#clip0_3122_4188)">
<path d="M189 262.957H217.176V255.913H189V262.957Z" fill="white"/>
<path d="M210.132 260.608V284.088H217.175V260.608H210.132Z" fill="white"/>
<path d="M217.176 266.478H199.566V273.522H217.176V266.478Z" fill="white"/>
<path d="M217.175 277.044H189V284.088H217.175V277.044Z" fill="white"/>
<path d="M232.854 262.956V284.088H239.897V262.956H232.854Z" fill="white"/>
<path d="M250.463 255.913H222.287V262.956H250.463V255.913Z" fill="white"/>
<path d="M255.574 262.957H283.75V255.913H255.574V262.957Z" fill="white"/>
<path d="M276.706 260.608V284.088H283.75V260.608H276.706Z" fill="white"/>
<path d="M283.75 277.044H255.574V284.088H283.75V277.044Z" fill="white"/>
<path d="M255.574 260.608V284.088H262.618V260.608H255.574Z" fill="white"/>
<path d="M288.862 262.957H317.037V255.913H288.862V262.957Z" fill="white"/>
<path d="M317.037 277.044H288.862V284.088H317.037V277.044Z" fill="white"/>
<path d="M288.862 260.608V284.088H295.905V260.608H288.862Z" fill="white"/>
</g>
</g>
<g filter="url(#filter5_d_3122_4188)">
<rect x="297" y="337" width="185.999" height="80" rx="40" fill="white"/>
<rect x="297.5" y="337.5" width="184.999" height="79" rx="39.5" stroke="black" stroke-opacity="0.04"/>
<path d="M322.906 361.002C322.144 360.99 321.48 361.283 321.137 362.139C320.55 363.581 322.008 364.999 322.509 365.731C322.879 366.241 323.358 366.818 323.618 367.394C323.77 367.771 323.814 368.171 323.967 368.569C324.315 369.545 324.641 370.631 325.099 371.541C325.337 372.007 325.598 372.495 325.903 372.914C326.078 373.16 326.382 373.269 326.448 373.669C326.144 374.112 326.12 374.777 325.946 375.333C325.163 377.838 325.467 380.942 326.578 382.782C326.925 383.336 327.753 384.556 328.864 384.09C329.843 383.691 329.625 382.427 329.908 381.319C329.973 381.052 329.93 380.876 330.06 380.699V380.743C330.365 381.363 330.67 381.96 330.953 382.584C331.629 383.669 332.803 384.799 333.783 385.552C334.303 385.953 334.717 386.639 335.37 386.884V386.817H335.327C335.196 386.618 335.001 386.529 334.827 386.374C334.435 385.975 334.001 385.487 333.695 385.044C332.782 383.803 331.975 382.428 331.259 381.009C330.91 380.32 330.606 379.567 330.322 378.88C330.192 378.615 330.192 378.215 329.974 378.082C329.647 378.57 329.169 378.991 328.93 379.588C328.516 380.542 328.473 381.717 328.319 382.936C328.233 382.959 328.277 382.936 328.233 382.981C327.537 382.803 327.298 382.072 327.036 381.453C326.383 379.876 326.274 377.349 326.84 375.531C326.992 375.067 327.647 373.604 327.385 373.159C327.253 372.736 326.818 372.495 326.579 372.161C326.297 371.74 325.99 371.208 325.797 370.742C325.274 369.501 325.011 368.126 324.447 366.885C324.186 366.307 323.728 365.709 323.359 365.178C322.945 364.579 322.488 364.158 322.161 363.449C322.053 363.204 321.901 362.805 322.074 362.539C322.117 362.362 322.205 362.295 322.38 362.251C322.661 362.007 323.467 362.316 323.75 362.45C324.555 362.781 325.23 363.093 325.903 363.557C326.208 363.78 326.535 364.201 326.926 364.313H327.384C328.08 364.467 328.865 364.356 329.518 364.556C330.67 364.933 331.715 365.487 332.651 366.085C335.501 367.926 337.852 370.543 339.44 373.668C339.701 374.177 339.811 374.643 340.05 375.174C340.507 376.263 341.074 377.371 341.531 378.434C341.987 379.476 342.423 380.54 343.077 381.405C343.402 381.87 344.708 382.114 345.296 382.358C345.73 382.557 346.406 382.734 346.798 382.978C347.538 383.443 348.276 383.976 348.973 384.486C349.32 384.753 350.408 385.306 350.474 385.75C348.733 385.706 347.384 385.883 346.252 386.372C345.926 386.504 345.404 386.504 345.36 386.926C345.535 387.103 345.556 387.391 345.709 387.636C345.97 388.079 346.426 388.677 346.841 388.988C347.298 389.343 347.755 389.697 348.234 390.007C349.082 390.541 350.04 390.85 350.866 391.382C351.346 391.692 351.823 392.091 352.303 392.424C352.542 392.602 352.693 392.89 352.999 393V392.932C352.845 392.734 352.803 392.446 352.651 392.223C352.434 392.003 352.216 391.802 351.998 391.581C351.366 390.716 350.582 389.963 349.735 389.342C349.038 388.853 347.514 388.188 347.232 387.37C347.232 387.37 347.209 387.347 347.188 387.325C347.667 387.28 348.234 387.102 348.691 386.968C349.43 386.769 350.105 386.814 350.866 386.615C351.215 386.525 351.563 386.414 351.913 386.305V386.104C351.519 385.706 351.238 385.173 350.825 384.797C349.716 383.822 348.496 382.869 347.233 382.069C346.558 381.626 345.687 381.339 344.969 380.961C344.709 380.828 344.274 380.762 344.121 380.539C343.729 380.052 343.51 379.41 343.228 378.832C342.598 377.614 341.987 376.262 341.444 374.974C341.052 374.11 340.813 373.246 340.334 372.447C338.091 368.677 335.655 366.395 331.912 364.155C331.106 363.689 330.149 363.49 329.127 363.246C328.582 363.223 328.039 363.18 327.494 363.158C327.146 363.002 326.797 362.58 326.492 362.381C325.717 361.882 324.176 361.02 322.908 361L322.906 361.002ZM328.275 366.482C327.906 366.482 327.645 366.528 327.382 366.594V366.638H327.425C327.6 366.992 327.906 367.238 328.121 367.548C328.297 367.903 328.449 368.256 328.623 368.611C328.644 368.589 328.665 368.566 328.665 368.566C328.972 368.346 329.124 367.991 329.124 367.459C328.993 367.302 328.972 367.148 328.863 366.992C328.732 366.771 328.449 366.66 328.275 366.482Z" fill="#444B50"/>
<path d="M363.673 387V367.086H366.276L374.583 380.528H373.559L381.582 367.086H384.114V387H381.496L381.525 370.727L382.051 370.898L374.939 382.519H372.876L365.679 370.898L366.091 370.727L366.12 387H363.673ZM389.952 393.387C389.497 393.387 389.047 393.33 388.601 393.216C388.155 393.112 387.705 392.922 387.25 392.647L387.861 390.385C388.155 390.575 388.473 390.717 388.814 390.812C389.156 390.907 389.459 390.954 389.725 390.954C390.426 390.954 390.972 390.784 391.361 390.442C391.749 390.101 392.062 389.579 392.299 388.878L392.854 387.284L387.335 373.06H390.208L394.333 384.297L398.359 373.06H401.133L395.03 389.219C394.613 390.319 394.149 391.168 393.636 391.765C393.134 392.372 392.579 392.794 391.972 393.031C391.365 393.268 390.692 393.387 389.952 393.387ZM410.482 387.427C409.145 387.427 407.841 387.242 406.57 386.872C405.299 386.493 404.228 385.952 403.355 385.25L404.693 383.159C405.186 383.567 405.745 383.913 406.371 384.198C406.997 384.482 407.661 384.7 408.362 384.852C409.064 385.004 409.775 385.08 410.496 385.08C411.909 385.08 413.042 384.805 413.896 384.255C414.759 383.705 415.19 382.899 415.19 381.836C415.19 381.059 414.901 380.4 414.323 379.859C413.754 379.319 412.687 378.826 411.122 378.38L408.96 377.74C407.139 377.209 405.807 376.512 404.963 375.649C404.119 374.786 403.697 373.705 403.697 372.406C403.697 371.533 403.872 370.746 404.223 370.044C404.574 369.343 405.067 368.74 405.702 368.238C406.338 367.726 407.087 367.337 407.95 367.071C408.822 366.796 409.775 366.659 410.809 366.659C412.089 366.659 413.279 366.848 414.379 367.228C415.489 367.598 416.404 368.096 417.125 368.721L415.745 370.727C415.318 370.367 414.83 370.059 414.28 369.802C413.73 369.537 413.142 369.338 412.516 369.205C411.89 369.063 411.255 368.992 410.61 368.992C409.747 368.992 408.984 369.12 408.32 369.376C407.665 369.622 407.153 369.992 406.784 370.485C406.423 370.969 406.243 371.557 406.243 372.249C406.243 372.752 406.362 373.193 406.599 373.572C406.836 373.942 407.248 374.283 407.836 374.596C408.424 374.909 409.235 375.217 410.269 375.521L412.573 376.204C414.346 376.725 415.65 377.413 416.485 378.266C417.319 379.11 417.736 380.22 417.736 381.595C417.736 382.752 417.452 383.771 416.883 384.653C416.324 385.525 415.503 386.208 414.422 386.701C413.341 387.185 412.028 387.427 410.482 387.427ZM439.103 387.967L437.054 385.592C436.21 386.161 435.276 386.611 434.252 386.943C433.237 387.266 432.166 387.427 431.037 387.427C429.577 387.427 428.216 387.166 426.955 386.644C425.693 386.123 424.593 385.393 423.655 384.454C422.716 383.515 421.981 382.415 421.45 381.154C420.928 379.892 420.667 378.522 420.667 377.043C420.667 375.563 420.928 374.193 421.45 372.932C421.981 371.671 422.716 370.571 423.655 369.632C424.593 368.693 425.698 367.963 426.969 367.441C428.24 366.92 429.615 366.659 431.094 366.659C432.554 366.659 433.915 366.924 435.177 367.455C436.438 367.977 437.543 368.712 438.491 369.66C439.449 370.599 440.193 371.694 440.724 372.946C441.255 374.198 441.521 375.554 441.521 377.014C441.521 378.427 441.269 379.75 440.767 380.983C440.264 382.216 439.572 383.297 438.69 384.226L440.696 386.545L439.103 387.967ZM431.094 385.037C431.91 385.037 432.687 384.923 433.427 384.696C434.167 384.468 434.845 384.136 435.461 383.7L432.289 380.058L433.825 378.693L437.011 382.334C437.59 381.661 438.045 380.879 438.377 379.987C438.709 379.096 438.875 378.114 438.875 377.043C438.875 375.44 438.524 374.046 437.822 372.861C437.13 371.666 436.196 370.741 435.02 370.087C433.844 369.433 432.535 369.105 431.094 369.105C430.013 369.105 429.003 369.295 428.064 369.674C427.125 370.044 426.305 370.58 425.603 371.282C424.902 371.974 424.352 372.809 423.953 373.785C423.564 374.753 423.37 375.838 423.37 377.043C423.37 378.636 423.711 380.035 424.394 381.239C425.087 382.434 426.016 383.368 427.182 384.041C428.349 384.705 429.653 385.037 431.094 385.037ZM445.631 387V367.086H448.305V384.539H457.21V387H445.631Z" fill="#444B50"/>
</g>
<g filter="url(#filter6_d_3122_4188)">
<rect x="108" y="444" width="289.999" height="80" rx="40" fill="white"/>
<rect x="108.5" y="444.5" width="288.999" height="79" rx="39.5" stroke="black" stroke-opacity="0.04"/>
<path d="M152.203 482.938L145.189 485.031L139.087 487.492L137.38 487.903C136.945 488.281 136.489 488.664 135.996 489.051C135.455 489.478 134.952 489.865 134.565 490.146C134.135 490.456 133.499 491.037 133.176 491.406C132.693 491.958 132.312 492.544 132.147 492.994C131.856 493.808 131.999 494.632 132.561 495.392C133.282 496.361 134.719 497.349 136.394 498.022C137.247 498.366 138.684 498.807 139.766 499.054C141.563 499.471 145.041 499.921 146.954 499.989C147.341 500.003 147.861 500.003 147.882 499.989C147.925 499.965 148.221 499.446 148.566 498.802C149.743 496.608 150.591 494.549 151.052 492.791C151.328 491.725 151.545 490.306 151.689 488.625C151.726 488.155 151.742 486.581 151.71 486.048C151.662 485.176 151.577 484.469 151.445 483.777C151.423 483.675 151.418 483.583 151.429 483.578C151.45 483.563 151.514 483.544 152.378 483.316L152.203 482.939V482.939H152.203V482.938ZM150.602 483.796C150.665 483.796 150.835 485.283 150.877 486.223C150.888 486.421 150.883 486.552 150.872 486.552C150.83 486.552 149.976 486.092 149.367 485.743C148.836 485.438 147.829 484.828 147.67 484.711C147.617 484.678 147.622 484.673 148.057 484.537C148.794 484.309 150.544 483.796 150.602 483.796ZM147.029 484.871C147.076 484.871 147.198 484.934 147.49 485.099C148.582 485.724 150.066 486.479 150.703 486.731C150.899 486.809 150.92 486.78 150.469 487.061C149.504 487.661 148.301 488.252 146.827 488.848C146.567 488.955 146.35 489.037 146.345 489.037C146.334 489.037 146.366 488.916 146.408 488.771C146.763 487.564 146.965 486.344 146.976 485.365C146.981 484.881 146.981 484.881 147.029 484.866C147.018 484.871 147.023 484.871 147.029 484.871ZM146.292 485.128C146.323 485.157 146.302 486.242 146.26 486.537C146.164 487.245 146.016 487.903 145.772 488.645C145.714 488.824 145.661 488.974 145.65 488.984C145.629 489.008 144.903 488.359 144.664 488.107C144.251 487.671 143.927 487.235 143.689 486.809C143.567 486.591 143.376 486.165 143.392 486.15C143.477 486.097 146.271 485.109 146.292 485.128ZM142.825 486.373C142.83 486.373 142.835 486.373 142.84 486.378C142.851 486.387 142.888 486.465 142.92 486.552C143.09 486.973 143.471 487.593 143.8 487.991C144.161 488.427 144.632 488.892 145.025 489.197C145.152 489.294 145.268 489.386 145.284 489.4C145.316 489.429 145.327 489.424 144.463 489.725C143.461 490.073 142.369 490.422 141.117 490.79C140.819 490.878 140.52 490.967 140.222 491.057C140.174 491.071 140.19 491.047 140.328 490.849C140.948 489.962 141.891 488.223 142.422 486.993C142.512 486.78 142.602 486.567 142.618 486.518C142.639 486.45 142.665 486.426 142.734 486.392C142.771 486.383 142.809 486.373 142.825 486.373ZM141.764 486.775C141.78 486.785 141.51 487.303 141.245 487.778C140.73 488.693 140.168 489.594 139.416 490.689C139.288 490.878 139.167 491.052 139.151 491.071C139.124 491.105 139.113 491.096 139.029 490.945C138.848 490.621 138.7 490.204 138.62 489.822C138.541 489.444 138.557 488.785 138.647 488.378C138.716 488.078 138.711 488.083 138.87 488.01C139.548 487.695 141.743 486.755 141.764 486.775ZM150.909 487.114V487.317C150.909 488.398 150.782 489.88 150.596 490.96C150.565 491.149 150.538 491.304 150.533 491.309C150.533 491.309 150.379 491.27 150.199 491.221C149.404 490.994 148.54 490.66 147.76 490.267C147.246 490.011 146.498 489.589 146.52 489.57C146.525 489.565 146.748 489.458 147.007 489.332C148.047 488.838 149.043 488.306 149.907 487.778C150.231 487.579 150.718 487.259 150.825 487.172L150.909 487.114ZM137.762 488.548C137.783 488.548 137.777 488.586 137.746 488.761C137.724 488.887 137.698 489.119 137.687 489.279C137.645 489.986 137.772 490.509 138.154 491.226C138.26 491.425 138.345 491.59 138.339 491.594C138.302 491.623 134.793 492.563 133.69 492.839C133.361 492.922 133.075 492.994 133.054 492.999C133.017 493.009 133.011 493.004 133.027 492.922C133.149 492.21 133.743 491.28 134.57 490.495C135.121 489.972 135.561 489.667 136.314 489.274C136.855 488.993 137.687 488.572 137.751 488.552C137.751 488.548 137.756 488.548 137.762 488.548ZM146.032 489.899C146.037 489.894 146.164 489.957 146.318 490.04C147.453 490.64 149.033 491.197 150.379 491.483L150.501 491.507L150.331 491.594C149.626 491.953 147.31 492.834 144.94 493.643C144.595 493.76 144.256 493.876 144.192 493.9C144.129 493.924 144.07 493.939 144.07 493.934C144.07 493.929 144.166 493.76 144.288 493.551C144.95 492.418 145.618 491.037 145.958 490.078C146 489.986 146.027 489.904 146.032 489.899ZM145.189 490.151C145.194 490.156 145.152 490.258 145.099 490.374C144.638 491.396 144.033 492.51 143.259 493.76C143.063 494.079 142.899 494.336 142.893 494.336C142.888 494.336 142.729 494.249 142.538 494.142C141.414 493.513 140.418 492.738 139.766 491.987L139.67 491.88L140.153 491.759C141.881 491.328 143.349 490.863 144.807 490.292C145.014 490.214 145.184 490.151 145.189 490.151ZM150.427 491.822C150.432 491.934 150.162 492.931 149.939 493.653C149.754 494.259 149.594 494.733 149.303 495.571C149.176 495.939 149.064 496.244 149.059 496.244C149.054 496.244 149.022 496.24 148.99 496.23C147.416 495.968 146.005 495.605 144.68 495.121C144.309 494.985 143.779 494.767 143.747 494.743C143.736 494.733 144.055 494.598 144.457 494.438C146.87 493.474 149.372 492.379 150.231 491.909C150.331 491.851 150.411 491.822 150.427 491.822ZM138.334 492.2C138.345 492.21 137.671 493.096 136.728 494.302C136.399 494.724 136.017 495.218 135.874 495.402C135.731 495.586 135.514 495.876 135.392 496.051L135.169 496.366L134.931 496.182C134.65 495.968 134.162 495.513 133.944 495.261C133.489 494.743 133.181 494.196 133.059 493.697C133.001 493.464 133.001 493.348 133.054 493.333C133.133 493.314 134.549 493.009 135.874 492.728C136.611 492.573 137.465 492.389 137.772 492.321C138.08 492.253 138.329 492.2 138.334 492.2ZM139.013 492.437L139.182 492.612C139.946 493.392 140.725 493.968 141.669 494.472C141.839 494.559 141.966 494.636 141.955 494.641C141.918 494.665 138.679 495.717 137.178 496.191C136.336 496.462 135.641 496.68 135.636 496.68C135.63 496.68 135.583 496.651 135.53 496.617L135.434 496.554L135.588 496.351C136.086 495.692 136.712 494.971 138.074 493.469L139.013 492.437ZM143.243 495.203C143.249 495.198 143.482 495.276 143.768 495.373C144.457 495.61 145.003 495.76 145.735 495.93C146.636 496.138 147.94 496.341 148.709 496.4C148.826 496.409 148.889 496.419 148.868 496.433C148.831 496.453 148.052 496.69 147.479 496.855C146.567 497.116 143.784 497.867 141.515 498.463C141.096 498.574 140.736 498.666 140.715 498.671C140.662 498.681 140.487 498.637 140.487 498.618C140.487 498.608 140.614 498.458 140.768 498.293C141.531 497.46 142.289 496.53 142.92 495.649C143.095 495.406 143.243 495.208 143.243 495.203ZM142.31 495.227C142.316 495.232 141.939 495.784 141.282 496.734C141.001 497.136 140.688 497.591 140.577 497.751C140.471 497.906 140.312 498.148 140.222 498.284L140.068 498.531L139.988 498.511C139.797 498.463 138.456 498.032 138.101 497.901C137.661 497.741 137.205 497.548 136.866 497.383C136.442 497.175 135.911 496.864 135.954 496.855C135.964 496.85 136.691 496.671 137.565 496.453C139.887 495.876 141.176 495.542 142.019 495.3C142.172 495.256 142.305 495.222 142.31 495.227ZM148.911 496.642H148.916C148.937 496.69 148.078 498.87 147.765 499.558C147.697 499.713 147.67 499.751 147.633 499.747C147.543 499.742 146.297 499.582 145.539 499.48C144.219 499.296 142.003 498.942 141.446 498.826L141.319 498.802L142.109 498.637C143.805 498.289 144.622 498.1 145.449 497.867C146.493 497.577 147.527 497.213 148.571 496.768C148.736 496.7 148.874 496.647 148.911 496.642Z" fill="#C3C5C7"/>
<path d="M144.972 468C144.855 467.986 142.973 468.606 141.759 469.056C140.121 469.667 138.849 470.248 138.064 470.752C137.772 470.941 137.406 471.275 137.348 471.405C137.327 471.454 137.316 471.512 137.316 471.57L138.027 472.185L139.718 472.679L143.742 473.338L148.343 474.06L148.391 473.697C148.375 473.697 148.365 473.692 148.349 473.692L147.744 473.605L147.623 473.406C146.997 472.398 146.308 471.149 145.905 470.306C145.592 469.652 145.295 468.896 145.131 468.354C145.041 468.025 145.03 468.005 144.972 468V468H144.972V468ZM144.887 468.247H144.892C144.898 468.252 144.919 468.388 144.94 468.548C145.03 469.226 145.194 469.88 145.454 470.587C145.65 471.12 145.65 471.091 145.422 471.028C144.882 470.892 142.459 470.509 140.704 470.287C140.423 470.253 140.185 470.219 140.185 470.214C140.163 470.195 141.452 469.579 142.019 469.337C142.745 469.032 144.738 468.272 144.887 468.247ZM139.776 470.417L139.983 470.48C141.107 470.829 143.933 471.323 145.491 471.439C145.666 471.454 145.815 471.469 145.82 471.469C145.825 471.473 145.677 471.546 145.486 471.628C144.733 471.972 143.906 472.394 143.334 472.718C143.164 472.815 143.01 472.893 142.989 472.893C142.968 472.893 142.856 472.873 142.74 472.859L142.528 472.83L141.998 472.355C141.065 471.527 140.333 470.887 140.052 470.645L139.776 470.417ZM139.564 470.567L140.312 471.42C140.72 471.89 141.133 472.35 141.224 472.452C141.314 472.553 141.388 472.636 141.383 472.641C141.361 472.655 140.301 472.466 139.739 472.35C139.161 472.229 138.923 472.171 138.568 472.069L138.276 471.982V471.914C138.281 471.59 138.732 471.105 139.495 470.611L139.564 470.567ZM145.915 471.73C145.937 471.73 145.963 471.774 146.027 471.904C146.207 472.268 146.769 473.246 146.907 473.435C146.949 473.498 147.023 473.503 146.276 473.391C144.479 473.125 143.901 473.038 143.901 473.028C143.901 473.023 143.954 472.989 144.023 472.956C144.579 472.675 145.141 472.316 145.64 471.933C145.762 471.841 145.873 471.754 145.894 471.74C145.899 471.73 145.91 471.725 145.915 471.73Z" fill="#C3C5C7"/>
<path d="M137.385 471.338C137.385 471.338 137.269 471.507 137.38 471.759C137.449 471.914 137.65 472.103 137.878 472.297C137.878 472.297 140.237 474.399 140.524 474.7C141.828 476.075 142.395 477.431 142.448 479.301C142.48 480.502 142.231 481.558 141.611 482.784C140.508 484.983 138.18 487.41 134.591 490.103L135.116 489.943C135.456 489.711 135.917 489.464 136.998 488.921C139.495 487.671 142.305 486.523 145.751 485.341C150.713 483.636 158.872 481.641 163.516 480.992L163.999 480.924L163.924 480.817C163.5 480.217 163.209 479.844 162.859 479.446C161.841 478.294 160.606 477.359 159.095 476.584C157.017 475.523 154.329 474.695 150.925 474.08C150.284 473.963 148.874 473.74 147.728 473.581C145.3 473.237 143.731 472.999 142.003 472.728C141.383 472.631 140.455 472.486 139.84 472.365C139.522 472.302 138.912 472.171 138.435 472.021C138.053 471.885 137.502 471.75 137.385 471.338ZM138.753 472.549C138.758 472.544 138.843 472.573 138.955 472.607C139.156 472.67 139.416 472.743 139.723 472.82C139.956 472.879 140.189 472.935 140.423 472.99C140.741 473.062 141.006 473.13 141.011 473.13C141.049 473.164 141.584 474.728 141.764 475.329C141.833 475.557 141.886 475.751 141.881 475.751C141.876 475.755 141.817 475.673 141.748 475.562C141.128 474.564 140.147 473.552 139.013 472.738C138.864 472.641 138.753 472.554 138.753 472.549ZM141.361 473.208C141.388 473.208 141.505 473.222 141.648 473.251C142.549 473.435 144.166 473.716 145.2 473.876C145.375 473.9 145.512 473.929 145.512 473.939C145.512 473.949 145.449 473.983 145.369 474.021C145.194 474.104 144.489 474.486 144.256 474.632C143.668 474.99 143.137 475.378 142.756 475.726C142.602 475.867 142.469 475.983 142.469 475.983C142.469 475.983 142.438 475.901 142.411 475.799C142.22 475.126 141.823 474.128 141.462 473.426C141.404 473.314 141.356 473.212 141.356 473.203C141.356 473.212 141.356 473.208 141.361 473.208ZM145.952 474.007C145.984 474.017 146.037 474.181 146.143 474.545C146.339 475.247 146.43 476.032 146.398 476.763C146.387 476.966 146.377 477.155 146.366 477.18L146.35 477.228L146.074 477.146C145.507 476.981 144.585 476.734 143.795 476.531C143.344 476.419 142.978 476.317 142.978 476.308C142.978 476.279 143.636 475.678 143.917 475.45C144.452 475.019 145.905 473.992 145.952 474.007ZM146.318 474.055C146.334 474.041 148.513 474.385 149.504 474.559C150.241 474.69 151.312 474.893 151.376 474.918C151.408 474.927 151.296 474.985 150.941 475.131C149.542 475.707 148.502 476.225 147.469 476.855C147.198 477.02 146.97 477.155 146.965 477.155C146.96 477.155 146.955 477.015 146.955 476.845C146.955 475.925 146.753 474.995 146.382 474.21C146.345 474.133 146.313 474.06 146.318 474.055ZM151.954 475.073C151.97 475.087 151.901 475.479 151.837 475.712C151.646 476.434 151.132 477.504 150.501 478.512C150.39 478.691 150.289 478.836 150.278 478.841C150.268 478.846 150.125 478.773 149.96 478.686C149.345 478.357 148.646 478.047 147.882 477.756C147.67 477.674 147.485 477.606 147.479 477.596C147.442 477.567 149.149 476.535 150.051 476.041C150.766 475.644 151.933 475.053 151.954 475.073ZM152.357 475.131C152.404 475.131 153.369 475.373 153.873 475.508C155.119 475.848 156.55 476.327 157.483 476.715L157.87 476.874L157.6 476.933C155.32 477.412 153.369 477.964 151.487 478.662C151.333 478.72 151.196 478.768 151.185 478.768C151.174 478.768 151.227 478.657 151.296 478.521C151.864 477.422 152.229 476.274 152.319 475.295C152.325 475.203 152.341 475.131 152.357 475.131ZM142.75 477.146C142.766 477.131 143.503 477.291 143.901 477.393C144.505 477.548 145.788 477.94 145.788 477.969C145.788 477.974 145.645 478.085 145.475 478.221C144.781 478.749 144.113 479.306 143.312 480.013C143.074 480.222 142.872 480.391 142.862 480.391C142.851 480.391 142.846 480.362 142.851 480.323C142.973 479.509 142.947 478.463 142.777 477.402C142.761 477.267 142.745 477.151 142.75 477.146ZM158.236 477.16C158.247 477.17 157.897 477.674 157.674 477.959C157.356 478.376 156.889 478.928 155.834 480.139C155.278 480.779 154.652 481.5 154.445 481.742C154.233 481.985 154.058 482.188 154.053 482.188C154.048 482.188 153.979 482.101 153.905 481.994C153.311 481.181 152.6 480.469 151.758 479.829C151.599 479.708 151.424 479.577 151.365 479.538C151.307 479.5 151.259 479.461 151.259 479.456C151.259 479.442 152.16 479.088 152.844 478.836C154.043 478.391 155.675 477.858 156.9 477.514C157.541 477.33 158.225 477.151 158.236 477.16ZM158.644 477.257C158.665 477.252 158.793 477.31 158.946 477.393C160.235 478.066 161.496 478.933 162.493 479.824C162.774 480.076 163.469 480.735 163.458 480.74C163.458 480.74 163.214 480.759 162.928 480.779C160.696 480.934 157.838 481.365 155.092 481.97C154.907 482.009 154.742 482.043 154.732 482.043C154.721 482.043 154.928 481.854 155.188 481.626C156.799 480.207 157.536 479.311 158.406 477.712C158.528 477.475 158.634 477.272 158.644 477.257C158.639 477.257 158.639 477.257 158.644 477.257ZM146.838 478.362C146.912 478.376 147.601 478.672 148.121 478.909C148.598 479.127 149.314 479.476 149.351 479.505C149.356 479.509 149.102 479.631 148.789 479.771C147.792 480.226 146.939 480.657 146.048 481.151C145.793 481.292 145.581 481.408 145.576 481.408C145.555 481.408 145.56 481.389 145.703 481.151C146.18 480.357 146.562 479.408 146.78 478.483C146.801 478.41 146.822 478.362 146.838 478.362ZM146.149 478.478C146.165 478.492 145.984 479.088 145.873 479.413C145.656 480.028 145.29 480.798 144.935 481.379C144.85 481.515 144.723 481.713 144.654 481.825L144.521 482.018L144.224 481.757C143.88 481.452 143.599 481.263 143.238 481.093C143.095 481.026 142.984 480.967 142.984 480.958C142.984 480.919 143.89 480.168 144.585 479.626C145.083 479.233 146.133 478.463 146.149 478.478ZM150.363 480.062L150.623 480.217C151.217 480.57 151.917 481.04 152.452 481.452C152.754 481.679 153.337 482.159 153.454 482.275L153.518 482.338L153.088 482.45C150.66 483.065 148.783 483.612 146.594 484.348C146.35 484.431 146.143 484.499 146.127 484.499C146.096 484.499 146.069 484.523 146.615 484.063C148.015 482.886 149.255 481.587 150.178 480.323L150.363 480.062ZM149.255 480.314C149.266 480.323 148.54 481.258 148.105 481.786C147.585 482.416 146.663 483.472 146.027 484.159C145.762 484.445 145.534 484.683 145.523 484.687C145.507 484.692 145.502 484.62 145.502 484.508C145.502 483.922 145.338 483.297 145.051 482.764C144.929 482.542 144.908 482.488 144.935 482.464C145.035 482.382 146.578 481.578 147.554 481.098C148.211 480.779 149.239 480.304 149.255 480.314ZM142.554 481.815C142.57 481.815 142.692 481.873 142.83 481.941C143.169 482.111 143.471 482.299 143.742 482.503C143.752 482.513 143.615 482.614 143.434 482.735C142.931 483.065 142.167 483.593 141.722 483.917C141.255 484.256 141.24 484.266 141.292 484.193C141.642 483.704 141.817 483.428 142.003 483.075C142.167 482.76 142.332 482.387 142.448 482.062C142.491 481.922 142.544 481.815 142.554 481.815ZM144.341 483.094C144.367 483.089 144.399 483.133 144.542 483.326C144.844 483.738 145.078 484.29 145.136 484.736L145.147 484.833L144.42 485.09C143.121 485.55 141.923 486.005 141.112 486.344C140.884 486.441 140.487 486.615 140.227 486.732C139.967 486.853 139.755 486.945 139.755 486.94C139.755 486.935 139.919 486.824 140.121 486.688C141.706 485.637 143.079 484.484 144.108 483.331C144.219 483.21 144.32 483.099 144.33 483.094L144.341 483.094ZM143.519 483.278C143.54 483.297 142.936 483.922 142.522 484.305C141.499 485.259 140.487 486.005 139.23 486.732C139.071 486.824 138.928 486.906 138.912 486.916C138.875 486.935 138.923 486.887 139.474 486.339C139.824 485.995 140.089 485.705 140.391 485.346C140.593 485.109 140.63 485.075 140.921 484.886C141.701 484.373 143.498 483.259 143.519 483.278Z" fill="#D45749"/>
<path d="M174.673 494V474.086H177.276L185.583 487.528H184.559L192.582 474.086H195.114V494H192.496L192.525 477.727L193.051 477.898L185.939 489.519H183.876L176.679 477.898L177.091 477.727L177.12 494H174.673ZM206.813 494.427C205.476 494.427 204.172 494.242 202.901 493.872C201.63 493.493 200.559 492.952 199.686 492.25L201.023 490.159C201.517 490.567 202.076 490.913 202.702 491.198C203.328 491.482 203.992 491.7 204.693 491.852C205.395 492.004 206.106 492.08 206.827 492.08C208.24 492.08 209.373 491.805 210.227 491.255C211.09 490.705 211.521 489.899 211.521 488.836C211.521 488.059 211.232 487.4 210.653 486.859C210.084 486.319 209.018 485.826 207.453 485.38L205.291 484.74C203.47 484.209 202.138 483.512 201.294 482.649C200.45 481.786 200.028 480.705 200.028 479.406C200.028 478.533 200.203 477.746 200.554 477.044C200.905 476.343 201.398 475.74 202.033 475.238C202.669 474.726 203.418 474.337 204.281 474.071C205.153 473.796 206.106 473.659 207.14 473.659C208.42 473.659 209.61 473.848 210.71 474.228C211.82 474.598 212.735 475.096 213.456 475.721L212.076 477.727C211.649 477.367 211.161 477.059 210.611 476.802C210.061 476.537 209.473 476.338 208.847 476.205C208.221 476.063 207.586 475.992 206.941 475.992C206.078 475.992 205.314 476.12 204.651 476.376C203.996 476.622 203.484 476.992 203.114 477.485C202.754 477.969 202.574 478.557 202.574 479.249C202.574 479.752 202.692 480.193 202.93 480.572C203.167 480.942 203.579 481.283 204.167 481.596C204.755 481.909 205.566 482.217 206.599 482.521L208.904 483.204C210.677 483.725 211.981 484.413 212.816 485.266C213.65 486.11 214.067 487.22 214.067 488.595C214.067 489.752 213.783 490.771 213.214 491.653C212.654 492.525 211.834 493.208 210.753 493.701C209.672 494.185 208.359 494.427 206.813 494.427ZM231.678 494.427C230.341 494.427 229.037 494.242 227.766 493.872C226.496 493.493 225.424 492.952 224.552 492.25L225.889 490.159C226.382 490.567 226.941 490.913 227.567 491.198C228.193 491.482 228.857 491.7 229.559 491.852C230.26 492.004 230.972 492.08 231.692 492.08C233.105 492.08 234.239 491.805 235.092 491.255C235.955 490.705 236.386 489.899 236.386 488.836C236.386 488.059 236.097 487.4 235.519 486.859C234.95 486.319 233.883 485.826 232.318 485.38L230.156 484.74C228.335 484.209 227.003 483.512 226.159 482.649C225.315 481.786 224.893 480.705 224.893 479.406C224.893 478.533 225.068 477.746 225.419 477.044C225.77 476.343 226.263 475.74 226.899 475.238C227.534 474.726 228.283 474.337 229.146 474.071C230.019 473.796 230.972 473.659 232.005 473.659C233.285 473.659 234.476 473.848 235.576 474.228C236.685 474.598 237.6 475.096 238.321 475.721L236.941 477.727C236.514 477.367 236.026 477.059 235.476 476.802C234.926 476.537 234.338 476.338 233.712 476.205C233.086 476.063 232.451 475.992 231.806 475.992C230.943 475.992 230.18 476.12 229.516 476.376C228.862 476.622 228.35 476.992 227.98 477.485C227.619 477.969 227.439 478.557 227.439 479.249C227.439 479.752 227.558 480.193 227.795 480.572C228.032 480.942 228.444 481.283 229.032 481.596C229.62 481.909 230.431 482.217 231.465 482.521L233.769 483.204C235.542 483.725 236.846 484.413 237.681 485.266C238.515 486.11 238.933 487.22 238.933 488.595C238.933 489.752 238.648 490.771 238.079 491.653C237.52 492.525 236.699 493.208 235.618 493.701C234.537 494.185 233.224 494.427 231.678 494.427ZM260.299 494.967L258.25 492.592C257.406 493.161 256.472 493.611 255.448 493.943C254.433 494.266 253.362 494.427 252.233 494.427C250.773 494.427 249.412 494.166 248.151 493.644C246.89 493.123 245.79 492.393 244.851 491.454C243.912 490.515 243.177 489.415 242.646 488.154C242.124 486.892 241.864 485.522 241.864 484.043C241.864 482.563 242.124 481.193 242.646 479.932C243.177 478.671 243.912 477.571 244.851 476.632C245.79 475.693 246.894 474.963 248.165 474.441C249.436 473.92 250.811 473.659 252.29 473.659C253.751 473.659 255.111 473.924 256.373 474.455C257.634 474.977 258.739 475.712 259.687 476.66C260.645 477.599 261.389 478.694 261.92 479.946C262.451 481.198 262.717 482.554 262.717 484.014C262.717 485.427 262.466 486.75 261.963 487.983C261.46 489.216 260.768 490.297 259.886 491.226L261.892 493.545L260.299 494.967ZM252.29 492.037C253.106 492.037 253.883 491.923 254.623 491.696C255.363 491.468 256.041 491.136 256.657 490.7L253.485 487.058L255.021 485.693L258.208 489.334C258.786 488.661 259.241 487.879 259.573 486.987C259.905 486.096 260.071 485.114 260.071 484.043C260.071 482.44 259.72 481.046 259.018 479.861C258.326 478.666 257.392 477.741 256.216 477.087C255.04 476.433 253.732 476.105 252.29 476.105C251.209 476.105 250.199 476.295 249.26 476.674C248.322 477.044 247.501 477.58 246.8 478.282C246.098 478.974 245.548 479.809 245.149 480.785C244.761 481.753 244.566 482.838 244.566 484.043C244.566 485.636 244.908 487.035 245.59 488.239C246.283 489.434 247.212 490.368 248.378 491.041C249.545 491.705 250.849 492.037 252.29 492.037ZM266.827 494V474.086H269.502V491.539H278.406V494H266.827ZM295.578 494.427C294.241 494.427 292.937 494.242 291.666 493.872C290.395 493.493 289.324 492.952 288.451 492.25L289.788 490.159C290.281 490.567 290.841 490.913 291.467 491.198C292.093 491.482 292.756 491.7 293.458 491.852C294.16 492.004 294.871 492.08 295.592 492.08C297.005 492.08 298.138 491.805 298.992 491.255C299.855 490.705 300.286 489.899 300.286 488.836C300.286 488.059 299.997 487.4 299.418 486.859C298.849 486.319 297.782 485.826 296.218 485.38L294.056 484.74C292.235 484.209 290.903 483.512 290.059 482.649C289.215 481.786 288.793 480.705 288.793 479.406C288.793 478.533 288.968 477.746 289.319 477.044C289.67 476.343 290.163 475.74 290.798 475.238C291.434 474.726 292.183 474.337 293.046 474.071C293.918 473.796 294.871 473.659 295.905 473.659C297.185 473.659 298.375 473.848 299.475 474.228C300.585 474.598 301.5 475.096 302.221 475.721L300.841 477.727C300.414 477.367 299.926 477.059 299.376 476.802C298.826 476.537 298.238 476.338 297.612 476.205C296.986 476.063 296.351 475.992 295.706 475.992C294.843 475.992 294.079 476.12 293.416 476.376C292.761 476.622 292.249 476.992 291.879 477.485C291.519 477.969 291.339 478.557 291.339 479.249C291.339 479.752 291.457 480.193 291.694 480.572C291.931 480.942 292.344 481.283 292.932 481.596C293.52 481.909 294.331 482.217 295.364 482.521L297.669 483.204C299.442 483.725 300.746 484.413 301.58 485.266C302.415 486.11 302.832 487.22 302.832 488.595C302.832 489.752 302.548 490.771 301.979 491.653C301.419 492.525 300.599 493.208 299.518 493.701C298.437 494.185 297.123 494.427 295.578 494.427ZM312.861 494.427C311.382 494.427 310.078 494.119 308.949 493.502C307.821 492.886 306.939 492.028 306.304 490.927C305.668 489.818 305.351 488.528 305.351 487.058C305.351 485.996 305.531 485.01 305.891 484.1C306.261 483.189 306.773 482.402 307.427 481.738C308.091 481.075 308.864 480.558 309.746 480.188C310.637 479.818 311.605 479.633 312.648 479.633C313.776 479.633 314.782 479.832 315.663 480.231C316.555 480.629 317.29 481.188 317.868 481.909C318.456 482.62 318.878 483.46 319.134 484.427C319.39 485.385 319.442 486.428 319.291 487.556H307.94C307.911 488.486 308.101 489.301 308.508 490.003C308.916 490.695 309.504 491.236 310.272 491.624C311.05 492.013 311.97 492.208 313.032 492.208C313.81 492.208 314.568 492.084 315.308 491.838C316.048 491.591 316.702 491.226 317.271 490.743L318.38 492.691C317.925 493.061 317.385 493.379 316.759 493.644C316.142 493.9 315.498 494.095 314.824 494.228C314.151 494.36 313.497 494.427 312.861 494.427ZM308.082 485.522H316.673C316.635 484.346 316.27 483.431 315.578 482.777C314.886 482.113 313.895 481.781 312.605 481.781C311.353 481.781 310.32 482.113 309.504 482.777C308.689 483.431 308.215 484.346 308.082 485.522ZM322.674 494V480.06H325.292V482.08C325.851 481.169 326.515 480.534 327.283 480.174C328.061 479.804 328.886 479.619 329.758 479.619C330.033 479.619 330.299 479.633 330.555 479.662C330.811 479.69 331.062 479.728 331.309 479.775L330.924 482.492C330.659 482.416 330.389 482.36 330.114 482.322C329.839 482.274 329.568 482.25 329.303 482.25C328.136 482.25 327.174 482.616 326.415 483.346C325.666 484.066 325.292 485.034 325.292 486.248V494H322.674ZM337.954 494L332.634 480.06H335.536L339.703 491.767H339.248L343.345 480.06H346.161L340.913 494H337.954ZM355.035 494.427C353.556 494.427 352.252 494.119 351.123 493.502C349.995 492.886 349.113 492.028 348.477 490.927C347.842 489.818 347.524 488.528 347.524 487.058C347.524 485.996 347.705 485.01 348.065 484.1C348.435 483.189 348.947 482.402 349.601 481.738C350.265 481.075 351.038 480.558 351.92 480.188C352.811 479.818 353.778 479.633 354.822 479.633C355.95 479.633 356.955 479.832 357.837 480.231C358.729 480.629 359.464 481.188 360.042 481.909C360.63 482.62 361.052 483.46 361.308 484.427C361.564 485.385 361.616 486.428 361.464 487.556H350.113C350.085 488.486 350.274 489.301 350.682 490.003C351.09 490.695 351.678 491.236 352.446 491.624C353.224 492.013 354.144 492.208 355.206 492.208C355.983 492.208 356.742 492.084 357.482 491.838C358.221 491.591 358.876 491.226 359.445 490.743L360.554 492.691C360.099 493.061 359.558 493.379 358.932 493.644C358.316 493.9 357.671 494.095 356.998 494.228C356.325 494.36 355.67 494.427 355.035 494.427ZM350.255 485.522H358.847C358.809 484.346 358.444 483.431 357.752 482.777C357.06 482.113 356.069 481.781 354.779 481.781C353.527 481.781 352.493 482.113 351.678 482.777C350.862 483.431 350.388 484.346 350.255 485.522ZM364.848 494V480.06H367.465V482.08C368.025 481.169 368.689 480.534 369.457 480.174C370.234 479.804 371.059 479.619 371.932 479.619C372.207 479.619 372.472 479.633 372.728 479.662C372.984 479.69 373.236 479.728 373.482 479.775L373.098 482.492C372.833 482.416 372.562 482.36 372.287 482.322C372.012 482.274 371.742 482.25 371.477 482.25C370.31 482.25 369.348 482.616 368.589 483.346C367.84 484.066 367.465 485.034 367.465 486.248V494H364.848Z" fill="#444B50"/>
</g>
<defs>
<filter id="filter0_d_3122_4188" x="257.2" y="122.2" width="246.599" height="113.6" filterUnits="userSpaceOnUse" color-interpolation-filters="sRGB">
<feFlood flood-opacity="0" result="BackgroundImageFix"/>
<feColorMatrix in="SourceAlpha" type="matrix" values="0 0 0 0 0 0 0 0 0 0 0 0 0 0 0 0 0 0 127 0" result="hardAlpha"/>
<feMorphology radius="17" operator="erode" in="SourceAlpha" result="effect1_dropShadow_3122_4188"/>
<feOffset dy="4"/>
<feGaussianBlur stdDeviation="16.9"/>
<feComposite in2="hardAlpha" operator="out"/>
<feColorMatrix type="matrix" values="0 0 0 0 0 0 0 0 0 0 0 0 0 0 0 0 0 0 0.25 0"/>
<feBlend mode="normal" in2="BackgroundImageFix" result="effect1_dropShadow_3122_4188"/>
<feBlend mode="normal" in="SourceGraphic" in2="effect1_dropShadow_3122_4188" result="shape"/>
</filter>
<filter id="filter1_d_3122_4188" x="34.2" y="120.2" width="192.599" height="113.6" filterUnits="userSpaceOnUse" color-interpolation-filters="sRGB">
<feFlood flood-opacity="0" result="BackgroundImageFix"/>
<feColorMatrix in="SourceAlpha" type="matrix" values="0 0 0 0 0 0 0 0 0 0 0 0 0 0 0 0 0 0 127 0" result="hardAlpha"/>
<feMorphology radius="17" operator="erode" in="SourceAlpha" result="effect1_dropShadow_3122_4188"/>
<feOffset dy="4"/>
<feGaussianBlur stdDeviation="16.9"/>
<feComposite in2="hardAlpha" operator="out"/>
<feColorMatrix type="matrix" values="0 0 0 0 0 0 0 0 0 0 0 0 0 0 0 0 0 0 0.25 0"/>
<feBlend mode="normal" in2="BackgroundImageFix" result="effect1_dropShadow_3122_4188"/>
<feBlend mode="normal" in="SourceGraphic" in2="effect1_dropShadow_3122_4188" result="shape"/>
</filter>
<filter id="filter2_d_3122_4188" x="0.200001" y="324.2" width="230.599" height="113.6" filterUnits="userSpaceOnUse" color-interpolation-filters="sRGB">
<feFlood flood-opacity="0" result="BackgroundImageFix"/>
<feColorMatrix in="SourceAlpha" type="matrix" values="0 0 0 0 0 0 0 0 0 0 0 0 0 0 0 0 0 0 127 0" result="hardAlpha"/>
<feMorphology radius="17" operator="erode" in="SourceAlpha" result="effect1_dropShadow_3122_4188"/>
<feOffset dy="4"/>
<feGaussianBlur stdDeviation="16.9"/>
<feComposite in2="hardAlpha" operator="out"/>
<feColorMatrix type="matrix" values="0 0 0 0 0 0 0 0 0 0 0 0 0 0 0 0 0 0 0.25 0"/>
<feBlend mode="normal" in2="BackgroundImageFix" result="effect1_dropShadow_3122_4188"/>
<feBlend mode="normal" in="SourceGraphic" in2="effect1_dropShadow_3122_4188" result="shape"/>
</filter>
<filter id="filter3_d_3122_4188" x="111.2" y="15.2" width="283.599" height="113.6" filterUnits="userSpaceOnUse" color-interpolation-filters="sRGB">
<feFlood flood-opacity="0" result="BackgroundImageFix"/>
<feColorMatrix in="SourceAlpha" type="matrix" values="0 0 0 0 0 0 0 0 0 0 0 0 0 0 0 0 0 0 127 0" result="hardAlpha"/>
<feMorphology radius="17" operator="erode" in="SourceAlpha" result="effect1_dropShadow_3122_4188"/>
<feOffset dy="4"/>
<feGaussianBlur stdDeviation="16.9"/>
<feComposite in2="hardAlpha" operator="out"/>
<feColorMatrix type="matrix" values="0 0 0 0 0 0 0 0 0 0 0 0 0 0 0 0 0 0 0.25 0"/>
<feBlend mode="normal" in2="BackgroundImageFix" result="effect1_dropShadow_3122_4188"/>
<feBlend mode="normal" in="SourceGraphic" in2="effect1_dropShadow_3122_4188" result="shape"/>
</filter>
<filter id="filter4_d_3122_4188" x="146.3" y="216.8" width="213.437" height="113.4" filterUnits="userSpaceOnUse" color-interpolation-filters="sRGB">
<feFlood flood-opacity="0" result="BackgroundImageFix"/>
<feColorMatrix in="SourceAlpha" type="matrix" values="0 0 0 0 0 0 0 0 0 0 0 0 0 0 0 0 0 0 127 0" result="hardAlpha"/>
<feMorphology radius="14.875" operator="erode" in="SourceAlpha" result="effect1_dropShadow_3122_4188"/>
<feOffset dy="3.5"/>
<feGaussianBlur stdDeviation="14.7875"/>
<feComposite in2="hardAlpha" operator="out"/>
<feColorMatrix type="matrix" values="0 0 0 0 0 0 0 0 0 0 0 0 0 0 0 0 0 0 1 0"/>
<feBlend mode="normal" in2="BackgroundImageFix" result="effect1_dropShadow_3122_4188"/>
<feBlend mode="normal" in="SourceGraphic" in2="effect1_dropShadow_3122_4188" result="shape"/>
</filter>
<filter id="filter5_d_3122_4188" x="280.2" y="324.2" width="219.599" height="113.6" filterUnits="userSpaceOnUse" color-interpolation-filters="sRGB">
<feFlood flood-opacity="0" result="BackgroundImageFix"/>
<feColorMatrix in="SourceAlpha" type="matrix" values="0 0 0 0 0 0 0 0 0 0 0 0 0 0 0 0 0 0 127 0" result="hardAlpha"/>
<feMorphology radius="17" operator="erode" in="SourceAlpha" result="effect1_dropShadow_3122_4188"/>
<feOffset dy="4"/>
<feGaussianBlur stdDeviation="16.9"/>
<feComposite in2="hardAlpha" operator="out"/>
<feColorMatrix type="matrix" values="0 0 0 0 0 0 0 0 0 0 0 0 0 0 0 0 0 0 0.25 0"/>
<feBlend mode="normal" in2="BackgroundImageFix" result="effect1_dropShadow_3122_4188"/>
<feBlend mode="normal" in="SourceGraphic" in2="effect1_dropShadow_3122_4188" result="shape"/>
</filter>
<filter id="filter6_d_3122_4188" x="91.2" y="431.2" width="323.599" height="113.6" filterUnits="userSpaceOnUse" color-interpolation-filters="sRGB">
<feFlood flood-opacity="0" result="BackgroundImageFix"/>
<feColorMatrix in="SourceAlpha" type="matrix" values="0 0 0 0 0 0 0 0 0 0 0 0 0 0 0 0 0 0 127 0" result="hardAlpha"/>
<feMorphology radius="17" operator="erode" in="SourceAlpha" result="effect1_dropShadow_3122_4188"/>
<feOffset dy="4"/>
<feGaussianBlur stdDeviation="16.9"/>
<feComposite in2="hardAlpha" operator="out"/>
<feColorMatrix type="matrix" values="0 0 0 0 0 0 0 0 0 0 0 0 0 0 0 0 0 0 0.25 0"/>
<feBlend mode="normal" in2="BackgroundImageFix" result="effect1_dropShadow_3122_4188"/>
<feBlend mode="normal" in="SourceGraphic" in2="effect1_dropShadow_3122_4188" result="shape"/>
</filter>
<clipPath id="clip0_3122_4188">
<rect width="128.037" height="28" fill="white" transform="translate(189 256)"/>
</clipPath>
</defs>
</svg>
