<svg width="189" height="53" viewBox="0 0 189 53" fill="none" xmlns="http://www.w3.org/2000/svg">
<g clip-path="url(#clip0_285_4009)">
<path d="M74.6549 21.2652H71.2424L70.4663 23.4124H69.4277L72.475 15.3748H73.4999L76.4901 23.4124H75.4173L74.6549 21.2652ZM71.5734 20.3236H74.3239L72.9886 16.546H72.9429L71.5734 20.3236Z" fill="#414042"/>
<path d="M80.8041 23.4238H79.7769V16.3393H77.4053V15.3862H83.1574V16.3507H80.8041V23.4238Z" fill="#414042"/>
<path d="M88.602 23.5273C88.0871 23.535 87.5761 23.4374 87.1 23.2403C86.6637 23.0547 86.2739 22.7739 85.9587 22.4181C85.6318 22.0426 85.3855 21.6032 85.2351 21.1275C85.0606 20.5706 84.9758 19.9891 84.984 19.4052C84.975 18.8181 85.0637 18.2336 85.2465 17.6759C85.4032 17.1985 85.6531 16.7574 85.9815 16.3784C86.2964 16.0229 86.6864 15.7428 87.1228 15.5586C87.5781 15.36 88.0692 15.2584 88.5654 15.2601C89.1035 15.2491 89.6379 15.3524 90.1336 15.5632C90.5725 15.7567 90.9626 16.0471 91.2749 16.4129C91.5939 16.7975 91.833 17.2426 91.9779 17.7219C92.1425 18.2635 92.2233 18.8274 92.2176 19.3937C92.2286 20.0036 92.136 20.611 91.9437 21.1895C91.7836 21.668 91.5271 22.1081 91.1904 22.4824C90.8727 22.8251 90.4827 23.0919 90.0491 23.2632C89.5875 23.442 89.0966 23.5316 88.602 23.5273ZM88.7047 22.5628C89.0418 22.5785 89.378 22.5144 89.686 22.3756C89.994 22.2368 90.2654 22.0272 90.4783 21.7636C90.9074 21.2332 91.1242 20.4409 91.1242 19.3937C91.1335 18.9129 91.0735 18.4334 90.9462 17.9699C90.8473 17.6089 90.6748 17.2726 90.4395 16.9824C90.2237 16.7253 89.9464 16.5278 89.6337 16.4083C89.2929 16.2805 88.9313 16.2182 88.5677 16.2246C88.2307 16.2214 87.8967 16.2878 87.5862 16.4198C87.2806 16.5483 87.0104 16.7492 86.7987 17.0054C86.56 17.296 86.3814 17.6317 86.2737 17.9929C86.1358 18.4465 86.0703 18.9194 86.0797 19.3937C86.0725 19.8599 86.1356 20.3244 86.2669 20.7716C86.3747 21.1354 86.5557 21.4731 86.7987 21.7636C87.0227 22.0252 87.3061 22.2285 87.625 22.3561C87.9686 22.4933 88.335 22.5634 88.7047 22.5628Z" fill="#414042"/>
<path d="M102.88 23.4238H101.853L101.362 17.1315L99.3417 23.4238H98.2688L96.2601 17.166L95.758 23.4238H94.7285L95.4133 15.3862H96.6687L98.8372 22.2871L100.939 15.3862H102.195L102.88 23.4238Z" fill="#414042"/>
<path d="M106.598 18.7734H109.942C109.93 18.384 109.846 18.0003 109.696 17.6413C109.564 17.3379 109.368 17.0674 109.121 16.849C108.868 16.6346 108.574 16.4744 108.258 16.3782C107.905 16.272 107.538 16.2201 107.169 16.2244C106.898 16.2269 106.627 16.246 106.359 16.2818C106.053 16.3175 105.753 16.3947 105.468 16.5114L105.274 15.6732C105.549 15.5382 105.841 15.4416 106.142 15.3862C106.53 15.3004 106.927 15.258 107.324 15.2599C107.851 15.2517 108.375 15.3292 108.876 15.4895C109.322 15.6358 109.726 15.8861 110.056 16.2198C110.397 16.5765 110.653 17.0059 110.805 17.4759C110.99 18.0623 111.077 18.6753 111.063 19.2901C111.071 19.8906 110.986 20.4887 110.812 21.063C110.66 21.5584 110.401 22.0134 110.052 22.395C109.701 22.7679 109.27 23.0547 108.792 23.2332C108.229 23.4392 107.633 23.5388 107.034 23.5271C106.686 23.533 106.338 23.5022 105.996 23.4353C105.722 23.3733 105.489 23.3113 105.3 23.2515L105.494 22.333C105.749 22.4186 106.013 22.4764 106.281 22.5052C106.531 22.5336 106.783 22.5489 107.034 22.5511C107.795 22.5924 108.544 22.3468 109.134 21.8622C109.659 21.3937 109.933 20.678 109.956 19.715H106.598V18.7734Z" fill="#414042"/>
<path d="M120.011 23.4238H118.983V19.7151H114.943V23.4238H113.916V15.3862H114.943V18.785H118.983V15.3862H120.011V23.4238Z" fill="#414042"/>
<path d="M127.667 23.4238H123.204V15.3862H127.667V16.3507H124.243V18.785H127.37V19.7265H124.231V22.4593H127.655L127.667 23.4238Z" fill="#414042"/>
<path d="M131.604 23.4239H130.577V15.3863H132.928C133.342 15.3815 133.755 15.4294 134.156 15.5287C134.494 15.6152 134.811 15.7716 135.085 15.988C135.345 16.1943 135.549 16.4628 135.679 16.7688C135.824 17.1255 135.894 17.5087 135.884 17.894C135.884 18.7277 135.617 19.3661 135.081 19.8047C134.544 20.2433 133.796 20.4661 132.837 20.4661H131.604V23.4239ZM131.604 19.497H132.848C133.487 19.497 133.973 19.3668 134.305 19.1066C134.473 18.9599 134.605 18.7753 134.689 18.5678C134.773 18.3603 134.807 18.1357 134.789 17.9124C134.789 17.3613 134.624 16.9617 134.293 16.7183C133.962 16.4748 133.476 16.3508 132.837 16.3508H131.604V19.497Z" fill="#414042"/>
<path d="M139.536 23.4238H138.509V15.3862H142.743V16.3507H139.536V23.4238Z" fill="#414042"/>
<path d="M148.016 23.5273C147.502 23.5348 146.992 23.4372 146.516 23.2402C146.08 23.0547 145.69 22.7739 145.375 22.4181C145.048 22.042 144.801 21.6029 144.649 21.1275C144.476 20.5703 144.391 19.989 144.398 19.4051C144.39 18.8181 144.479 18.2338 144.66 17.6759C144.818 17.1939 145.07 16.7487 145.402 16.3669C145.718 16.012 146.108 15.732 146.544 15.5471C147.002 15.3517 147.495 15.2539 147.993 15.26C148.532 15.2493 149.067 15.3526 149.563 15.5632C150.002 15.7567 150.393 16.0471 150.705 16.4129C151.023 16.7976 151.261 17.2427 151.406 17.7218C151.566 18.2641 151.643 18.8279 151.634 19.3937C151.645 20.0036 151.552 20.6109 151.36 21.1895C151.2 21.6679 150.943 22.1081 150.607 22.4824C150.289 22.8255 149.899 23.0924 149.465 23.2632C149.003 23.4424 148.511 23.532 148.016 23.5273ZM148.119 22.5628C148.456 22.5781 148.792 22.5138 149.101 22.375C149.409 22.2363 149.681 22.0269 149.894 21.7636C150.324 21.2331 150.538 20.4408 150.538 19.3937C150.548 18.913 150.489 18.4335 150.362 17.9699C150.262 17.6124 150.089 17.2799 149.853 16.9939C149.639 16.7363 149.362 16.5386 149.05 16.4197C148.708 16.292 148.346 16.2297 147.982 16.236C147.645 16.2332 147.311 16.2997 147 16.4312C146.695 16.5608 146.425 16.7615 146.213 17.0168C145.976 17.3085 145.797 17.644 145.688 18.0043C145.551 18.4582 145.485 18.9309 145.494 19.4051C145.487 19.8714 145.551 20.336 145.683 20.783C145.79 21.1469 145.97 21.4846 146.213 21.7751C146.437 22.0367 146.722 22.2399 147.041 22.3676C147.385 22.5008 147.75 22.5671 148.119 22.5628Z" fill="#414042"/>
<path d="M160.318 23.4238H159.291V16.3393H155.514V23.4238H154.486V15.3862H160.318V23.4238Z" fill="#414042"/>
<path d="M164.542 23.4239H163.515V15.3863H165.866C166.279 15.3816 166.692 15.4295 167.094 15.5287C167.432 15.6152 167.748 15.7716 168.023 15.988C168.282 16.1943 168.486 16.4627 168.616 16.7688C168.762 17.1255 168.831 17.5087 168.822 17.894C168.822 18.7276 168.555 19.3661 168.018 19.8047C167.482 20.2433 166.733 20.4661 165.774 20.4661H164.542V23.4239ZM164.542 19.497H165.774C166.414 19.497 166.899 19.3668 167.231 19.1066C167.401 18.961 167.535 18.7769 167.621 18.5694C167.707 18.3618 167.743 18.1367 167.726 17.9124C167.726 17.3613 167.562 16.9617 167.231 16.7182C166.9 16.4748 166.414 16.3508 165.774 16.3508H164.542V19.497Z" fill="#414042"/>
<path d="M174.722 23.5273C174.208 23.5348 173.698 23.4372 173.222 23.2402C172.786 23.0547 172.396 22.7739 172.081 22.4181C171.753 22.0427 171.506 21.6033 171.355 21.1275C171.182 20.5703 171.097 19.989 171.104 19.4051C171.096 18.8181 171.185 18.2338 171.367 17.6759C171.524 17.1939 171.776 16.7487 172.108 16.3669C172.424 16.012 172.814 15.732 173.25 15.5471C173.708 15.3517 174.201 15.2539 174.699 15.26C175.238 15.2493 175.773 15.3526 176.27 15.5632C176.708 15.7567 177.099 16.0471 177.411 16.4129C177.729 16.7976 177.967 17.2427 178.112 17.7218C178.272 18.2641 178.349 18.8279 178.34 19.3937C178.351 20.0036 178.258 20.6109 178.066 21.1895C177.906 21.6679 177.649 22.1081 177.313 22.4824C176.995 22.8255 176.605 23.0924 176.171 23.2632C175.709 23.4424 175.217 23.532 174.722 23.5273ZM174.825 22.5628C175.162 22.5781 175.498 22.5138 175.807 22.375C176.115 22.2363 176.387 22.0269 176.601 21.7636C177.03 21.2331 177.244 20.4408 177.244 19.3937C177.253 18.9131 177.194 18.4337 177.068 17.9699C176.968 17.6124 176.795 17.2799 176.559 16.9939C176.345 16.7363 176.068 16.5386 175.756 16.4197C175.414 16.292 175.052 16.2297 174.688 16.236C174.351 16.2332 174.017 16.2997 173.706 16.4312C173.401 16.5608 173.131 16.7615 172.919 17.0168C172.682 17.3085 172.503 17.644 172.394 18.0043C172.257 18.4582 172.191 18.9309 172.2 19.4051C172.193 19.8714 172.257 20.336 172.389 20.783C172.496 21.1469 172.676 21.4846 172.919 21.7751C173.144 22.0367 173.428 22.2399 173.747 22.3676C174.091 22.5008 174.456 22.5671 174.825 22.5628Z" fill="#414042"/>
<path d="M189 23.4238H187.973L187.483 17.1315L185.462 23.4238H184.39L182.381 17.1545L181.879 23.4238H180.852L181.536 15.3862H182.792L184.949 22.2986L187.06 15.3862H188.316L189 23.4238Z" fill="#414042"/>
<path d="M61.3388 4.33813H60.791V48.7425H61.3388V4.33813Z" fill="#414042"/>
<path d="M70.2586 38.4679H69.4346V32.0379H71.3177C71.6492 32.034 71.9798 32.0726 72.3015 32.1527C72.5723 32.2193 72.8259 32.343 73.0457 32.5155C73.2532 32.6816 73.4163 32.8971 73.5204 33.1425C73.6385 33.4274 73.6952 33.7341 73.6871 34.0427C73.7044 34.3309 73.6552 34.6192 73.5431 34.8849C73.431 35.1507 73.2592 35.3867 73.0411 35.5744C72.612 35.9265 72.0132 36.1026 71.2447 36.1026H70.2586V38.4679ZM70.2586 35.3241H71.2447C71.6574 35.3526 72.0679 35.2419 72.4111 35.0095C72.5479 34.8934 72.6553 34.7462 72.7243 34.5801C72.7934 34.4139 72.8222 34.2337 72.8083 34.0542C72.8243 33.8741 72.7965 33.6928 72.7273 33.526C72.6581 33.3591 72.5496 33.2117 72.4111 33.0965C72.0625 32.8779 71.6545 32.7751 71.2447 32.8026H70.2586V35.3241Z" fill="#035FA2"/>
<path d="M78.3212 38.5598C77.9088 38.5663 77.4995 38.4882 77.1182 38.3301C76.769 38.1824 76.4571 37.958 76.2052 37.6733C75.9412 37.3699 75.7436 37.0138 75.6254 36.6285C75.485 36.183 75.4164 35.7178 75.4223 35.2506C75.4159 34.7826 75.4877 34.3168 75.6345 33.8727C75.7597 33.4898 75.96 33.136 76.2235 32.8324C76.476 32.5485 76.7878 32.3242 77.1365 32.1756C77.5039 32.0195 77.8995 31.9413 78.2983 31.946C78.73 31.937 79.1586 32.0199 79.5561 32.1894C79.9077 32.3476 80.2197 32.583 80.4691 32.8783C80.7245 33.1866 80.9155 33.5436 81.0306 33.9278C81.1641 34.3612 81.2296 34.8129 81.2246 35.2667C81.2317 35.7555 81.1545 36.2419 80.9964 36.7042C80.8689 37.0877 80.6637 37.4404 80.3938 37.7399C80.1397 38.0143 79.8277 38.2277 79.4807 38.3646C79.1101 38.5034 78.7165 38.5697 78.3212 38.5598ZM78.4033 37.7882C78.6734 37.8004 78.9426 37.7491 79.1895 37.6383C79.4363 37.5274 79.6541 37.3602 79.8254 37.1498C80.1739 36.7257 80.3481 36.0926 80.3481 35.2506C80.3558 34.863 80.3081 34.4763 80.2066 34.1023C80.1281 33.8131 79.9896 33.5439 79.8003 33.3124C79.6266 33.1072 79.4045 32.9493 79.1543 32.8531C78.8811 32.752 78.5917 32.7022 78.3006 32.7061C78.0311 32.7042 77.764 32.7573 77.5154 32.8623C77.2724 32.9645 77.056 33.1216 76.8831 33.3216C76.6929 33.5546 76.5502 33.823 76.4631 34.1115C76.2592 34.8422 76.2592 35.6153 76.4631 36.346C76.5488 36.6381 76.6933 36.9094 76.8877 37.1429C77.0675 37.3526 77.2955 37.515 77.5519 37.6159C77.8224 37.7269 78.1113 37.7853 78.4033 37.7882Z" fill="#035FA2"/>
<path d="M87.7273 38.2934C87.5299 38.3864 87.3211 38.4528 87.1064 38.4909C86.8497 38.5384 86.5891 38.5615 86.3281 38.5598C85.872 38.5666 85.4185 38.4887 84.9905 38.3301C84.6128 38.1918 84.2705 37.9705 83.9884 37.6825C83.7091 37.3922 83.4943 37.0454 83.3584 36.6652C83.2035 36.237 83.1262 35.7843 83.1301 35.3286C83.1249 34.8346 83.202 34.3433 83.3584 33.875C83.4896 33.4776 83.7045 33.1133 83.9884 32.8071C84.2658 32.5177 84.6044 32.2947 84.979 32.1549C85.3931 32.0003 85.8316 31.9225 86.2733 31.9253C86.5727 31.9188 86.872 31.945 87.1658 32.0034C87.36 32.0453 87.5508 32.1021 87.7364 32.1733L87.5812 32.899C87.3828 32.8271 87.1779 32.7748 86.9695 32.7428C86.7661 32.7129 86.561 32.6976 86.3555 32.6969C85.5946 32.6969 85.014 32.912 84.6138 33.3422C84.2136 33.7724 84.0143 34.4039 84.0158 35.2368C84.0107 35.6006 84.0678 35.9626 84.1847 36.3069C84.2857 36.6055 84.4492 36.8788 84.664 37.1084C84.8772 37.329 85.137 37.4985 85.4242 37.6044C85.7491 37.722 86.0924 37.7796 86.4376 37.7744C86.642 37.7741 86.8459 37.7556 87.0471 37.7193C87.2355 37.6875 87.4185 37.6287 87.5904 37.5447L87.7273 38.2934Z" fill="#035FA2"/>
<path d="M93.477 36.7435H90.7379L90.117 38.4635H89.2861L91.7262 32.0334H92.548L94.9447 38.4635H94.0887L93.477 36.7435ZM91.0072 35.9902H93.2122L92.1417 32.9635H92.1052L91.0072 35.9902Z" fill="#035FA2"/>
<path d="M98.3029 38.468H97.4812V32.8026H95.5889V32.031H100.207V32.8026H98.3143L98.3029 38.468Z" fill="#035FA2"/>
<path d="M104.466 38.5598C104.053 38.5666 103.644 38.4885 103.263 38.3301C102.913 38.1833 102.601 37.9588 102.35 37.6733C102.086 37.3694 101.888 37.0136 101.768 36.6285C101.628 36.1829 101.56 35.7177 101.567 35.2506C101.561 34.7828 101.632 34.3172 101.777 33.8727C101.904 33.4901 102.105 33.1365 102.368 32.8324C102.62 32.548 102.932 32.3236 103.281 32.1756C103.648 32.0193 104.044 31.9411 104.443 31.946C104.874 31.937 105.302 32.0199 105.698 32.1894C106.05 32.3472 106.362 32.5827 106.611 32.8783C106.867 33.1866 107.058 33.5436 107.173 33.9278C107.304 34.3616 107.369 34.8131 107.365 35.2667C107.371 35.7554 107.293 36.2416 107.136 36.7042C107.009 37.0877 106.804 37.4404 106.534 37.7399C106.28 38.0146 105.968 38.2281 105.621 38.3646C105.252 38.5031 104.86 38.5694 104.466 38.5598ZM104.548 37.7882C104.818 37.8006 105.087 37.7493 105.333 37.6385C105.58 37.5276 105.797 37.3603 105.968 37.1498C106.312 36.7226 106.484 36.0896 106.486 35.2506C106.494 34.863 106.446 34.4763 106.344 34.1024C106.265 33.813 106.126 33.5438 105.936 33.3124C105.763 33.1069 105.542 32.9488 105.292 32.8531C105.019 32.7524 104.729 32.7026 104.438 32.7061C104.168 32.7044 103.9 32.7575 103.651 32.8623C103.408 32.964 103.192 33.1212 103.021 33.3216C102.83 33.5539 102.687 33.8225 102.601 34.1115C102.49 34.4752 102.438 34.8543 102.446 35.2345C102.439 35.6106 102.49 35.9854 102.596 36.346C102.682 36.6381 102.826 36.9094 103.021 37.1429C103.2 37.352 103.427 37.5143 103.683 37.6159C103.956 37.7275 104.248 37.786 104.543 37.7882H104.548Z" fill="#035FA2"/>
<path d="M115.81 38.4679H114.986L114.587 33.4387L112.969 38.4679H112.11L110.501 33.4571L110.099 38.4679H109.275L109.823 32.0378H110.83L112.558 37.5746L114.249 32.0378H115.272L115.81 38.4679Z" fill="#035FA2"/>
<path d="M30.646 30.2765C29.9122 31.0901 28.9552 31.6667 27.8958 31.9333C26.8365 32.2 25.7223 32.1447 24.6942 31.7746C23.666 31.4045 22.7699 30.7361 22.1192 29.8538C21.4685 28.9716 21.0922 27.9151 21.0381 26.8178C20.9839 25.7205 21.2542 24.6317 21.8148 23.6889C22.3754 22.7461 23.2012 21.9917 24.1879 21.5208C25.1745 21.05 26.2777 20.884 27.3581 21.0436C28.4385 21.2033 29.4476 21.6816 30.258 22.4181C30.7994 22.9064 31.2393 23.498 31.5522 24.1584C31.8651 24.8189 32.0448 25.5352 32.0809 26.2659C32.1169 26.9966 32.0087 27.7273 31.7624 28.4157C31.5161 29.1041 31.1367 29.7366 30.646 30.2765Z" fill="url(#paint0_radial_285_4009)"/>
<path d="M27.9918 7.50719C28.4415 7.94861 28.8681 8.41311 29.2701 8.89884C30.6025 10.5004 31.6995 12.2861 32.5274 14.2014C33.8364 14.446 35.1694 14.5354 36.4991 14.4678H36.7274C36.8027 14.4678 36.8689 14.4517 36.9442 14.4471C39.6834 14.1991 43.2191 13.145 46.4627 9.87713C46.5745 9.76461 46.691 9.64749 46.796 9.52807C46.2938 8.9241 45.7756 8.32932 45.2141 7.76209C40.7225 3.25684 34.77 0.527305 28.4437 0.071957C22.1173 -0.383391 15.8392 1.46583 10.7559 5.28192C18.8751 1.32052 24.4994 4.05101 27.9918 7.50719Z" fill="url(#paint1_linear_285_4009)"/>
<path d="M9.29205 34.4974C9.44774 33.8851 9.6344 33.2811 9.85129 32.6878C10.562 30.7259 11.549 28.8767 12.7822 27.197C12.3411 25.9336 11.7542 24.7266 11.0337 23.6007C10.9903 23.5318 10.9538 23.4675 10.9081 23.3986C10.8625 23.3298 10.8237 23.2838 10.7826 23.2218C9.2076 20.9667 6.52781 18.4038 2.09271 17.2235C1.93977 17.1821 1.78227 17.1454 1.63618 17.1086C1.36912 17.8366 1.10434 18.5853 0.896619 19.3569C-0.737457 25.5239 -0.111863 32.0765 2.65913 37.8178C5.43012 43.5591 10.1616 48.106 15.9892 50.6278C8.5251 45.5342 8.06401 39.2695 9.29205 34.4974Z" fill="url(#paint2_linear_285_4009)"/>
<path d="M41.9382 37.3245C41.3105 37.5014 40.6965 37.6369 40.1122 37.7425C38.0666 38.1024 35.9804 38.165 33.9172 37.9285C33.0499 38.9452 32.3037 40.0604 31.6939 41.2515C31.6597 41.3227 31.6231 41.387 31.5866 41.4628C31.5501 41.5386 31.5273 41.5937 31.4976 41.6603C30.3449 44.1611 29.4775 47.778 30.6713 52.2378C30.7124 52.3916 30.7603 52.5478 30.806 52.697C31.5752 52.5616 32.3444 52.4054 33.1137 52.201C39.2358 50.5397 44.5599 46.7187 48.1139 41.4356C51.668 36.1524 53.215 29.7596 52.4725 23.4241C51.8151 32.4744 46.661 36.011 41.9382 37.3245Z" fill="url(#paint3_linear_285_4009)"/>
<path d="M10.7554 5.28184C10.7554 5.28184 5.02147 8.88957 2.03125 16.1372C4.75417 16.7197 7.27571 18.0158 9.34047 19.8943C11.4052 21.7728 12.9399 24.1669 13.789 26.8341C14.5171 26.3748 16.7564 24.5905 18.256 19.6921C20.0707 13.7787 23.5106 9.41546 27.9914 7.50711C27.9914 7.50711 22.3282 -0.615472 10.7554 5.28184Z" fill="url(#paint4_linear_285_4009)"/>
<path d="M28.9161 47.8928C28.9161 44.8936 29.7424 40.9208 33.0545 37.1798L33.0933 37.1224C32.5523 36.5414 30.6577 35.1084 25.7889 36.2245C19.7857 37.6024 13.1615 37.4439 9.29023 34.4976C9.29023 34.4976 5.12904 43.4928 15.9874 50.6279C15.9874 50.6279 21.9541 53.8108 29.6831 52.8049C29.1604 51.2212 28.9012 49.5615 28.9161 47.8928Z" fill="url(#paint5_linear_285_4009)"/>
<path d="M47.4918 10.3938C46.0307 12.0642 44.2333 13.4029 42.2188 14.321C40.2043 15.2392 38.0187 15.7158 35.8071 15.7193C34.6412 15.7171 33.4786 15.5948 32.3375 15.3542L32.2782 15.3404C32.0499 16.1648 31.8719 18.5003 35.1771 22.0851C39.3611 26.6275 42.5362 32.4789 41.9382 37.3244C41.9382 37.3244 51.7534 36.4517 52.4724 23.4216C52.4724 23.4239 52.2304 16.6264 47.4918 10.3938Z" fill="url(#paint6_linear_285_4009)"/>
</g>
<defs>
<radialGradient id="paint0_radial_285_4009" cx="0" cy="0" r="1" gradientUnits="userSpaceOnUse" gradientTransform="translate(33.8757 22.9671) scale(7.46162 7.5069)">
<stop stop-color="#4495D1"/>
<stop offset="1" stop-color="#15256D"/>
</radialGradient>
<linearGradient id="paint1_linear_285_4009" x1="18.9847" y1="1.78427" x2="42.237" y2="11.0921" gradientUnits="userSpaceOnUse">
<stop stop-color="#4495D1"/>
<stop offset="1" stop-color="#15256D"/>
</linearGradient>
<linearGradient id="paint2_linear_285_4009" x1="8.87426" y1="45.1972" x2="5.32245" y2="20.2731" gradientUnits="userSpaceOnUse">
<stop stop-color="#4495D1"/>
<stop offset="1" stop-color="#15256D"/>
</linearGradient>
<linearGradient id="paint3_linear_285_4009" x1="51.352" y1="32.3424" x2="31.5588" y2="47.7488" gradientUnits="userSpaceOnUse">
<stop stop-color="#4495D1"/>
<stop offset="1" stop-color="#15256D"/>
</linearGradient>
<linearGradient id="paint4_linear_285_4009" x1="9.69625" y1="19.66" x2="20.2189" y2="3.60854" gradientUnits="userSpaceOnUse">
<stop stop-color="#4495D1"/>
<stop offset="1" stop-color="#15256D"/>
</linearGradient>
<linearGradient id="paint5_linear_285_4009" x1="29.4388" y1="42.6339" x2="10.7168" y2="44.5309" gradientUnits="userSpaceOnUse">
<stop stop-color="#4495D1"/>
<stop offset="1" stop-color="#15256D"/>
</linearGradient>
<linearGradient id="paint6_linear_285_4009" x1="41.4908" y1="15.3932" x2="45.352" y2="34.7641" gradientUnits="userSpaceOnUse">
<stop stop-color="#4495D1"/>
<stop offset="1" stop-color="#15256D"/>
</linearGradient>
<clipPath id="clip0_285_4009">
<rect width="189" height="53" fill="white"/>
</clipPath>
</defs>
</svg>
