<svg width="124" height="44" viewBox="0 0 124 44" fill="none" xmlns="http://www.w3.org/2000/svg">
<path d="M54.8044 7.24072H59.7625V16.8279C59.7625 17.7786 59.6126 18.6781 59.3128 19.5264C59.0203 20.3674 58.5559 21.106 57.9197 21.7422C57.2908 22.3711 56.6289 22.8136 55.9342 23.0695C54.9689 23.4278 53.8098 23.607 52.4569 23.607C51.6745 23.607 50.8188 23.5522 49.8901 23.4425C48.9687 23.3328 48.1972 23.117 47.5756 22.7953C46.954 22.4662 46.3836 22.0018 45.8644 21.4022C45.3525 20.8025 45.0014 20.1846 44.8113 19.5483C44.5042 18.5245 44.3506 17.6177 44.3506 16.8279V7.24072H49.3087V17.0583C49.3087 17.9358 49.5501 18.6233 50.0327 19.1205C50.5227 19.6105 51.1991 19.8555 52.062 19.8555C52.9177 19.8555 53.5868 19.6142 54.0694 19.1315C54.5594 18.6415 54.8044 17.9505 54.8044 17.0583V7.24072Z" fill="#2B76F8"/>
<path d="M63.1191 23.3218V7.24072H71.401C72.9367 7.24072 74.1104 7.37235 74.9222 7.63562C75.7339 7.89888 76.3884 8.38885 76.8857 9.10551C77.383 9.81486 77.6316 10.6814 77.6316 11.7053C77.6316 12.5974 77.4415 13.3689 77.0612 14.0198C76.6809 14.6633 76.1581 15.1862 75.4926 15.5884C75.0684 15.8444 74.4871 16.0564 73.7485 16.2246C74.3408 16.4221 74.7723 16.6195 75.0428 16.817C75.2257 16.9486 75.4889 17.2301 75.8326 17.6616C76.1836 18.0931 76.4177 18.4258 76.5347 18.6598L78.937 23.3218H73.3206L70.6661 18.4075C70.3297 17.7713 70.0298 17.3581 69.7666 17.168C69.4082 16.9194 69.0024 16.795 68.549 16.795H68.1102V23.3218H63.1191ZM68.1102 13.7565H70.2054C70.4321 13.7565 70.8708 13.6834 71.5217 13.5371C71.8508 13.4713 72.1177 13.3031 72.3224 13.0325C72.5345 12.762 72.6405 12.4512 72.6405 12.1001C72.6405 11.5809 72.476 11.1824 72.1469 10.9045C71.8178 10.6266 71.1999 10.4877 70.2931 10.4877H68.1102V13.7565Z" fill="#2B76F8"/>
<path d="M90.4328 20.6672H84.7727L83.9938 23.3218H78.915L84.9591 7.24072H90.378L96.4221 23.3218H91.2226L90.4328 20.6672ZM89.3907 17.1899L87.6137 11.4091L85.8476 17.1899H89.3907Z" fill="#2B76F8"/>
<path d="M98.0236 7.24072H102.993V19.3619H110.748V23.3218H98.0236V7.24072Z" fill="#2B76F8"/>
<path d="M33.3825 34.248C33.3825 32.1931 33.9549 30.5932 35.0997 29.4484C36.2445 28.3036 37.8386 27.7312 39.8821 27.7312C41.9771 27.7312 43.5912 28.295 44.7246 29.4227C45.8579 30.5446 46.4246 32.1187 46.4246 34.145C46.4246 35.616 46.1756 36.8238 45.6776 37.7683C45.1854 38.707 44.4699 39.4397 43.5311 39.9663C42.5981 40.4872 41.4333 40.7476 40.0366 40.7476C38.6171 40.7476 37.4408 40.5215 36.5078 40.0693C35.5805 39.6171 34.8278 38.9016 34.2497 37.9228C33.6715 36.944 33.3825 35.7191 33.3825 34.248ZM37.2719 34.2652C37.2719 35.5359 37.5066 36.4489 37.976 37.0041C38.4511 37.5593 39.095 37.837 39.9078 37.837C40.7435 37.837 41.3904 37.5651 41.8483 37.0213C42.3062 36.4775 42.5352 35.5016 42.5352 34.0935C42.5352 32.9086 42.2948 32.0443 41.8139 31.5005C41.3388 30.951 40.692 30.6762 39.8735 30.6762C39.0893 30.6762 38.4597 30.9538 37.9846 31.5091C37.5095 32.0643 37.2719 32.983 37.2719 34.2652ZM48.6741 27.9459H52.5722V40.533H48.6741V27.9459ZM55.3712 27.9459H59.2607V37.4334H65.331V40.533H55.3712V27.9459Z" fill="#2C3446"/>
<path d="M77.8059 34.4111L80.5362 35.0207C80.3931 35.5245 80.2558 35.928 80.1241 36.2314C79.9925 36.5347 79.8064 36.8925 79.566 37.3046L80.8797 38.2062C81.0399 38.3092 81.246 38.4323 81.4979 38.5754L79.6175 40.739C79.2741 40.5559 78.9163 40.3441 78.5443 40.1037C78.1779 39.8633 77.8488 39.6572 77.5569 39.4855C76.9501 39.8861 76.3434 40.1781 75.7367 40.3612C74.8952 40.6131 73.9393 40.739 72.8689 40.739C71.1918 40.739 69.944 40.3899 69.1254 39.6915C68.3069 38.9932 67.8976 38.1461 67.8976 37.1501C67.8976 36.4346 68.1381 35.7591 68.6189 35.1238C69.0997 34.4827 69.8867 33.9418 70.98 33.501C70.5221 32.9458 70.2073 32.465 70.0356 32.0586C69.8638 31.6464 69.778 31.2286 69.778 30.805C69.778 29.9121 70.1186 29.1765 70.7997 28.5984C71.4809 28.0203 72.514 27.7312 73.8993 27.7312C75.3131 27.7312 76.352 28.006 77.016 28.5555C77.68 29.105 78.012 29.7633 78.012 30.5303C78.012 30.9596 77.9089 31.3717 77.7029 31.7667C77.5025 32.1616 77.2592 32.4822 76.973 32.7283C76.6868 32.9744 76.1745 33.3408 75.4362 33.8273C76.0486 34.4398 76.6868 35.0093 77.3508 35.5359C77.5283 35.181 77.68 34.8061 77.8059 34.4111ZM73.7876 32.2045C74.2398 31.9584 74.589 31.6922 74.8351 31.406C75.0813 31.1141 75.2043 30.8394 75.2043 30.5818C75.2043 30.3128 75.1013 30.0867 74.8952 29.9035C74.6892 29.7146 74.4058 29.6202 74.0452 29.6202C73.6903 29.6202 73.4013 29.7232 73.178 29.9292C72.9548 30.1353 72.8432 30.3786 72.8432 30.6591C72.8432 31.0139 73.158 31.5291 73.7876 32.2045ZM72.5427 35.2612C72.0619 35.5989 71.7413 35.8879 71.581 36.1283C71.4265 36.3687 71.3492 36.6235 71.3492 36.8925C71.3492 37.3103 71.5295 37.6824 71.8901 38.0087C72.2507 38.3349 72.7201 38.4981 73.2982 38.4981C73.9222 38.4981 74.6233 38.2548 75.4018 37.7683C74.6577 37.1959 73.7046 36.3602 72.5427 35.2612Z" fill="#2B76F8"/>
<path d="M90.1998 35.9738V33.3551H96.21V38.7213C95.0594 39.5055 94.0406 40.0407 93.1534 40.3269C92.2719 40.6074 91.2244 40.7476 90.0109 40.7476C88.5169 40.7476 87.2977 40.4929 86.3532 39.9835C85.4145 39.474 84.6847 38.7156 84.1638 37.7082C83.6486 36.7007 83.3911 35.5445 83.3911 34.2394C83.3911 32.8657 83.6744 31.6722 84.2411 30.6591C84.8078 29.6402 85.6377 28.8674 86.731 28.3408C87.5839 27.9344 88.7316 27.7312 90.174 27.7312C91.5649 27.7312 92.6038 27.8572 93.2907 28.109C93.9833 28.3609 94.5557 28.753 95.0079 29.2853C95.4658 29.8119 95.8093 30.4816 96.0382 31.2944L92.2862 31.9641C92.1316 31.489 91.8683 31.1256 91.4963 30.8737C91.1299 30.6219 90.6605 30.4959 90.0881 30.4959C89.2353 30.4959 88.5541 30.7936 88.0447 31.3889C87.541 31.9784 87.2891 32.9143 87.2891 34.1965C87.2891 35.5588 87.5438 36.5319 88.0533 37.1157C88.5684 37.6996 89.2839 37.9915 90.1998 37.9915C90.6348 37.9915 91.0498 37.9285 91.4447 37.8026C91.8397 37.6767 92.2919 37.462 92.8013 37.1587V35.9738H90.1998ZM106.264 38.4551H101.834L101.224 40.533H97.2489L101.98 27.9459H106.221L110.952 40.533H106.882L106.264 38.4551ZM105.449 35.7334L104.058 31.2086L102.675 35.7334H105.449ZM111.527 36.3687L115.228 36.1369C115.308 36.7379 115.471 37.1959 115.717 37.5107C116.118 38.0201 116.69 38.2748 117.435 38.2748C117.99 38.2748 118.416 38.1461 118.714 37.8885C119.017 37.6252 119.169 37.3218 119.169 36.9784C119.169 36.6521 119.026 36.3602 118.74 36.1026C118.453 35.845 117.789 35.6017 116.748 35.3728C115.042 34.9893 113.826 34.4798 113.099 33.8445C112.366 33.2091 112 32.3992 112 31.4146C112 30.7678 112.186 30.1582 112.558 29.5858C112.935 29.0077 113.499 28.5555 114.249 28.2292C115.005 27.8972 116.038 27.7312 117.349 27.7312C118.957 27.7312 120.182 28.0317 121.024 28.6328C121.871 29.2281 122.374 30.1782 122.535 31.4833L118.868 31.698C118.771 31.1313 118.565 30.7192 118.25 30.4616C117.941 30.204 117.512 30.0752 116.962 30.0752C116.51 30.0752 116.17 30.1725 115.941 30.3671C115.712 30.556 115.597 30.7878 115.597 31.0626C115.597 31.2629 115.692 31.4432 115.88 31.6035C116.064 31.7695 116.499 31.9241 117.186 32.0672C118.886 32.4335 120.102 32.8056 120.835 33.1833C121.573 33.5554 122.108 34.019 122.44 34.5743C122.778 35.1295 122.947 35.7506 122.947 36.4374C122.947 37.2445 122.724 37.9886 122.277 38.6698C121.831 39.351 121.207 39.869 120.405 40.2239C119.604 40.573 118.594 40.7476 117.374 40.7476C115.234 40.7476 113.751 40.3355 112.927 39.5112C112.103 38.687 111.636 37.6395 111.527 36.3687Z" fill="#2C3446"/>
<path d="M26.2026 32.0554C26.2463 31.6193 26.2687 31.177 26.2687 30.7294C26.2687 28.3284 25.6244 26.0779 24.4994 24.1413C20.2084 16.4833 14.1256 4.2129 14.1256 4.2129C14.1256 4.2129 12.6387 3.96508 12.6387 2.97381L10.904 5.69981C10.904 5.69981 10.2928 7.48072 10.1605 8.67362C9.93421 10.7141 10.0872 11.9943 10.904 13.8778C11.9661 16.3272 14.2908 18.1733 15.6125 18.8341C15.8745 18.9691 16.1437 19.1051 16.4183 19.2438C19.0019 20.5489 22.0643 22.0958 24.0383 25.2774C25.3112 27.329 25.998 30.8605 26.2026 32.0554Z" fill="#2B76F8"/>
<path d="M26.05 33.1289C24.9224 39.237 19.5687 43.8637 13.1343 43.8637C5.88044 43.8637 0 37.9833 0 30.7294C0 28.388 0.612647 26.1898 1.68635 24.2861L3.7173 20.3341C3.72065 21.7448 4.64658 23.7905 6.19544 25.0296C7.7443 26.2687 9.43716 26.66 11.6474 27.2599C15.6023 28.3333 19.3298 28.086 22.0558 28.9947C24.7818 29.9033 26.1145 31.5659 26.05 33.1289Z" fill="#2C3446"/>
<path d="M12.8865 0C12.8865 1.18953 10.904 5.69981 10.904 5.69981L14.1256 4.2129C14.1256 4.2129 13.63 3.22163 12.8865 0Z" fill="#2B76F8"/>
<path d="M12.8865 0C12.8865 1.18953 10.904 5.69981 10.904 5.69981L14.1256 4.2129C14.1256 4.2129 13.63 3.22163 12.8865 0Z" fill="#2B76F8"/>
</svg>
